%
M48
M72
T01C0.02756
T02C0.04000
%
T01
X11446Y104162
X11446Y112036
X11446Y119910
X88414Y171091
X112036Y139595
X194280Y62824
X182902Y49044
X194280Y43139
X174280Y39202
X169280Y37233
X164280Y39202
X154280Y39202
X159280Y49044
X139280Y33296
X218335Y25422
X222272Y21485
X218335Y17548
X222272Y29359
X226209Y72666
X230146Y76603
X226209Y80540
X230146Y84477
X334674Y104162
X334674Y112036
X334674Y119910
T02
X204280Y12548
X194280Y12548
X184280Y12548
X174280Y12548
X164280Y12548
X154280Y12548
X144280Y12548
X134280Y12548
X124280Y12548
X114280Y12548
X114280Y22548
X124280Y22548
X134280Y22548
X144280Y22548
X154280Y22548
X164280Y22548
X174280Y22548
X184280Y22548
X194280Y22548
X204280Y22548
X312824Y112036
X316761Y194713
X306761Y194713
X265580Y194713
X255580Y194713
X214398Y194713
X204398Y194713
X163217Y194713
X153217Y194713
X119910Y238020
X109910Y238020
X72666Y218335
X62666Y218335
X153217Y249831
X163217Y249831
X204398Y249831
X214398Y249831
X255580Y249831
X265580Y249831
X306761Y249831
X316761Y249831
X186839Y131721
X176839Y131721
X163217Y131721
X153217Y131721
X139595Y131721
X129595Y131721
X33296Y112036
M30
