%
M48
M72
T01C0.01969
T02C0.02362
T03C0.02756
T04C0.04000
%
T01
X68729Y47076
X68729Y76603
X135658Y74635
X147469Y74635
X159280Y70698
X171091Y72666
X194280Y62824
X194280Y43139
X174280Y39202
X169280Y37233
X164280Y39202
X159280Y49044
X171091Y49044
X147469Y47076
X135658Y47076
X139280Y33296
X218335Y25422
X222272Y21485
X218335Y17548
X222272Y29359
X222272Y68729
X226209Y72666
X230146Y76603
X226209Y80540
X230146Y84477
X112036Y139595
X88414Y171091
X33296Y202587
T02
X182902Y49044
T03
X334674Y104162
X334674Y112036
X334674Y119910
X11446Y119910
X11446Y112036
X11446Y104162
T04
X114280Y12548
X124280Y12548
X134280Y12548
X144280Y12548
X154280Y12548
X164280Y12548
X174280Y12548
X184280Y12548
X194280Y12548
X204280Y12548
X204280Y22548
X194280Y22548
X184280Y22548
X174280Y22548
X164280Y22548
X154280Y22548
X144280Y22548
X134280Y22548
X124280Y22548
X114280Y22548
X33296Y112036
X129595Y131721
X139595Y131721
X153217Y131721
X163217Y131721
X176839Y131721
X186839Y131721
X204398Y194713
X214398Y194713
X255580Y194713
X265580Y194713
X306761Y194713
X316761Y194713
X316761Y249831
X306761Y249831
X265580Y249831
X255580Y249831
X214398Y249831
X204398Y249831
X163217Y249831
X153217Y249831
X119910Y238020
X109910Y238020
X72666Y218335
X62666Y218335
X153217Y194713
X163217Y194713
X312824Y112036
M30
