G75*
%MOIN*%
%OFA0B0*%
%FSLAX25Y25*%
%IPPOS*%
%LPD*%
%AMOC8*
5,1,8,0,0,1.08239X$1,22.5*
%
%ADD10C,0.00000*%
%ADD11C,0.08200*%
%ADD12C,0.07099*%
%ADD13C,0.05156*%
D10*
X0005737Y0001800D02*
X0340383Y0001800D01*
X0340507Y0001802D01*
X0340630Y0001808D01*
X0340754Y0001817D01*
X0340876Y0001831D01*
X0340999Y0001848D01*
X0341121Y0001870D01*
X0341242Y0001895D01*
X0341362Y0001924D01*
X0341481Y0001956D01*
X0341600Y0001993D01*
X0341717Y0002033D01*
X0341832Y0002076D01*
X0341947Y0002124D01*
X0342059Y0002175D01*
X0342170Y0002229D01*
X0342280Y0002287D01*
X0342387Y0002348D01*
X0342493Y0002413D01*
X0342596Y0002481D01*
X0342697Y0002552D01*
X0342796Y0002626D01*
X0342893Y0002703D01*
X0342987Y0002784D01*
X0343078Y0002867D01*
X0343167Y0002953D01*
X0343253Y0003042D01*
X0343336Y0003133D01*
X0343417Y0003227D01*
X0343494Y0003324D01*
X0343568Y0003423D01*
X0343639Y0003524D01*
X0343707Y0003627D01*
X0343772Y0003733D01*
X0343833Y0003840D01*
X0343891Y0003950D01*
X0343945Y0004061D01*
X0343996Y0004173D01*
X0344044Y0004288D01*
X0344087Y0004403D01*
X0344127Y0004520D01*
X0344164Y0004639D01*
X0344196Y0004758D01*
X0344225Y0004878D01*
X0344250Y0004999D01*
X0344272Y0005121D01*
X0344289Y0005244D01*
X0344303Y0005366D01*
X0344312Y0005490D01*
X0344318Y0005613D01*
X0344320Y0005737D01*
X0344320Y0261643D01*
X0344318Y0261767D01*
X0344312Y0261890D01*
X0344303Y0262014D01*
X0344289Y0262136D01*
X0344272Y0262259D01*
X0344250Y0262381D01*
X0344225Y0262502D01*
X0344196Y0262622D01*
X0344164Y0262741D01*
X0344127Y0262860D01*
X0344087Y0262977D01*
X0344044Y0263092D01*
X0343996Y0263207D01*
X0343945Y0263319D01*
X0343891Y0263430D01*
X0343833Y0263540D01*
X0343772Y0263647D01*
X0343707Y0263753D01*
X0343639Y0263856D01*
X0343568Y0263957D01*
X0343494Y0264056D01*
X0343417Y0264153D01*
X0343336Y0264247D01*
X0343253Y0264338D01*
X0343167Y0264427D01*
X0343078Y0264513D01*
X0342987Y0264596D01*
X0342893Y0264677D01*
X0342796Y0264754D01*
X0342697Y0264828D01*
X0342596Y0264899D01*
X0342493Y0264967D01*
X0342387Y0265032D01*
X0342280Y0265093D01*
X0342170Y0265151D01*
X0342059Y0265205D01*
X0341947Y0265256D01*
X0341832Y0265304D01*
X0341717Y0265347D01*
X0341600Y0265387D01*
X0341481Y0265424D01*
X0341362Y0265456D01*
X0341242Y0265485D01*
X0341121Y0265510D01*
X0340999Y0265532D01*
X0340876Y0265549D01*
X0340754Y0265563D01*
X0340630Y0265572D01*
X0340507Y0265578D01*
X0340383Y0265580D01*
X0005737Y0265580D01*
X0005613Y0265578D01*
X0005490Y0265572D01*
X0005366Y0265563D01*
X0005244Y0265549D01*
X0005121Y0265532D01*
X0004999Y0265510D01*
X0004878Y0265485D01*
X0004758Y0265456D01*
X0004639Y0265424D01*
X0004520Y0265387D01*
X0004403Y0265347D01*
X0004288Y0265304D01*
X0004173Y0265256D01*
X0004061Y0265205D01*
X0003950Y0265151D01*
X0003840Y0265093D01*
X0003733Y0265032D01*
X0003627Y0264967D01*
X0003524Y0264899D01*
X0003423Y0264828D01*
X0003324Y0264754D01*
X0003227Y0264677D01*
X0003133Y0264596D01*
X0003042Y0264513D01*
X0002953Y0264427D01*
X0002867Y0264338D01*
X0002784Y0264247D01*
X0002703Y0264153D01*
X0002626Y0264056D01*
X0002552Y0263957D01*
X0002481Y0263856D01*
X0002413Y0263753D01*
X0002348Y0263647D01*
X0002287Y0263540D01*
X0002229Y0263430D01*
X0002175Y0263319D01*
X0002124Y0263207D01*
X0002076Y0263092D01*
X0002033Y0262977D01*
X0001993Y0262860D01*
X0001956Y0262741D01*
X0001924Y0262622D01*
X0001895Y0262502D01*
X0001870Y0262381D01*
X0001848Y0262259D01*
X0001831Y0262136D01*
X0001817Y0262014D01*
X0001808Y0261890D01*
X0001802Y0261767D01*
X0001800Y0261643D01*
X0001800Y0005737D01*
X0001802Y0005613D01*
X0001808Y0005490D01*
X0001817Y0005366D01*
X0001831Y0005244D01*
X0001848Y0005121D01*
X0001870Y0004999D01*
X0001895Y0004878D01*
X0001924Y0004758D01*
X0001956Y0004639D01*
X0001993Y0004520D01*
X0002033Y0004403D01*
X0002076Y0004288D01*
X0002124Y0004173D01*
X0002175Y0004061D01*
X0002229Y0003950D01*
X0002287Y0003840D01*
X0002348Y0003733D01*
X0002413Y0003627D01*
X0002481Y0003524D01*
X0002552Y0003423D01*
X0002626Y0003324D01*
X0002703Y0003227D01*
X0002784Y0003133D01*
X0002867Y0003042D01*
X0002953Y0002953D01*
X0003042Y0002867D01*
X0003133Y0002784D01*
X0003227Y0002703D01*
X0003324Y0002626D01*
X0003423Y0002552D01*
X0003524Y0002481D01*
X0003627Y0002413D01*
X0003733Y0002348D01*
X0003840Y0002287D01*
X0003950Y0002229D01*
X0004061Y0002175D01*
X0004173Y0002124D01*
X0004288Y0002076D01*
X0004403Y0002033D01*
X0004520Y0001993D01*
X0004639Y0001956D01*
X0004758Y0001924D01*
X0004878Y0001895D01*
X0004999Y0001870D01*
X0005121Y0001848D01*
X0005244Y0001831D01*
X0005366Y0001817D01*
X0005490Y0001808D01*
X0005613Y0001802D01*
X0005737Y0001800D01*
D11*
X0114280Y0012548D03*
X0124280Y0012548D03*
X0134280Y0012548D03*
X0144280Y0012548D03*
X0154280Y0012548D03*
X0164280Y0012548D03*
X0174280Y0012548D03*
X0184280Y0012548D03*
X0194280Y0012548D03*
X0204280Y0012548D03*
X0204280Y0022548D03*
X0194280Y0022548D03*
X0184280Y0022548D03*
X0174280Y0022548D03*
X0164280Y0022548D03*
X0154280Y0022548D03*
X0144280Y0022548D03*
X0134280Y0022548D03*
X0124280Y0022548D03*
X0114280Y0022548D03*
X0033296Y0112036D03*
X0129595Y0131721D03*
X0139595Y0131721D03*
X0153217Y0131721D03*
X0163217Y0131721D03*
X0176839Y0131721D03*
X0186839Y0131721D03*
X0204398Y0194713D03*
X0214398Y0194713D03*
X0255580Y0194713D03*
X0265580Y0194713D03*
X0306761Y0194713D03*
X0316761Y0194713D03*
X0316761Y0249831D03*
X0306761Y0249831D03*
X0265580Y0249831D03*
X0255580Y0249831D03*
X0214398Y0249831D03*
X0204398Y0249831D03*
X0163217Y0249831D03*
X0153217Y0249831D03*
X0119910Y0238020D03*
X0109910Y0238020D03*
X0072666Y0218335D03*
X0062666Y0218335D03*
X0153217Y0194713D03*
X0163217Y0194713D03*
X0312824Y0112036D03*
D12*
X0334674Y0112036D03*
X0334674Y0104162D03*
X0334674Y0119910D03*
X0011446Y0119910D03*
X0011446Y0112036D03*
X0011446Y0104162D03*
D13*
X0088414Y0171091D03*
X0112036Y0139595D03*
X0194280Y0062824D03*
X0182902Y0049044D03*
X0194280Y0043139D03*
X0174280Y0039202D03*
X0169280Y0037233D03*
X0164280Y0039202D03*
X0154280Y0039202D03*
X0159280Y0049044D03*
X0139280Y0033296D03*
X0218335Y0025422D03*
X0222272Y0021485D03*
X0218335Y0017548D03*
X0222272Y0029359D03*
X0226209Y0072666D03*
X0230146Y0076603D03*
X0226209Y0080540D03*
X0230146Y0084477D03*
M02*
