G75*
%MOIN*%
%OFA0B0*%
%FSLAX25Y25*%
%IPPOS*%
%LPD*%
%AMOC8*
5,1,8,0,0,1.08239X$1,22.5*
%
%ADD10C,0.00000*%
%ADD11R,0.04442X0.03713*%
%ADD12C,0.13900*%
%ADD13R,0.12611X0.04343*%
%ADD14R,0.10249X0.08674*%
%ADD15R,0.09887X0.02769*%
%ADD16C,0.04737*%
%ADD17C,0.08200*%
%ADD18R,0.03556X0.04343*%
%ADD19R,0.03083X0.01784*%
%ADD20R,0.02178X0.03280*%
%ADD21C,0.04762*%
D10*
X0001500Y0005437D02*
X0001500Y0190476D01*
X0001502Y0190600D01*
X0001508Y0190723D01*
X0001517Y0190847D01*
X0001531Y0190969D01*
X0001548Y0191092D01*
X0001570Y0191214D01*
X0001595Y0191335D01*
X0001624Y0191455D01*
X0001656Y0191574D01*
X0001693Y0191693D01*
X0001733Y0191810D01*
X0001776Y0191925D01*
X0001824Y0192040D01*
X0001875Y0192152D01*
X0001929Y0192263D01*
X0001987Y0192373D01*
X0002048Y0192480D01*
X0002113Y0192586D01*
X0002181Y0192689D01*
X0002252Y0192790D01*
X0002326Y0192889D01*
X0002403Y0192986D01*
X0002484Y0193080D01*
X0002567Y0193171D01*
X0002653Y0193260D01*
X0002742Y0193346D01*
X0002833Y0193429D01*
X0002927Y0193510D01*
X0003024Y0193587D01*
X0003123Y0193661D01*
X0003224Y0193732D01*
X0003327Y0193800D01*
X0003433Y0193865D01*
X0003540Y0193926D01*
X0003650Y0193984D01*
X0003761Y0194038D01*
X0003873Y0194089D01*
X0003988Y0194137D01*
X0004103Y0194180D01*
X0004220Y0194220D01*
X0004339Y0194257D01*
X0004458Y0194289D01*
X0004578Y0194318D01*
X0004699Y0194343D01*
X0004821Y0194365D01*
X0004944Y0194382D01*
X0005066Y0194396D01*
X0005190Y0194405D01*
X0005313Y0194411D01*
X0005437Y0194413D01*
X0092051Y0194413D01*
X0092175Y0194411D01*
X0092298Y0194405D01*
X0092422Y0194396D01*
X0092544Y0194382D01*
X0092667Y0194365D01*
X0092789Y0194343D01*
X0092910Y0194318D01*
X0093030Y0194289D01*
X0093149Y0194257D01*
X0093268Y0194220D01*
X0093385Y0194180D01*
X0093500Y0194137D01*
X0093615Y0194089D01*
X0093727Y0194038D01*
X0093838Y0193984D01*
X0093948Y0193926D01*
X0094055Y0193865D01*
X0094161Y0193800D01*
X0094264Y0193732D01*
X0094365Y0193661D01*
X0094464Y0193587D01*
X0094561Y0193510D01*
X0094655Y0193429D01*
X0094746Y0193346D01*
X0094835Y0193260D01*
X0094921Y0193171D01*
X0095004Y0193080D01*
X0095085Y0192986D01*
X0095162Y0192889D01*
X0095236Y0192790D01*
X0095307Y0192689D01*
X0095375Y0192586D01*
X0095440Y0192480D01*
X0095501Y0192373D01*
X0095559Y0192263D01*
X0095613Y0192152D01*
X0095664Y0192040D01*
X0095712Y0191925D01*
X0095755Y0191810D01*
X0095795Y0191693D01*
X0095832Y0191574D01*
X0095864Y0191455D01*
X0095893Y0191335D01*
X0095918Y0191214D01*
X0095940Y0191092D01*
X0095957Y0190969D01*
X0095971Y0190847D01*
X0095980Y0190723D01*
X0095986Y0190600D01*
X0095988Y0190476D01*
X0095988Y0005437D01*
X0095986Y0005313D01*
X0095980Y0005190D01*
X0095971Y0005066D01*
X0095957Y0004944D01*
X0095940Y0004821D01*
X0095918Y0004699D01*
X0095893Y0004578D01*
X0095864Y0004458D01*
X0095832Y0004339D01*
X0095795Y0004220D01*
X0095755Y0004103D01*
X0095712Y0003988D01*
X0095664Y0003873D01*
X0095613Y0003761D01*
X0095559Y0003650D01*
X0095501Y0003540D01*
X0095440Y0003433D01*
X0095375Y0003327D01*
X0095307Y0003224D01*
X0095236Y0003123D01*
X0095162Y0003024D01*
X0095085Y0002927D01*
X0095004Y0002833D01*
X0094921Y0002742D01*
X0094835Y0002653D01*
X0094746Y0002567D01*
X0094655Y0002484D01*
X0094561Y0002403D01*
X0094464Y0002326D01*
X0094365Y0002252D01*
X0094264Y0002181D01*
X0094161Y0002113D01*
X0094055Y0002048D01*
X0093948Y0001987D01*
X0093838Y0001929D01*
X0093727Y0001875D01*
X0093615Y0001824D01*
X0093500Y0001776D01*
X0093385Y0001733D01*
X0093268Y0001693D01*
X0093149Y0001656D01*
X0093030Y0001624D01*
X0092910Y0001595D01*
X0092789Y0001570D01*
X0092667Y0001548D01*
X0092544Y0001531D01*
X0092422Y0001517D01*
X0092298Y0001508D01*
X0092175Y0001502D01*
X0092051Y0001500D01*
X0005437Y0001500D01*
X0005313Y0001502D01*
X0005190Y0001508D01*
X0005066Y0001517D01*
X0004944Y0001531D01*
X0004821Y0001548D01*
X0004699Y0001570D01*
X0004578Y0001595D01*
X0004458Y0001624D01*
X0004339Y0001656D01*
X0004220Y0001693D01*
X0004103Y0001733D01*
X0003988Y0001776D01*
X0003873Y0001824D01*
X0003761Y0001875D01*
X0003650Y0001929D01*
X0003540Y0001987D01*
X0003433Y0002048D01*
X0003327Y0002113D01*
X0003224Y0002181D01*
X0003123Y0002252D01*
X0003024Y0002326D01*
X0002927Y0002403D01*
X0002833Y0002484D01*
X0002742Y0002567D01*
X0002653Y0002653D01*
X0002567Y0002742D01*
X0002484Y0002833D01*
X0002403Y0002927D01*
X0002326Y0003024D01*
X0002252Y0003123D01*
X0002181Y0003224D01*
X0002113Y0003327D01*
X0002048Y0003433D01*
X0001987Y0003540D01*
X0001929Y0003650D01*
X0001875Y0003761D01*
X0001824Y0003873D01*
X0001776Y0003988D01*
X0001733Y0004103D01*
X0001693Y0004220D01*
X0001656Y0004339D01*
X0001624Y0004458D01*
X0001595Y0004578D01*
X0001570Y0004699D01*
X0001548Y0004821D01*
X0001531Y0004944D01*
X0001517Y0005066D01*
X0001508Y0005190D01*
X0001502Y0005313D01*
X0001500Y0005437D01*
X0023153Y0087327D02*
X0023155Y0087415D01*
X0023161Y0087503D01*
X0023171Y0087591D01*
X0023185Y0087679D01*
X0023202Y0087765D01*
X0023224Y0087851D01*
X0023249Y0087935D01*
X0023279Y0088019D01*
X0023311Y0088101D01*
X0023348Y0088181D01*
X0023388Y0088260D01*
X0023432Y0088337D01*
X0023479Y0088412D01*
X0023529Y0088484D01*
X0023583Y0088555D01*
X0023639Y0088622D01*
X0023699Y0088688D01*
X0023761Y0088750D01*
X0023827Y0088810D01*
X0023894Y0088866D01*
X0023965Y0088920D01*
X0024037Y0088970D01*
X0024112Y0089017D01*
X0024189Y0089061D01*
X0024268Y0089101D01*
X0024348Y0089138D01*
X0024430Y0089170D01*
X0024514Y0089200D01*
X0024598Y0089225D01*
X0024684Y0089247D01*
X0024770Y0089264D01*
X0024858Y0089278D01*
X0024946Y0089288D01*
X0025034Y0089294D01*
X0025122Y0089296D01*
X0025210Y0089294D01*
X0025298Y0089288D01*
X0025386Y0089278D01*
X0025474Y0089264D01*
X0025560Y0089247D01*
X0025646Y0089225D01*
X0025730Y0089200D01*
X0025814Y0089170D01*
X0025896Y0089138D01*
X0025976Y0089101D01*
X0026055Y0089061D01*
X0026132Y0089017D01*
X0026207Y0088970D01*
X0026279Y0088920D01*
X0026350Y0088866D01*
X0026417Y0088810D01*
X0026483Y0088750D01*
X0026545Y0088688D01*
X0026605Y0088622D01*
X0026661Y0088555D01*
X0026715Y0088484D01*
X0026765Y0088412D01*
X0026812Y0088337D01*
X0026856Y0088260D01*
X0026896Y0088181D01*
X0026933Y0088101D01*
X0026965Y0088019D01*
X0026995Y0087935D01*
X0027020Y0087851D01*
X0027042Y0087765D01*
X0027059Y0087679D01*
X0027073Y0087591D01*
X0027083Y0087503D01*
X0027089Y0087415D01*
X0027091Y0087327D01*
X0027089Y0087239D01*
X0027083Y0087151D01*
X0027073Y0087063D01*
X0027059Y0086975D01*
X0027042Y0086889D01*
X0027020Y0086803D01*
X0026995Y0086719D01*
X0026965Y0086635D01*
X0026933Y0086553D01*
X0026896Y0086473D01*
X0026856Y0086394D01*
X0026812Y0086317D01*
X0026765Y0086242D01*
X0026715Y0086170D01*
X0026661Y0086099D01*
X0026605Y0086032D01*
X0026545Y0085966D01*
X0026483Y0085904D01*
X0026417Y0085844D01*
X0026350Y0085788D01*
X0026279Y0085734D01*
X0026207Y0085684D01*
X0026132Y0085637D01*
X0026055Y0085593D01*
X0025976Y0085553D01*
X0025896Y0085516D01*
X0025814Y0085484D01*
X0025730Y0085454D01*
X0025646Y0085429D01*
X0025560Y0085407D01*
X0025474Y0085390D01*
X0025386Y0085376D01*
X0025298Y0085366D01*
X0025210Y0085360D01*
X0025122Y0085358D01*
X0025034Y0085360D01*
X0024946Y0085366D01*
X0024858Y0085376D01*
X0024770Y0085390D01*
X0024684Y0085407D01*
X0024598Y0085429D01*
X0024514Y0085454D01*
X0024430Y0085484D01*
X0024348Y0085516D01*
X0024268Y0085553D01*
X0024189Y0085593D01*
X0024112Y0085637D01*
X0024037Y0085684D01*
X0023965Y0085734D01*
X0023894Y0085788D01*
X0023827Y0085844D01*
X0023761Y0085904D01*
X0023699Y0085966D01*
X0023639Y0086032D01*
X0023583Y0086099D01*
X0023529Y0086170D01*
X0023479Y0086242D01*
X0023432Y0086317D01*
X0023388Y0086394D01*
X0023348Y0086473D01*
X0023311Y0086553D01*
X0023279Y0086635D01*
X0023249Y0086719D01*
X0023224Y0086803D01*
X0023202Y0086889D01*
X0023185Y0086975D01*
X0023171Y0087063D01*
X0023161Y0087151D01*
X0023155Y0087239D01*
X0023153Y0087327D01*
X0023153Y0104650D02*
X0023155Y0104738D01*
X0023161Y0104826D01*
X0023171Y0104914D01*
X0023185Y0105002D01*
X0023202Y0105088D01*
X0023224Y0105174D01*
X0023249Y0105258D01*
X0023279Y0105342D01*
X0023311Y0105424D01*
X0023348Y0105504D01*
X0023388Y0105583D01*
X0023432Y0105660D01*
X0023479Y0105735D01*
X0023529Y0105807D01*
X0023583Y0105878D01*
X0023639Y0105945D01*
X0023699Y0106011D01*
X0023761Y0106073D01*
X0023827Y0106133D01*
X0023894Y0106189D01*
X0023965Y0106243D01*
X0024037Y0106293D01*
X0024112Y0106340D01*
X0024189Y0106384D01*
X0024268Y0106424D01*
X0024348Y0106461D01*
X0024430Y0106493D01*
X0024514Y0106523D01*
X0024598Y0106548D01*
X0024684Y0106570D01*
X0024770Y0106587D01*
X0024858Y0106601D01*
X0024946Y0106611D01*
X0025034Y0106617D01*
X0025122Y0106619D01*
X0025210Y0106617D01*
X0025298Y0106611D01*
X0025386Y0106601D01*
X0025474Y0106587D01*
X0025560Y0106570D01*
X0025646Y0106548D01*
X0025730Y0106523D01*
X0025814Y0106493D01*
X0025896Y0106461D01*
X0025976Y0106424D01*
X0026055Y0106384D01*
X0026132Y0106340D01*
X0026207Y0106293D01*
X0026279Y0106243D01*
X0026350Y0106189D01*
X0026417Y0106133D01*
X0026483Y0106073D01*
X0026545Y0106011D01*
X0026605Y0105945D01*
X0026661Y0105878D01*
X0026715Y0105807D01*
X0026765Y0105735D01*
X0026812Y0105660D01*
X0026856Y0105583D01*
X0026896Y0105504D01*
X0026933Y0105424D01*
X0026965Y0105342D01*
X0026995Y0105258D01*
X0027020Y0105174D01*
X0027042Y0105088D01*
X0027059Y0105002D01*
X0027073Y0104914D01*
X0027083Y0104826D01*
X0027089Y0104738D01*
X0027091Y0104650D01*
X0027089Y0104562D01*
X0027083Y0104474D01*
X0027073Y0104386D01*
X0027059Y0104298D01*
X0027042Y0104212D01*
X0027020Y0104126D01*
X0026995Y0104042D01*
X0026965Y0103958D01*
X0026933Y0103876D01*
X0026896Y0103796D01*
X0026856Y0103717D01*
X0026812Y0103640D01*
X0026765Y0103565D01*
X0026715Y0103493D01*
X0026661Y0103422D01*
X0026605Y0103355D01*
X0026545Y0103289D01*
X0026483Y0103227D01*
X0026417Y0103167D01*
X0026350Y0103111D01*
X0026279Y0103057D01*
X0026207Y0103007D01*
X0026132Y0102960D01*
X0026055Y0102916D01*
X0025976Y0102876D01*
X0025896Y0102839D01*
X0025814Y0102807D01*
X0025730Y0102777D01*
X0025646Y0102752D01*
X0025560Y0102730D01*
X0025474Y0102713D01*
X0025386Y0102699D01*
X0025298Y0102689D01*
X0025210Y0102683D01*
X0025122Y0102681D01*
X0025034Y0102683D01*
X0024946Y0102689D01*
X0024858Y0102699D01*
X0024770Y0102713D01*
X0024684Y0102730D01*
X0024598Y0102752D01*
X0024514Y0102777D01*
X0024430Y0102807D01*
X0024348Y0102839D01*
X0024268Y0102876D01*
X0024189Y0102916D01*
X0024112Y0102960D01*
X0024037Y0103007D01*
X0023965Y0103057D01*
X0023894Y0103111D01*
X0023827Y0103167D01*
X0023761Y0103227D01*
X0023699Y0103289D01*
X0023639Y0103355D01*
X0023583Y0103422D01*
X0023529Y0103493D01*
X0023479Y0103565D01*
X0023432Y0103640D01*
X0023388Y0103717D01*
X0023348Y0103796D01*
X0023311Y0103876D01*
X0023279Y0103958D01*
X0023249Y0104042D01*
X0023224Y0104126D01*
X0023202Y0104212D01*
X0023185Y0104298D01*
X0023171Y0104386D01*
X0023161Y0104474D01*
X0023155Y0104562D01*
X0023153Y0104650D01*
D11*
X0073941Y0084177D03*
X0078665Y0084177D03*
D12*
X0042839Y0062783D03*
X0042839Y0011083D03*
X0042839Y0129193D03*
X0042839Y0180893D03*
D13*
X0059421Y0168823D03*
X0059421Y0158980D03*
X0059421Y0151106D03*
X0059421Y0141264D03*
X0059421Y0050713D03*
X0059421Y0040870D03*
X0059421Y0032996D03*
X0059421Y0023154D03*
D14*
X0034965Y0078665D03*
X0034965Y0113311D03*
X0013311Y0113311D03*
X0013311Y0078665D03*
D15*
X0037185Y0089689D03*
X0037185Y0092839D03*
X0037185Y0095988D03*
X0037185Y0099138D03*
X0037185Y0102287D03*
D16*
X0025122Y0104650D03*
X0025122Y0087327D03*
D17*
X0056618Y0076303D03*
X0066618Y0076303D03*
X0066618Y0107799D03*
X0056618Y0107799D03*
D18*
X0061933Y0123547D03*
X0067051Y0123547D03*
X0067051Y0064492D03*
X0061933Y0064492D03*
D19*
X0073941Y0093035D03*
X0073941Y0095004D03*
X0073941Y0096972D03*
X0073941Y0098941D03*
X0078665Y0098941D03*
X0078665Y0096972D03*
X0078665Y0095004D03*
X0078665Y0093035D03*
D20*
X0076303Y0092642D03*
X0076303Y0099335D03*
D21*
X0076303Y0131421D03*
X0084177Y0143232D03*
X0084177Y0158980D03*
X0076303Y0168823D03*
X0072366Y0056618D03*
X0084177Y0048744D03*
X0084177Y0032996D03*
X0044807Y0044807D03*
M02*
