G75*
%MOIN*%
%OFA0B0*%
%FSLAX25Y25*%
%IPPOS*%
%LPD*%
%AMOC8*
5,1,8,0,0,1.08239X$1,22.5*
%
%ADD10C,0.00000*%
%ADD11C,0.13100*%
%ADD12C,0.07400*%
%ADD13C,0.03962*%
%ADD14C,0.01000*%
D10*
X0001500Y0005437D02*
X0001500Y0190476D01*
X0001502Y0190600D01*
X0001508Y0190723D01*
X0001517Y0190847D01*
X0001531Y0190969D01*
X0001548Y0191092D01*
X0001570Y0191214D01*
X0001595Y0191335D01*
X0001624Y0191455D01*
X0001656Y0191574D01*
X0001693Y0191693D01*
X0001733Y0191810D01*
X0001776Y0191925D01*
X0001824Y0192040D01*
X0001875Y0192152D01*
X0001929Y0192263D01*
X0001987Y0192373D01*
X0002048Y0192480D01*
X0002113Y0192586D01*
X0002181Y0192689D01*
X0002252Y0192790D01*
X0002326Y0192889D01*
X0002403Y0192986D01*
X0002484Y0193080D01*
X0002567Y0193171D01*
X0002653Y0193260D01*
X0002742Y0193346D01*
X0002833Y0193429D01*
X0002927Y0193510D01*
X0003024Y0193587D01*
X0003123Y0193661D01*
X0003224Y0193732D01*
X0003327Y0193800D01*
X0003433Y0193865D01*
X0003540Y0193926D01*
X0003650Y0193984D01*
X0003761Y0194038D01*
X0003873Y0194089D01*
X0003988Y0194137D01*
X0004103Y0194180D01*
X0004220Y0194220D01*
X0004339Y0194257D01*
X0004458Y0194289D01*
X0004578Y0194318D01*
X0004699Y0194343D01*
X0004821Y0194365D01*
X0004944Y0194382D01*
X0005066Y0194396D01*
X0005190Y0194405D01*
X0005313Y0194411D01*
X0005437Y0194413D01*
X0092051Y0194413D01*
X0092175Y0194411D01*
X0092298Y0194405D01*
X0092422Y0194396D01*
X0092544Y0194382D01*
X0092667Y0194365D01*
X0092789Y0194343D01*
X0092910Y0194318D01*
X0093030Y0194289D01*
X0093149Y0194257D01*
X0093268Y0194220D01*
X0093385Y0194180D01*
X0093500Y0194137D01*
X0093615Y0194089D01*
X0093727Y0194038D01*
X0093838Y0193984D01*
X0093948Y0193926D01*
X0094055Y0193865D01*
X0094161Y0193800D01*
X0094264Y0193732D01*
X0094365Y0193661D01*
X0094464Y0193587D01*
X0094561Y0193510D01*
X0094655Y0193429D01*
X0094746Y0193346D01*
X0094835Y0193260D01*
X0094921Y0193171D01*
X0095004Y0193080D01*
X0095085Y0192986D01*
X0095162Y0192889D01*
X0095236Y0192790D01*
X0095307Y0192689D01*
X0095375Y0192586D01*
X0095440Y0192480D01*
X0095501Y0192373D01*
X0095559Y0192263D01*
X0095613Y0192152D01*
X0095664Y0192040D01*
X0095712Y0191925D01*
X0095755Y0191810D01*
X0095795Y0191693D01*
X0095832Y0191574D01*
X0095864Y0191455D01*
X0095893Y0191335D01*
X0095918Y0191214D01*
X0095940Y0191092D01*
X0095957Y0190969D01*
X0095971Y0190847D01*
X0095980Y0190723D01*
X0095986Y0190600D01*
X0095988Y0190476D01*
X0095988Y0005437D01*
X0095986Y0005313D01*
X0095980Y0005190D01*
X0095971Y0005066D01*
X0095957Y0004944D01*
X0095940Y0004821D01*
X0095918Y0004699D01*
X0095893Y0004578D01*
X0095864Y0004458D01*
X0095832Y0004339D01*
X0095795Y0004220D01*
X0095755Y0004103D01*
X0095712Y0003988D01*
X0095664Y0003873D01*
X0095613Y0003761D01*
X0095559Y0003650D01*
X0095501Y0003540D01*
X0095440Y0003433D01*
X0095375Y0003327D01*
X0095307Y0003224D01*
X0095236Y0003123D01*
X0095162Y0003024D01*
X0095085Y0002927D01*
X0095004Y0002833D01*
X0094921Y0002742D01*
X0094835Y0002653D01*
X0094746Y0002567D01*
X0094655Y0002484D01*
X0094561Y0002403D01*
X0094464Y0002326D01*
X0094365Y0002252D01*
X0094264Y0002181D01*
X0094161Y0002113D01*
X0094055Y0002048D01*
X0093948Y0001987D01*
X0093838Y0001929D01*
X0093727Y0001875D01*
X0093615Y0001824D01*
X0093500Y0001776D01*
X0093385Y0001733D01*
X0093268Y0001693D01*
X0093149Y0001656D01*
X0093030Y0001624D01*
X0092910Y0001595D01*
X0092789Y0001570D01*
X0092667Y0001548D01*
X0092544Y0001531D01*
X0092422Y0001517D01*
X0092298Y0001508D01*
X0092175Y0001502D01*
X0092051Y0001500D01*
X0005437Y0001500D01*
X0005313Y0001502D01*
X0005190Y0001508D01*
X0005066Y0001517D01*
X0004944Y0001531D01*
X0004821Y0001548D01*
X0004699Y0001570D01*
X0004578Y0001595D01*
X0004458Y0001624D01*
X0004339Y0001656D01*
X0004220Y0001693D01*
X0004103Y0001733D01*
X0003988Y0001776D01*
X0003873Y0001824D01*
X0003761Y0001875D01*
X0003650Y0001929D01*
X0003540Y0001987D01*
X0003433Y0002048D01*
X0003327Y0002113D01*
X0003224Y0002181D01*
X0003123Y0002252D01*
X0003024Y0002326D01*
X0002927Y0002403D01*
X0002833Y0002484D01*
X0002742Y0002567D01*
X0002653Y0002653D01*
X0002567Y0002742D01*
X0002484Y0002833D01*
X0002403Y0002927D01*
X0002326Y0003024D01*
X0002252Y0003123D01*
X0002181Y0003224D01*
X0002113Y0003327D01*
X0002048Y0003433D01*
X0001987Y0003540D01*
X0001929Y0003650D01*
X0001875Y0003761D01*
X0001824Y0003873D01*
X0001776Y0003988D01*
X0001733Y0004103D01*
X0001693Y0004220D01*
X0001656Y0004339D01*
X0001624Y0004458D01*
X0001595Y0004578D01*
X0001570Y0004699D01*
X0001548Y0004821D01*
X0001531Y0004944D01*
X0001517Y0005066D01*
X0001508Y0005190D01*
X0001502Y0005313D01*
X0001500Y0005437D01*
X0023153Y0087327D02*
X0023155Y0087415D01*
X0023161Y0087503D01*
X0023171Y0087591D01*
X0023185Y0087679D01*
X0023202Y0087765D01*
X0023224Y0087851D01*
X0023249Y0087935D01*
X0023279Y0088019D01*
X0023311Y0088101D01*
X0023348Y0088181D01*
X0023388Y0088260D01*
X0023432Y0088337D01*
X0023479Y0088412D01*
X0023529Y0088484D01*
X0023583Y0088555D01*
X0023639Y0088622D01*
X0023699Y0088688D01*
X0023761Y0088750D01*
X0023827Y0088810D01*
X0023894Y0088866D01*
X0023965Y0088920D01*
X0024037Y0088970D01*
X0024112Y0089017D01*
X0024189Y0089061D01*
X0024268Y0089101D01*
X0024348Y0089138D01*
X0024430Y0089170D01*
X0024514Y0089200D01*
X0024598Y0089225D01*
X0024684Y0089247D01*
X0024770Y0089264D01*
X0024858Y0089278D01*
X0024946Y0089288D01*
X0025034Y0089294D01*
X0025122Y0089296D01*
X0025210Y0089294D01*
X0025298Y0089288D01*
X0025386Y0089278D01*
X0025474Y0089264D01*
X0025560Y0089247D01*
X0025646Y0089225D01*
X0025730Y0089200D01*
X0025814Y0089170D01*
X0025896Y0089138D01*
X0025976Y0089101D01*
X0026055Y0089061D01*
X0026132Y0089017D01*
X0026207Y0088970D01*
X0026279Y0088920D01*
X0026350Y0088866D01*
X0026417Y0088810D01*
X0026483Y0088750D01*
X0026545Y0088688D01*
X0026605Y0088622D01*
X0026661Y0088555D01*
X0026715Y0088484D01*
X0026765Y0088412D01*
X0026812Y0088337D01*
X0026856Y0088260D01*
X0026896Y0088181D01*
X0026933Y0088101D01*
X0026965Y0088019D01*
X0026995Y0087935D01*
X0027020Y0087851D01*
X0027042Y0087765D01*
X0027059Y0087679D01*
X0027073Y0087591D01*
X0027083Y0087503D01*
X0027089Y0087415D01*
X0027091Y0087327D01*
X0027089Y0087239D01*
X0027083Y0087151D01*
X0027073Y0087063D01*
X0027059Y0086975D01*
X0027042Y0086889D01*
X0027020Y0086803D01*
X0026995Y0086719D01*
X0026965Y0086635D01*
X0026933Y0086553D01*
X0026896Y0086473D01*
X0026856Y0086394D01*
X0026812Y0086317D01*
X0026765Y0086242D01*
X0026715Y0086170D01*
X0026661Y0086099D01*
X0026605Y0086032D01*
X0026545Y0085966D01*
X0026483Y0085904D01*
X0026417Y0085844D01*
X0026350Y0085788D01*
X0026279Y0085734D01*
X0026207Y0085684D01*
X0026132Y0085637D01*
X0026055Y0085593D01*
X0025976Y0085553D01*
X0025896Y0085516D01*
X0025814Y0085484D01*
X0025730Y0085454D01*
X0025646Y0085429D01*
X0025560Y0085407D01*
X0025474Y0085390D01*
X0025386Y0085376D01*
X0025298Y0085366D01*
X0025210Y0085360D01*
X0025122Y0085358D01*
X0025034Y0085360D01*
X0024946Y0085366D01*
X0024858Y0085376D01*
X0024770Y0085390D01*
X0024684Y0085407D01*
X0024598Y0085429D01*
X0024514Y0085454D01*
X0024430Y0085484D01*
X0024348Y0085516D01*
X0024268Y0085553D01*
X0024189Y0085593D01*
X0024112Y0085637D01*
X0024037Y0085684D01*
X0023965Y0085734D01*
X0023894Y0085788D01*
X0023827Y0085844D01*
X0023761Y0085904D01*
X0023699Y0085966D01*
X0023639Y0086032D01*
X0023583Y0086099D01*
X0023529Y0086170D01*
X0023479Y0086242D01*
X0023432Y0086317D01*
X0023388Y0086394D01*
X0023348Y0086473D01*
X0023311Y0086553D01*
X0023279Y0086635D01*
X0023249Y0086719D01*
X0023224Y0086803D01*
X0023202Y0086889D01*
X0023185Y0086975D01*
X0023171Y0087063D01*
X0023161Y0087151D01*
X0023155Y0087239D01*
X0023153Y0087327D01*
X0023153Y0104650D02*
X0023155Y0104738D01*
X0023161Y0104826D01*
X0023171Y0104914D01*
X0023185Y0105002D01*
X0023202Y0105088D01*
X0023224Y0105174D01*
X0023249Y0105258D01*
X0023279Y0105342D01*
X0023311Y0105424D01*
X0023348Y0105504D01*
X0023388Y0105583D01*
X0023432Y0105660D01*
X0023479Y0105735D01*
X0023529Y0105807D01*
X0023583Y0105878D01*
X0023639Y0105945D01*
X0023699Y0106011D01*
X0023761Y0106073D01*
X0023827Y0106133D01*
X0023894Y0106189D01*
X0023965Y0106243D01*
X0024037Y0106293D01*
X0024112Y0106340D01*
X0024189Y0106384D01*
X0024268Y0106424D01*
X0024348Y0106461D01*
X0024430Y0106493D01*
X0024514Y0106523D01*
X0024598Y0106548D01*
X0024684Y0106570D01*
X0024770Y0106587D01*
X0024858Y0106601D01*
X0024946Y0106611D01*
X0025034Y0106617D01*
X0025122Y0106619D01*
X0025210Y0106617D01*
X0025298Y0106611D01*
X0025386Y0106601D01*
X0025474Y0106587D01*
X0025560Y0106570D01*
X0025646Y0106548D01*
X0025730Y0106523D01*
X0025814Y0106493D01*
X0025896Y0106461D01*
X0025976Y0106424D01*
X0026055Y0106384D01*
X0026132Y0106340D01*
X0026207Y0106293D01*
X0026279Y0106243D01*
X0026350Y0106189D01*
X0026417Y0106133D01*
X0026483Y0106073D01*
X0026545Y0106011D01*
X0026605Y0105945D01*
X0026661Y0105878D01*
X0026715Y0105807D01*
X0026765Y0105735D01*
X0026812Y0105660D01*
X0026856Y0105583D01*
X0026896Y0105504D01*
X0026933Y0105424D01*
X0026965Y0105342D01*
X0026995Y0105258D01*
X0027020Y0105174D01*
X0027042Y0105088D01*
X0027059Y0105002D01*
X0027073Y0104914D01*
X0027083Y0104826D01*
X0027089Y0104738D01*
X0027091Y0104650D01*
X0027089Y0104562D01*
X0027083Y0104474D01*
X0027073Y0104386D01*
X0027059Y0104298D01*
X0027042Y0104212D01*
X0027020Y0104126D01*
X0026995Y0104042D01*
X0026965Y0103958D01*
X0026933Y0103876D01*
X0026896Y0103796D01*
X0026856Y0103717D01*
X0026812Y0103640D01*
X0026765Y0103565D01*
X0026715Y0103493D01*
X0026661Y0103422D01*
X0026605Y0103355D01*
X0026545Y0103289D01*
X0026483Y0103227D01*
X0026417Y0103167D01*
X0026350Y0103111D01*
X0026279Y0103057D01*
X0026207Y0103007D01*
X0026132Y0102960D01*
X0026055Y0102916D01*
X0025976Y0102876D01*
X0025896Y0102839D01*
X0025814Y0102807D01*
X0025730Y0102777D01*
X0025646Y0102752D01*
X0025560Y0102730D01*
X0025474Y0102713D01*
X0025386Y0102699D01*
X0025298Y0102689D01*
X0025210Y0102683D01*
X0025122Y0102681D01*
X0025034Y0102683D01*
X0024946Y0102689D01*
X0024858Y0102699D01*
X0024770Y0102713D01*
X0024684Y0102730D01*
X0024598Y0102752D01*
X0024514Y0102777D01*
X0024430Y0102807D01*
X0024348Y0102839D01*
X0024268Y0102876D01*
X0024189Y0102916D01*
X0024112Y0102960D01*
X0024037Y0103007D01*
X0023965Y0103057D01*
X0023894Y0103111D01*
X0023827Y0103167D01*
X0023761Y0103227D01*
X0023699Y0103289D01*
X0023639Y0103355D01*
X0023583Y0103422D01*
X0023529Y0103493D01*
X0023479Y0103565D01*
X0023432Y0103640D01*
X0023388Y0103717D01*
X0023348Y0103796D01*
X0023311Y0103876D01*
X0023279Y0103958D01*
X0023249Y0104042D01*
X0023224Y0104126D01*
X0023202Y0104212D01*
X0023185Y0104298D01*
X0023171Y0104386D01*
X0023161Y0104474D01*
X0023155Y0104562D01*
X0023153Y0104650D01*
D11*
X0042839Y0129193D03*
X0042839Y0180893D03*
X0042839Y0062783D03*
X0042839Y0011083D03*
D12*
X0056618Y0076303D03*
X0066618Y0076303D03*
X0066618Y0107799D03*
X0056618Y0107799D03*
D13*
X0076303Y0131421D03*
X0084177Y0143232D03*
X0084177Y0158980D03*
X0076303Y0168823D03*
X0072366Y0056618D03*
X0084177Y0048744D03*
X0084177Y0032996D03*
X0044807Y0044807D03*
D14*
X0076303Y0044807D01*
X0076303Y0131421D01*
X0076303Y0168823D01*
X0074445Y0171604D02*
X0075650Y0172104D01*
X0076956Y0172104D01*
X0078162Y0171604D01*
X0079085Y0170681D01*
X0079584Y0169475D01*
X0079584Y0168170D01*
X0079085Y0166964D01*
X0078162Y0166041D01*
X0078103Y0166017D01*
X0078103Y0134227D01*
X0078162Y0134203D01*
X0079085Y0133280D01*
X0079584Y0132074D01*
X0079584Y0130769D01*
X0079085Y0129563D01*
X0078162Y0128640D01*
X0078103Y0128615D01*
X0078103Y0044061D01*
X0077049Y0043007D01*
X0047613Y0043007D01*
X0047589Y0042948D01*
X0046666Y0042026D01*
X0045460Y0041526D01*
X0044154Y0041526D01*
X0042948Y0042026D01*
X0042026Y0042948D01*
X0041526Y0044154D01*
X0041526Y0045460D01*
X0042026Y0046666D01*
X0042948Y0047589D01*
X0044154Y0048088D01*
X0045460Y0048088D01*
X0046666Y0047589D01*
X0047589Y0046666D01*
X0047613Y0046607D01*
X0074503Y0046607D01*
X0074503Y0128615D01*
X0074445Y0128640D01*
X0073522Y0129563D01*
X0073022Y0130769D01*
X0073022Y0132074D01*
X0073522Y0133280D01*
X0074445Y0134203D01*
X0074503Y0134227D01*
X0074503Y0166017D01*
X0074445Y0166041D01*
X0073522Y0166964D01*
X0073022Y0168170D01*
X0073022Y0169475D01*
X0073522Y0170681D01*
X0074445Y0171604D01*
X0074087Y0171247D02*
X0006000Y0171247D01*
X0006000Y0172245D02*
X0091488Y0172245D01*
X0091488Y0171247D02*
X0078519Y0171247D01*
X0079264Y0170248D02*
X0091488Y0170248D01*
X0091488Y0169250D02*
X0079584Y0169250D01*
X0079584Y0168251D02*
X0091488Y0168251D01*
X0091488Y0167253D02*
X0079204Y0167253D01*
X0078375Y0166254D02*
X0091488Y0166254D01*
X0091488Y0165256D02*
X0078103Y0165256D01*
X0078103Y0164257D02*
X0091488Y0164257D01*
X0091488Y0163259D02*
X0078103Y0163259D01*
X0078103Y0162260D02*
X0083522Y0162260D01*
X0083525Y0162261D02*
X0082319Y0161762D01*
X0081396Y0160839D01*
X0080896Y0159633D01*
X0080896Y0158328D01*
X0081396Y0157122D01*
X0082319Y0156199D01*
X0082377Y0156174D01*
X0082377Y0146038D01*
X0082319Y0146014D01*
X0081396Y0145091D01*
X0080896Y0143885D01*
X0080896Y0142580D01*
X0081396Y0141374D01*
X0082319Y0140451D01*
X0083525Y0139951D01*
X0084830Y0139951D01*
X0086036Y0140451D01*
X0086959Y0141374D01*
X0087458Y0142580D01*
X0087458Y0143885D01*
X0086959Y0145091D01*
X0086036Y0146014D01*
X0085977Y0146038D01*
X0085977Y0156174D01*
X0086036Y0156199D01*
X0086959Y0157122D01*
X0087458Y0158328D01*
X0087458Y0159633D01*
X0086959Y0160839D01*
X0086036Y0161762D01*
X0084830Y0162261D01*
X0083525Y0162261D01*
X0084177Y0158980D02*
X0084177Y0143232D01*
X0082699Y0140293D02*
X0078103Y0140293D01*
X0078103Y0139295D02*
X0091488Y0139295D01*
X0091488Y0140293D02*
X0085655Y0140293D01*
X0086877Y0141292D02*
X0091488Y0141292D01*
X0091488Y0142290D02*
X0087338Y0142290D01*
X0087458Y0143289D02*
X0091488Y0143289D01*
X0091488Y0144287D02*
X0087292Y0144287D01*
X0086764Y0145286D02*
X0091488Y0145286D01*
X0091488Y0146284D02*
X0085977Y0146284D01*
X0085977Y0147283D02*
X0091488Y0147283D01*
X0091488Y0148281D02*
X0085977Y0148281D01*
X0085977Y0149280D02*
X0091488Y0149280D01*
X0091488Y0150278D02*
X0085977Y0150278D01*
X0085977Y0151277D02*
X0091488Y0151277D01*
X0091488Y0152275D02*
X0085977Y0152275D01*
X0085977Y0153274D02*
X0091488Y0153274D01*
X0091488Y0154272D02*
X0085977Y0154272D01*
X0085977Y0155271D02*
X0091488Y0155271D01*
X0091488Y0156269D02*
X0086106Y0156269D01*
X0087019Y0157268D02*
X0091488Y0157268D01*
X0091488Y0158266D02*
X0087433Y0158266D01*
X0087458Y0159265D02*
X0091488Y0159265D01*
X0091488Y0160263D02*
X0087197Y0160263D01*
X0086536Y0161262D02*
X0091488Y0161262D01*
X0091488Y0162260D02*
X0084832Y0162260D01*
X0082248Y0156269D02*
X0078103Y0156269D01*
X0078103Y0155271D02*
X0082377Y0155271D01*
X0082377Y0154272D02*
X0078103Y0154272D01*
X0078103Y0153274D02*
X0082377Y0153274D01*
X0082377Y0152275D02*
X0078103Y0152275D01*
X0078103Y0151277D02*
X0082377Y0151277D01*
X0082377Y0150278D02*
X0078103Y0150278D01*
X0078103Y0149280D02*
X0082377Y0149280D01*
X0082377Y0148281D02*
X0078103Y0148281D01*
X0078103Y0147283D02*
X0082377Y0147283D01*
X0082377Y0146284D02*
X0078103Y0146284D01*
X0078103Y0145286D02*
X0081590Y0145286D01*
X0081063Y0144287D02*
X0078103Y0144287D01*
X0078103Y0143289D02*
X0080896Y0143289D01*
X0081016Y0142290D02*
X0078103Y0142290D01*
X0078103Y0141292D02*
X0081478Y0141292D01*
X0078103Y0138296D02*
X0091488Y0138296D01*
X0091488Y0137298D02*
X0078103Y0137298D01*
X0078103Y0136299D02*
X0091488Y0136299D01*
X0091488Y0135301D02*
X0078103Y0135301D01*
X0078103Y0134302D02*
X0091488Y0134302D01*
X0091488Y0133303D02*
X0079061Y0133303D01*
X0079489Y0132305D02*
X0091488Y0132305D01*
X0091488Y0131306D02*
X0079584Y0131306D01*
X0079393Y0130308D02*
X0091488Y0130308D01*
X0091488Y0129309D02*
X0078832Y0129309D01*
X0078103Y0128311D02*
X0091488Y0128311D01*
X0091488Y0127312D02*
X0078103Y0127312D01*
X0078103Y0126314D02*
X0091488Y0126314D01*
X0091488Y0125315D02*
X0078103Y0125315D01*
X0078103Y0124317D02*
X0091488Y0124317D01*
X0091488Y0123318D02*
X0078103Y0123318D01*
X0078103Y0122320D02*
X0091488Y0122320D01*
X0091488Y0121321D02*
X0078103Y0121321D01*
X0078103Y0120323D02*
X0091488Y0120323D01*
X0091488Y0119324D02*
X0078103Y0119324D01*
X0078103Y0118326D02*
X0091488Y0118326D01*
X0091488Y0117327D02*
X0078103Y0117327D01*
X0078103Y0116329D02*
X0091488Y0116329D01*
X0091488Y0115330D02*
X0078103Y0115330D01*
X0078103Y0114332D02*
X0091488Y0114332D01*
X0091488Y0113333D02*
X0078103Y0113333D01*
X0078103Y0112335D02*
X0091488Y0112335D01*
X0091488Y0111336D02*
X0078103Y0111336D01*
X0078103Y0110338D02*
X0091488Y0110338D01*
X0091488Y0109339D02*
X0078103Y0109339D01*
X0078103Y0108341D02*
X0091488Y0108341D01*
X0091488Y0107342D02*
X0078103Y0107342D01*
X0078103Y0106344D02*
X0091488Y0106344D01*
X0091488Y0105345D02*
X0078103Y0105345D01*
X0078103Y0104347D02*
X0091488Y0104347D01*
X0091488Y0103348D02*
X0078103Y0103348D01*
X0078103Y0102350D02*
X0091488Y0102350D01*
X0091488Y0101351D02*
X0078103Y0101351D01*
X0078103Y0100353D02*
X0091488Y0100353D01*
X0091488Y0099354D02*
X0078103Y0099354D01*
X0078103Y0098356D02*
X0091488Y0098356D01*
X0091488Y0097357D02*
X0078103Y0097357D01*
X0078103Y0096359D02*
X0091488Y0096359D01*
X0091488Y0095360D02*
X0078103Y0095360D01*
X0078103Y0094362D02*
X0091488Y0094362D01*
X0091488Y0093363D02*
X0078103Y0093363D01*
X0078103Y0092365D02*
X0091488Y0092365D01*
X0091488Y0091366D02*
X0078103Y0091366D01*
X0078103Y0090368D02*
X0091488Y0090368D01*
X0091488Y0089369D02*
X0078103Y0089369D01*
X0078103Y0088370D02*
X0091488Y0088370D01*
X0091488Y0087372D02*
X0078103Y0087372D01*
X0078103Y0086373D02*
X0091488Y0086373D01*
X0091488Y0085375D02*
X0078103Y0085375D01*
X0078103Y0084376D02*
X0091488Y0084376D01*
X0091488Y0083378D02*
X0078103Y0083378D01*
X0078103Y0082379D02*
X0091488Y0082379D01*
X0091488Y0081381D02*
X0078103Y0081381D01*
X0078103Y0080382D02*
X0091488Y0080382D01*
X0091488Y0079384D02*
X0078103Y0079384D01*
X0078103Y0078385D02*
X0091488Y0078385D01*
X0091488Y0077387D02*
X0078103Y0077387D01*
X0078103Y0076388D02*
X0091488Y0076388D01*
X0091488Y0075390D02*
X0078103Y0075390D01*
X0078103Y0074391D02*
X0091488Y0074391D01*
X0091488Y0073393D02*
X0078103Y0073393D01*
X0078103Y0072394D02*
X0091488Y0072394D01*
X0091488Y0071396D02*
X0078103Y0071396D01*
X0078103Y0070397D02*
X0091488Y0070397D01*
X0091488Y0069399D02*
X0078103Y0069399D01*
X0078103Y0068400D02*
X0091488Y0068400D01*
X0091488Y0067402D02*
X0078103Y0067402D01*
X0078103Y0066403D02*
X0091488Y0066403D01*
X0091488Y0065405D02*
X0078103Y0065405D01*
X0078103Y0064406D02*
X0091488Y0064406D01*
X0091488Y0063408D02*
X0078103Y0063408D01*
X0078103Y0062409D02*
X0091488Y0062409D01*
X0091488Y0061411D02*
X0078103Y0061411D01*
X0078103Y0060412D02*
X0091488Y0060412D01*
X0091488Y0059414D02*
X0078103Y0059414D01*
X0078103Y0058415D02*
X0091488Y0058415D01*
X0091488Y0057417D02*
X0078103Y0057417D01*
X0078103Y0056418D02*
X0091488Y0056418D01*
X0091488Y0055420D02*
X0078103Y0055420D01*
X0078103Y0054421D02*
X0091488Y0054421D01*
X0091488Y0053423D02*
X0078103Y0053423D01*
X0078103Y0052424D02*
X0091488Y0052424D01*
X0091488Y0051426D02*
X0086136Y0051426D01*
X0086036Y0051526D02*
X0084830Y0052025D01*
X0083525Y0052025D01*
X0082319Y0051526D01*
X0081396Y0050603D01*
X0080896Y0049397D01*
X0080896Y0048091D01*
X0081396Y0046885D01*
X0082319Y0045963D01*
X0082377Y0045938D01*
X0082377Y0035802D01*
X0082319Y0035778D01*
X0081396Y0034855D01*
X0080896Y0033649D01*
X0080896Y0032343D01*
X0081396Y0031137D01*
X0082319Y0030214D01*
X0083525Y0029715D01*
X0084830Y0029715D01*
X0086036Y0030214D01*
X0086959Y0031137D01*
X0087458Y0032343D01*
X0087458Y0033649D01*
X0086959Y0034855D01*
X0086036Y0035778D01*
X0085977Y0035802D01*
X0085977Y0045938D01*
X0086036Y0045963D01*
X0086959Y0046885D01*
X0087458Y0048091D01*
X0087458Y0049397D01*
X0086959Y0050603D01*
X0086036Y0051526D01*
X0087031Y0050427D02*
X0091488Y0050427D01*
X0091488Y0049429D02*
X0087445Y0049429D01*
X0087458Y0048430D02*
X0091488Y0048430D01*
X0091488Y0047432D02*
X0087185Y0047432D01*
X0086506Y0046433D02*
X0091488Y0046433D01*
X0091488Y0045434D02*
X0085977Y0045434D01*
X0085977Y0044436D02*
X0091488Y0044436D01*
X0091488Y0043437D02*
X0085977Y0043437D01*
X0085977Y0042439D02*
X0091488Y0042439D01*
X0091488Y0041440D02*
X0085977Y0041440D01*
X0085977Y0040442D02*
X0091488Y0040442D01*
X0091488Y0039443D02*
X0085977Y0039443D01*
X0085977Y0038445D02*
X0091488Y0038445D01*
X0091488Y0037446D02*
X0085977Y0037446D01*
X0085977Y0036448D02*
X0091488Y0036448D01*
X0091488Y0035449D02*
X0086364Y0035449D01*
X0087126Y0034451D02*
X0091488Y0034451D01*
X0091488Y0033452D02*
X0087458Y0033452D01*
X0087458Y0032454D02*
X0091488Y0032454D01*
X0091488Y0031455D02*
X0087090Y0031455D01*
X0086278Y0030457D02*
X0091488Y0030457D01*
X0091488Y0029458D02*
X0006000Y0029458D01*
X0006000Y0028460D02*
X0091488Y0028460D01*
X0091488Y0027461D02*
X0006000Y0027461D01*
X0006000Y0026463D02*
X0091488Y0026463D01*
X0091488Y0025464D02*
X0006000Y0025464D01*
X0006000Y0024466D02*
X0091488Y0024466D01*
X0091488Y0023467D02*
X0006000Y0023467D01*
X0006000Y0022469D02*
X0091488Y0022469D01*
X0091488Y0021470D02*
X0006000Y0021470D01*
X0006000Y0020472D02*
X0091488Y0020472D01*
X0091488Y0019473D02*
X0006000Y0019473D01*
X0006000Y0018475D02*
X0040171Y0018475D01*
X0041277Y0018933D02*
X0038392Y0017738D01*
X0036184Y0015530D01*
X0034989Y0012645D01*
X0034989Y0009522D01*
X0036184Y0006636D01*
X0036820Y0006000D01*
X0006000Y0006000D01*
X0006000Y0006332D01*
X0006000Y0189913D01*
X0091488Y0189913D01*
X0091488Y0006000D01*
X0048857Y0006000D01*
X0049493Y0006636D01*
X0050689Y0009522D01*
X0050689Y0012645D01*
X0049493Y0015530D01*
X0047285Y0017738D01*
X0044400Y0018933D01*
X0041277Y0018933D01*
X0038130Y0017476D02*
X0006000Y0017476D01*
X0006000Y0016478D02*
X0037132Y0016478D01*
X0036163Y0015479D02*
X0006000Y0015479D01*
X0006000Y0014481D02*
X0035749Y0014481D01*
X0035336Y0013482D02*
X0006000Y0013482D01*
X0006000Y0012484D02*
X0034989Y0012484D01*
X0034989Y0011485D02*
X0006000Y0011485D01*
X0006000Y0010487D02*
X0034989Y0010487D01*
X0035002Y0009488D02*
X0006000Y0009488D01*
X0006000Y0008490D02*
X0035416Y0008490D01*
X0035830Y0007491D02*
X0006000Y0007491D01*
X0006000Y0006493D02*
X0036328Y0006493D01*
X0045507Y0018475D02*
X0091488Y0018475D01*
X0091488Y0017476D02*
X0047547Y0017476D01*
X0048546Y0016478D02*
X0091488Y0016478D01*
X0091488Y0015479D02*
X0049514Y0015479D01*
X0049928Y0014481D02*
X0091488Y0014481D01*
X0091488Y0013482D02*
X0050342Y0013482D01*
X0050689Y0012484D02*
X0091488Y0012484D01*
X0091488Y0011485D02*
X0050689Y0011485D01*
X0050689Y0010487D02*
X0091488Y0010487D01*
X0091488Y0009488D02*
X0050675Y0009488D01*
X0050261Y0008490D02*
X0091488Y0008490D01*
X0091488Y0007491D02*
X0049847Y0007491D01*
X0049350Y0006493D02*
X0091488Y0006493D01*
X0082076Y0030457D02*
X0006000Y0030457D01*
X0006000Y0031455D02*
X0081264Y0031455D01*
X0080896Y0032454D02*
X0006000Y0032454D01*
X0006000Y0033452D02*
X0080896Y0033452D01*
X0081228Y0034451D02*
X0006000Y0034451D01*
X0006000Y0035449D02*
X0081990Y0035449D01*
X0082377Y0036448D02*
X0006000Y0036448D01*
X0006000Y0037446D02*
X0082377Y0037446D01*
X0082377Y0038445D02*
X0006000Y0038445D01*
X0006000Y0039443D02*
X0082377Y0039443D01*
X0082377Y0040442D02*
X0006000Y0040442D01*
X0006000Y0041440D02*
X0082377Y0041440D01*
X0082377Y0042439D02*
X0047079Y0042439D01*
X0046823Y0047432D02*
X0074503Y0047432D01*
X0074503Y0048430D02*
X0006000Y0048430D01*
X0006000Y0047432D02*
X0042791Y0047432D01*
X0041929Y0046433D02*
X0006000Y0046433D01*
X0006000Y0045434D02*
X0041526Y0045434D01*
X0041526Y0044436D02*
X0006000Y0044436D01*
X0006000Y0043437D02*
X0041823Y0043437D01*
X0042535Y0042439D02*
X0006000Y0042439D01*
X0006000Y0049429D02*
X0074503Y0049429D01*
X0074503Y0050427D02*
X0006000Y0050427D01*
X0006000Y0051426D02*
X0074503Y0051426D01*
X0074503Y0052424D02*
X0006000Y0052424D01*
X0006000Y0053423D02*
X0074503Y0053423D01*
X0074503Y0054421D02*
X0006000Y0054421D01*
X0006000Y0055420D02*
X0040102Y0055420D01*
X0041277Y0054933D02*
X0044400Y0054933D01*
X0047285Y0056128D01*
X0049493Y0058336D01*
X0050689Y0061222D01*
X0050689Y0064345D01*
X0049493Y0067230D01*
X0047285Y0069438D01*
X0044400Y0070633D01*
X0041277Y0070633D01*
X0038392Y0069438D01*
X0036184Y0067230D01*
X0034989Y0064345D01*
X0034989Y0061222D01*
X0036184Y0058336D01*
X0038392Y0056128D01*
X0041277Y0054933D01*
X0038102Y0056418D02*
X0006000Y0056418D01*
X0006000Y0057417D02*
X0037103Y0057417D01*
X0036151Y0058415D02*
X0006000Y0058415D01*
X0006000Y0059414D02*
X0035737Y0059414D01*
X0035324Y0060412D02*
X0006000Y0060412D01*
X0006000Y0061411D02*
X0034989Y0061411D01*
X0034989Y0062409D02*
X0006000Y0062409D01*
X0006000Y0063408D02*
X0034989Y0063408D01*
X0035014Y0064406D02*
X0006000Y0064406D01*
X0006000Y0065405D02*
X0035428Y0065405D01*
X0035841Y0066403D02*
X0006000Y0066403D01*
X0006000Y0067402D02*
X0036356Y0067402D01*
X0037354Y0068400D02*
X0006000Y0068400D01*
X0006000Y0069399D02*
X0038353Y0069399D01*
X0040708Y0070397D02*
X0006000Y0070397D01*
X0006000Y0071396D02*
X0054894Y0071396D01*
X0054622Y0071484D02*
X0055400Y0071231D01*
X0056118Y0071118D01*
X0056118Y0075803D01*
X0057118Y0075803D01*
X0057118Y0071118D01*
X0057836Y0071231D01*
X0058614Y0071484D01*
X0059344Y0071856D01*
X0060006Y0072337D01*
X0060584Y0072916D01*
X0061066Y0073578D01*
X0061437Y0074307D01*
X0061690Y0075085D01*
X0061696Y0075121D01*
X0062379Y0073471D01*
X0063786Y0072064D01*
X0065624Y0071303D01*
X0067613Y0071303D01*
X0069450Y0072064D01*
X0070857Y0073471D01*
X0071618Y0075309D01*
X0071618Y0077298D01*
X0070857Y0079135D01*
X0069450Y0080542D01*
X0067613Y0081303D01*
X0065624Y0081303D01*
X0063786Y0080542D01*
X0062379Y0079135D01*
X0061696Y0077485D01*
X0061690Y0077521D01*
X0061437Y0078299D01*
X0061066Y0079029D01*
X0060584Y0079691D01*
X0060006Y0080269D01*
X0059344Y0080751D01*
X0058614Y0081122D01*
X0057836Y0081375D01*
X0057118Y0081489D01*
X0057118Y0076803D01*
X0056118Y0076803D01*
X0056118Y0075803D01*
X0051432Y0075803D01*
X0051546Y0075085D01*
X0051799Y0074307D01*
X0052171Y0073578D01*
X0052652Y0072916D01*
X0053231Y0072337D01*
X0053893Y0071856D01*
X0054622Y0071484D01*
X0056118Y0071396D02*
X0057118Y0071396D01*
X0057118Y0072394D02*
X0056118Y0072394D01*
X0056118Y0073393D02*
X0057118Y0073393D01*
X0057118Y0074391D02*
X0056118Y0074391D01*
X0056118Y0075390D02*
X0057118Y0075390D01*
X0056118Y0076388D02*
X0006000Y0076388D01*
X0006000Y0075390D02*
X0051498Y0075390D01*
X0051772Y0074391D02*
X0006000Y0074391D01*
X0006000Y0073393D02*
X0052305Y0073393D01*
X0053173Y0072394D02*
X0006000Y0072394D01*
X0006000Y0077387D02*
X0051525Y0077387D01*
X0051546Y0077521D02*
X0051432Y0076803D01*
X0056118Y0076803D01*
X0056118Y0081489D01*
X0055400Y0081375D01*
X0054622Y0081122D01*
X0053893Y0080751D01*
X0053231Y0080269D01*
X0052652Y0079691D01*
X0052171Y0079029D01*
X0051799Y0078299D01*
X0051546Y0077521D01*
X0051843Y0078385D02*
X0006000Y0078385D01*
X0006000Y0079384D02*
X0052429Y0079384D01*
X0053386Y0080382D02*
X0006000Y0080382D01*
X0006000Y0081381D02*
X0022574Y0081381D01*
X0021458Y0081843D02*
X0023835Y0080858D01*
X0026409Y0080858D01*
X0028786Y0081843D01*
X0030606Y0083663D01*
X0031591Y0086040D01*
X0031591Y0088613D01*
X0030606Y0090991D01*
X0028786Y0092810D01*
X0026409Y0093795D01*
X0023835Y0093795D01*
X0021458Y0092810D01*
X0019638Y0090991D01*
X0018654Y0088613D01*
X0018654Y0086040D01*
X0019638Y0083663D01*
X0021458Y0081843D01*
X0020922Y0082379D02*
X0006000Y0082379D01*
X0006000Y0083378D02*
X0019923Y0083378D01*
X0019343Y0084376D02*
X0006000Y0084376D01*
X0006000Y0085375D02*
X0018929Y0085375D01*
X0018654Y0086373D02*
X0006000Y0086373D01*
X0006000Y0087372D02*
X0018654Y0087372D01*
X0018654Y0088370D02*
X0006000Y0088370D01*
X0006000Y0089369D02*
X0018967Y0089369D01*
X0019380Y0090368D02*
X0006000Y0090368D01*
X0006000Y0091366D02*
X0020013Y0091366D01*
X0021012Y0092365D02*
X0006000Y0092365D01*
X0006000Y0093363D02*
X0022792Y0093363D01*
X0023835Y0098181D02*
X0021458Y0099166D01*
X0019638Y0100985D01*
X0018654Y0103363D01*
X0018654Y0105936D01*
X0019638Y0108314D01*
X0021458Y0110133D01*
X0023835Y0111118D01*
X0026409Y0111118D01*
X0028786Y0110133D01*
X0030606Y0108314D01*
X0031591Y0105936D01*
X0031591Y0103363D01*
X0030606Y0100985D01*
X0028786Y0099166D01*
X0026409Y0098181D01*
X0023835Y0098181D01*
X0023414Y0098356D02*
X0006000Y0098356D01*
X0006000Y0099354D02*
X0021270Y0099354D01*
X0020271Y0100353D02*
X0006000Y0100353D01*
X0006000Y0101351D02*
X0019487Y0101351D01*
X0019073Y0102350D02*
X0006000Y0102350D01*
X0006000Y0103348D02*
X0018660Y0103348D01*
X0018654Y0104347D02*
X0006000Y0104347D01*
X0006000Y0105345D02*
X0018654Y0105345D01*
X0018822Y0106344D02*
X0006000Y0106344D01*
X0006000Y0107342D02*
X0019236Y0107342D01*
X0019665Y0108341D02*
X0006000Y0108341D01*
X0006000Y0109339D02*
X0020664Y0109339D01*
X0021951Y0110338D02*
X0006000Y0110338D01*
X0006000Y0111336D02*
X0052801Y0111336D01*
X0052652Y0111187D02*
X0052171Y0110525D01*
X0051799Y0109795D01*
X0051546Y0109017D01*
X0051432Y0108299D01*
X0056118Y0108299D01*
X0056118Y0107299D01*
X0057118Y0107299D01*
X0057118Y0102614D01*
X0057836Y0102727D01*
X0058614Y0102980D01*
X0059344Y0103352D01*
X0060006Y0103833D01*
X0060584Y0104412D01*
X0061066Y0105074D01*
X0061437Y0105803D01*
X0061690Y0106582D01*
X0061696Y0106617D01*
X0062379Y0104967D01*
X0063786Y0103560D01*
X0065624Y0102799D01*
X0067613Y0102799D01*
X0069450Y0103560D01*
X0070857Y0104967D01*
X0071618Y0106805D01*
X0071618Y0108794D01*
X0070857Y0110631D01*
X0069450Y0112038D01*
X0067613Y0112799D01*
X0065624Y0112799D01*
X0063786Y0112038D01*
X0062379Y0110631D01*
X0061696Y0108981D01*
X0061690Y0109017D01*
X0061437Y0109795D01*
X0061066Y0110525D01*
X0060584Y0111187D01*
X0060006Y0111766D01*
X0059344Y0112247D01*
X0058614Y0112618D01*
X0057836Y0112871D01*
X0057118Y0112985D01*
X0057118Y0108299D01*
X0056118Y0108299D01*
X0056118Y0112985D01*
X0055400Y0112871D01*
X0054622Y0112618D01*
X0053893Y0112247D01*
X0053231Y0111766D01*
X0052652Y0111187D01*
X0052075Y0110338D02*
X0028293Y0110338D01*
X0029580Y0109339D02*
X0051651Y0109339D01*
X0051439Y0108341D02*
X0030579Y0108341D01*
X0031008Y0107342D02*
X0056118Y0107342D01*
X0056118Y0107299D02*
X0051432Y0107299D01*
X0051546Y0106582D01*
X0051799Y0105803D01*
X0052171Y0105074D01*
X0052652Y0104412D01*
X0053231Y0103833D01*
X0053893Y0103352D01*
X0054622Y0102980D01*
X0055400Y0102727D01*
X0056118Y0102614D01*
X0056118Y0107299D01*
X0056118Y0106344D02*
X0057118Y0106344D01*
X0057118Y0105345D02*
X0056118Y0105345D01*
X0056118Y0104347D02*
X0057118Y0104347D01*
X0057118Y0103348D02*
X0056118Y0103348D01*
X0053900Y0103348D02*
X0031584Y0103348D01*
X0031591Y0104347D02*
X0052717Y0104347D01*
X0052032Y0105345D02*
X0031591Y0105345D01*
X0031422Y0106344D02*
X0051623Y0106344D01*
X0054066Y0112335D02*
X0006000Y0112335D01*
X0006000Y0113333D02*
X0074503Y0113333D01*
X0074503Y0112335D02*
X0068734Y0112335D01*
X0070152Y0111336D02*
X0074503Y0111336D01*
X0074503Y0110338D02*
X0070979Y0110338D01*
X0071392Y0109339D02*
X0074503Y0109339D01*
X0074503Y0108341D02*
X0071618Y0108341D01*
X0071618Y0107342D02*
X0074503Y0107342D01*
X0074503Y0106344D02*
X0071427Y0106344D01*
X0071014Y0105345D02*
X0074503Y0105345D01*
X0074503Y0104347D02*
X0070237Y0104347D01*
X0068938Y0103348D02*
X0074503Y0103348D01*
X0074503Y0102350D02*
X0031171Y0102350D01*
X0030757Y0101351D02*
X0074503Y0101351D01*
X0074503Y0100353D02*
X0029973Y0100353D01*
X0028974Y0099354D02*
X0074503Y0099354D01*
X0074503Y0098356D02*
X0026830Y0098356D01*
X0027452Y0093363D02*
X0074503Y0093363D01*
X0074503Y0092365D02*
X0029232Y0092365D01*
X0030231Y0091366D02*
X0074503Y0091366D01*
X0074503Y0090368D02*
X0030864Y0090368D01*
X0031278Y0089369D02*
X0074503Y0089369D01*
X0074503Y0088370D02*
X0031591Y0088370D01*
X0031591Y0087372D02*
X0074503Y0087372D01*
X0074503Y0086373D02*
X0031591Y0086373D01*
X0031315Y0085375D02*
X0074503Y0085375D01*
X0074503Y0084376D02*
X0030901Y0084376D01*
X0030321Y0083378D02*
X0074503Y0083378D01*
X0074503Y0082379D02*
X0029323Y0082379D01*
X0027670Y0081381D02*
X0055437Y0081381D01*
X0056118Y0081381D02*
X0057118Y0081381D01*
X0057799Y0081381D02*
X0074503Y0081381D01*
X0074503Y0080382D02*
X0069610Y0080382D01*
X0070608Y0079384D02*
X0074503Y0079384D01*
X0074503Y0078385D02*
X0071168Y0078385D01*
X0071581Y0077387D02*
X0074503Y0077387D01*
X0074503Y0076388D02*
X0071618Y0076388D01*
X0071618Y0075390D02*
X0074503Y0075390D01*
X0074503Y0074391D02*
X0071238Y0074391D01*
X0070779Y0073393D02*
X0074503Y0073393D01*
X0074503Y0072394D02*
X0069780Y0072394D01*
X0067836Y0071396D02*
X0074503Y0071396D01*
X0074503Y0070397D02*
X0044969Y0070397D01*
X0047324Y0069399D02*
X0074503Y0069399D01*
X0074503Y0068400D02*
X0048323Y0068400D01*
X0049321Y0067402D02*
X0074503Y0067402D01*
X0074503Y0066403D02*
X0049836Y0066403D01*
X0050249Y0065405D02*
X0074503Y0065405D01*
X0074503Y0064406D02*
X0050663Y0064406D01*
X0050689Y0063408D02*
X0074503Y0063408D01*
X0074503Y0062409D02*
X0050689Y0062409D01*
X0050689Y0061411D02*
X0074503Y0061411D01*
X0074503Y0060412D02*
X0050353Y0060412D01*
X0049940Y0059414D02*
X0074503Y0059414D01*
X0074503Y0058415D02*
X0049526Y0058415D01*
X0048574Y0057417D02*
X0074503Y0057417D01*
X0074503Y0056418D02*
X0047575Y0056418D01*
X0045575Y0055420D02*
X0074503Y0055420D01*
X0078103Y0051426D02*
X0082218Y0051426D01*
X0081323Y0050427D02*
X0078103Y0050427D01*
X0078103Y0049429D02*
X0080909Y0049429D01*
X0080896Y0048430D02*
X0078103Y0048430D01*
X0078103Y0047432D02*
X0081169Y0047432D01*
X0081848Y0046433D02*
X0078103Y0046433D01*
X0078103Y0045434D02*
X0082377Y0045434D01*
X0082377Y0044436D02*
X0078103Y0044436D01*
X0077479Y0043437D02*
X0082377Y0043437D01*
X0084177Y0048744D02*
X0084177Y0032996D01*
X0065400Y0071396D02*
X0058342Y0071396D01*
X0060063Y0072394D02*
X0063456Y0072394D01*
X0062457Y0073393D02*
X0060931Y0073393D01*
X0061465Y0074391D02*
X0061998Y0074391D01*
X0062069Y0078385D02*
X0061393Y0078385D01*
X0060807Y0079384D02*
X0062628Y0079384D01*
X0063626Y0080382D02*
X0059850Y0080382D01*
X0057118Y0080382D02*
X0056118Y0080382D01*
X0056118Y0079384D02*
X0057118Y0079384D01*
X0057118Y0078385D02*
X0056118Y0078385D01*
X0056118Y0077387D02*
X0057118Y0077387D01*
X0059336Y0103348D02*
X0064298Y0103348D01*
X0063000Y0104347D02*
X0060519Y0104347D01*
X0061204Y0105345D02*
X0062223Y0105345D01*
X0061809Y0106344D02*
X0061613Y0106344D01*
X0061585Y0109339D02*
X0061844Y0109339D01*
X0062258Y0110338D02*
X0061161Y0110338D01*
X0060435Y0111336D02*
X0063084Y0111336D01*
X0064502Y0112335D02*
X0059171Y0112335D01*
X0057118Y0112335D02*
X0056118Y0112335D01*
X0056118Y0111336D02*
X0057118Y0111336D01*
X0057118Y0110338D02*
X0056118Y0110338D01*
X0056118Y0109339D02*
X0057118Y0109339D01*
X0057118Y0108341D02*
X0056118Y0108341D01*
X0047285Y0122538D02*
X0049493Y0124747D01*
X0050689Y0127632D01*
X0050689Y0130755D01*
X0049493Y0133640D01*
X0047285Y0135848D01*
X0044400Y0137043D01*
X0041277Y0137043D01*
X0038392Y0135848D01*
X0036184Y0133640D01*
X0034989Y0130755D01*
X0034989Y0127632D01*
X0036184Y0124747D01*
X0038392Y0122538D01*
X0041277Y0121343D01*
X0044400Y0121343D01*
X0047285Y0122538D01*
X0046758Y0122320D02*
X0074503Y0122320D01*
X0074503Y0123318D02*
X0048065Y0123318D01*
X0049064Y0124317D02*
X0074503Y0124317D01*
X0074503Y0125315D02*
X0049729Y0125315D01*
X0050143Y0126314D02*
X0074503Y0126314D01*
X0074503Y0127312D02*
X0050556Y0127312D01*
X0050689Y0128311D02*
X0074503Y0128311D01*
X0073775Y0129309D02*
X0050689Y0129309D01*
X0050689Y0130308D02*
X0073213Y0130308D01*
X0073022Y0131306D02*
X0050460Y0131306D01*
X0050046Y0132305D02*
X0073118Y0132305D01*
X0073545Y0133303D02*
X0049633Y0133303D01*
X0048831Y0134302D02*
X0074503Y0134302D01*
X0074503Y0135301D02*
X0047833Y0135301D01*
X0046197Y0136299D02*
X0074503Y0136299D01*
X0074503Y0137298D02*
X0006000Y0137298D01*
X0006000Y0138296D02*
X0074503Y0138296D01*
X0074503Y0139295D02*
X0006000Y0139295D01*
X0006000Y0140293D02*
X0074503Y0140293D01*
X0074503Y0141292D02*
X0006000Y0141292D01*
X0006000Y0142290D02*
X0074503Y0142290D01*
X0074503Y0143289D02*
X0006000Y0143289D01*
X0006000Y0144287D02*
X0074503Y0144287D01*
X0074503Y0145286D02*
X0006000Y0145286D01*
X0006000Y0146284D02*
X0074503Y0146284D01*
X0074503Y0147283D02*
X0006000Y0147283D01*
X0006000Y0148281D02*
X0074503Y0148281D01*
X0074503Y0149280D02*
X0006000Y0149280D01*
X0006000Y0150278D02*
X0074503Y0150278D01*
X0074503Y0151277D02*
X0006000Y0151277D01*
X0006000Y0152275D02*
X0074503Y0152275D01*
X0074503Y0153274D02*
X0006000Y0153274D01*
X0006000Y0154272D02*
X0074503Y0154272D01*
X0074503Y0155271D02*
X0006000Y0155271D01*
X0006000Y0156269D02*
X0074503Y0156269D01*
X0074503Y0157268D02*
X0006000Y0157268D01*
X0006000Y0158266D02*
X0074503Y0158266D01*
X0074503Y0159265D02*
X0006000Y0159265D01*
X0006000Y0160263D02*
X0074503Y0160263D01*
X0074503Y0161262D02*
X0006000Y0161262D01*
X0006000Y0162260D02*
X0074503Y0162260D01*
X0074503Y0163259D02*
X0006000Y0163259D01*
X0006000Y0164257D02*
X0074503Y0164257D01*
X0074503Y0165256D02*
X0006000Y0165256D01*
X0006000Y0166254D02*
X0074231Y0166254D01*
X0073402Y0167253D02*
X0006000Y0167253D01*
X0006000Y0168251D02*
X0073022Y0168251D01*
X0073022Y0169250D02*
X0006000Y0169250D01*
X0006000Y0170248D02*
X0073342Y0170248D01*
X0078103Y0161262D02*
X0081818Y0161262D01*
X0081157Y0160263D02*
X0078103Y0160263D01*
X0078103Y0159265D02*
X0080896Y0159265D01*
X0080921Y0158266D02*
X0078103Y0158266D01*
X0078103Y0157268D02*
X0081335Y0157268D01*
X0091488Y0173244D02*
X0044884Y0173244D01*
X0044400Y0173043D02*
X0047285Y0174238D01*
X0049493Y0176447D01*
X0050689Y0179332D01*
X0050689Y0182455D01*
X0049493Y0185340D01*
X0047285Y0187548D01*
X0044400Y0188743D01*
X0041277Y0188743D01*
X0038392Y0187548D01*
X0036184Y0185340D01*
X0034989Y0182455D01*
X0034989Y0179332D01*
X0036184Y0176447D01*
X0038392Y0174238D01*
X0041277Y0173043D01*
X0044400Y0173043D01*
X0047289Y0174242D02*
X0091488Y0174242D01*
X0091488Y0175241D02*
X0048288Y0175241D01*
X0049286Y0176239D02*
X0091488Y0176239D01*
X0091488Y0177238D02*
X0049821Y0177238D01*
X0050235Y0178237D02*
X0091488Y0178237D01*
X0091488Y0179235D02*
X0050648Y0179235D01*
X0050689Y0180234D02*
X0091488Y0180234D01*
X0091488Y0181232D02*
X0050689Y0181232D01*
X0050689Y0182231D02*
X0091488Y0182231D01*
X0091488Y0183229D02*
X0050368Y0183229D01*
X0049954Y0184228D02*
X0091488Y0184228D01*
X0091488Y0185226D02*
X0049541Y0185226D01*
X0048609Y0186225D02*
X0091488Y0186225D01*
X0091488Y0187223D02*
X0047610Y0187223D01*
X0045659Y0188222D02*
X0091488Y0188222D01*
X0091488Y0189220D02*
X0006000Y0189220D01*
X0006000Y0188222D02*
X0040018Y0188222D01*
X0038067Y0187223D02*
X0006000Y0187223D01*
X0006000Y0186225D02*
X0037068Y0186225D01*
X0036137Y0185226D02*
X0006000Y0185226D01*
X0006000Y0184228D02*
X0035723Y0184228D01*
X0035309Y0183229D02*
X0006000Y0183229D01*
X0006000Y0182231D02*
X0034989Y0182231D01*
X0034989Y0181232D02*
X0006000Y0181232D01*
X0006000Y0180234D02*
X0034989Y0180234D01*
X0035029Y0179235D02*
X0006000Y0179235D01*
X0006000Y0178237D02*
X0035442Y0178237D01*
X0035856Y0177238D02*
X0006000Y0177238D01*
X0006000Y0176239D02*
X0036391Y0176239D01*
X0037389Y0175241D02*
X0006000Y0175241D01*
X0006000Y0174242D02*
X0038388Y0174242D01*
X0040793Y0173244D02*
X0006000Y0173244D01*
X0006000Y0136299D02*
X0039480Y0136299D01*
X0037844Y0135301D02*
X0006000Y0135301D01*
X0006000Y0134302D02*
X0036846Y0134302D01*
X0036044Y0133303D02*
X0006000Y0133303D01*
X0006000Y0132305D02*
X0035631Y0132305D01*
X0035217Y0131306D02*
X0006000Y0131306D01*
X0006000Y0130308D02*
X0034989Y0130308D01*
X0034989Y0129309D02*
X0006000Y0129309D01*
X0006000Y0128311D02*
X0034989Y0128311D01*
X0035121Y0127312D02*
X0006000Y0127312D01*
X0006000Y0126314D02*
X0035534Y0126314D01*
X0035948Y0125315D02*
X0006000Y0125315D01*
X0006000Y0124317D02*
X0036613Y0124317D01*
X0037612Y0123318D02*
X0006000Y0123318D01*
X0006000Y0122320D02*
X0038919Y0122320D01*
X0006000Y0121321D02*
X0074503Y0121321D01*
X0074503Y0120323D02*
X0006000Y0120323D01*
X0006000Y0119324D02*
X0074503Y0119324D01*
X0074503Y0118326D02*
X0006000Y0118326D01*
X0006000Y0117327D02*
X0074503Y0117327D01*
X0074503Y0116329D02*
X0006000Y0116329D01*
X0006000Y0115330D02*
X0074503Y0115330D01*
X0074503Y0114332D02*
X0006000Y0114332D01*
X0006000Y0097357D02*
X0074503Y0097357D01*
X0074503Y0096359D02*
X0006000Y0096359D01*
X0006000Y0095360D02*
X0074503Y0095360D01*
X0074503Y0094362D02*
X0006000Y0094362D01*
M02*
