G75*
%MOIN*%
%OFA0B0*%
%FSLAX25Y25*%
%IPPOS*%
%LPD*%
%AMOC8*
5,1,8,0,0,1.08239X$1,22.5*
%
%ADD10C,0.00000*%
%ADD11R,0.03642X0.02913*%
%ADD12C,0.13100*%
%ADD13R,0.11811X0.03543*%
%ADD14R,0.09449X0.07874*%
%ADD15R,0.09087X0.01969*%
%ADD16C,0.07400*%
%ADD17R,0.02756X0.03543*%
%ADD18R,0.02283X0.00984*%
%ADD19R,0.01378X0.02480*%
%ADD20C,0.01000*%
%ADD21C,0.03962*%
D10*
X0001500Y0005437D02*
X0001500Y0190476D01*
X0001502Y0190600D01*
X0001508Y0190723D01*
X0001517Y0190847D01*
X0001531Y0190969D01*
X0001548Y0191092D01*
X0001570Y0191214D01*
X0001595Y0191335D01*
X0001624Y0191455D01*
X0001656Y0191574D01*
X0001693Y0191693D01*
X0001733Y0191810D01*
X0001776Y0191925D01*
X0001824Y0192040D01*
X0001875Y0192152D01*
X0001929Y0192263D01*
X0001987Y0192373D01*
X0002048Y0192480D01*
X0002113Y0192586D01*
X0002181Y0192689D01*
X0002252Y0192790D01*
X0002326Y0192889D01*
X0002403Y0192986D01*
X0002484Y0193080D01*
X0002567Y0193171D01*
X0002653Y0193260D01*
X0002742Y0193346D01*
X0002833Y0193429D01*
X0002927Y0193510D01*
X0003024Y0193587D01*
X0003123Y0193661D01*
X0003224Y0193732D01*
X0003327Y0193800D01*
X0003433Y0193865D01*
X0003540Y0193926D01*
X0003650Y0193984D01*
X0003761Y0194038D01*
X0003873Y0194089D01*
X0003988Y0194137D01*
X0004103Y0194180D01*
X0004220Y0194220D01*
X0004339Y0194257D01*
X0004458Y0194289D01*
X0004578Y0194318D01*
X0004699Y0194343D01*
X0004821Y0194365D01*
X0004944Y0194382D01*
X0005066Y0194396D01*
X0005190Y0194405D01*
X0005313Y0194411D01*
X0005437Y0194413D01*
X0092051Y0194413D01*
X0092175Y0194411D01*
X0092298Y0194405D01*
X0092422Y0194396D01*
X0092544Y0194382D01*
X0092667Y0194365D01*
X0092789Y0194343D01*
X0092910Y0194318D01*
X0093030Y0194289D01*
X0093149Y0194257D01*
X0093268Y0194220D01*
X0093385Y0194180D01*
X0093500Y0194137D01*
X0093615Y0194089D01*
X0093727Y0194038D01*
X0093838Y0193984D01*
X0093948Y0193926D01*
X0094055Y0193865D01*
X0094161Y0193800D01*
X0094264Y0193732D01*
X0094365Y0193661D01*
X0094464Y0193587D01*
X0094561Y0193510D01*
X0094655Y0193429D01*
X0094746Y0193346D01*
X0094835Y0193260D01*
X0094921Y0193171D01*
X0095004Y0193080D01*
X0095085Y0192986D01*
X0095162Y0192889D01*
X0095236Y0192790D01*
X0095307Y0192689D01*
X0095375Y0192586D01*
X0095440Y0192480D01*
X0095501Y0192373D01*
X0095559Y0192263D01*
X0095613Y0192152D01*
X0095664Y0192040D01*
X0095712Y0191925D01*
X0095755Y0191810D01*
X0095795Y0191693D01*
X0095832Y0191574D01*
X0095864Y0191455D01*
X0095893Y0191335D01*
X0095918Y0191214D01*
X0095940Y0191092D01*
X0095957Y0190969D01*
X0095971Y0190847D01*
X0095980Y0190723D01*
X0095986Y0190600D01*
X0095988Y0190476D01*
X0095988Y0005437D01*
X0095986Y0005313D01*
X0095980Y0005190D01*
X0095971Y0005066D01*
X0095957Y0004944D01*
X0095940Y0004821D01*
X0095918Y0004699D01*
X0095893Y0004578D01*
X0095864Y0004458D01*
X0095832Y0004339D01*
X0095795Y0004220D01*
X0095755Y0004103D01*
X0095712Y0003988D01*
X0095664Y0003873D01*
X0095613Y0003761D01*
X0095559Y0003650D01*
X0095501Y0003540D01*
X0095440Y0003433D01*
X0095375Y0003327D01*
X0095307Y0003224D01*
X0095236Y0003123D01*
X0095162Y0003024D01*
X0095085Y0002927D01*
X0095004Y0002833D01*
X0094921Y0002742D01*
X0094835Y0002653D01*
X0094746Y0002567D01*
X0094655Y0002484D01*
X0094561Y0002403D01*
X0094464Y0002326D01*
X0094365Y0002252D01*
X0094264Y0002181D01*
X0094161Y0002113D01*
X0094055Y0002048D01*
X0093948Y0001987D01*
X0093838Y0001929D01*
X0093727Y0001875D01*
X0093615Y0001824D01*
X0093500Y0001776D01*
X0093385Y0001733D01*
X0093268Y0001693D01*
X0093149Y0001656D01*
X0093030Y0001624D01*
X0092910Y0001595D01*
X0092789Y0001570D01*
X0092667Y0001548D01*
X0092544Y0001531D01*
X0092422Y0001517D01*
X0092298Y0001508D01*
X0092175Y0001502D01*
X0092051Y0001500D01*
X0005437Y0001500D01*
X0005313Y0001502D01*
X0005190Y0001508D01*
X0005066Y0001517D01*
X0004944Y0001531D01*
X0004821Y0001548D01*
X0004699Y0001570D01*
X0004578Y0001595D01*
X0004458Y0001624D01*
X0004339Y0001656D01*
X0004220Y0001693D01*
X0004103Y0001733D01*
X0003988Y0001776D01*
X0003873Y0001824D01*
X0003761Y0001875D01*
X0003650Y0001929D01*
X0003540Y0001987D01*
X0003433Y0002048D01*
X0003327Y0002113D01*
X0003224Y0002181D01*
X0003123Y0002252D01*
X0003024Y0002326D01*
X0002927Y0002403D01*
X0002833Y0002484D01*
X0002742Y0002567D01*
X0002653Y0002653D01*
X0002567Y0002742D01*
X0002484Y0002833D01*
X0002403Y0002927D01*
X0002326Y0003024D01*
X0002252Y0003123D01*
X0002181Y0003224D01*
X0002113Y0003327D01*
X0002048Y0003433D01*
X0001987Y0003540D01*
X0001929Y0003650D01*
X0001875Y0003761D01*
X0001824Y0003873D01*
X0001776Y0003988D01*
X0001733Y0004103D01*
X0001693Y0004220D01*
X0001656Y0004339D01*
X0001624Y0004458D01*
X0001595Y0004578D01*
X0001570Y0004699D01*
X0001548Y0004821D01*
X0001531Y0004944D01*
X0001517Y0005066D01*
X0001508Y0005190D01*
X0001502Y0005313D01*
X0001500Y0005437D01*
X0023153Y0087327D02*
X0023155Y0087415D01*
X0023161Y0087503D01*
X0023171Y0087591D01*
X0023185Y0087679D01*
X0023202Y0087765D01*
X0023224Y0087851D01*
X0023249Y0087935D01*
X0023279Y0088019D01*
X0023311Y0088101D01*
X0023348Y0088181D01*
X0023388Y0088260D01*
X0023432Y0088337D01*
X0023479Y0088412D01*
X0023529Y0088484D01*
X0023583Y0088555D01*
X0023639Y0088622D01*
X0023699Y0088688D01*
X0023761Y0088750D01*
X0023827Y0088810D01*
X0023894Y0088866D01*
X0023965Y0088920D01*
X0024037Y0088970D01*
X0024112Y0089017D01*
X0024189Y0089061D01*
X0024268Y0089101D01*
X0024348Y0089138D01*
X0024430Y0089170D01*
X0024514Y0089200D01*
X0024598Y0089225D01*
X0024684Y0089247D01*
X0024770Y0089264D01*
X0024858Y0089278D01*
X0024946Y0089288D01*
X0025034Y0089294D01*
X0025122Y0089296D01*
X0025210Y0089294D01*
X0025298Y0089288D01*
X0025386Y0089278D01*
X0025474Y0089264D01*
X0025560Y0089247D01*
X0025646Y0089225D01*
X0025730Y0089200D01*
X0025814Y0089170D01*
X0025896Y0089138D01*
X0025976Y0089101D01*
X0026055Y0089061D01*
X0026132Y0089017D01*
X0026207Y0088970D01*
X0026279Y0088920D01*
X0026350Y0088866D01*
X0026417Y0088810D01*
X0026483Y0088750D01*
X0026545Y0088688D01*
X0026605Y0088622D01*
X0026661Y0088555D01*
X0026715Y0088484D01*
X0026765Y0088412D01*
X0026812Y0088337D01*
X0026856Y0088260D01*
X0026896Y0088181D01*
X0026933Y0088101D01*
X0026965Y0088019D01*
X0026995Y0087935D01*
X0027020Y0087851D01*
X0027042Y0087765D01*
X0027059Y0087679D01*
X0027073Y0087591D01*
X0027083Y0087503D01*
X0027089Y0087415D01*
X0027091Y0087327D01*
X0027089Y0087239D01*
X0027083Y0087151D01*
X0027073Y0087063D01*
X0027059Y0086975D01*
X0027042Y0086889D01*
X0027020Y0086803D01*
X0026995Y0086719D01*
X0026965Y0086635D01*
X0026933Y0086553D01*
X0026896Y0086473D01*
X0026856Y0086394D01*
X0026812Y0086317D01*
X0026765Y0086242D01*
X0026715Y0086170D01*
X0026661Y0086099D01*
X0026605Y0086032D01*
X0026545Y0085966D01*
X0026483Y0085904D01*
X0026417Y0085844D01*
X0026350Y0085788D01*
X0026279Y0085734D01*
X0026207Y0085684D01*
X0026132Y0085637D01*
X0026055Y0085593D01*
X0025976Y0085553D01*
X0025896Y0085516D01*
X0025814Y0085484D01*
X0025730Y0085454D01*
X0025646Y0085429D01*
X0025560Y0085407D01*
X0025474Y0085390D01*
X0025386Y0085376D01*
X0025298Y0085366D01*
X0025210Y0085360D01*
X0025122Y0085358D01*
X0025034Y0085360D01*
X0024946Y0085366D01*
X0024858Y0085376D01*
X0024770Y0085390D01*
X0024684Y0085407D01*
X0024598Y0085429D01*
X0024514Y0085454D01*
X0024430Y0085484D01*
X0024348Y0085516D01*
X0024268Y0085553D01*
X0024189Y0085593D01*
X0024112Y0085637D01*
X0024037Y0085684D01*
X0023965Y0085734D01*
X0023894Y0085788D01*
X0023827Y0085844D01*
X0023761Y0085904D01*
X0023699Y0085966D01*
X0023639Y0086032D01*
X0023583Y0086099D01*
X0023529Y0086170D01*
X0023479Y0086242D01*
X0023432Y0086317D01*
X0023388Y0086394D01*
X0023348Y0086473D01*
X0023311Y0086553D01*
X0023279Y0086635D01*
X0023249Y0086719D01*
X0023224Y0086803D01*
X0023202Y0086889D01*
X0023185Y0086975D01*
X0023171Y0087063D01*
X0023161Y0087151D01*
X0023155Y0087239D01*
X0023153Y0087327D01*
X0023153Y0104650D02*
X0023155Y0104738D01*
X0023161Y0104826D01*
X0023171Y0104914D01*
X0023185Y0105002D01*
X0023202Y0105088D01*
X0023224Y0105174D01*
X0023249Y0105258D01*
X0023279Y0105342D01*
X0023311Y0105424D01*
X0023348Y0105504D01*
X0023388Y0105583D01*
X0023432Y0105660D01*
X0023479Y0105735D01*
X0023529Y0105807D01*
X0023583Y0105878D01*
X0023639Y0105945D01*
X0023699Y0106011D01*
X0023761Y0106073D01*
X0023827Y0106133D01*
X0023894Y0106189D01*
X0023965Y0106243D01*
X0024037Y0106293D01*
X0024112Y0106340D01*
X0024189Y0106384D01*
X0024268Y0106424D01*
X0024348Y0106461D01*
X0024430Y0106493D01*
X0024514Y0106523D01*
X0024598Y0106548D01*
X0024684Y0106570D01*
X0024770Y0106587D01*
X0024858Y0106601D01*
X0024946Y0106611D01*
X0025034Y0106617D01*
X0025122Y0106619D01*
X0025210Y0106617D01*
X0025298Y0106611D01*
X0025386Y0106601D01*
X0025474Y0106587D01*
X0025560Y0106570D01*
X0025646Y0106548D01*
X0025730Y0106523D01*
X0025814Y0106493D01*
X0025896Y0106461D01*
X0025976Y0106424D01*
X0026055Y0106384D01*
X0026132Y0106340D01*
X0026207Y0106293D01*
X0026279Y0106243D01*
X0026350Y0106189D01*
X0026417Y0106133D01*
X0026483Y0106073D01*
X0026545Y0106011D01*
X0026605Y0105945D01*
X0026661Y0105878D01*
X0026715Y0105807D01*
X0026765Y0105735D01*
X0026812Y0105660D01*
X0026856Y0105583D01*
X0026896Y0105504D01*
X0026933Y0105424D01*
X0026965Y0105342D01*
X0026995Y0105258D01*
X0027020Y0105174D01*
X0027042Y0105088D01*
X0027059Y0105002D01*
X0027073Y0104914D01*
X0027083Y0104826D01*
X0027089Y0104738D01*
X0027091Y0104650D01*
X0027089Y0104562D01*
X0027083Y0104474D01*
X0027073Y0104386D01*
X0027059Y0104298D01*
X0027042Y0104212D01*
X0027020Y0104126D01*
X0026995Y0104042D01*
X0026965Y0103958D01*
X0026933Y0103876D01*
X0026896Y0103796D01*
X0026856Y0103717D01*
X0026812Y0103640D01*
X0026765Y0103565D01*
X0026715Y0103493D01*
X0026661Y0103422D01*
X0026605Y0103355D01*
X0026545Y0103289D01*
X0026483Y0103227D01*
X0026417Y0103167D01*
X0026350Y0103111D01*
X0026279Y0103057D01*
X0026207Y0103007D01*
X0026132Y0102960D01*
X0026055Y0102916D01*
X0025976Y0102876D01*
X0025896Y0102839D01*
X0025814Y0102807D01*
X0025730Y0102777D01*
X0025646Y0102752D01*
X0025560Y0102730D01*
X0025474Y0102713D01*
X0025386Y0102699D01*
X0025298Y0102689D01*
X0025210Y0102683D01*
X0025122Y0102681D01*
X0025034Y0102683D01*
X0024946Y0102689D01*
X0024858Y0102699D01*
X0024770Y0102713D01*
X0024684Y0102730D01*
X0024598Y0102752D01*
X0024514Y0102777D01*
X0024430Y0102807D01*
X0024348Y0102839D01*
X0024268Y0102876D01*
X0024189Y0102916D01*
X0024112Y0102960D01*
X0024037Y0103007D01*
X0023965Y0103057D01*
X0023894Y0103111D01*
X0023827Y0103167D01*
X0023761Y0103227D01*
X0023699Y0103289D01*
X0023639Y0103355D01*
X0023583Y0103422D01*
X0023529Y0103493D01*
X0023479Y0103565D01*
X0023432Y0103640D01*
X0023388Y0103717D01*
X0023348Y0103796D01*
X0023311Y0103876D01*
X0023279Y0103958D01*
X0023249Y0104042D01*
X0023224Y0104126D01*
X0023202Y0104212D01*
X0023185Y0104298D01*
X0023171Y0104386D01*
X0023161Y0104474D01*
X0023155Y0104562D01*
X0023153Y0104650D01*
D11*
X0073941Y0084177D03*
X0078665Y0084177D03*
D12*
X0042839Y0062783D03*
X0042839Y0011083D03*
X0042839Y0129193D03*
X0042839Y0180893D03*
D13*
X0059421Y0168823D03*
X0059421Y0158980D03*
X0059421Y0151106D03*
X0059421Y0141264D03*
X0059421Y0050713D03*
X0059421Y0040870D03*
X0059421Y0032996D03*
X0059421Y0023154D03*
D14*
X0034965Y0078665D03*
X0034965Y0113311D03*
X0013311Y0113311D03*
X0013311Y0078665D03*
D15*
X0037185Y0089689D03*
X0037185Y0092839D03*
X0037185Y0095988D03*
X0037185Y0099138D03*
X0037185Y0102287D03*
D16*
X0056618Y0107799D03*
X0066618Y0107799D03*
X0066618Y0076303D03*
X0056618Y0076303D03*
D17*
X0061933Y0064492D03*
X0067051Y0064492D03*
X0067051Y0123547D03*
X0061933Y0123547D03*
D18*
X0073941Y0098941D03*
X0073941Y0096972D03*
X0073941Y0095004D03*
X0073941Y0093035D03*
X0078665Y0093035D03*
X0078665Y0095004D03*
X0078665Y0096972D03*
X0078665Y0098941D03*
D19*
X0076303Y0099335D03*
X0076303Y0092642D03*
D20*
X0076303Y0088114D01*
X0078665Y0088114D01*
X0078665Y0084177D01*
X0078665Y0050713D01*
X0059421Y0050713D01*
X0044807Y0050713D01*
X0044807Y0044807D01*
X0042948Y0042026D02*
X0044154Y0041526D01*
X0045460Y0041526D01*
X0046666Y0042026D01*
X0047589Y0042948D01*
X0048088Y0044154D01*
X0048088Y0045460D01*
X0047589Y0046666D01*
X0046666Y0047589D01*
X0046607Y0047613D01*
X0046607Y0048913D01*
X0052216Y0048913D01*
X0052216Y0048402D01*
X0052977Y0047641D01*
X0065865Y0047641D01*
X0066627Y0048402D01*
X0066627Y0048913D01*
X0079411Y0048913D01*
X0080465Y0049967D01*
X0080465Y0081420D01*
X0081025Y0081420D01*
X0081786Y0082182D01*
X0081786Y0086172D01*
X0081025Y0086934D01*
X0080465Y0086934D01*
X0080465Y0088860D01*
X0079411Y0089914D01*
X0078103Y0089914D01*
X0078103Y0090674D01*
X0078292Y0090863D01*
X0078292Y0091235D01*
X0082377Y0091235D01*
X0082377Y0051550D01*
X0082319Y0051526D01*
X0081396Y0050603D01*
X0080896Y0049397D01*
X0080896Y0048091D01*
X0081396Y0046885D01*
X0082319Y0045963D01*
X0083525Y0045463D01*
X0084830Y0045463D01*
X0086036Y0045963D01*
X0086314Y0046241D01*
X0086314Y0042670D01*
X0066627Y0042670D01*
X0066627Y0043180D01*
X0065865Y0043942D01*
X0052977Y0043942D01*
X0052216Y0043180D01*
X0052216Y0038560D01*
X0052977Y0037798D01*
X0065865Y0037798D01*
X0066627Y0038560D01*
X0066627Y0039070D01*
X0088860Y0039070D01*
X0089914Y0040124D01*
X0089914Y0095750D01*
X0089675Y0095988D01*
X0089914Y0096227D01*
X0089914Y0151852D01*
X0088860Y0152906D01*
X0066627Y0152906D01*
X0066627Y0153416D01*
X0065865Y0154178D01*
X0052977Y0154178D01*
X0052216Y0153416D01*
X0052216Y0148796D01*
X0052977Y0148035D01*
X0065865Y0148035D01*
X0066627Y0148796D01*
X0066627Y0149306D01*
X0086314Y0149306D01*
X0086314Y0145735D01*
X0086036Y0146014D01*
X0084830Y0146513D01*
X0083525Y0146513D01*
X0082319Y0146014D01*
X0081396Y0145091D01*
X0080896Y0143885D01*
X0080896Y0142580D01*
X0081396Y0141374D01*
X0082319Y0140451D01*
X0082377Y0140426D01*
X0082377Y0100741D01*
X0078492Y0100741D01*
X0078492Y0100772D01*
X0078390Y0101154D01*
X0078192Y0101496D01*
X0077913Y0101775D01*
X0077571Y0101973D01*
X0077190Y0102075D01*
X0076303Y0102075D01*
X0075741Y0102075D01*
X0075741Y0108545D01*
X0074687Y0109599D01*
X0071284Y0109599D01*
X0070857Y0110631D01*
X0069450Y0112038D01*
X0068418Y0112466D01*
X0068418Y0120476D01*
X0068968Y0120476D01*
X0069729Y0121237D01*
X0069729Y0125857D01*
X0068968Y0126619D01*
X0065135Y0126619D01*
X0064492Y0125976D01*
X0063849Y0126619D01*
X0063733Y0126619D01*
X0063733Y0129621D01*
X0073497Y0129621D01*
X0073522Y0129563D01*
X0074445Y0128640D01*
X0075650Y0128140D01*
X0076956Y0128140D01*
X0078162Y0128640D01*
X0079085Y0129563D01*
X0079584Y0130769D01*
X0079584Y0132074D01*
X0079085Y0133280D01*
X0078162Y0134203D01*
X0076956Y0134702D01*
X0075650Y0134702D01*
X0074445Y0134203D01*
X0073522Y0133280D01*
X0073497Y0133221D01*
X0061187Y0133221D01*
X0060133Y0132167D01*
X0060133Y0126619D01*
X0060017Y0126619D01*
X0059255Y0125857D01*
X0059255Y0121410D01*
X0047998Y0121410D01*
X0046944Y0120356D01*
X0046944Y0104087D01*
X0042751Y0104087D01*
X0042267Y0104572D01*
X0032103Y0104572D01*
X0031591Y0104059D01*
X0031591Y0105936D01*
X0030705Y0108074D01*
X0040227Y0108074D01*
X0040989Y0108836D01*
X0040989Y0117787D01*
X0040227Y0118548D01*
X0029702Y0118548D01*
X0028940Y0117787D01*
X0028940Y0109979D01*
X0028786Y0110133D01*
X0026409Y0111118D01*
X0023835Y0111118D01*
X0021458Y0110133D01*
X0019638Y0108314D01*
X0018654Y0105936D01*
X0018654Y0103363D01*
X0019638Y0100985D01*
X0021458Y0099166D01*
X0023835Y0098181D01*
X0026409Y0098181D01*
X0028786Y0099166D01*
X0030606Y0100985D01*
X0031342Y0102762D01*
X0031342Y0100765D01*
X0031394Y0100713D01*
X0031342Y0100661D01*
X0031342Y0097615D01*
X0031394Y0097563D01*
X0031342Y0097511D01*
X0031342Y0094465D01*
X0031394Y0094413D01*
X0031342Y0094361D01*
X0031342Y0091422D01*
X0031244Y0091252D01*
X0031142Y0090871D01*
X0031142Y0089697D01*
X0030606Y0090991D01*
X0028786Y0092810D01*
X0026409Y0093795D01*
X0023835Y0093795D01*
X0021458Y0092810D01*
X0019638Y0090991D01*
X0018654Y0088613D01*
X0018654Y0086040D01*
X0019638Y0083663D01*
X0021458Y0081843D01*
X0023835Y0080858D01*
X0026409Y0080858D01*
X0028786Y0081843D01*
X0028940Y0081997D01*
X0028940Y0074190D01*
X0029702Y0073428D01*
X0040227Y0073428D01*
X0040989Y0074190D01*
X0040989Y0083141D01*
X0040227Y0083902D01*
X0030705Y0083902D01*
X0031591Y0086040D01*
X0031591Y0087635D01*
X0031721Y0087504D01*
X0032063Y0087307D01*
X0032444Y0087205D01*
X0037185Y0087205D01*
X0041926Y0087205D01*
X0042307Y0087307D01*
X0042649Y0087504D01*
X0042929Y0087784D01*
X0043126Y0088126D01*
X0043228Y0088507D01*
X0043228Y0089689D01*
X0043228Y0090871D01*
X0043126Y0091252D01*
X0043028Y0091422D01*
X0043028Y0094188D01*
X0062762Y0094188D01*
X0063747Y0093204D01*
X0064818Y0093204D01*
X0064818Y0080970D01*
X0063786Y0080542D01*
X0062379Y0079135D01*
X0061696Y0077485D01*
X0061690Y0077521D01*
X0061437Y0078299D01*
X0061066Y0079029D01*
X0060584Y0079691D01*
X0060006Y0080269D01*
X0059344Y0080751D01*
X0058614Y0081122D01*
X0057836Y0081375D01*
X0057118Y0081489D01*
X0057118Y0076803D01*
X0056118Y0076803D01*
X0056118Y0075803D01*
X0057118Y0075803D01*
X0057118Y0071118D01*
X0057836Y0071231D01*
X0058614Y0071484D01*
X0059344Y0071856D01*
X0060006Y0072337D01*
X0060584Y0072916D01*
X0061066Y0073578D01*
X0061437Y0074307D01*
X0061690Y0075085D01*
X0061696Y0075121D01*
X0062379Y0073471D01*
X0063786Y0072064D01*
X0065251Y0071457D01*
X0065251Y0067564D01*
X0065135Y0067564D01*
X0064492Y0066921D01*
X0063849Y0067564D01*
X0060017Y0067564D01*
X0059255Y0066802D01*
X0059255Y0062182D01*
X0060017Y0061420D01*
X0060133Y0061420D01*
X0060133Y0053784D01*
X0052977Y0053784D01*
X0052216Y0053023D01*
X0052216Y0052513D01*
X0044061Y0052513D01*
X0043007Y0051458D01*
X0043007Y0047613D01*
X0042948Y0047589D01*
X0042026Y0046666D01*
X0041526Y0045460D01*
X0041526Y0044154D01*
X0042026Y0042948D01*
X0042948Y0042026D01*
X0042535Y0042439D02*
X0006000Y0042439D01*
X0006000Y0043437D02*
X0041823Y0043437D01*
X0041526Y0044436D02*
X0006000Y0044436D01*
X0006000Y0045434D02*
X0041526Y0045434D01*
X0041929Y0046433D02*
X0006000Y0046433D01*
X0006000Y0047432D02*
X0042791Y0047432D01*
X0043007Y0048430D02*
X0006000Y0048430D01*
X0006000Y0049429D02*
X0043007Y0049429D01*
X0043007Y0050427D02*
X0006000Y0050427D01*
X0006000Y0051426D02*
X0043007Y0051426D01*
X0043973Y0052424D02*
X0006000Y0052424D01*
X0006000Y0053423D02*
X0052616Y0053423D01*
X0052216Y0048430D02*
X0046607Y0048430D01*
X0046823Y0047432D02*
X0081169Y0047432D01*
X0080896Y0048430D02*
X0066627Y0048430D01*
X0066627Y0052513D02*
X0066627Y0053023D01*
X0065865Y0053784D01*
X0063733Y0053784D01*
X0063733Y0061420D01*
X0063849Y0061420D01*
X0064492Y0062063D01*
X0065135Y0061420D01*
X0068968Y0061420D01*
X0069729Y0062182D01*
X0069729Y0066802D01*
X0068968Y0067564D01*
X0068851Y0067564D01*
X0068851Y0071816D01*
X0069450Y0072064D01*
X0070857Y0073471D01*
X0071618Y0075309D01*
X0071618Y0077298D01*
X0070857Y0079135D01*
X0069450Y0080542D01*
X0068418Y0080970D01*
X0068418Y0091235D01*
X0074314Y0091235D01*
X0074314Y0090863D01*
X0074503Y0090674D01*
X0074503Y0087369D01*
X0074738Y0087134D01*
X0074169Y0087134D01*
X0074169Y0084406D01*
X0073713Y0084406D01*
X0073713Y0087134D01*
X0071923Y0087134D01*
X0071541Y0087032D01*
X0071199Y0086834D01*
X0070920Y0086555D01*
X0070722Y0086213D01*
X0070620Y0085831D01*
X0070620Y0084406D01*
X0073713Y0084406D01*
X0073713Y0083949D01*
X0074169Y0083949D01*
X0074169Y0081220D01*
X0075959Y0081220D01*
X0076341Y0081323D01*
X0076510Y0081420D01*
X0076865Y0081420D01*
X0076865Y0052513D01*
X0066627Y0052513D01*
X0066227Y0053423D02*
X0076865Y0053423D01*
X0076865Y0054421D02*
X0063733Y0054421D01*
X0063733Y0055420D02*
X0076865Y0055420D01*
X0076865Y0056418D02*
X0063733Y0056418D01*
X0063733Y0057417D02*
X0076865Y0057417D01*
X0076865Y0058415D02*
X0063733Y0058415D01*
X0063733Y0059414D02*
X0076865Y0059414D01*
X0076865Y0060412D02*
X0063733Y0060412D01*
X0063733Y0061411D02*
X0076865Y0061411D01*
X0076865Y0062409D02*
X0069729Y0062409D01*
X0069729Y0063408D02*
X0076865Y0063408D01*
X0076865Y0064406D02*
X0069729Y0064406D01*
X0069729Y0065405D02*
X0076865Y0065405D01*
X0076865Y0066403D02*
X0069729Y0066403D01*
X0069130Y0067402D02*
X0076865Y0067402D01*
X0076865Y0068400D02*
X0068851Y0068400D01*
X0068851Y0069399D02*
X0076865Y0069399D01*
X0076865Y0070397D02*
X0068851Y0070397D01*
X0068851Y0071396D02*
X0076865Y0071396D01*
X0076865Y0072394D02*
X0069780Y0072394D01*
X0070779Y0073393D02*
X0076865Y0073393D01*
X0076865Y0074391D02*
X0071238Y0074391D01*
X0071618Y0075390D02*
X0076865Y0075390D01*
X0076865Y0076388D02*
X0071618Y0076388D01*
X0071581Y0077387D02*
X0076865Y0077387D01*
X0076865Y0078385D02*
X0071168Y0078385D01*
X0070608Y0079384D02*
X0076865Y0079384D01*
X0076865Y0080382D02*
X0069610Y0080382D01*
X0068418Y0081381D02*
X0071440Y0081381D01*
X0071541Y0081323D02*
X0071923Y0081220D01*
X0073713Y0081220D01*
X0073713Y0083949D01*
X0070620Y0083949D01*
X0070620Y0082523D01*
X0070722Y0082141D01*
X0070920Y0081799D01*
X0071199Y0081520D01*
X0071541Y0081323D01*
X0070659Y0082379D02*
X0068418Y0082379D01*
X0068418Y0083378D02*
X0070620Y0083378D01*
X0070620Y0085375D02*
X0068418Y0085375D01*
X0068418Y0086373D02*
X0070815Y0086373D01*
X0068418Y0087372D02*
X0074503Y0087372D01*
X0074503Y0088370D02*
X0068418Y0088370D01*
X0068418Y0089369D02*
X0074503Y0089369D01*
X0074503Y0090368D02*
X0068418Y0090368D01*
X0066618Y0093035D02*
X0073941Y0093035D01*
X0073941Y0095004D02*
X0064492Y0095004D01*
X0064492Y0095988D01*
X0037185Y0095988D01*
X0037185Y0099138D02*
X0068429Y0099138D01*
X0068429Y0096972D01*
X0073941Y0096972D01*
X0073941Y0098941D02*
X0073941Y0107799D01*
X0066618Y0107799D01*
X0066618Y0123547D01*
X0067051Y0123547D01*
X0068418Y0120323D02*
X0082377Y0120323D01*
X0082377Y0121321D02*
X0069729Y0121321D01*
X0069729Y0122320D02*
X0082377Y0122320D01*
X0082377Y0123318D02*
X0069729Y0123318D01*
X0069729Y0124317D02*
X0082377Y0124317D01*
X0082377Y0125315D02*
X0069729Y0125315D01*
X0069273Y0126314D02*
X0082377Y0126314D01*
X0082377Y0127312D02*
X0063733Y0127312D01*
X0063733Y0128311D02*
X0075238Y0128311D01*
X0073775Y0129309D02*
X0063733Y0129309D01*
X0061933Y0131421D02*
X0076303Y0131421D01*
X0077922Y0134302D02*
X0082377Y0134302D01*
X0082377Y0133303D02*
X0079061Y0133303D01*
X0079489Y0132305D02*
X0082377Y0132305D01*
X0082377Y0131306D02*
X0079584Y0131306D01*
X0079393Y0130308D02*
X0082377Y0130308D01*
X0082377Y0129309D02*
X0078832Y0129309D01*
X0077368Y0128311D02*
X0082377Y0128311D01*
X0082377Y0135301D02*
X0047833Y0135301D01*
X0047285Y0135848D02*
X0049493Y0133640D01*
X0050689Y0130755D01*
X0050689Y0127632D01*
X0049493Y0124747D01*
X0047285Y0122538D01*
X0044400Y0121343D01*
X0041277Y0121343D01*
X0038392Y0122538D01*
X0036184Y0124747D01*
X0034989Y0127632D01*
X0034989Y0130755D01*
X0036184Y0133640D01*
X0038392Y0135848D01*
X0041277Y0137043D01*
X0044400Y0137043D01*
X0047285Y0135848D01*
X0046197Y0136299D02*
X0082377Y0136299D01*
X0082377Y0137298D02*
X0006000Y0137298D01*
X0006000Y0138296D02*
X0052591Y0138296D01*
X0052595Y0138292D02*
X0052937Y0138094D01*
X0053318Y0137992D01*
X0059035Y0137992D01*
X0059035Y0140878D01*
X0052016Y0140878D01*
X0052016Y0139295D01*
X0052118Y0138913D01*
X0052315Y0138571D01*
X0052595Y0138292D01*
X0052016Y0139295D02*
X0006000Y0139295D01*
X0006000Y0140293D02*
X0052016Y0140293D01*
X0052016Y0141650D02*
X0059035Y0141650D01*
X0059035Y0140878D01*
X0059807Y0140878D01*
X0059807Y0137992D01*
X0065524Y0137992D01*
X0065906Y0138094D01*
X0066248Y0138292D01*
X0066527Y0138571D01*
X0066725Y0138913D01*
X0066827Y0139295D01*
X0066827Y0140878D01*
X0059807Y0140878D01*
X0059807Y0141650D01*
X0059035Y0141650D01*
X0059035Y0144535D01*
X0053318Y0144535D01*
X0052937Y0144433D01*
X0052595Y0144236D01*
X0052315Y0143956D01*
X0052118Y0143614D01*
X0052016Y0143233D01*
X0052016Y0141650D01*
X0052016Y0142290D02*
X0006000Y0142290D01*
X0006000Y0141292D02*
X0059035Y0141292D01*
X0059807Y0141292D02*
X0081478Y0141292D01*
X0081016Y0142290D02*
X0066827Y0142290D01*
X0066827Y0141650D02*
X0066827Y0143233D01*
X0066725Y0143614D01*
X0066527Y0143956D01*
X0066248Y0144236D01*
X0065906Y0144433D01*
X0065524Y0144535D01*
X0059807Y0144535D01*
X0059807Y0141650D01*
X0066827Y0141650D01*
X0066827Y0140293D02*
X0082377Y0140293D01*
X0082377Y0139295D02*
X0066827Y0139295D01*
X0066252Y0138296D02*
X0082377Y0138296D01*
X0080896Y0143289D02*
X0066812Y0143289D01*
X0066159Y0144287D02*
X0081063Y0144287D01*
X0081590Y0145286D02*
X0006000Y0145286D01*
X0006000Y0146284D02*
X0082971Y0146284D01*
X0084177Y0143232D02*
X0084177Y0098941D01*
X0078665Y0098941D01*
X0078665Y0096972D02*
X0088114Y0096972D01*
X0088114Y0151106D01*
X0059421Y0151106D01*
X0059035Y0144287D02*
X0059807Y0144287D01*
X0059807Y0143289D02*
X0059035Y0143289D01*
X0059035Y0142290D02*
X0059807Y0142290D01*
X0059807Y0140293D02*
X0059035Y0140293D01*
X0059035Y0139295D02*
X0059807Y0139295D01*
X0059807Y0138296D02*
X0059035Y0138296D01*
X0060271Y0132305D02*
X0050046Y0132305D01*
X0049633Y0133303D02*
X0073545Y0133303D01*
X0074684Y0134302D02*
X0048831Y0134302D01*
X0050460Y0131306D02*
X0060133Y0131306D01*
X0060133Y0130308D02*
X0050689Y0130308D01*
X0050689Y0129309D02*
X0060133Y0129309D01*
X0060133Y0128311D02*
X0050689Y0128311D01*
X0050556Y0127312D02*
X0060133Y0127312D01*
X0059712Y0126314D02*
X0050143Y0126314D01*
X0049729Y0125315D02*
X0059255Y0125315D01*
X0059255Y0124317D02*
X0049064Y0124317D01*
X0048065Y0123318D02*
X0059255Y0123318D01*
X0059255Y0122320D02*
X0046758Y0122320D01*
X0046944Y0120323D02*
X0006000Y0120323D01*
X0006000Y0121321D02*
X0047910Y0121321D01*
X0048744Y0119610D02*
X0061933Y0119610D01*
X0061933Y0123547D01*
X0061933Y0131421D01*
X0064154Y0126314D02*
X0064830Y0126314D01*
X0064492Y0121118D02*
X0063849Y0120476D01*
X0063733Y0120476D01*
X0063733Y0118865D01*
X0062679Y0117810D01*
X0050544Y0117810D01*
X0050544Y0101542D01*
X0049940Y0100938D01*
X0069175Y0100938D01*
X0070229Y0099883D01*
X0070229Y0098772D01*
X0071499Y0098772D01*
X0071499Y0099972D01*
X0072141Y0100613D01*
X0072141Y0105999D01*
X0071284Y0105999D01*
X0070857Y0104967D01*
X0069450Y0103560D01*
X0067613Y0102799D01*
X0065624Y0102799D01*
X0063786Y0103560D01*
X0062379Y0104967D01*
X0061696Y0106617D01*
X0061690Y0106582D01*
X0061437Y0105803D01*
X0061066Y0105074D01*
X0060584Y0104412D01*
X0060006Y0103833D01*
X0059344Y0103352D01*
X0058614Y0102980D01*
X0057836Y0102727D01*
X0057118Y0102614D01*
X0057118Y0107299D01*
X0056118Y0107299D01*
X0056118Y0102614D01*
X0055400Y0102727D01*
X0054622Y0102980D01*
X0053893Y0103352D01*
X0053231Y0103833D01*
X0052652Y0104412D01*
X0052171Y0105074D01*
X0051799Y0105803D01*
X0051546Y0106582D01*
X0051432Y0107299D01*
X0056118Y0107299D01*
X0056118Y0108299D01*
X0051432Y0108299D01*
X0051546Y0109017D01*
X0051799Y0109795D01*
X0052171Y0110525D01*
X0052652Y0111187D01*
X0053231Y0111766D01*
X0053893Y0112247D01*
X0054622Y0112618D01*
X0055400Y0112871D01*
X0056118Y0112985D01*
X0056118Y0108299D01*
X0057118Y0108299D01*
X0057118Y0112985D01*
X0057836Y0112871D01*
X0058614Y0112618D01*
X0059344Y0112247D01*
X0060006Y0111766D01*
X0060584Y0111187D01*
X0061066Y0110525D01*
X0061437Y0109795D01*
X0061690Y0109017D01*
X0061696Y0108981D01*
X0062379Y0110631D01*
X0063786Y0112038D01*
X0064818Y0112466D01*
X0064818Y0120792D01*
X0064492Y0121118D01*
X0064818Y0120323D02*
X0063733Y0120323D01*
X0063733Y0119324D02*
X0064818Y0119324D01*
X0064818Y0118326D02*
X0063194Y0118326D01*
X0064818Y0117327D02*
X0050544Y0117327D01*
X0050544Y0116329D02*
X0064818Y0116329D01*
X0064818Y0115330D02*
X0050544Y0115330D01*
X0050544Y0114332D02*
X0064818Y0114332D01*
X0064818Y0113333D02*
X0050544Y0113333D01*
X0050544Y0112335D02*
X0054066Y0112335D01*
X0052801Y0111336D02*
X0050544Y0111336D01*
X0050544Y0110338D02*
X0052075Y0110338D01*
X0051651Y0109339D02*
X0050544Y0109339D01*
X0050544Y0108341D02*
X0051439Y0108341D01*
X0050544Y0107342D02*
X0056118Y0107342D01*
X0056118Y0106344D02*
X0057118Y0106344D01*
X0057118Y0105345D02*
X0056118Y0105345D01*
X0056118Y0104347D02*
X0057118Y0104347D01*
X0057118Y0103348D02*
X0056118Y0103348D01*
X0053900Y0103348D02*
X0050544Y0103348D01*
X0050544Y0102350D02*
X0072141Y0102350D01*
X0072141Y0103348D02*
X0068938Y0103348D01*
X0069760Y0100353D02*
X0071880Y0100353D01*
X0072141Y0101351D02*
X0050353Y0101351D01*
X0048744Y0102287D02*
X0048744Y0119610D01*
X0046944Y0119324D02*
X0006000Y0119324D01*
X0006000Y0118326D02*
X0007826Y0118326D01*
X0008048Y0118548D02*
X0007287Y0117787D01*
X0007287Y0108836D01*
X0008048Y0108074D01*
X0018574Y0108074D01*
X0019335Y0108836D01*
X0019335Y0117787D01*
X0018574Y0118548D01*
X0008048Y0118548D01*
X0007287Y0117327D02*
X0006000Y0117327D01*
X0006000Y0116329D02*
X0007287Y0116329D01*
X0007287Y0115330D02*
X0006000Y0115330D01*
X0006000Y0114332D02*
X0007287Y0114332D01*
X0007287Y0113333D02*
X0006000Y0113333D01*
X0006000Y0112335D02*
X0007287Y0112335D01*
X0007287Y0111336D02*
X0006000Y0111336D01*
X0006000Y0110338D02*
X0007287Y0110338D01*
X0007287Y0109339D02*
X0006000Y0109339D01*
X0006000Y0108341D02*
X0007781Y0108341D01*
X0006000Y0107342D02*
X0019236Y0107342D01*
X0018841Y0108341D02*
X0019665Y0108341D01*
X0019335Y0109339D02*
X0020664Y0109339D01*
X0021951Y0110338D02*
X0019335Y0110338D01*
X0019335Y0111336D02*
X0028940Y0111336D01*
X0028940Y0110338D02*
X0028293Y0110338D01*
X0028940Y0112335D02*
X0019335Y0112335D01*
X0019335Y0113333D02*
X0028940Y0113333D01*
X0028940Y0114332D02*
X0019335Y0114332D01*
X0019335Y0115330D02*
X0028940Y0115330D01*
X0028940Y0116329D02*
X0019335Y0116329D01*
X0019335Y0117327D02*
X0028940Y0117327D01*
X0029479Y0118326D02*
X0018796Y0118326D01*
X0018822Y0106344D02*
X0006000Y0106344D01*
X0006000Y0105345D02*
X0018654Y0105345D01*
X0018654Y0104347D02*
X0006000Y0104347D01*
X0006000Y0103348D02*
X0018660Y0103348D01*
X0019073Y0102350D02*
X0006000Y0102350D01*
X0006000Y0101351D02*
X0019487Y0101351D01*
X0020271Y0100353D02*
X0006000Y0100353D01*
X0006000Y0099354D02*
X0021270Y0099354D01*
X0023414Y0098356D02*
X0006000Y0098356D01*
X0006000Y0097357D02*
X0031342Y0097357D01*
X0031342Y0096359D02*
X0006000Y0096359D01*
X0006000Y0095360D02*
X0031342Y0095360D01*
X0031342Y0094362D02*
X0006000Y0094362D01*
X0006000Y0093363D02*
X0022792Y0093363D01*
X0021012Y0092365D02*
X0006000Y0092365D01*
X0006000Y0091366D02*
X0020013Y0091366D01*
X0019380Y0090368D02*
X0006000Y0090368D01*
X0006000Y0089369D02*
X0018967Y0089369D01*
X0018654Y0088370D02*
X0006000Y0088370D01*
X0006000Y0087372D02*
X0018654Y0087372D01*
X0018654Y0086373D02*
X0006000Y0086373D01*
X0006000Y0085375D02*
X0018929Y0085375D01*
X0019343Y0084376D02*
X0006000Y0084376D01*
X0006000Y0083378D02*
X0007524Y0083378D01*
X0007287Y0083141D02*
X0007287Y0074190D01*
X0008048Y0073428D01*
X0018574Y0073428D01*
X0019335Y0074190D01*
X0019335Y0083141D01*
X0018574Y0083902D01*
X0008048Y0083902D01*
X0007287Y0083141D01*
X0007287Y0082379D02*
X0006000Y0082379D01*
X0006000Y0081381D02*
X0007287Y0081381D01*
X0007287Y0080382D02*
X0006000Y0080382D01*
X0006000Y0079384D02*
X0007287Y0079384D01*
X0007287Y0078385D02*
X0006000Y0078385D01*
X0006000Y0077387D02*
X0007287Y0077387D01*
X0007287Y0076388D02*
X0006000Y0076388D01*
X0006000Y0075390D02*
X0007287Y0075390D01*
X0007287Y0074391D02*
X0006000Y0074391D01*
X0006000Y0073393D02*
X0052305Y0073393D01*
X0052171Y0073578D02*
X0052652Y0072916D01*
X0053231Y0072337D01*
X0053893Y0071856D01*
X0054622Y0071484D01*
X0055400Y0071231D01*
X0056118Y0071118D01*
X0056118Y0075803D01*
X0051432Y0075803D01*
X0051546Y0075085D01*
X0051799Y0074307D01*
X0052171Y0073578D01*
X0051772Y0074391D02*
X0040989Y0074391D01*
X0040989Y0075390D02*
X0051498Y0075390D01*
X0051432Y0076803D02*
X0056118Y0076803D01*
X0056118Y0081489D01*
X0055400Y0081375D01*
X0054622Y0081122D01*
X0053893Y0080751D01*
X0053231Y0080269D01*
X0052652Y0079691D01*
X0052171Y0079029D01*
X0051799Y0078299D01*
X0051546Y0077521D01*
X0051432Y0076803D01*
X0051525Y0077387D02*
X0040989Y0077387D01*
X0040989Y0078385D02*
X0051843Y0078385D01*
X0052429Y0079384D02*
X0040989Y0079384D01*
X0040989Y0080382D02*
X0053386Y0080382D01*
X0055437Y0081381D02*
X0040989Y0081381D01*
X0040989Y0082379D02*
X0064818Y0082379D01*
X0064818Y0081381D02*
X0057799Y0081381D01*
X0057118Y0081381D02*
X0056118Y0081381D01*
X0056118Y0080382D02*
X0057118Y0080382D01*
X0057118Y0079384D02*
X0056118Y0079384D01*
X0056118Y0078385D02*
X0057118Y0078385D01*
X0057118Y0077387D02*
X0056118Y0077387D01*
X0056118Y0076388D02*
X0040989Y0076388D01*
X0041277Y0070633D02*
X0038392Y0069438D01*
X0036184Y0067230D01*
X0034989Y0064345D01*
X0034989Y0061222D01*
X0036184Y0058336D01*
X0038392Y0056128D01*
X0041277Y0054933D01*
X0044400Y0054933D01*
X0047285Y0056128D01*
X0049493Y0058336D01*
X0050689Y0061222D01*
X0050689Y0064345D01*
X0049493Y0067230D01*
X0047285Y0069438D01*
X0044400Y0070633D01*
X0041277Y0070633D01*
X0040708Y0070397D02*
X0006000Y0070397D01*
X0006000Y0069399D02*
X0038353Y0069399D01*
X0037354Y0068400D02*
X0006000Y0068400D01*
X0006000Y0067402D02*
X0036356Y0067402D01*
X0035841Y0066403D02*
X0006000Y0066403D01*
X0006000Y0065405D02*
X0035428Y0065405D01*
X0035014Y0064406D02*
X0006000Y0064406D01*
X0006000Y0063408D02*
X0034989Y0063408D01*
X0034989Y0062409D02*
X0006000Y0062409D01*
X0006000Y0061411D02*
X0034989Y0061411D01*
X0035324Y0060412D02*
X0006000Y0060412D01*
X0006000Y0059414D02*
X0035737Y0059414D01*
X0036151Y0058415D02*
X0006000Y0058415D01*
X0006000Y0057417D02*
X0037103Y0057417D01*
X0038102Y0056418D02*
X0006000Y0056418D01*
X0006000Y0055420D02*
X0040102Y0055420D01*
X0045575Y0055420D02*
X0060133Y0055420D01*
X0060133Y0056418D02*
X0047575Y0056418D01*
X0048574Y0057417D02*
X0060133Y0057417D01*
X0060133Y0058415D02*
X0049526Y0058415D01*
X0049940Y0059414D02*
X0060133Y0059414D01*
X0060133Y0060412D02*
X0050353Y0060412D01*
X0050689Y0061411D02*
X0060133Y0061411D01*
X0059255Y0062409D02*
X0050689Y0062409D01*
X0050689Y0063408D02*
X0059255Y0063408D01*
X0059255Y0064406D02*
X0050663Y0064406D01*
X0050249Y0065405D02*
X0059255Y0065405D01*
X0059255Y0066403D02*
X0049836Y0066403D01*
X0049321Y0067402D02*
X0059855Y0067402D01*
X0061933Y0064492D02*
X0061933Y0050713D01*
X0059421Y0050713D01*
X0060133Y0054421D02*
X0006000Y0054421D01*
X0006000Y0041440D02*
X0052216Y0041440D01*
X0052216Y0040442D02*
X0006000Y0040442D01*
X0006000Y0039443D02*
X0052216Y0039443D01*
X0052331Y0038445D02*
X0006000Y0038445D01*
X0006000Y0037446D02*
X0091488Y0037446D01*
X0091488Y0036448D02*
X0006000Y0036448D01*
X0006000Y0035449D02*
X0052359Y0035449D01*
X0052216Y0035306D02*
X0052216Y0030686D01*
X0052977Y0029924D01*
X0065865Y0029924D01*
X0066627Y0030686D01*
X0066627Y0031196D01*
X0081371Y0031196D01*
X0081396Y0031137D01*
X0082319Y0030214D01*
X0083525Y0029715D01*
X0084830Y0029715D01*
X0086036Y0030214D01*
X0086959Y0031137D01*
X0087458Y0032343D01*
X0087458Y0033649D01*
X0086959Y0034855D01*
X0086036Y0035778D01*
X0084830Y0036277D01*
X0083525Y0036277D01*
X0082319Y0035778D01*
X0081396Y0034855D01*
X0081371Y0034796D01*
X0066627Y0034796D01*
X0066627Y0035306D01*
X0065865Y0036068D01*
X0052977Y0036068D01*
X0052216Y0035306D01*
X0052216Y0034451D02*
X0006000Y0034451D01*
X0006000Y0033452D02*
X0052216Y0033452D01*
X0052216Y0032454D02*
X0006000Y0032454D01*
X0006000Y0031455D02*
X0052216Y0031455D01*
X0052445Y0030457D02*
X0006000Y0030457D01*
X0006000Y0029458D02*
X0091488Y0029458D01*
X0091488Y0028460D02*
X0006000Y0028460D01*
X0006000Y0027461D02*
X0091488Y0027461D01*
X0091488Y0026463D02*
X0006000Y0026463D01*
X0006000Y0025464D02*
X0052107Y0025464D01*
X0052118Y0025504D02*
X0052016Y0025123D01*
X0052016Y0023539D01*
X0059035Y0023539D01*
X0059035Y0022768D01*
X0052016Y0022768D01*
X0052016Y0021184D01*
X0052118Y0020803D01*
X0052315Y0020461D01*
X0052595Y0020182D01*
X0052937Y0019984D01*
X0053318Y0019882D01*
X0059035Y0019882D01*
X0059035Y0022768D01*
X0059807Y0022768D01*
X0059807Y0023539D01*
X0066827Y0023539D01*
X0066827Y0025123D01*
X0066725Y0025504D01*
X0066527Y0025846D01*
X0066248Y0026125D01*
X0065906Y0026323D01*
X0065524Y0026425D01*
X0059807Y0026425D01*
X0059807Y0023539D01*
X0059035Y0023539D01*
X0059035Y0026425D01*
X0053318Y0026425D01*
X0052937Y0026323D01*
X0052595Y0026125D01*
X0052315Y0025846D01*
X0052118Y0025504D01*
X0052016Y0024466D02*
X0006000Y0024466D01*
X0006000Y0023467D02*
X0059035Y0023467D01*
X0059807Y0023467D02*
X0091488Y0023467D01*
X0091488Y0022469D02*
X0066827Y0022469D01*
X0066827Y0022768D02*
X0059807Y0022768D01*
X0059807Y0019882D01*
X0065524Y0019882D01*
X0065906Y0019984D01*
X0066248Y0020182D01*
X0066527Y0020461D01*
X0066725Y0020803D01*
X0066827Y0021184D01*
X0066827Y0022768D01*
X0066827Y0021470D02*
X0091488Y0021470D01*
X0091488Y0020472D02*
X0066533Y0020472D01*
X0066827Y0024466D02*
X0091488Y0024466D01*
X0091488Y0025464D02*
X0066735Y0025464D01*
X0066398Y0030457D02*
X0082076Y0030457D01*
X0084177Y0032996D02*
X0059421Y0032996D01*
X0059035Y0025464D02*
X0059807Y0025464D01*
X0059807Y0024466D02*
X0059035Y0024466D01*
X0059035Y0022469D02*
X0059807Y0022469D01*
X0059807Y0021470D02*
X0059035Y0021470D01*
X0059035Y0020472D02*
X0059807Y0020472D01*
X0052309Y0020472D02*
X0006000Y0020472D01*
X0006000Y0021470D02*
X0052016Y0021470D01*
X0052016Y0022469D02*
X0006000Y0022469D01*
X0006000Y0019473D02*
X0091488Y0019473D01*
X0091488Y0018475D02*
X0045507Y0018475D01*
X0044400Y0018933D02*
X0041277Y0018933D01*
X0038392Y0017738D01*
X0036184Y0015530D01*
X0034989Y0012645D01*
X0034989Y0009522D01*
X0036184Y0006636D01*
X0036820Y0006000D01*
X0006000Y0006000D01*
X0006000Y0006332D01*
X0006000Y0189913D01*
X0091488Y0189913D01*
X0091488Y0006000D01*
X0048857Y0006000D01*
X0049493Y0006636D01*
X0050689Y0009522D01*
X0050689Y0012645D01*
X0049493Y0015530D01*
X0047285Y0017738D01*
X0044400Y0018933D01*
X0047547Y0017476D02*
X0091488Y0017476D01*
X0091488Y0016478D02*
X0048546Y0016478D01*
X0049514Y0015479D02*
X0091488Y0015479D01*
X0091488Y0014481D02*
X0049928Y0014481D01*
X0050342Y0013482D02*
X0091488Y0013482D01*
X0091488Y0012484D02*
X0050689Y0012484D01*
X0050689Y0011485D02*
X0091488Y0011485D01*
X0091488Y0010487D02*
X0050689Y0010487D01*
X0050675Y0009488D02*
X0091488Y0009488D01*
X0091488Y0008490D02*
X0050261Y0008490D01*
X0049847Y0007491D02*
X0091488Y0007491D01*
X0091488Y0006493D02*
X0049350Y0006493D01*
X0040171Y0018475D02*
X0006000Y0018475D01*
X0006000Y0017476D02*
X0038130Y0017476D01*
X0037132Y0016478D02*
X0006000Y0016478D01*
X0006000Y0015479D02*
X0036163Y0015479D01*
X0035749Y0014481D02*
X0006000Y0014481D01*
X0006000Y0013482D02*
X0035336Y0013482D01*
X0034989Y0012484D02*
X0006000Y0012484D01*
X0006000Y0011485D02*
X0034989Y0011485D01*
X0034989Y0010487D02*
X0006000Y0010487D01*
X0006000Y0009488D02*
X0035002Y0009488D01*
X0035416Y0008490D02*
X0006000Y0008490D01*
X0006000Y0007491D02*
X0035830Y0007491D01*
X0036328Y0006493D02*
X0006000Y0006493D01*
X0006000Y0071396D02*
X0054894Y0071396D01*
X0056118Y0071396D02*
X0057118Y0071396D01*
X0057118Y0072394D02*
X0056118Y0072394D01*
X0056118Y0073393D02*
X0057118Y0073393D01*
X0057118Y0074391D02*
X0056118Y0074391D01*
X0056118Y0075390D02*
X0057118Y0075390D01*
X0058342Y0071396D02*
X0065251Y0071396D01*
X0065251Y0070397D02*
X0044969Y0070397D01*
X0047324Y0069399D02*
X0065251Y0069399D01*
X0065251Y0068400D02*
X0048323Y0068400D01*
X0053173Y0072394D02*
X0006000Y0072394D01*
X0019335Y0074391D02*
X0028940Y0074391D01*
X0028940Y0075390D02*
X0019335Y0075390D01*
X0019335Y0076388D02*
X0028940Y0076388D01*
X0028940Y0077387D02*
X0019335Y0077387D01*
X0019335Y0078385D02*
X0028940Y0078385D01*
X0028940Y0079384D02*
X0019335Y0079384D01*
X0019335Y0080382D02*
X0028940Y0080382D01*
X0028940Y0081381D02*
X0027670Y0081381D01*
X0030901Y0084376D02*
X0064818Y0084376D01*
X0064818Y0083378D02*
X0040752Y0083378D01*
X0042420Y0087372D02*
X0064818Y0087372D01*
X0064818Y0088370D02*
X0043192Y0088370D01*
X0043228Y0089369D02*
X0064818Y0089369D01*
X0064818Y0090368D02*
X0043228Y0090368D01*
X0043228Y0089689D02*
X0037185Y0089689D01*
X0037185Y0089689D01*
X0037185Y0089689D01*
X0037185Y0087205D01*
X0037185Y0089689D01*
X0043228Y0089689D01*
X0043060Y0091366D02*
X0064818Y0091366D01*
X0064818Y0092365D02*
X0043028Y0092365D01*
X0043028Y0093363D02*
X0063587Y0093363D01*
X0066618Y0093035D02*
X0066618Y0076303D01*
X0067051Y0076303D01*
X0067051Y0064492D01*
X0064973Y0067402D02*
X0064012Y0067402D01*
X0063456Y0072394D02*
X0060063Y0072394D01*
X0060931Y0073393D02*
X0062457Y0073393D01*
X0061998Y0074391D02*
X0061465Y0074391D01*
X0061393Y0078385D02*
X0062069Y0078385D01*
X0062628Y0079384D02*
X0060807Y0079384D01*
X0059850Y0080382D02*
X0063626Y0080382D01*
X0064818Y0085375D02*
X0031315Y0085375D01*
X0031591Y0086373D02*
X0064818Y0086373D01*
X0068418Y0084376D02*
X0073713Y0084376D01*
X0073713Y0083378D02*
X0074169Y0083378D01*
X0074169Y0082379D02*
X0073713Y0082379D01*
X0073713Y0081381D02*
X0074169Y0081381D01*
X0076442Y0081381D02*
X0076865Y0081381D01*
X0074169Y0085375D02*
X0073713Y0085375D01*
X0073713Y0086373D02*
X0074169Y0086373D01*
X0078103Y0090368D02*
X0082377Y0090368D01*
X0082377Y0089369D02*
X0079956Y0089369D01*
X0080465Y0088370D02*
X0082377Y0088370D01*
X0082377Y0087372D02*
X0080465Y0087372D01*
X0081585Y0086373D02*
X0082377Y0086373D01*
X0082377Y0085375D02*
X0081786Y0085375D01*
X0081786Y0084376D02*
X0082377Y0084376D01*
X0082377Y0083378D02*
X0081786Y0083378D01*
X0081786Y0082379D02*
X0082377Y0082379D01*
X0082377Y0081381D02*
X0080465Y0081381D01*
X0080465Y0080382D02*
X0082377Y0080382D01*
X0082377Y0079384D02*
X0080465Y0079384D01*
X0080465Y0078385D02*
X0082377Y0078385D01*
X0082377Y0077387D02*
X0080465Y0077387D01*
X0080465Y0076388D02*
X0082377Y0076388D01*
X0082377Y0075390D02*
X0080465Y0075390D01*
X0080465Y0074391D02*
X0082377Y0074391D01*
X0082377Y0073393D02*
X0080465Y0073393D01*
X0080465Y0072394D02*
X0082377Y0072394D01*
X0082377Y0071396D02*
X0080465Y0071396D01*
X0080465Y0070397D02*
X0082377Y0070397D01*
X0082377Y0069399D02*
X0080465Y0069399D01*
X0080465Y0068400D02*
X0082377Y0068400D01*
X0082377Y0067402D02*
X0080465Y0067402D01*
X0080465Y0066403D02*
X0082377Y0066403D01*
X0082377Y0065405D02*
X0080465Y0065405D01*
X0080465Y0064406D02*
X0082377Y0064406D01*
X0082377Y0063408D02*
X0080465Y0063408D01*
X0080465Y0062409D02*
X0082377Y0062409D01*
X0082377Y0061411D02*
X0080465Y0061411D01*
X0080465Y0060412D02*
X0082377Y0060412D01*
X0082377Y0059414D02*
X0080465Y0059414D01*
X0080465Y0058415D02*
X0082377Y0058415D01*
X0082377Y0057417D02*
X0080465Y0057417D01*
X0080465Y0056418D02*
X0082377Y0056418D01*
X0082377Y0055420D02*
X0080465Y0055420D01*
X0080465Y0054421D02*
X0082377Y0054421D01*
X0082377Y0053423D02*
X0080465Y0053423D01*
X0080465Y0052424D02*
X0082377Y0052424D01*
X0082218Y0051426D02*
X0080465Y0051426D01*
X0080465Y0050427D02*
X0081323Y0050427D01*
X0080909Y0049429D02*
X0079927Y0049429D01*
X0081848Y0046433D02*
X0047685Y0046433D01*
X0048088Y0045434D02*
X0086314Y0045434D01*
X0086314Y0044436D02*
X0048088Y0044436D01*
X0047791Y0043437D02*
X0052473Y0043437D01*
X0052216Y0042439D02*
X0047079Y0042439D01*
X0059421Y0040870D02*
X0088114Y0040870D01*
X0088114Y0095004D01*
X0078665Y0095004D01*
X0078665Y0093035D02*
X0084177Y0093035D01*
X0084177Y0048744D01*
X0086314Y0043437D02*
X0066369Y0043437D01*
X0066512Y0038445D02*
X0091488Y0038445D01*
X0091488Y0039443D02*
X0089233Y0039443D01*
X0089914Y0040442D02*
X0091488Y0040442D01*
X0091488Y0041440D02*
X0089914Y0041440D01*
X0089914Y0042439D02*
X0091488Y0042439D01*
X0091488Y0043437D02*
X0089914Y0043437D01*
X0089914Y0044436D02*
X0091488Y0044436D01*
X0091488Y0045434D02*
X0089914Y0045434D01*
X0089914Y0046433D02*
X0091488Y0046433D01*
X0091488Y0047432D02*
X0089914Y0047432D01*
X0089914Y0048430D02*
X0091488Y0048430D01*
X0091488Y0049429D02*
X0089914Y0049429D01*
X0089914Y0050427D02*
X0091488Y0050427D01*
X0091488Y0051426D02*
X0089914Y0051426D01*
X0089914Y0052424D02*
X0091488Y0052424D01*
X0091488Y0053423D02*
X0089914Y0053423D01*
X0089914Y0054421D02*
X0091488Y0054421D01*
X0091488Y0055420D02*
X0089914Y0055420D01*
X0089914Y0056418D02*
X0091488Y0056418D01*
X0091488Y0057417D02*
X0089914Y0057417D01*
X0089914Y0058415D02*
X0091488Y0058415D01*
X0091488Y0059414D02*
X0089914Y0059414D01*
X0089914Y0060412D02*
X0091488Y0060412D01*
X0091488Y0061411D02*
X0089914Y0061411D01*
X0089914Y0062409D02*
X0091488Y0062409D01*
X0091488Y0063408D02*
X0089914Y0063408D01*
X0089914Y0064406D02*
X0091488Y0064406D01*
X0091488Y0065405D02*
X0089914Y0065405D01*
X0089914Y0066403D02*
X0091488Y0066403D01*
X0091488Y0067402D02*
X0089914Y0067402D01*
X0089914Y0068400D02*
X0091488Y0068400D01*
X0091488Y0069399D02*
X0089914Y0069399D01*
X0089914Y0070397D02*
X0091488Y0070397D01*
X0091488Y0071396D02*
X0089914Y0071396D01*
X0089914Y0072394D02*
X0091488Y0072394D01*
X0091488Y0073393D02*
X0089914Y0073393D01*
X0089914Y0074391D02*
X0091488Y0074391D01*
X0091488Y0075390D02*
X0089914Y0075390D01*
X0089914Y0076388D02*
X0091488Y0076388D01*
X0091488Y0077387D02*
X0089914Y0077387D01*
X0089914Y0078385D02*
X0091488Y0078385D01*
X0091488Y0079384D02*
X0089914Y0079384D01*
X0089914Y0080382D02*
X0091488Y0080382D01*
X0091488Y0081381D02*
X0089914Y0081381D01*
X0089914Y0082379D02*
X0091488Y0082379D01*
X0091488Y0083378D02*
X0089914Y0083378D01*
X0089914Y0084376D02*
X0091488Y0084376D01*
X0091488Y0085375D02*
X0089914Y0085375D01*
X0089914Y0086373D02*
X0091488Y0086373D01*
X0091488Y0087372D02*
X0089914Y0087372D01*
X0089914Y0088370D02*
X0091488Y0088370D01*
X0091488Y0089369D02*
X0089914Y0089369D01*
X0089914Y0090368D02*
X0091488Y0090368D01*
X0091488Y0091366D02*
X0089914Y0091366D01*
X0089914Y0092365D02*
X0091488Y0092365D01*
X0091488Y0093363D02*
X0089914Y0093363D01*
X0089914Y0094362D02*
X0091488Y0094362D01*
X0091488Y0095360D02*
X0089914Y0095360D01*
X0089914Y0096359D02*
X0091488Y0096359D01*
X0091488Y0097357D02*
X0089914Y0097357D01*
X0089914Y0098356D02*
X0091488Y0098356D01*
X0091488Y0099354D02*
X0089914Y0099354D01*
X0089914Y0100353D02*
X0091488Y0100353D01*
X0091488Y0101351D02*
X0089914Y0101351D01*
X0089914Y0102350D02*
X0091488Y0102350D01*
X0091488Y0103348D02*
X0089914Y0103348D01*
X0089914Y0104347D02*
X0091488Y0104347D01*
X0091488Y0105345D02*
X0089914Y0105345D01*
X0089914Y0106344D02*
X0091488Y0106344D01*
X0091488Y0107342D02*
X0089914Y0107342D01*
X0089914Y0108341D02*
X0091488Y0108341D01*
X0091488Y0109339D02*
X0089914Y0109339D01*
X0089914Y0110338D02*
X0091488Y0110338D01*
X0091488Y0111336D02*
X0089914Y0111336D01*
X0089914Y0112335D02*
X0091488Y0112335D01*
X0091488Y0113333D02*
X0089914Y0113333D01*
X0089914Y0114332D02*
X0091488Y0114332D01*
X0091488Y0115330D02*
X0089914Y0115330D01*
X0089914Y0116329D02*
X0091488Y0116329D01*
X0091488Y0117327D02*
X0089914Y0117327D01*
X0089914Y0118326D02*
X0091488Y0118326D01*
X0091488Y0119324D02*
X0089914Y0119324D01*
X0089914Y0120323D02*
X0091488Y0120323D01*
X0091488Y0121321D02*
X0089914Y0121321D01*
X0089914Y0122320D02*
X0091488Y0122320D01*
X0091488Y0123318D02*
X0089914Y0123318D01*
X0089914Y0124317D02*
X0091488Y0124317D01*
X0091488Y0125315D02*
X0089914Y0125315D01*
X0089914Y0126314D02*
X0091488Y0126314D01*
X0091488Y0127312D02*
X0089914Y0127312D01*
X0089914Y0128311D02*
X0091488Y0128311D01*
X0091488Y0129309D02*
X0089914Y0129309D01*
X0089914Y0130308D02*
X0091488Y0130308D01*
X0091488Y0131306D02*
X0089914Y0131306D01*
X0089914Y0132305D02*
X0091488Y0132305D01*
X0091488Y0133303D02*
X0089914Y0133303D01*
X0089914Y0134302D02*
X0091488Y0134302D01*
X0091488Y0135301D02*
X0089914Y0135301D01*
X0089914Y0136299D02*
X0091488Y0136299D01*
X0091488Y0137298D02*
X0089914Y0137298D01*
X0089914Y0138296D02*
X0091488Y0138296D01*
X0091488Y0139295D02*
X0089914Y0139295D01*
X0089914Y0140293D02*
X0091488Y0140293D01*
X0091488Y0141292D02*
X0089914Y0141292D01*
X0089914Y0142290D02*
X0091488Y0142290D01*
X0091488Y0143289D02*
X0089914Y0143289D01*
X0089914Y0144287D02*
X0091488Y0144287D01*
X0091488Y0145286D02*
X0089914Y0145286D01*
X0089914Y0146284D02*
X0091488Y0146284D01*
X0091488Y0147283D02*
X0089914Y0147283D01*
X0089914Y0148281D02*
X0091488Y0148281D01*
X0091488Y0149280D02*
X0089914Y0149280D01*
X0089914Y0150278D02*
X0091488Y0150278D01*
X0091488Y0151277D02*
X0089914Y0151277D01*
X0089491Y0152275D02*
X0091488Y0152275D01*
X0091488Y0153274D02*
X0066627Y0153274D01*
X0065865Y0155909D02*
X0066627Y0156670D01*
X0066627Y0157180D01*
X0081371Y0157180D01*
X0081396Y0157122D01*
X0082319Y0156199D01*
X0083525Y0155699D01*
X0084830Y0155699D01*
X0086036Y0156199D01*
X0086959Y0157122D01*
X0087458Y0158328D01*
X0087458Y0159633D01*
X0086959Y0160839D01*
X0086036Y0161762D01*
X0084830Y0162261D01*
X0083525Y0162261D01*
X0082319Y0161762D01*
X0081396Y0160839D01*
X0081371Y0160780D01*
X0066627Y0160780D01*
X0066627Y0161290D01*
X0065865Y0162052D01*
X0052977Y0162052D01*
X0052216Y0161290D01*
X0052216Y0156670D01*
X0052977Y0155909D01*
X0065865Y0155909D01*
X0066226Y0156269D02*
X0082248Y0156269D01*
X0084177Y0158980D02*
X0059421Y0158980D01*
X0059421Y0168823D02*
X0076303Y0168823D01*
X0074445Y0171604D02*
X0075650Y0172104D01*
X0076956Y0172104D01*
X0078162Y0171604D01*
X0079085Y0170681D01*
X0079584Y0169475D01*
X0079584Y0168170D01*
X0079085Y0166964D01*
X0078162Y0166041D01*
X0076956Y0165542D01*
X0075650Y0165542D01*
X0074445Y0166041D01*
X0073522Y0166964D01*
X0073497Y0167023D01*
X0066627Y0167023D01*
X0066627Y0166513D01*
X0065865Y0165751D01*
X0052977Y0165751D01*
X0052216Y0166513D01*
X0052216Y0171133D01*
X0052977Y0171894D01*
X0065865Y0171894D01*
X0066627Y0171133D01*
X0066627Y0170623D01*
X0073497Y0170623D01*
X0073522Y0170681D01*
X0074445Y0171604D01*
X0074087Y0171247D02*
X0066513Y0171247D01*
X0066368Y0166254D02*
X0074231Y0166254D01*
X0078375Y0166254D02*
X0091488Y0166254D01*
X0091488Y0165256D02*
X0006000Y0165256D01*
X0006000Y0166254D02*
X0052474Y0166254D01*
X0052216Y0167253D02*
X0006000Y0167253D01*
X0006000Y0168251D02*
X0052216Y0168251D01*
X0052216Y0169250D02*
X0006000Y0169250D01*
X0006000Y0170248D02*
X0052216Y0170248D01*
X0052330Y0171247D02*
X0006000Y0171247D01*
X0006000Y0172245D02*
X0091488Y0172245D01*
X0091488Y0171247D02*
X0078519Y0171247D01*
X0079264Y0170248D02*
X0091488Y0170248D01*
X0091488Y0169250D02*
X0079584Y0169250D01*
X0079584Y0168251D02*
X0091488Y0168251D01*
X0091488Y0167253D02*
X0079204Y0167253D01*
X0081818Y0161262D02*
X0066627Y0161262D01*
X0066627Y0149280D02*
X0086314Y0149280D01*
X0086314Y0148281D02*
X0066112Y0148281D01*
X0052731Y0148281D02*
X0006000Y0148281D01*
X0006000Y0147283D02*
X0086314Y0147283D01*
X0086314Y0146284D02*
X0085383Y0146284D01*
X0086106Y0156269D02*
X0091488Y0156269D01*
X0091488Y0155271D02*
X0006000Y0155271D01*
X0006000Y0156269D02*
X0052617Y0156269D01*
X0052216Y0157268D02*
X0006000Y0157268D01*
X0006000Y0158266D02*
X0052216Y0158266D01*
X0052216Y0159265D02*
X0006000Y0159265D01*
X0006000Y0160263D02*
X0052216Y0160263D01*
X0052216Y0161262D02*
X0006000Y0161262D01*
X0006000Y0162260D02*
X0083522Y0162260D01*
X0084832Y0162260D02*
X0091488Y0162260D01*
X0091488Y0161262D02*
X0086536Y0161262D01*
X0087197Y0160263D02*
X0091488Y0160263D01*
X0091488Y0159265D02*
X0087458Y0159265D01*
X0087433Y0158266D02*
X0091488Y0158266D01*
X0091488Y0157268D02*
X0087019Y0157268D01*
X0091488Y0154272D02*
X0006000Y0154272D01*
X0006000Y0153274D02*
X0052216Y0153274D01*
X0052216Y0152275D02*
X0006000Y0152275D01*
X0006000Y0151277D02*
X0052216Y0151277D01*
X0052216Y0150278D02*
X0006000Y0150278D01*
X0006000Y0149280D02*
X0052216Y0149280D01*
X0052684Y0144287D02*
X0006000Y0144287D01*
X0006000Y0143289D02*
X0052031Y0143289D01*
X0039480Y0136299D02*
X0006000Y0136299D01*
X0006000Y0135301D02*
X0037844Y0135301D01*
X0036846Y0134302D02*
X0006000Y0134302D01*
X0006000Y0133303D02*
X0036044Y0133303D01*
X0035631Y0132305D02*
X0006000Y0132305D01*
X0006000Y0131306D02*
X0035217Y0131306D01*
X0034989Y0130308D02*
X0006000Y0130308D01*
X0006000Y0129309D02*
X0034989Y0129309D01*
X0034989Y0128311D02*
X0006000Y0128311D01*
X0006000Y0127312D02*
X0035121Y0127312D01*
X0035534Y0126314D02*
X0006000Y0126314D01*
X0006000Y0125315D02*
X0035948Y0125315D01*
X0036613Y0124317D02*
X0006000Y0124317D01*
X0006000Y0123318D02*
X0037612Y0123318D01*
X0038919Y0122320D02*
X0006000Y0122320D01*
X0019098Y0083378D02*
X0019923Y0083378D01*
X0019335Y0082379D02*
X0020922Y0082379D01*
X0019335Y0081381D02*
X0022574Y0081381D01*
X0029232Y0092365D02*
X0031342Y0092365D01*
X0031342Y0093363D02*
X0027452Y0093363D01*
X0030231Y0091366D02*
X0031310Y0091366D01*
X0031142Y0090368D02*
X0030864Y0090368D01*
X0031591Y0087372D02*
X0031950Y0087372D01*
X0037185Y0087372D02*
X0037185Y0087372D01*
X0037185Y0088370D02*
X0037185Y0088370D01*
X0037185Y0089369D02*
X0037185Y0089369D01*
X0031342Y0098356D02*
X0026830Y0098356D01*
X0028974Y0099354D02*
X0031342Y0099354D01*
X0031342Y0100353D02*
X0029973Y0100353D01*
X0030757Y0101351D02*
X0031342Y0101351D01*
X0031342Y0102350D02*
X0031171Y0102350D01*
X0031591Y0104347D02*
X0031878Y0104347D01*
X0031591Y0105345D02*
X0046944Y0105345D01*
X0046944Y0104347D02*
X0042492Y0104347D01*
X0040494Y0108341D02*
X0046944Y0108341D01*
X0046944Y0109339D02*
X0040989Y0109339D01*
X0040989Y0110338D02*
X0046944Y0110338D01*
X0046944Y0111336D02*
X0040989Y0111336D01*
X0040989Y0112335D02*
X0046944Y0112335D01*
X0046944Y0113333D02*
X0040989Y0113333D01*
X0040989Y0114332D02*
X0046944Y0114332D01*
X0046944Y0115330D02*
X0040989Y0115330D01*
X0040989Y0116329D02*
X0046944Y0116329D01*
X0046944Y0117327D02*
X0040989Y0117327D01*
X0040450Y0118326D02*
X0046944Y0118326D01*
X0046944Y0107342D02*
X0031008Y0107342D01*
X0031422Y0106344D02*
X0046944Y0106344D01*
X0048744Y0102287D02*
X0037185Y0102287D01*
X0050544Y0104347D02*
X0052717Y0104347D01*
X0052032Y0105345D02*
X0050544Y0105345D01*
X0050544Y0106344D02*
X0051623Y0106344D01*
X0056118Y0108341D02*
X0057118Y0108341D01*
X0057118Y0109339D02*
X0056118Y0109339D01*
X0056118Y0110338D02*
X0057118Y0110338D01*
X0057118Y0111336D02*
X0056118Y0111336D01*
X0056118Y0112335D02*
X0057118Y0112335D01*
X0059171Y0112335D02*
X0064502Y0112335D01*
X0063084Y0111336D02*
X0060435Y0111336D01*
X0061161Y0110338D02*
X0062258Y0110338D01*
X0061844Y0109339D02*
X0061585Y0109339D01*
X0061613Y0106344D02*
X0061809Y0106344D01*
X0062223Y0105345D02*
X0061204Y0105345D01*
X0060519Y0104347D02*
X0063000Y0104347D01*
X0064298Y0103348D02*
X0059336Y0103348D01*
X0068734Y0112335D02*
X0082377Y0112335D01*
X0082377Y0113333D02*
X0068418Y0113333D01*
X0068418Y0114332D02*
X0082377Y0114332D01*
X0082377Y0115330D02*
X0068418Y0115330D01*
X0068418Y0116329D02*
X0082377Y0116329D01*
X0082377Y0117327D02*
X0068418Y0117327D01*
X0068418Y0118326D02*
X0082377Y0118326D01*
X0082377Y0119324D02*
X0068418Y0119324D01*
X0070152Y0111336D02*
X0082377Y0111336D01*
X0082377Y0110338D02*
X0070979Y0110338D01*
X0071014Y0105345D02*
X0072141Y0105345D01*
X0072141Y0104347D02*
X0070237Y0104347D01*
X0070229Y0099354D02*
X0071499Y0099354D01*
X0075741Y0102350D02*
X0082377Y0102350D01*
X0082377Y0103348D02*
X0075741Y0103348D01*
X0075741Y0104347D02*
X0082377Y0104347D01*
X0082377Y0105345D02*
X0075741Y0105345D01*
X0075741Y0106344D02*
X0082377Y0106344D01*
X0082377Y0107342D02*
X0075741Y0107342D01*
X0075741Y0108341D02*
X0082377Y0108341D01*
X0082377Y0109339D02*
X0074947Y0109339D01*
X0076303Y0102075D02*
X0076303Y0100051D01*
X0076303Y0100051D01*
X0076303Y0100051D01*
X0076303Y0102075D01*
X0076303Y0101351D02*
X0076303Y0101351D01*
X0076303Y0100353D02*
X0076303Y0100353D01*
X0078276Y0101351D02*
X0082377Y0101351D01*
X0091488Y0163259D02*
X0006000Y0163259D01*
X0006000Y0164257D02*
X0091488Y0164257D01*
X0091488Y0173244D02*
X0044884Y0173244D01*
X0044400Y0173043D02*
X0047285Y0174238D01*
X0049493Y0176447D01*
X0050689Y0179332D01*
X0050689Y0182455D01*
X0049493Y0185340D01*
X0047285Y0187548D01*
X0044400Y0188743D01*
X0041277Y0188743D01*
X0038392Y0187548D01*
X0036184Y0185340D01*
X0034989Y0182455D01*
X0034989Y0179332D01*
X0036184Y0176447D01*
X0038392Y0174238D01*
X0041277Y0173043D01*
X0044400Y0173043D01*
X0047289Y0174242D02*
X0091488Y0174242D01*
X0091488Y0175241D02*
X0048288Y0175241D01*
X0049286Y0176239D02*
X0091488Y0176239D01*
X0091488Y0177238D02*
X0049821Y0177238D01*
X0050235Y0178237D02*
X0091488Y0178237D01*
X0091488Y0179235D02*
X0050648Y0179235D01*
X0050689Y0180234D02*
X0091488Y0180234D01*
X0091488Y0181232D02*
X0050689Y0181232D01*
X0050689Y0182231D02*
X0091488Y0182231D01*
X0091488Y0183229D02*
X0050368Y0183229D01*
X0049954Y0184228D02*
X0091488Y0184228D01*
X0091488Y0185226D02*
X0049541Y0185226D01*
X0048609Y0186225D02*
X0091488Y0186225D01*
X0091488Y0187223D02*
X0047610Y0187223D01*
X0045659Y0188222D02*
X0091488Y0188222D01*
X0091488Y0189220D02*
X0006000Y0189220D01*
X0006000Y0188222D02*
X0040018Y0188222D01*
X0038067Y0187223D02*
X0006000Y0187223D01*
X0006000Y0186225D02*
X0037068Y0186225D01*
X0036137Y0185226D02*
X0006000Y0185226D01*
X0006000Y0184228D02*
X0035723Y0184228D01*
X0035309Y0183229D02*
X0006000Y0183229D01*
X0006000Y0182231D02*
X0034989Y0182231D01*
X0034989Y0181232D02*
X0006000Y0181232D01*
X0006000Y0180234D02*
X0034989Y0180234D01*
X0035029Y0179235D02*
X0006000Y0179235D01*
X0006000Y0178237D02*
X0035442Y0178237D01*
X0035856Y0177238D02*
X0006000Y0177238D01*
X0006000Y0176239D02*
X0036391Y0176239D01*
X0037389Y0175241D02*
X0006000Y0175241D01*
X0006000Y0174242D02*
X0038388Y0174242D01*
X0040793Y0173244D02*
X0006000Y0173244D01*
X0066484Y0035449D02*
X0081990Y0035449D01*
X0086364Y0035449D02*
X0091488Y0035449D01*
X0091488Y0034451D02*
X0087126Y0034451D01*
X0087458Y0033452D02*
X0091488Y0033452D01*
X0091488Y0032454D02*
X0087458Y0032454D01*
X0087090Y0031455D02*
X0091488Y0031455D01*
X0091488Y0030457D02*
X0086278Y0030457D01*
D21*
X0084177Y0032996D03*
X0084177Y0048744D03*
X0072366Y0056618D03*
X0044807Y0044807D03*
X0076303Y0131421D03*
X0084177Y0143232D03*
X0084177Y0158980D03*
X0076303Y0168823D03*
M02*
