%
M48
M72
T01C0.01969
T02C0.02000
T03C0.02756
T04C0.03543
T05C0.04000
T06C0.13000
%
T01
X191500Y156874
X206224Y162917
X206224Y190476
X186500Y217799
X155043Y210161
X164886Y192445
X149138Y170791
X153075Y166854
X141264Y158980
X133390Y158980
X129689Y171500
X103862Y199335
X95988Y202878
X88114Y194413
X80240Y190476
X40870Y155043
X9374Y123547
X40870Y88114
X72366Y123547
T02
X191500Y115594
X181500Y115594
X171500Y115594
X171500Y125594
X181500Y125594
X191500Y125594
T03
X241500Y214335
X249374Y214335
T04
X254000Y172839
X254000Y190161
T05
X237130Y56618
X247130Y56618
X170791Y220004
X160791Y220004
X150791Y220004
X140791Y220004
X130791Y220004
X120791Y220004
X110791Y220004
X100791Y220004
T06
X12720Y56618
X87524Y48744
X95398Y68429
X115083Y97957
X185949Y50713
X225319Y84177
X264689Y80240
X213508Y123547
X264689Y214098
X12720Y214098
M30
