G75*
%MOIN*%
%OFA0B0*%
%FSLAX25Y25*%
%IPPOS*%
%LPD*%
%AMOC8*
5,1,8,0,0,1.08239X$1,22.5*
%
%ADD10C,0.00000*%
%ADD11R,0.05200X0.00200*%
%ADD12R,0.02400X0.00200*%
%ADD13R,0.00800X0.00200*%
%ADD14R,0.03000X0.00200*%
%ADD15R,0.02200X0.00200*%
%ADD16R,0.01400X0.00200*%
%ADD17R,0.01600X0.00200*%
%ADD18C,0.00800*%
%ADD19R,0.02559X0.05512*%
%ADD20C,0.00500*%
%ADD21R,0.00787X0.00787*%
%ADD22R,0.05512X0.02559*%
%ADD23C,0.01000*%
D10*
X0005437Y0001500D02*
X0194413Y0001500D01*
X0194537Y0001502D01*
X0194660Y0001508D01*
X0194784Y0001517D01*
X0194906Y0001531D01*
X0195029Y0001548D01*
X0195151Y0001570D01*
X0195272Y0001595D01*
X0195392Y0001624D01*
X0195511Y0001656D01*
X0195630Y0001693D01*
X0195747Y0001733D01*
X0195862Y0001776D01*
X0195977Y0001824D01*
X0196089Y0001875D01*
X0196200Y0001929D01*
X0196310Y0001987D01*
X0196417Y0002048D01*
X0196523Y0002113D01*
X0196626Y0002181D01*
X0196727Y0002252D01*
X0196826Y0002326D01*
X0196923Y0002403D01*
X0197017Y0002484D01*
X0197108Y0002567D01*
X0197197Y0002653D01*
X0197283Y0002742D01*
X0197366Y0002833D01*
X0197447Y0002927D01*
X0197524Y0003024D01*
X0197598Y0003123D01*
X0197669Y0003224D01*
X0197737Y0003327D01*
X0197802Y0003433D01*
X0197863Y0003540D01*
X0197921Y0003650D01*
X0197975Y0003761D01*
X0198026Y0003873D01*
X0198074Y0003988D01*
X0198117Y0004103D01*
X0198157Y0004220D01*
X0198194Y0004339D01*
X0198226Y0004458D01*
X0198255Y0004578D01*
X0198280Y0004699D01*
X0198302Y0004821D01*
X0198319Y0004944D01*
X0198333Y0005066D01*
X0198342Y0005190D01*
X0198348Y0005313D01*
X0198350Y0005437D01*
X0198350Y0040870D01*
X0273154Y0040870D01*
X0273278Y0040872D01*
X0273401Y0040878D01*
X0273525Y0040887D01*
X0273647Y0040901D01*
X0273770Y0040918D01*
X0273892Y0040940D01*
X0274013Y0040965D01*
X0274133Y0040994D01*
X0274252Y0041026D01*
X0274371Y0041063D01*
X0274488Y0041103D01*
X0274603Y0041146D01*
X0274718Y0041194D01*
X0274830Y0041245D01*
X0274941Y0041299D01*
X0275051Y0041357D01*
X0275158Y0041418D01*
X0275264Y0041483D01*
X0275367Y0041551D01*
X0275468Y0041622D01*
X0275567Y0041696D01*
X0275664Y0041773D01*
X0275758Y0041854D01*
X0275849Y0041937D01*
X0275938Y0042023D01*
X0276024Y0042112D01*
X0276107Y0042203D01*
X0276188Y0042297D01*
X0276265Y0042394D01*
X0276339Y0042493D01*
X0276410Y0042594D01*
X0276478Y0042697D01*
X0276543Y0042803D01*
X0276604Y0042910D01*
X0276662Y0043020D01*
X0276716Y0043131D01*
X0276767Y0043243D01*
X0276815Y0043358D01*
X0276858Y0043473D01*
X0276898Y0043590D01*
X0276935Y0043709D01*
X0276967Y0043828D01*
X0276996Y0043948D01*
X0277021Y0044069D01*
X0277043Y0044191D01*
X0277060Y0044314D01*
X0277074Y0044436D01*
X0277083Y0044560D01*
X0277089Y0044683D01*
X0277091Y0044807D01*
X0277091Y0223941D01*
X0277089Y0224065D01*
X0277083Y0224188D01*
X0277074Y0224312D01*
X0277060Y0224434D01*
X0277043Y0224557D01*
X0277021Y0224679D01*
X0276996Y0224800D01*
X0276967Y0224920D01*
X0276935Y0225039D01*
X0276898Y0225158D01*
X0276858Y0225275D01*
X0276815Y0225390D01*
X0276767Y0225505D01*
X0276716Y0225617D01*
X0276662Y0225728D01*
X0276604Y0225838D01*
X0276543Y0225945D01*
X0276478Y0226051D01*
X0276410Y0226154D01*
X0276339Y0226255D01*
X0276265Y0226354D01*
X0276188Y0226451D01*
X0276107Y0226545D01*
X0276024Y0226636D01*
X0275938Y0226725D01*
X0275849Y0226811D01*
X0275758Y0226894D01*
X0275664Y0226975D01*
X0275567Y0227052D01*
X0275468Y0227126D01*
X0275367Y0227197D01*
X0275264Y0227265D01*
X0275158Y0227330D01*
X0275051Y0227391D01*
X0274941Y0227449D01*
X0274830Y0227503D01*
X0274718Y0227554D01*
X0274603Y0227602D01*
X0274488Y0227645D01*
X0274371Y0227685D01*
X0274252Y0227722D01*
X0274133Y0227754D01*
X0274013Y0227783D01*
X0273892Y0227808D01*
X0273770Y0227830D01*
X0273647Y0227847D01*
X0273525Y0227861D01*
X0273401Y0227870D01*
X0273278Y0227876D01*
X0273154Y0227878D01*
X0005437Y0227878D01*
X0005313Y0227876D01*
X0005190Y0227870D01*
X0005066Y0227861D01*
X0004944Y0227847D01*
X0004821Y0227830D01*
X0004699Y0227808D01*
X0004578Y0227783D01*
X0004458Y0227754D01*
X0004339Y0227722D01*
X0004220Y0227685D01*
X0004103Y0227645D01*
X0003988Y0227602D01*
X0003873Y0227554D01*
X0003761Y0227503D01*
X0003650Y0227449D01*
X0003540Y0227391D01*
X0003433Y0227330D01*
X0003327Y0227265D01*
X0003224Y0227197D01*
X0003123Y0227126D01*
X0003024Y0227052D01*
X0002927Y0226975D01*
X0002833Y0226894D01*
X0002742Y0226811D01*
X0002653Y0226725D01*
X0002567Y0226636D01*
X0002484Y0226545D01*
X0002403Y0226451D01*
X0002326Y0226354D01*
X0002252Y0226255D01*
X0002181Y0226154D01*
X0002113Y0226051D01*
X0002048Y0225945D01*
X0001987Y0225838D01*
X0001929Y0225728D01*
X0001875Y0225617D01*
X0001824Y0225505D01*
X0001776Y0225390D01*
X0001733Y0225275D01*
X0001693Y0225158D01*
X0001656Y0225039D01*
X0001624Y0224920D01*
X0001595Y0224800D01*
X0001570Y0224679D01*
X0001548Y0224557D01*
X0001531Y0224434D01*
X0001517Y0224312D01*
X0001508Y0224188D01*
X0001502Y0224065D01*
X0001500Y0223941D01*
X0001500Y0005437D01*
X0001502Y0005313D01*
X0001508Y0005190D01*
X0001517Y0005066D01*
X0001531Y0004944D01*
X0001548Y0004821D01*
X0001570Y0004699D01*
X0001595Y0004578D01*
X0001624Y0004458D01*
X0001656Y0004339D01*
X0001693Y0004220D01*
X0001733Y0004103D01*
X0001776Y0003988D01*
X0001824Y0003873D01*
X0001875Y0003761D01*
X0001929Y0003650D01*
X0001987Y0003540D01*
X0002048Y0003433D01*
X0002113Y0003327D01*
X0002181Y0003224D01*
X0002252Y0003123D01*
X0002326Y0003024D01*
X0002403Y0002927D01*
X0002484Y0002833D01*
X0002567Y0002742D01*
X0002653Y0002653D01*
X0002742Y0002567D01*
X0002833Y0002484D01*
X0002927Y0002403D01*
X0003024Y0002326D01*
X0003123Y0002252D01*
X0003224Y0002181D01*
X0003327Y0002113D01*
X0003433Y0002048D01*
X0003540Y0001987D01*
X0003650Y0001929D01*
X0003761Y0001875D01*
X0003873Y0001824D01*
X0003988Y0001776D01*
X0004103Y0001733D01*
X0004220Y0001693D01*
X0004339Y0001656D01*
X0004458Y0001624D01*
X0004578Y0001595D01*
X0004699Y0001570D01*
X0004821Y0001548D01*
X0004944Y0001531D01*
X0005066Y0001517D01*
X0005190Y0001508D01*
X0005313Y0001502D01*
X0005437Y0001500D01*
X0006220Y0056618D02*
X0006222Y0056779D01*
X0006228Y0056939D01*
X0006238Y0057100D01*
X0006252Y0057260D01*
X0006270Y0057420D01*
X0006291Y0057579D01*
X0006317Y0057738D01*
X0006347Y0057896D01*
X0006380Y0058053D01*
X0006418Y0058210D01*
X0006459Y0058365D01*
X0006504Y0058519D01*
X0006553Y0058672D01*
X0006606Y0058824D01*
X0006662Y0058975D01*
X0006723Y0059124D01*
X0006786Y0059272D01*
X0006854Y0059418D01*
X0006925Y0059562D01*
X0006999Y0059704D01*
X0007077Y0059845D01*
X0007159Y0059983D01*
X0007244Y0060120D01*
X0007332Y0060254D01*
X0007424Y0060386D01*
X0007519Y0060516D01*
X0007617Y0060644D01*
X0007718Y0060769D01*
X0007822Y0060891D01*
X0007929Y0061011D01*
X0008039Y0061128D01*
X0008152Y0061243D01*
X0008268Y0061354D01*
X0008387Y0061463D01*
X0008508Y0061568D01*
X0008632Y0061671D01*
X0008758Y0061771D01*
X0008886Y0061867D01*
X0009017Y0061960D01*
X0009151Y0062050D01*
X0009286Y0062137D01*
X0009424Y0062220D01*
X0009563Y0062300D01*
X0009705Y0062376D01*
X0009848Y0062449D01*
X0009993Y0062518D01*
X0010140Y0062584D01*
X0010288Y0062646D01*
X0010438Y0062704D01*
X0010589Y0062759D01*
X0010742Y0062810D01*
X0010896Y0062857D01*
X0011051Y0062900D01*
X0011207Y0062939D01*
X0011363Y0062975D01*
X0011521Y0063006D01*
X0011679Y0063034D01*
X0011838Y0063058D01*
X0011998Y0063078D01*
X0012158Y0063094D01*
X0012318Y0063106D01*
X0012479Y0063114D01*
X0012640Y0063118D01*
X0012800Y0063118D01*
X0012961Y0063114D01*
X0013122Y0063106D01*
X0013282Y0063094D01*
X0013442Y0063078D01*
X0013602Y0063058D01*
X0013761Y0063034D01*
X0013919Y0063006D01*
X0014077Y0062975D01*
X0014233Y0062939D01*
X0014389Y0062900D01*
X0014544Y0062857D01*
X0014698Y0062810D01*
X0014851Y0062759D01*
X0015002Y0062704D01*
X0015152Y0062646D01*
X0015300Y0062584D01*
X0015447Y0062518D01*
X0015592Y0062449D01*
X0015735Y0062376D01*
X0015877Y0062300D01*
X0016016Y0062220D01*
X0016154Y0062137D01*
X0016289Y0062050D01*
X0016423Y0061960D01*
X0016554Y0061867D01*
X0016682Y0061771D01*
X0016808Y0061671D01*
X0016932Y0061568D01*
X0017053Y0061463D01*
X0017172Y0061354D01*
X0017288Y0061243D01*
X0017401Y0061128D01*
X0017511Y0061011D01*
X0017618Y0060891D01*
X0017722Y0060769D01*
X0017823Y0060644D01*
X0017921Y0060516D01*
X0018016Y0060386D01*
X0018108Y0060254D01*
X0018196Y0060120D01*
X0018281Y0059983D01*
X0018363Y0059845D01*
X0018441Y0059704D01*
X0018515Y0059562D01*
X0018586Y0059418D01*
X0018654Y0059272D01*
X0018717Y0059124D01*
X0018778Y0058975D01*
X0018834Y0058824D01*
X0018887Y0058672D01*
X0018936Y0058519D01*
X0018981Y0058365D01*
X0019022Y0058210D01*
X0019060Y0058053D01*
X0019093Y0057896D01*
X0019123Y0057738D01*
X0019149Y0057579D01*
X0019170Y0057420D01*
X0019188Y0057260D01*
X0019202Y0057100D01*
X0019212Y0056939D01*
X0019218Y0056779D01*
X0019220Y0056618D01*
X0019218Y0056457D01*
X0019212Y0056297D01*
X0019202Y0056136D01*
X0019188Y0055976D01*
X0019170Y0055816D01*
X0019149Y0055657D01*
X0019123Y0055498D01*
X0019093Y0055340D01*
X0019060Y0055183D01*
X0019022Y0055026D01*
X0018981Y0054871D01*
X0018936Y0054717D01*
X0018887Y0054564D01*
X0018834Y0054412D01*
X0018778Y0054261D01*
X0018717Y0054112D01*
X0018654Y0053964D01*
X0018586Y0053818D01*
X0018515Y0053674D01*
X0018441Y0053532D01*
X0018363Y0053391D01*
X0018281Y0053253D01*
X0018196Y0053116D01*
X0018108Y0052982D01*
X0018016Y0052850D01*
X0017921Y0052720D01*
X0017823Y0052592D01*
X0017722Y0052467D01*
X0017618Y0052345D01*
X0017511Y0052225D01*
X0017401Y0052108D01*
X0017288Y0051993D01*
X0017172Y0051882D01*
X0017053Y0051773D01*
X0016932Y0051668D01*
X0016808Y0051565D01*
X0016682Y0051465D01*
X0016554Y0051369D01*
X0016423Y0051276D01*
X0016289Y0051186D01*
X0016154Y0051099D01*
X0016016Y0051016D01*
X0015877Y0050936D01*
X0015735Y0050860D01*
X0015592Y0050787D01*
X0015447Y0050718D01*
X0015300Y0050652D01*
X0015152Y0050590D01*
X0015002Y0050532D01*
X0014851Y0050477D01*
X0014698Y0050426D01*
X0014544Y0050379D01*
X0014389Y0050336D01*
X0014233Y0050297D01*
X0014077Y0050261D01*
X0013919Y0050230D01*
X0013761Y0050202D01*
X0013602Y0050178D01*
X0013442Y0050158D01*
X0013282Y0050142D01*
X0013122Y0050130D01*
X0012961Y0050122D01*
X0012800Y0050118D01*
X0012640Y0050118D01*
X0012479Y0050122D01*
X0012318Y0050130D01*
X0012158Y0050142D01*
X0011998Y0050158D01*
X0011838Y0050178D01*
X0011679Y0050202D01*
X0011521Y0050230D01*
X0011363Y0050261D01*
X0011207Y0050297D01*
X0011051Y0050336D01*
X0010896Y0050379D01*
X0010742Y0050426D01*
X0010589Y0050477D01*
X0010438Y0050532D01*
X0010288Y0050590D01*
X0010140Y0050652D01*
X0009993Y0050718D01*
X0009848Y0050787D01*
X0009705Y0050860D01*
X0009563Y0050936D01*
X0009424Y0051016D01*
X0009286Y0051099D01*
X0009151Y0051186D01*
X0009017Y0051276D01*
X0008886Y0051369D01*
X0008758Y0051465D01*
X0008632Y0051565D01*
X0008508Y0051668D01*
X0008387Y0051773D01*
X0008268Y0051882D01*
X0008152Y0051993D01*
X0008039Y0052108D01*
X0007929Y0052225D01*
X0007822Y0052345D01*
X0007718Y0052467D01*
X0007617Y0052592D01*
X0007519Y0052720D01*
X0007424Y0052850D01*
X0007332Y0052982D01*
X0007244Y0053116D01*
X0007159Y0053253D01*
X0007077Y0053391D01*
X0006999Y0053532D01*
X0006925Y0053674D01*
X0006854Y0053818D01*
X0006786Y0053964D01*
X0006723Y0054112D01*
X0006662Y0054261D01*
X0006606Y0054412D01*
X0006553Y0054564D01*
X0006504Y0054717D01*
X0006459Y0054871D01*
X0006418Y0055026D01*
X0006380Y0055183D01*
X0006347Y0055340D01*
X0006317Y0055498D01*
X0006291Y0055657D01*
X0006270Y0055816D01*
X0006252Y0055976D01*
X0006238Y0056136D01*
X0006228Y0056297D01*
X0006222Y0056457D01*
X0006220Y0056618D01*
X0081024Y0048744D02*
X0081026Y0048905D01*
X0081032Y0049065D01*
X0081042Y0049226D01*
X0081056Y0049386D01*
X0081074Y0049546D01*
X0081095Y0049705D01*
X0081121Y0049864D01*
X0081151Y0050022D01*
X0081184Y0050179D01*
X0081222Y0050336D01*
X0081263Y0050491D01*
X0081308Y0050645D01*
X0081357Y0050798D01*
X0081410Y0050950D01*
X0081466Y0051101D01*
X0081527Y0051250D01*
X0081590Y0051398D01*
X0081658Y0051544D01*
X0081729Y0051688D01*
X0081803Y0051830D01*
X0081881Y0051971D01*
X0081963Y0052109D01*
X0082048Y0052246D01*
X0082136Y0052380D01*
X0082228Y0052512D01*
X0082323Y0052642D01*
X0082421Y0052770D01*
X0082522Y0052895D01*
X0082626Y0053017D01*
X0082733Y0053137D01*
X0082843Y0053254D01*
X0082956Y0053369D01*
X0083072Y0053480D01*
X0083191Y0053589D01*
X0083312Y0053694D01*
X0083436Y0053797D01*
X0083562Y0053897D01*
X0083690Y0053993D01*
X0083821Y0054086D01*
X0083955Y0054176D01*
X0084090Y0054263D01*
X0084228Y0054346D01*
X0084367Y0054426D01*
X0084509Y0054502D01*
X0084652Y0054575D01*
X0084797Y0054644D01*
X0084944Y0054710D01*
X0085092Y0054772D01*
X0085242Y0054830D01*
X0085393Y0054885D01*
X0085546Y0054936D01*
X0085700Y0054983D01*
X0085855Y0055026D01*
X0086011Y0055065D01*
X0086167Y0055101D01*
X0086325Y0055132D01*
X0086483Y0055160D01*
X0086642Y0055184D01*
X0086802Y0055204D01*
X0086962Y0055220D01*
X0087122Y0055232D01*
X0087283Y0055240D01*
X0087444Y0055244D01*
X0087604Y0055244D01*
X0087765Y0055240D01*
X0087926Y0055232D01*
X0088086Y0055220D01*
X0088246Y0055204D01*
X0088406Y0055184D01*
X0088565Y0055160D01*
X0088723Y0055132D01*
X0088881Y0055101D01*
X0089037Y0055065D01*
X0089193Y0055026D01*
X0089348Y0054983D01*
X0089502Y0054936D01*
X0089655Y0054885D01*
X0089806Y0054830D01*
X0089956Y0054772D01*
X0090104Y0054710D01*
X0090251Y0054644D01*
X0090396Y0054575D01*
X0090539Y0054502D01*
X0090681Y0054426D01*
X0090820Y0054346D01*
X0090958Y0054263D01*
X0091093Y0054176D01*
X0091227Y0054086D01*
X0091358Y0053993D01*
X0091486Y0053897D01*
X0091612Y0053797D01*
X0091736Y0053694D01*
X0091857Y0053589D01*
X0091976Y0053480D01*
X0092092Y0053369D01*
X0092205Y0053254D01*
X0092315Y0053137D01*
X0092422Y0053017D01*
X0092526Y0052895D01*
X0092627Y0052770D01*
X0092725Y0052642D01*
X0092820Y0052512D01*
X0092912Y0052380D01*
X0093000Y0052246D01*
X0093085Y0052109D01*
X0093167Y0051971D01*
X0093245Y0051830D01*
X0093319Y0051688D01*
X0093390Y0051544D01*
X0093458Y0051398D01*
X0093521Y0051250D01*
X0093582Y0051101D01*
X0093638Y0050950D01*
X0093691Y0050798D01*
X0093740Y0050645D01*
X0093785Y0050491D01*
X0093826Y0050336D01*
X0093864Y0050179D01*
X0093897Y0050022D01*
X0093927Y0049864D01*
X0093953Y0049705D01*
X0093974Y0049546D01*
X0093992Y0049386D01*
X0094006Y0049226D01*
X0094016Y0049065D01*
X0094022Y0048905D01*
X0094024Y0048744D01*
X0094022Y0048583D01*
X0094016Y0048423D01*
X0094006Y0048262D01*
X0093992Y0048102D01*
X0093974Y0047942D01*
X0093953Y0047783D01*
X0093927Y0047624D01*
X0093897Y0047466D01*
X0093864Y0047309D01*
X0093826Y0047152D01*
X0093785Y0046997D01*
X0093740Y0046843D01*
X0093691Y0046690D01*
X0093638Y0046538D01*
X0093582Y0046387D01*
X0093521Y0046238D01*
X0093458Y0046090D01*
X0093390Y0045944D01*
X0093319Y0045800D01*
X0093245Y0045658D01*
X0093167Y0045517D01*
X0093085Y0045379D01*
X0093000Y0045242D01*
X0092912Y0045108D01*
X0092820Y0044976D01*
X0092725Y0044846D01*
X0092627Y0044718D01*
X0092526Y0044593D01*
X0092422Y0044471D01*
X0092315Y0044351D01*
X0092205Y0044234D01*
X0092092Y0044119D01*
X0091976Y0044008D01*
X0091857Y0043899D01*
X0091736Y0043794D01*
X0091612Y0043691D01*
X0091486Y0043591D01*
X0091358Y0043495D01*
X0091227Y0043402D01*
X0091093Y0043312D01*
X0090958Y0043225D01*
X0090820Y0043142D01*
X0090681Y0043062D01*
X0090539Y0042986D01*
X0090396Y0042913D01*
X0090251Y0042844D01*
X0090104Y0042778D01*
X0089956Y0042716D01*
X0089806Y0042658D01*
X0089655Y0042603D01*
X0089502Y0042552D01*
X0089348Y0042505D01*
X0089193Y0042462D01*
X0089037Y0042423D01*
X0088881Y0042387D01*
X0088723Y0042356D01*
X0088565Y0042328D01*
X0088406Y0042304D01*
X0088246Y0042284D01*
X0088086Y0042268D01*
X0087926Y0042256D01*
X0087765Y0042248D01*
X0087604Y0042244D01*
X0087444Y0042244D01*
X0087283Y0042248D01*
X0087122Y0042256D01*
X0086962Y0042268D01*
X0086802Y0042284D01*
X0086642Y0042304D01*
X0086483Y0042328D01*
X0086325Y0042356D01*
X0086167Y0042387D01*
X0086011Y0042423D01*
X0085855Y0042462D01*
X0085700Y0042505D01*
X0085546Y0042552D01*
X0085393Y0042603D01*
X0085242Y0042658D01*
X0085092Y0042716D01*
X0084944Y0042778D01*
X0084797Y0042844D01*
X0084652Y0042913D01*
X0084509Y0042986D01*
X0084367Y0043062D01*
X0084228Y0043142D01*
X0084090Y0043225D01*
X0083955Y0043312D01*
X0083821Y0043402D01*
X0083690Y0043495D01*
X0083562Y0043591D01*
X0083436Y0043691D01*
X0083312Y0043794D01*
X0083191Y0043899D01*
X0083072Y0044008D01*
X0082956Y0044119D01*
X0082843Y0044234D01*
X0082733Y0044351D01*
X0082626Y0044471D01*
X0082522Y0044593D01*
X0082421Y0044718D01*
X0082323Y0044846D01*
X0082228Y0044976D01*
X0082136Y0045108D01*
X0082048Y0045242D01*
X0081963Y0045379D01*
X0081881Y0045517D01*
X0081803Y0045658D01*
X0081729Y0045800D01*
X0081658Y0045944D01*
X0081590Y0046090D01*
X0081527Y0046238D01*
X0081466Y0046387D01*
X0081410Y0046538D01*
X0081357Y0046690D01*
X0081308Y0046843D01*
X0081263Y0046997D01*
X0081222Y0047152D01*
X0081184Y0047309D01*
X0081151Y0047466D01*
X0081121Y0047624D01*
X0081095Y0047783D01*
X0081074Y0047942D01*
X0081056Y0048102D01*
X0081042Y0048262D01*
X0081032Y0048423D01*
X0081026Y0048583D01*
X0081024Y0048744D01*
X0088898Y0068429D02*
X0088900Y0068590D01*
X0088906Y0068750D01*
X0088916Y0068911D01*
X0088930Y0069071D01*
X0088948Y0069231D01*
X0088969Y0069390D01*
X0088995Y0069549D01*
X0089025Y0069707D01*
X0089058Y0069864D01*
X0089096Y0070021D01*
X0089137Y0070176D01*
X0089182Y0070330D01*
X0089231Y0070483D01*
X0089284Y0070635D01*
X0089340Y0070786D01*
X0089401Y0070935D01*
X0089464Y0071083D01*
X0089532Y0071229D01*
X0089603Y0071373D01*
X0089677Y0071515D01*
X0089755Y0071656D01*
X0089837Y0071794D01*
X0089922Y0071931D01*
X0090010Y0072065D01*
X0090102Y0072197D01*
X0090197Y0072327D01*
X0090295Y0072455D01*
X0090396Y0072580D01*
X0090500Y0072702D01*
X0090607Y0072822D01*
X0090717Y0072939D01*
X0090830Y0073054D01*
X0090946Y0073165D01*
X0091065Y0073274D01*
X0091186Y0073379D01*
X0091310Y0073482D01*
X0091436Y0073582D01*
X0091564Y0073678D01*
X0091695Y0073771D01*
X0091829Y0073861D01*
X0091964Y0073948D01*
X0092102Y0074031D01*
X0092241Y0074111D01*
X0092383Y0074187D01*
X0092526Y0074260D01*
X0092671Y0074329D01*
X0092818Y0074395D01*
X0092966Y0074457D01*
X0093116Y0074515D01*
X0093267Y0074570D01*
X0093420Y0074621D01*
X0093574Y0074668D01*
X0093729Y0074711D01*
X0093885Y0074750D01*
X0094041Y0074786D01*
X0094199Y0074817D01*
X0094357Y0074845D01*
X0094516Y0074869D01*
X0094676Y0074889D01*
X0094836Y0074905D01*
X0094996Y0074917D01*
X0095157Y0074925D01*
X0095318Y0074929D01*
X0095478Y0074929D01*
X0095639Y0074925D01*
X0095800Y0074917D01*
X0095960Y0074905D01*
X0096120Y0074889D01*
X0096280Y0074869D01*
X0096439Y0074845D01*
X0096597Y0074817D01*
X0096755Y0074786D01*
X0096911Y0074750D01*
X0097067Y0074711D01*
X0097222Y0074668D01*
X0097376Y0074621D01*
X0097529Y0074570D01*
X0097680Y0074515D01*
X0097830Y0074457D01*
X0097978Y0074395D01*
X0098125Y0074329D01*
X0098270Y0074260D01*
X0098413Y0074187D01*
X0098555Y0074111D01*
X0098694Y0074031D01*
X0098832Y0073948D01*
X0098967Y0073861D01*
X0099101Y0073771D01*
X0099232Y0073678D01*
X0099360Y0073582D01*
X0099486Y0073482D01*
X0099610Y0073379D01*
X0099731Y0073274D01*
X0099850Y0073165D01*
X0099966Y0073054D01*
X0100079Y0072939D01*
X0100189Y0072822D01*
X0100296Y0072702D01*
X0100400Y0072580D01*
X0100501Y0072455D01*
X0100599Y0072327D01*
X0100694Y0072197D01*
X0100786Y0072065D01*
X0100874Y0071931D01*
X0100959Y0071794D01*
X0101041Y0071656D01*
X0101119Y0071515D01*
X0101193Y0071373D01*
X0101264Y0071229D01*
X0101332Y0071083D01*
X0101395Y0070935D01*
X0101456Y0070786D01*
X0101512Y0070635D01*
X0101565Y0070483D01*
X0101614Y0070330D01*
X0101659Y0070176D01*
X0101700Y0070021D01*
X0101738Y0069864D01*
X0101771Y0069707D01*
X0101801Y0069549D01*
X0101827Y0069390D01*
X0101848Y0069231D01*
X0101866Y0069071D01*
X0101880Y0068911D01*
X0101890Y0068750D01*
X0101896Y0068590D01*
X0101898Y0068429D01*
X0101896Y0068268D01*
X0101890Y0068108D01*
X0101880Y0067947D01*
X0101866Y0067787D01*
X0101848Y0067627D01*
X0101827Y0067468D01*
X0101801Y0067309D01*
X0101771Y0067151D01*
X0101738Y0066994D01*
X0101700Y0066837D01*
X0101659Y0066682D01*
X0101614Y0066528D01*
X0101565Y0066375D01*
X0101512Y0066223D01*
X0101456Y0066072D01*
X0101395Y0065923D01*
X0101332Y0065775D01*
X0101264Y0065629D01*
X0101193Y0065485D01*
X0101119Y0065343D01*
X0101041Y0065202D01*
X0100959Y0065064D01*
X0100874Y0064927D01*
X0100786Y0064793D01*
X0100694Y0064661D01*
X0100599Y0064531D01*
X0100501Y0064403D01*
X0100400Y0064278D01*
X0100296Y0064156D01*
X0100189Y0064036D01*
X0100079Y0063919D01*
X0099966Y0063804D01*
X0099850Y0063693D01*
X0099731Y0063584D01*
X0099610Y0063479D01*
X0099486Y0063376D01*
X0099360Y0063276D01*
X0099232Y0063180D01*
X0099101Y0063087D01*
X0098967Y0062997D01*
X0098832Y0062910D01*
X0098694Y0062827D01*
X0098555Y0062747D01*
X0098413Y0062671D01*
X0098270Y0062598D01*
X0098125Y0062529D01*
X0097978Y0062463D01*
X0097830Y0062401D01*
X0097680Y0062343D01*
X0097529Y0062288D01*
X0097376Y0062237D01*
X0097222Y0062190D01*
X0097067Y0062147D01*
X0096911Y0062108D01*
X0096755Y0062072D01*
X0096597Y0062041D01*
X0096439Y0062013D01*
X0096280Y0061989D01*
X0096120Y0061969D01*
X0095960Y0061953D01*
X0095800Y0061941D01*
X0095639Y0061933D01*
X0095478Y0061929D01*
X0095318Y0061929D01*
X0095157Y0061933D01*
X0094996Y0061941D01*
X0094836Y0061953D01*
X0094676Y0061969D01*
X0094516Y0061989D01*
X0094357Y0062013D01*
X0094199Y0062041D01*
X0094041Y0062072D01*
X0093885Y0062108D01*
X0093729Y0062147D01*
X0093574Y0062190D01*
X0093420Y0062237D01*
X0093267Y0062288D01*
X0093116Y0062343D01*
X0092966Y0062401D01*
X0092818Y0062463D01*
X0092671Y0062529D01*
X0092526Y0062598D01*
X0092383Y0062671D01*
X0092241Y0062747D01*
X0092102Y0062827D01*
X0091964Y0062910D01*
X0091829Y0062997D01*
X0091695Y0063087D01*
X0091564Y0063180D01*
X0091436Y0063276D01*
X0091310Y0063376D01*
X0091186Y0063479D01*
X0091065Y0063584D01*
X0090946Y0063693D01*
X0090830Y0063804D01*
X0090717Y0063919D01*
X0090607Y0064036D01*
X0090500Y0064156D01*
X0090396Y0064278D01*
X0090295Y0064403D01*
X0090197Y0064531D01*
X0090102Y0064661D01*
X0090010Y0064793D01*
X0089922Y0064927D01*
X0089837Y0065064D01*
X0089755Y0065202D01*
X0089677Y0065343D01*
X0089603Y0065485D01*
X0089532Y0065629D01*
X0089464Y0065775D01*
X0089401Y0065923D01*
X0089340Y0066072D01*
X0089284Y0066223D01*
X0089231Y0066375D01*
X0089182Y0066528D01*
X0089137Y0066682D01*
X0089096Y0066837D01*
X0089058Y0066994D01*
X0089025Y0067151D01*
X0088995Y0067309D01*
X0088969Y0067468D01*
X0088948Y0067627D01*
X0088930Y0067787D01*
X0088916Y0067947D01*
X0088906Y0068108D01*
X0088900Y0068268D01*
X0088898Y0068429D01*
X0108583Y0097957D02*
X0108585Y0098118D01*
X0108591Y0098278D01*
X0108601Y0098439D01*
X0108615Y0098599D01*
X0108633Y0098759D01*
X0108654Y0098918D01*
X0108680Y0099077D01*
X0108710Y0099235D01*
X0108743Y0099392D01*
X0108781Y0099549D01*
X0108822Y0099704D01*
X0108867Y0099858D01*
X0108916Y0100011D01*
X0108969Y0100163D01*
X0109025Y0100314D01*
X0109086Y0100463D01*
X0109149Y0100611D01*
X0109217Y0100757D01*
X0109288Y0100901D01*
X0109362Y0101043D01*
X0109440Y0101184D01*
X0109522Y0101322D01*
X0109607Y0101459D01*
X0109695Y0101593D01*
X0109787Y0101725D01*
X0109882Y0101855D01*
X0109980Y0101983D01*
X0110081Y0102108D01*
X0110185Y0102230D01*
X0110292Y0102350D01*
X0110402Y0102467D01*
X0110515Y0102582D01*
X0110631Y0102693D01*
X0110750Y0102802D01*
X0110871Y0102907D01*
X0110995Y0103010D01*
X0111121Y0103110D01*
X0111249Y0103206D01*
X0111380Y0103299D01*
X0111514Y0103389D01*
X0111649Y0103476D01*
X0111787Y0103559D01*
X0111926Y0103639D01*
X0112068Y0103715D01*
X0112211Y0103788D01*
X0112356Y0103857D01*
X0112503Y0103923D01*
X0112651Y0103985D01*
X0112801Y0104043D01*
X0112952Y0104098D01*
X0113105Y0104149D01*
X0113259Y0104196D01*
X0113414Y0104239D01*
X0113570Y0104278D01*
X0113726Y0104314D01*
X0113884Y0104345D01*
X0114042Y0104373D01*
X0114201Y0104397D01*
X0114361Y0104417D01*
X0114521Y0104433D01*
X0114681Y0104445D01*
X0114842Y0104453D01*
X0115003Y0104457D01*
X0115163Y0104457D01*
X0115324Y0104453D01*
X0115485Y0104445D01*
X0115645Y0104433D01*
X0115805Y0104417D01*
X0115965Y0104397D01*
X0116124Y0104373D01*
X0116282Y0104345D01*
X0116440Y0104314D01*
X0116596Y0104278D01*
X0116752Y0104239D01*
X0116907Y0104196D01*
X0117061Y0104149D01*
X0117214Y0104098D01*
X0117365Y0104043D01*
X0117515Y0103985D01*
X0117663Y0103923D01*
X0117810Y0103857D01*
X0117955Y0103788D01*
X0118098Y0103715D01*
X0118240Y0103639D01*
X0118379Y0103559D01*
X0118517Y0103476D01*
X0118652Y0103389D01*
X0118786Y0103299D01*
X0118917Y0103206D01*
X0119045Y0103110D01*
X0119171Y0103010D01*
X0119295Y0102907D01*
X0119416Y0102802D01*
X0119535Y0102693D01*
X0119651Y0102582D01*
X0119764Y0102467D01*
X0119874Y0102350D01*
X0119981Y0102230D01*
X0120085Y0102108D01*
X0120186Y0101983D01*
X0120284Y0101855D01*
X0120379Y0101725D01*
X0120471Y0101593D01*
X0120559Y0101459D01*
X0120644Y0101322D01*
X0120726Y0101184D01*
X0120804Y0101043D01*
X0120878Y0100901D01*
X0120949Y0100757D01*
X0121017Y0100611D01*
X0121080Y0100463D01*
X0121141Y0100314D01*
X0121197Y0100163D01*
X0121250Y0100011D01*
X0121299Y0099858D01*
X0121344Y0099704D01*
X0121385Y0099549D01*
X0121423Y0099392D01*
X0121456Y0099235D01*
X0121486Y0099077D01*
X0121512Y0098918D01*
X0121533Y0098759D01*
X0121551Y0098599D01*
X0121565Y0098439D01*
X0121575Y0098278D01*
X0121581Y0098118D01*
X0121583Y0097957D01*
X0121581Y0097796D01*
X0121575Y0097636D01*
X0121565Y0097475D01*
X0121551Y0097315D01*
X0121533Y0097155D01*
X0121512Y0096996D01*
X0121486Y0096837D01*
X0121456Y0096679D01*
X0121423Y0096522D01*
X0121385Y0096365D01*
X0121344Y0096210D01*
X0121299Y0096056D01*
X0121250Y0095903D01*
X0121197Y0095751D01*
X0121141Y0095600D01*
X0121080Y0095451D01*
X0121017Y0095303D01*
X0120949Y0095157D01*
X0120878Y0095013D01*
X0120804Y0094871D01*
X0120726Y0094730D01*
X0120644Y0094592D01*
X0120559Y0094455D01*
X0120471Y0094321D01*
X0120379Y0094189D01*
X0120284Y0094059D01*
X0120186Y0093931D01*
X0120085Y0093806D01*
X0119981Y0093684D01*
X0119874Y0093564D01*
X0119764Y0093447D01*
X0119651Y0093332D01*
X0119535Y0093221D01*
X0119416Y0093112D01*
X0119295Y0093007D01*
X0119171Y0092904D01*
X0119045Y0092804D01*
X0118917Y0092708D01*
X0118786Y0092615D01*
X0118652Y0092525D01*
X0118517Y0092438D01*
X0118379Y0092355D01*
X0118240Y0092275D01*
X0118098Y0092199D01*
X0117955Y0092126D01*
X0117810Y0092057D01*
X0117663Y0091991D01*
X0117515Y0091929D01*
X0117365Y0091871D01*
X0117214Y0091816D01*
X0117061Y0091765D01*
X0116907Y0091718D01*
X0116752Y0091675D01*
X0116596Y0091636D01*
X0116440Y0091600D01*
X0116282Y0091569D01*
X0116124Y0091541D01*
X0115965Y0091517D01*
X0115805Y0091497D01*
X0115645Y0091481D01*
X0115485Y0091469D01*
X0115324Y0091461D01*
X0115163Y0091457D01*
X0115003Y0091457D01*
X0114842Y0091461D01*
X0114681Y0091469D01*
X0114521Y0091481D01*
X0114361Y0091497D01*
X0114201Y0091517D01*
X0114042Y0091541D01*
X0113884Y0091569D01*
X0113726Y0091600D01*
X0113570Y0091636D01*
X0113414Y0091675D01*
X0113259Y0091718D01*
X0113105Y0091765D01*
X0112952Y0091816D01*
X0112801Y0091871D01*
X0112651Y0091929D01*
X0112503Y0091991D01*
X0112356Y0092057D01*
X0112211Y0092126D01*
X0112068Y0092199D01*
X0111926Y0092275D01*
X0111787Y0092355D01*
X0111649Y0092438D01*
X0111514Y0092525D01*
X0111380Y0092615D01*
X0111249Y0092708D01*
X0111121Y0092804D01*
X0110995Y0092904D01*
X0110871Y0093007D01*
X0110750Y0093112D01*
X0110631Y0093221D01*
X0110515Y0093332D01*
X0110402Y0093447D01*
X0110292Y0093564D01*
X0110185Y0093684D01*
X0110081Y0093806D01*
X0109980Y0093931D01*
X0109882Y0094059D01*
X0109787Y0094189D01*
X0109695Y0094321D01*
X0109607Y0094455D01*
X0109522Y0094592D01*
X0109440Y0094730D01*
X0109362Y0094871D01*
X0109288Y0095013D01*
X0109217Y0095157D01*
X0109149Y0095303D01*
X0109086Y0095451D01*
X0109025Y0095600D01*
X0108969Y0095751D01*
X0108916Y0095903D01*
X0108867Y0096056D01*
X0108822Y0096210D01*
X0108781Y0096365D01*
X0108743Y0096522D01*
X0108710Y0096679D01*
X0108680Y0096837D01*
X0108654Y0096996D01*
X0108633Y0097155D01*
X0108615Y0097315D01*
X0108601Y0097475D01*
X0108591Y0097636D01*
X0108585Y0097796D01*
X0108583Y0097957D01*
X0179449Y0050713D02*
X0179451Y0050874D01*
X0179457Y0051034D01*
X0179467Y0051195D01*
X0179481Y0051355D01*
X0179499Y0051515D01*
X0179520Y0051674D01*
X0179546Y0051833D01*
X0179576Y0051991D01*
X0179609Y0052148D01*
X0179647Y0052305D01*
X0179688Y0052460D01*
X0179733Y0052614D01*
X0179782Y0052767D01*
X0179835Y0052919D01*
X0179891Y0053070D01*
X0179952Y0053219D01*
X0180015Y0053367D01*
X0180083Y0053513D01*
X0180154Y0053657D01*
X0180228Y0053799D01*
X0180306Y0053940D01*
X0180388Y0054078D01*
X0180473Y0054215D01*
X0180561Y0054349D01*
X0180653Y0054481D01*
X0180748Y0054611D01*
X0180846Y0054739D01*
X0180947Y0054864D01*
X0181051Y0054986D01*
X0181158Y0055106D01*
X0181268Y0055223D01*
X0181381Y0055338D01*
X0181497Y0055449D01*
X0181616Y0055558D01*
X0181737Y0055663D01*
X0181861Y0055766D01*
X0181987Y0055866D01*
X0182115Y0055962D01*
X0182246Y0056055D01*
X0182380Y0056145D01*
X0182515Y0056232D01*
X0182653Y0056315D01*
X0182792Y0056395D01*
X0182934Y0056471D01*
X0183077Y0056544D01*
X0183222Y0056613D01*
X0183369Y0056679D01*
X0183517Y0056741D01*
X0183667Y0056799D01*
X0183818Y0056854D01*
X0183971Y0056905D01*
X0184125Y0056952D01*
X0184280Y0056995D01*
X0184436Y0057034D01*
X0184592Y0057070D01*
X0184750Y0057101D01*
X0184908Y0057129D01*
X0185067Y0057153D01*
X0185227Y0057173D01*
X0185387Y0057189D01*
X0185547Y0057201D01*
X0185708Y0057209D01*
X0185869Y0057213D01*
X0186029Y0057213D01*
X0186190Y0057209D01*
X0186351Y0057201D01*
X0186511Y0057189D01*
X0186671Y0057173D01*
X0186831Y0057153D01*
X0186990Y0057129D01*
X0187148Y0057101D01*
X0187306Y0057070D01*
X0187462Y0057034D01*
X0187618Y0056995D01*
X0187773Y0056952D01*
X0187927Y0056905D01*
X0188080Y0056854D01*
X0188231Y0056799D01*
X0188381Y0056741D01*
X0188529Y0056679D01*
X0188676Y0056613D01*
X0188821Y0056544D01*
X0188964Y0056471D01*
X0189106Y0056395D01*
X0189245Y0056315D01*
X0189383Y0056232D01*
X0189518Y0056145D01*
X0189652Y0056055D01*
X0189783Y0055962D01*
X0189911Y0055866D01*
X0190037Y0055766D01*
X0190161Y0055663D01*
X0190282Y0055558D01*
X0190401Y0055449D01*
X0190517Y0055338D01*
X0190630Y0055223D01*
X0190740Y0055106D01*
X0190847Y0054986D01*
X0190951Y0054864D01*
X0191052Y0054739D01*
X0191150Y0054611D01*
X0191245Y0054481D01*
X0191337Y0054349D01*
X0191425Y0054215D01*
X0191510Y0054078D01*
X0191592Y0053940D01*
X0191670Y0053799D01*
X0191744Y0053657D01*
X0191815Y0053513D01*
X0191883Y0053367D01*
X0191946Y0053219D01*
X0192007Y0053070D01*
X0192063Y0052919D01*
X0192116Y0052767D01*
X0192165Y0052614D01*
X0192210Y0052460D01*
X0192251Y0052305D01*
X0192289Y0052148D01*
X0192322Y0051991D01*
X0192352Y0051833D01*
X0192378Y0051674D01*
X0192399Y0051515D01*
X0192417Y0051355D01*
X0192431Y0051195D01*
X0192441Y0051034D01*
X0192447Y0050874D01*
X0192449Y0050713D01*
X0192447Y0050552D01*
X0192441Y0050392D01*
X0192431Y0050231D01*
X0192417Y0050071D01*
X0192399Y0049911D01*
X0192378Y0049752D01*
X0192352Y0049593D01*
X0192322Y0049435D01*
X0192289Y0049278D01*
X0192251Y0049121D01*
X0192210Y0048966D01*
X0192165Y0048812D01*
X0192116Y0048659D01*
X0192063Y0048507D01*
X0192007Y0048356D01*
X0191946Y0048207D01*
X0191883Y0048059D01*
X0191815Y0047913D01*
X0191744Y0047769D01*
X0191670Y0047627D01*
X0191592Y0047486D01*
X0191510Y0047348D01*
X0191425Y0047211D01*
X0191337Y0047077D01*
X0191245Y0046945D01*
X0191150Y0046815D01*
X0191052Y0046687D01*
X0190951Y0046562D01*
X0190847Y0046440D01*
X0190740Y0046320D01*
X0190630Y0046203D01*
X0190517Y0046088D01*
X0190401Y0045977D01*
X0190282Y0045868D01*
X0190161Y0045763D01*
X0190037Y0045660D01*
X0189911Y0045560D01*
X0189783Y0045464D01*
X0189652Y0045371D01*
X0189518Y0045281D01*
X0189383Y0045194D01*
X0189245Y0045111D01*
X0189106Y0045031D01*
X0188964Y0044955D01*
X0188821Y0044882D01*
X0188676Y0044813D01*
X0188529Y0044747D01*
X0188381Y0044685D01*
X0188231Y0044627D01*
X0188080Y0044572D01*
X0187927Y0044521D01*
X0187773Y0044474D01*
X0187618Y0044431D01*
X0187462Y0044392D01*
X0187306Y0044356D01*
X0187148Y0044325D01*
X0186990Y0044297D01*
X0186831Y0044273D01*
X0186671Y0044253D01*
X0186511Y0044237D01*
X0186351Y0044225D01*
X0186190Y0044217D01*
X0186029Y0044213D01*
X0185869Y0044213D01*
X0185708Y0044217D01*
X0185547Y0044225D01*
X0185387Y0044237D01*
X0185227Y0044253D01*
X0185067Y0044273D01*
X0184908Y0044297D01*
X0184750Y0044325D01*
X0184592Y0044356D01*
X0184436Y0044392D01*
X0184280Y0044431D01*
X0184125Y0044474D01*
X0183971Y0044521D01*
X0183818Y0044572D01*
X0183667Y0044627D01*
X0183517Y0044685D01*
X0183369Y0044747D01*
X0183222Y0044813D01*
X0183077Y0044882D01*
X0182934Y0044955D01*
X0182792Y0045031D01*
X0182653Y0045111D01*
X0182515Y0045194D01*
X0182380Y0045281D01*
X0182246Y0045371D01*
X0182115Y0045464D01*
X0181987Y0045560D01*
X0181861Y0045660D01*
X0181737Y0045763D01*
X0181616Y0045868D01*
X0181497Y0045977D01*
X0181381Y0046088D01*
X0181268Y0046203D01*
X0181158Y0046320D01*
X0181051Y0046440D01*
X0180947Y0046562D01*
X0180846Y0046687D01*
X0180748Y0046815D01*
X0180653Y0046945D01*
X0180561Y0047077D01*
X0180473Y0047211D01*
X0180388Y0047348D01*
X0180306Y0047486D01*
X0180228Y0047627D01*
X0180154Y0047769D01*
X0180083Y0047913D01*
X0180015Y0048059D01*
X0179952Y0048207D01*
X0179891Y0048356D01*
X0179835Y0048507D01*
X0179782Y0048659D01*
X0179733Y0048812D01*
X0179688Y0048966D01*
X0179647Y0049121D01*
X0179609Y0049278D01*
X0179576Y0049435D01*
X0179546Y0049593D01*
X0179520Y0049752D01*
X0179499Y0049911D01*
X0179481Y0050071D01*
X0179467Y0050231D01*
X0179457Y0050392D01*
X0179451Y0050552D01*
X0179449Y0050713D01*
X0218819Y0084177D02*
X0218821Y0084338D01*
X0218827Y0084498D01*
X0218837Y0084659D01*
X0218851Y0084819D01*
X0218869Y0084979D01*
X0218890Y0085138D01*
X0218916Y0085297D01*
X0218946Y0085455D01*
X0218979Y0085612D01*
X0219017Y0085769D01*
X0219058Y0085924D01*
X0219103Y0086078D01*
X0219152Y0086231D01*
X0219205Y0086383D01*
X0219261Y0086534D01*
X0219322Y0086683D01*
X0219385Y0086831D01*
X0219453Y0086977D01*
X0219524Y0087121D01*
X0219598Y0087263D01*
X0219676Y0087404D01*
X0219758Y0087542D01*
X0219843Y0087679D01*
X0219931Y0087813D01*
X0220023Y0087945D01*
X0220118Y0088075D01*
X0220216Y0088203D01*
X0220317Y0088328D01*
X0220421Y0088450D01*
X0220528Y0088570D01*
X0220638Y0088687D01*
X0220751Y0088802D01*
X0220867Y0088913D01*
X0220986Y0089022D01*
X0221107Y0089127D01*
X0221231Y0089230D01*
X0221357Y0089330D01*
X0221485Y0089426D01*
X0221616Y0089519D01*
X0221750Y0089609D01*
X0221885Y0089696D01*
X0222023Y0089779D01*
X0222162Y0089859D01*
X0222304Y0089935D01*
X0222447Y0090008D01*
X0222592Y0090077D01*
X0222739Y0090143D01*
X0222887Y0090205D01*
X0223037Y0090263D01*
X0223188Y0090318D01*
X0223341Y0090369D01*
X0223495Y0090416D01*
X0223650Y0090459D01*
X0223806Y0090498D01*
X0223962Y0090534D01*
X0224120Y0090565D01*
X0224278Y0090593D01*
X0224437Y0090617D01*
X0224597Y0090637D01*
X0224757Y0090653D01*
X0224917Y0090665D01*
X0225078Y0090673D01*
X0225239Y0090677D01*
X0225399Y0090677D01*
X0225560Y0090673D01*
X0225721Y0090665D01*
X0225881Y0090653D01*
X0226041Y0090637D01*
X0226201Y0090617D01*
X0226360Y0090593D01*
X0226518Y0090565D01*
X0226676Y0090534D01*
X0226832Y0090498D01*
X0226988Y0090459D01*
X0227143Y0090416D01*
X0227297Y0090369D01*
X0227450Y0090318D01*
X0227601Y0090263D01*
X0227751Y0090205D01*
X0227899Y0090143D01*
X0228046Y0090077D01*
X0228191Y0090008D01*
X0228334Y0089935D01*
X0228476Y0089859D01*
X0228615Y0089779D01*
X0228753Y0089696D01*
X0228888Y0089609D01*
X0229022Y0089519D01*
X0229153Y0089426D01*
X0229281Y0089330D01*
X0229407Y0089230D01*
X0229531Y0089127D01*
X0229652Y0089022D01*
X0229771Y0088913D01*
X0229887Y0088802D01*
X0230000Y0088687D01*
X0230110Y0088570D01*
X0230217Y0088450D01*
X0230321Y0088328D01*
X0230422Y0088203D01*
X0230520Y0088075D01*
X0230615Y0087945D01*
X0230707Y0087813D01*
X0230795Y0087679D01*
X0230880Y0087542D01*
X0230962Y0087404D01*
X0231040Y0087263D01*
X0231114Y0087121D01*
X0231185Y0086977D01*
X0231253Y0086831D01*
X0231316Y0086683D01*
X0231377Y0086534D01*
X0231433Y0086383D01*
X0231486Y0086231D01*
X0231535Y0086078D01*
X0231580Y0085924D01*
X0231621Y0085769D01*
X0231659Y0085612D01*
X0231692Y0085455D01*
X0231722Y0085297D01*
X0231748Y0085138D01*
X0231769Y0084979D01*
X0231787Y0084819D01*
X0231801Y0084659D01*
X0231811Y0084498D01*
X0231817Y0084338D01*
X0231819Y0084177D01*
X0231817Y0084016D01*
X0231811Y0083856D01*
X0231801Y0083695D01*
X0231787Y0083535D01*
X0231769Y0083375D01*
X0231748Y0083216D01*
X0231722Y0083057D01*
X0231692Y0082899D01*
X0231659Y0082742D01*
X0231621Y0082585D01*
X0231580Y0082430D01*
X0231535Y0082276D01*
X0231486Y0082123D01*
X0231433Y0081971D01*
X0231377Y0081820D01*
X0231316Y0081671D01*
X0231253Y0081523D01*
X0231185Y0081377D01*
X0231114Y0081233D01*
X0231040Y0081091D01*
X0230962Y0080950D01*
X0230880Y0080812D01*
X0230795Y0080675D01*
X0230707Y0080541D01*
X0230615Y0080409D01*
X0230520Y0080279D01*
X0230422Y0080151D01*
X0230321Y0080026D01*
X0230217Y0079904D01*
X0230110Y0079784D01*
X0230000Y0079667D01*
X0229887Y0079552D01*
X0229771Y0079441D01*
X0229652Y0079332D01*
X0229531Y0079227D01*
X0229407Y0079124D01*
X0229281Y0079024D01*
X0229153Y0078928D01*
X0229022Y0078835D01*
X0228888Y0078745D01*
X0228753Y0078658D01*
X0228615Y0078575D01*
X0228476Y0078495D01*
X0228334Y0078419D01*
X0228191Y0078346D01*
X0228046Y0078277D01*
X0227899Y0078211D01*
X0227751Y0078149D01*
X0227601Y0078091D01*
X0227450Y0078036D01*
X0227297Y0077985D01*
X0227143Y0077938D01*
X0226988Y0077895D01*
X0226832Y0077856D01*
X0226676Y0077820D01*
X0226518Y0077789D01*
X0226360Y0077761D01*
X0226201Y0077737D01*
X0226041Y0077717D01*
X0225881Y0077701D01*
X0225721Y0077689D01*
X0225560Y0077681D01*
X0225399Y0077677D01*
X0225239Y0077677D01*
X0225078Y0077681D01*
X0224917Y0077689D01*
X0224757Y0077701D01*
X0224597Y0077717D01*
X0224437Y0077737D01*
X0224278Y0077761D01*
X0224120Y0077789D01*
X0223962Y0077820D01*
X0223806Y0077856D01*
X0223650Y0077895D01*
X0223495Y0077938D01*
X0223341Y0077985D01*
X0223188Y0078036D01*
X0223037Y0078091D01*
X0222887Y0078149D01*
X0222739Y0078211D01*
X0222592Y0078277D01*
X0222447Y0078346D01*
X0222304Y0078419D01*
X0222162Y0078495D01*
X0222023Y0078575D01*
X0221885Y0078658D01*
X0221750Y0078745D01*
X0221616Y0078835D01*
X0221485Y0078928D01*
X0221357Y0079024D01*
X0221231Y0079124D01*
X0221107Y0079227D01*
X0220986Y0079332D01*
X0220867Y0079441D01*
X0220751Y0079552D01*
X0220638Y0079667D01*
X0220528Y0079784D01*
X0220421Y0079904D01*
X0220317Y0080026D01*
X0220216Y0080151D01*
X0220118Y0080279D01*
X0220023Y0080409D01*
X0219931Y0080541D01*
X0219843Y0080675D01*
X0219758Y0080812D01*
X0219676Y0080950D01*
X0219598Y0081091D01*
X0219524Y0081233D01*
X0219453Y0081377D01*
X0219385Y0081523D01*
X0219322Y0081671D01*
X0219261Y0081820D01*
X0219205Y0081971D01*
X0219152Y0082123D01*
X0219103Y0082276D01*
X0219058Y0082430D01*
X0219017Y0082585D01*
X0218979Y0082742D01*
X0218946Y0082899D01*
X0218916Y0083057D01*
X0218890Y0083216D01*
X0218869Y0083375D01*
X0218851Y0083535D01*
X0218837Y0083695D01*
X0218827Y0083856D01*
X0218821Y0084016D01*
X0218819Y0084177D01*
X0258189Y0080240D02*
X0258191Y0080401D01*
X0258197Y0080561D01*
X0258207Y0080722D01*
X0258221Y0080882D01*
X0258239Y0081042D01*
X0258260Y0081201D01*
X0258286Y0081360D01*
X0258316Y0081518D01*
X0258349Y0081675D01*
X0258387Y0081832D01*
X0258428Y0081987D01*
X0258473Y0082141D01*
X0258522Y0082294D01*
X0258575Y0082446D01*
X0258631Y0082597D01*
X0258692Y0082746D01*
X0258755Y0082894D01*
X0258823Y0083040D01*
X0258894Y0083184D01*
X0258968Y0083326D01*
X0259046Y0083467D01*
X0259128Y0083605D01*
X0259213Y0083742D01*
X0259301Y0083876D01*
X0259393Y0084008D01*
X0259488Y0084138D01*
X0259586Y0084266D01*
X0259687Y0084391D01*
X0259791Y0084513D01*
X0259898Y0084633D01*
X0260008Y0084750D01*
X0260121Y0084865D01*
X0260237Y0084976D01*
X0260356Y0085085D01*
X0260477Y0085190D01*
X0260601Y0085293D01*
X0260727Y0085393D01*
X0260855Y0085489D01*
X0260986Y0085582D01*
X0261120Y0085672D01*
X0261255Y0085759D01*
X0261393Y0085842D01*
X0261532Y0085922D01*
X0261674Y0085998D01*
X0261817Y0086071D01*
X0261962Y0086140D01*
X0262109Y0086206D01*
X0262257Y0086268D01*
X0262407Y0086326D01*
X0262558Y0086381D01*
X0262711Y0086432D01*
X0262865Y0086479D01*
X0263020Y0086522D01*
X0263176Y0086561D01*
X0263332Y0086597D01*
X0263490Y0086628D01*
X0263648Y0086656D01*
X0263807Y0086680D01*
X0263967Y0086700D01*
X0264127Y0086716D01*
X0264287Y0086728D01*
X0264448Y0086736D01*
X0264609Y0086740D01*
X0264769Y0086740D01*
X0264930Y0086736D01*
X0265091Y0086728D01*
X0265251Y0086716D01*
X0265411Y0086700D01*
X0265571Y0086680D01*
X0265730Y0086656D01*
X0265888Y0086628D01*
X0266046Y0086597D01*
X0266202Y0086561D01*
X0266358Y0086522D01*
X0266513Y0086479D01*
X0266667Y0086432D01*
X0266820Y0086381D01*
X0266971Y0086326D01*
X0267121Y0086268D01*
X0267269Y0086206D01*
X0267416Y0086140D01*
X0267561Y0086071D01*
X0267704Y0085998D01*
X0267846Y0085922D01*
X0267985Y0085842D01*
X0268123Y0085759D01*
X0268258Y0085672D01*
X0268392Y0085582D01*
X0268523Y0085489D01*
X0268651Y0085393D01*
X0268777Y0085293D01*
X0268901Y0085190D01*
X0269022Y0085085D01*
X0269141Y0084976D01*
X0269257Y0084865D01*
X0269370Y0084750D01*
X0269480Y0084633D01*
X0269587Y0084513D01*
X0269691Y0084391D01*
X0269792Y0084266D01*
X0269890Y0084138D01*
X0269985Y0084008D01*
X0270077Y0083876D01*
X0270165Y0083742D01*
X0270250Y0083605D01*
X0270332Y0083467D01*
X0270410Y0083326D01*
X0270484Y0083184D01*
X0270555Y0083040D01*
X0270623Y0082894D01*
X0270686Y0082746D01*
X0270747Y0082597D01*
X0270803Y0082446D01*
X0270856Y0082294D01*
X0270905Y0082141D01*
X0270950Y0081987D01*
X0270991Y0081832D01*
X0271029Y0081675D01*
X0271062Y0081518D01*
X0271092Y0081360D01*
X0271118Y0081201D01*
X0271139Y0081042D01*
X0271157Y0080882D01*
X0271171Y0080722D01*
X0271181Y0080561D01*
X0271187Y0080401D01*
X0271189Y0080240D01*
X0271187Y0080079D01*
X0271181Y0079919D01*
X0271171Y0079758D01*
X0271157Y0079598D01*
X0271139Y0079438D01*
X0271118Y0079279D01*
X0271092Y0079120D01*
X0271062Y0078962D01*
X0271029Y0078805D01*
X0270991Y0078648D01*
X0270950Y0078493D01*
X0270905Y0078339D01*
X0270856Y0078186D01*
X0270803Y0078034D01*
X0270747Y0077883D01*
X0270686Y0077734D01*
X0270623Y0077586D01*
X0270555Y0077440D01*
X0270484Y0077296D01*
X0270410Y0077154D01*
X0270332Y0077013D01*
X0270250Y0076875D01*
X0270165Y0076738D01*
X0270077Y0076604D01*
X0269985Y0076472D01*
X0269890Y0076342D01*
X0269792Y0076214D01*
X0269691Y0076089D01*
X0269587Y0075967D01*
X0269480Y0075847D01*
X0269370Y0075730D01*
X0269257Y0075615D01*
X0269141Y0075504D01*
X0269022Y0075395D01*
X0268901Y0075290D01*
X0268777Y0075187D01*
X0268651Y0075087D01*
X0268523Y0074991D01*
X0268392Y0074898D01*
X0268258Y0074808D01*
X0268123Y0074721D01*
X0267985Y0074638D01*
X0267846Y0074558D01*
X0267704Y0074482D01*
X0267561Y0074409D01*
X0267416Y0074340D01*
X0267269Y0074274D01*
X0267121Y0074212D01*
X0266971Y0074154D01*
X0266820Y0074099D01*
X0266667Y0074048D01*
X0266513Y0074001D01*
X0266358Y0073958D01*
X0266202Y0073919D01*
X0266046Y0073883D01*
X0265888Y0073852D01*
X0265730Y0073824D01*
X0265571Y0073800D01*
X0265411Y0073780D01*
X0265251Y0073764D01*
X0265091Y0073752D01*
X0264930Y0073744D01*
X0264769Y0073740D01*
X0264609Y0073740D01*
X0264448Y0073744D01*
X0264287Y0073752D01*
X0264127Y0073764D01*
X0263967Y0073780D01*
X0263807Y0073800D01*
X0263648Y0073824D01*
X0263490Y0073852D01*
X0263332Y0073883D01*
X0263176Y0073919D01*
X0263020Y0073958D01*
X0262865Y0074001D01*
X0262711Y0074048D01*
X0262558Y0074099D01*
X0262407Y0074154D01*
X0262257Y0074212D01*
X0262109Y0074274D01*
X0261962Y0074340D01*
X0261817Y0074409D01*
X0261674Y0074482D01*
X0261532Y0074558D01*
X0261393Y0074638D01*
X0261255Y0074721D01*
X0261120Y0074808D01*
X0260986Y0074898D01*
X0260855Y0074991D01*
X0260727Y0075087D01*
X0260601Y0075187D01*
X0260477Y0075290D01*
X0260356Y0075395D01*
X0260237Y0075504D01*
X0260121Y0075615D01*
X0260008Y0075730D01*
X0259898Y0075847D01*
X0259791Y0075967D01*
X0259687Y0076089D01*
X0259586Y0076214D01*
X0259488Y0076342D01*
X0259393Y0076472D01*
X0259301Y0076604D01*
X0259213Y0076738D01*
X0259128Y0076875D01*
X0259046Y0077013D01*
X0258968Y0077154D01*
X0258894Y0077296D01*
X0258823Y0077440D01*
X0258755Y0077586D01*
X0258692Y0077734D01*
X0258631Y0077883D01*
X0258575Y0078034D01*
X0258522Y0078186D01*
X0258473Y0078339D01*
X0258428Y0078493D01*
X0258387Y0078648D01*
X0258349Y0078805D01*
X0258316Y0078962D01*
X0258286Y0079120D01*
X0258260Y0079279D01*
X0258239Y0079438D01*
X0258221Y0079598D01*
X0258207Y0079758D01*
X0258197Y0079919D01*
X0258191Y0080079D01*
X0258189Y0080240D01*
X0207008Y0123547D02*
X0207010Y0123708D01*
X0207016Y0123868D01*
X0207026Y0124029D01*
X0207040Y0124189D01*
X0207058Y0124349D01*
X0207079Y0124508D01*
X0207105Y0124667D01*
X0207135Y0124825D01*
X0207168Y0124982D01*
X0207206Y0125139D01*
X0207247Y0125294D01*
X0207292Y0125448D01*
X0207341Y0125601D01*
X0207394Y0125753D01*
X0207450Y0125904D01*
X0207511Y0126053D01*
X0207574Y0126201D01*
X0207642Y0126347D01*
X0207713Y0126491D01*
X0207787Y0126633D01*
X0207865Y0126774D01*
X0207947Y0126912D01*
X0208032Y0127049D01*
X0208120Y0127183D01*
X0208212Y0127315D01*
X0208307Y0127445D01*
X0208405Y0127573D01*
X0208506Y0127698D01*
X0208610Y0127820D01*
X0208717Y0127940D01*
X0208827Y0128057D01*
X0208940Y0128172D01*
X0209056Y0128283D01*
X0209175Y0128392D01*
X0209296Y0128497D01*
X0209420Y0128600D01*
X0209546Y0128700D01*
X0209674Y0128796D01*
X0209805Y0128889D01*
X0209939Y0128979D01*
X0210074Y0129066D01*
X0210212Y0129149D01*
X0210351Y0129229D01*
X0210493Y0129305D01*
X0210636Y0129378D01*
X0210781Y0129447D01*
X0210928Y0129513D01*
X0211076Y0129575D01*
X0211226Y0129633D01*
X0211377Y0129688D01*
X0211530Y0129739D01*
X0211684Y0129786D01*
X0211839Y0129829D01*
X0211995Y0129868D01*
X0212151Y0129904D01*
X0212309Y0129935D01*
X0212467Y0129963D01*
X0212626Y0129987D01*
X0212786Y0130007D01*
X0212946Y0130023D01*
X0213106Y0130035D01*
X0213267Y0130043D01*
X0213428Y0130047D01*
X0213588Y0130047D01*
X0213749Y0130043D01*
X0213910Y0130035D01*
X0214070Y0130023D01*
X0214230Y0130007D01*
X0214390Y0129987D01*
X0214549Y0129963D01*
X0214707Y0129935D01*
X0214865Y0129904D01*
X0215021Y0129868D01*
X0215177Y0129829D01*
X0215332Y0129786D01*
X0215486Y0129739D01*
X0215639Y0129688D01*
X0215790Y0129633D01*
X0215940Y0129575D01*
X0216088Y0129513D01*
X0216235Y0129447D01*
X0216380Y0129378D01*
X0216523Y0129305D01*
X0216665Y0129229D01*
X0216804Y0129149D01*
X0216942Y0129066D01*
X0217077Y0128979D01*
X0217211Y0128889D01*
X0217342Y0128796D01*
X0217470Y0128700D01*
X0217596Y0128600D01*
X0217720Y0128497D01*
X0217841Y0128392D01*
X0217960Y0128283D01*
X0218076Y0128172D01*
X0218189Y0128057D01*
X0218299Y0127940D01*
X0218406Y0127820D01*
X0218510Y0127698D01*
X0218611Y0127573D01*
X0218709Y0127445D01*
X0218804Y0127315D01*
X0218896Y0127183D01*
X0218984Y0127049D01*
X0219069Y0126912D01*
X0219151Y0126774D01*
X0219229Y0126633D01*
X0219303Y0126491D01*
X0219374Y0126347D01*
X0219442Y0126201D01*
X0219505Y0126053D01*
X0219566Y0125904D01*
X0219622Y0125753D01*
X0219675Y0125601D01*
X0219724Y0125448D01*
X0219769Y0125294D01*
X0219810Y0125139D01*
X0219848Y0124982D01*
X0219881Y0124825D01*
X0219911Y0124667D01*
X0219937Y0124508D01*
X0219958Y0124349D01*
X0219976Y0124189D01*
X0219990Y0124029D01*
X0220000Y0123868D01*
X0220006Y0123708D01*
X0220008Y0123547D01*
X0220006Y0123386D01*
X0220000Y0123226D01*
X0219990Y0123065D01*
X0219976Y0122905D01*
X0219958Y0122745D01*
X0219937Y0122586D01*
X0219911Y0122427D01*
X0219881Y0122269D01*
X0219848Y0122112D01*
X0219810Y0121955D01*
X0219769Y0121800D01*
X0219724Y0121646D01*
X0219675Y0121493D01*
X0219622Y0121341D01*
X0219566Y0121190D01*
X0219505Y0121041D01*
X0219442Y0120893D01*
X0219374Y0120747D01*
X0219303Y0120603D01*
X0219229Y0120461D01*
X0219151Y0120320D01*
X0219069Y0120182D01*
X0218984Y0120045D01*
X0218896Y0119911D01*
X0218804Y0119779D01*
X0218709Y0119649D01*
X0218611Y0119521D01*
X0218510Y0119396D01*
X0218406Y0119274D01*
X0218299Y0119154D01*
X0218189Y0119037D01*
X0218076Y0118922D01*
X0217960Y0118811D01*
X0217841Y0118702D01*
X0217720Y0118597D01*
X0217596Y0118494D01*
X0217470Y0118394D01*
X0217342Y0118298D01*
X0217211Y0118205D01*
X0217077Y0118115D01*
X0216942Y0118028D01*
X0216804Y0117945D01*
X0216665Y0117865D01*
X0216523Y0117789D01*
X0216380Y0117716D01*
X0216235Y0117647D01*
X0216088Y0117581D01*
X0215940Y0117519D01*
X0215790Y0117461D01*
X0215639Y0117406D01*
X0215486Y0117355D01*
X0215332Y0117308D01*
X0215177Y0117265D01*
X0215021Y0117226D01*
X0214865Y0117190D01*
X0214707Y0117159D01*
X0214549Y0117131D01*
X0214390Y0117107D01*
X0214230Y0117087D01*
X0214070Y0117071D01*
X0213910Y0117059D01*
X0213749Y0117051D01*
X0213588Y0117047D01*
X0213428Y0117047D01*
X0213267Y0117051D01*
X0213106Y0117059D01*
X0212946Y0117071D01*
X0212786Y0117087D01*
X0212626Y0117107D01*
X0212467Y0117131D01*
X0212309Y0117159D01*
X0212151Y0117190D01*
X0211995Y0117226D01*
X0211839Y0117265D01*
X0211684Y0117308D01*
X0211530Y0117355D01*
X0211377Y0117406D01*
X0211226Y0117461D01*
X0211076Y0117519D01*
X0210928Y0117581D01*
X0210781Y0117647D01*
X0210636Y0117716D01*
X0210493Y0117789D01*
X0210351Y0117865D01*
X0210212Y0117945D01*
X0210074Y0118028D01*
X0209939Y0118115D01*
X0209805Y0118205D01*
X0209674Y0118298D01*
X0209546Y0118394D01*
X0209420Y0118494D01*
X0209296Y0118597D01*
X0209175Y0118702D01*
X0209056Y0118811D01*
X0208940Y0118922D01*
X0208827Y0119037D01*
X0208717Y0119154D01*
X0208610Y0119274D01*
X0208506Y0119396D01*
X0208405Y0119521D01*
X0208307Y0119649D01*
X0208212Y0119779D01*
X0208120Y0119911D01*
X0208032Y0120045D01*
X0207947Y0120182D01*
X0207865Y0120320D01*
X0207787Y0120461D01*
X0207713Y0120603D01*
X0207642Y0120747D01*
X0207574Y0120893D01*
X0207511Y0121041D01*
X0207450Y0121190D01*
X0207394Y0121341D01*
X0207341Y0121493D01*
X0207292Y0121646D01*
X0207247Y0121800D01*
X0207206Y0121955D01*
X0207168Y0122112D01*
X0207135Y0122269D01*
X0207105Y0122427D01*
X0207079Y0122586D01*
X0207058Y0122745D01*
X0207040Y0122905D01*
X0207026Y0123065D01*
X0207016Y0123226D01*
X0207010Y0123386D01*
X0207008Y0123547D01*
X0258189Y0214098D02*
X0258191Y0214259D01*
X0258197Y0214419D01*
X0258207Y0214580D01*
X0258221Y0214740D01*
X0258239Y0214900D01*
X0258260Y0215059D01*
X0258286Y0215218D01*
X0258316Y0215376D01*
X0258349Y0215533D01*
X0258387Y0215690D01*
X0258428Y0215845D01*
X0258473Y0215999D01*
X0258522Y0216152D01*
X0258575Y0216304D01*
X0258631Y0216455D01*
X0258692Y0216604D01*
X0258755Y0216752D01*
X0258823Y0216898D01*
X0258894Y0217042D01*
X0258968Y0217184D01*
X0259046Y0217325D01*
X0259128Y0217463D01*
X0259213Y0217600D01*
X0259301Y0217734D01*
X0259393Y0217866D01*
X0259488Y0217996D01*
X0259586Y0218124D01*
X0259687Y0218249D01*
X0259791Y0218371D01*
X0259898Y0218491D01*
X0260008Y0218608D01*
X0260121Y0218723D01*
X0260237Y0218834D01*
X0260356Y0218943D01*
X0260477Y0219048D01*
X0260601Y0219151D01*
X0260727Y0219251D01*
X0260855Y0219347D01*
X0260986Y0219440D01*
X0261120Y0219530D01*
X0261255Y0219617D01*
X0261393Y0219700D01*
X0261532Y0219780D01*
X0261674Y0219856D01*
X0261817Y0219929D01*
X0261962Y0219998D01*
X0262109Y0220064D01*
X0262257Y0220126D01*
X0262407Y0220184D01*
X0262558Y0220239D01*
X0262711Y0220290D01*
X0262865Y0220337D01*
X0263020Y0220380D01*
X0263176Y0220419D01*
X0263332Y0220455D01*
X0263490Y0220486D01*
X0263648Y0220514D01*
X0263807Y0220538D01*
X0263967Y0220558D01*
X0264127Y0220574D01*
X0264287Y0220586D01*
X0264448Y0220594D01*
X0264609Y0220598D01*
X0264769Y0220598D01*
X0264930Y0220594D01*
X0265091Y0220586D01*
X0265251Y0220574D01*
X0265411Y0220558D01*
X0265571Y0220538D01*
X0265730Y0220514D01*
X0265888Y0220486D01*
X0266046Y0220455D01*
X0266202Y0220419D01*
X0266358Y0220380D01*
X0266513Y0220337D01*
X0266667Y0220290D01*
X0266820Y0220239D01*
X0266971Y0220184D01*
X0267121Y0220126D01*
X0267269Y0220064D01*
X0267416Y0219998D01*
X0267561Y0219929D01*
X0267704Y0219856D01*
X0267846Y0219780D01*
X0267985Y0219700D01*
X0268123Y0219617D01*
X0268258Y0219530D01*
X0268392Y0219440D01*
X0268523Y0219347D01*
X0268651Y0219251D01*
X0268777Y0219151D01*
X0268901Y0219048D01*
X0269022Y0218943D01*
X0269141Y0218834D01*
X0269257Y0218723D01*
X0269370Y0218608D01*
X0269480Y0218491D01*
X0269587Y0218371D01*
X0269691Y0218249D01*
X0269792Y0218124D01*
X0269890Y0217996D01*
X0269985Y0217866D01*
X0270077Y0217734D01*
X0270165Y0217600D01*
X0270250Y0217463D01*
X0270332Y0217325D01*
X0270410Y0217184D01*
X0270484Y0217042D01*
X0270555Y0216898D01*
X0270623Y0216752D01*
X0270686Y0216604D01*
X0270747Y0216455D01*
X0270803Y0216304D01*
X0270856Y0216152D01*
X0270905Y0215999D01*
X0270950Y0215845D01*
X0270991Y0215690D01*
X0271029Y0215533D01*
X0271062Y0215376D01*
X0271092Y0215218D01*
X0271118Y0215059D01*
X0271139Y0214900D01*
X0271157Y0214740D01*
X0271171Y0214580D01*
X0271181Y0214419D01*
X0271187Y0214259D01*
X0271189Y0214098D01*
X0271187Y0213937D01*
X0271181Y0213777D01*
X0271171Y0213616D01*
X0271157Y0213456D01*
X0271139Y0213296D01*
X0271118Y0213137D01*
X0271092Y0212978D01*
X0271062Y0212820D01*
X0271029Y0212663D01*
X0270991Y0212506D01*
X0270950Y0212351D01*
X0270905Y0212197D01*
X0270856Y0212044D01*
X0270803Y0211892D01*
X0270747Y0211741D01*
X0270686Y0211592D01*
X0270623Y0211444D01*
X0270555Y0211298D01*
X0270484Y0211154D01*
X0270410Y0211012D01*
X0270332Y0210871D01*
X0270250Y0210733D01*
X0270165Y0210596D01*
X0270077Y0210462D01*
X0269985Y0210330D01*
X0269890Y0210200D01*
X0269792Y0210072D01*
X0269691Y0209947D01*
X0269587Y0209825D01*
X0269480Y0209705D01*
X0269370Y0209588D01*
X0269257Y0209473D01*
X0269141Y0209362D01*
X0269022Y0209253D01*
X0268901Y0209148D01*
X0268777Y0209045D01*
X0268651Y0208945D01*
X0268523Y0208849D01*
X0268392Y0208756D01*
X0268258Y0208666D01*
X0268123Y0208579D01*
X0267985Y0208496D01*
X0267846Y0208416D01*
X0267704Y0208340D01*
X0267561Y0208267D01*
X0267416Y0208198D01*
X0267269Y0208132D01*
X0267121Y0208070D01*
X0266971Y0208012D01*
X0266820Y0207957D01*
X0266667Y0207906D01*
X0266513Y0207859D01*
X0266358Y0207816D01*
X0266202Y0207777D01*
X0266046Y0207741D01*
X0265888Y0207710D01*
X0265730Y0207682D01*
X0265571Y0207658D01*
X0265411Y0207638D01*
X0265251Y0207622D01*
X0265091Y0207610D01*
X0264930Y0207602D01*
X0264769Y0207598D01*
X0264609Y0207598D01*
X0264448Y0207602D01*
X0264287Y0207610D01*
X0264127Y0207622D01*
X0263967Y0207638D01*
X0263807Y0207658D01*
X0263648Y0207682D01*
X0263490Y0207710D01*
X0263332Y0207741D01*
X0263176Y0207777D01*
X0263020Y0207816D01*
X0262865Y0207859D01*
X0262711Y0207906D01*
X0262558Y0207957D01*
X0262407Y0208012D01*
X0262257Y0208070D01*
X0262109Y0208132D01*
X0261962Y0208198D01*
X0261817Y0208267D01*
X0261674Y0208340D01*
X0261532Y0208416D01*
X0261393Y0208496D01*
X0261255Y0208579D01*
X0261120Y0208666D01*
X0260986Y0208756D01*
X0260855Y0208849D01*
X0260727Y0208945D01*
X0260601Y0209045D01*
X0260477Y0209148D01*
X0260356Y0209253D01*
X0260237Y0209362D01*
X0260121Y0209473D01*
X0260008Y0209588D01*
X0259898Y0209705D01*
X0259791Y0209825D01*
X0259687Y0209947D01*
X0259586Y0210072D01*
X0259488Y0210200D01*
X0259393Y0210330D01*
X0259301Y0210462D01*
X0259213Y0210596D01*
X0259128Y0210733D01*
X0259046Y0210871D01*
X0258968Y0211012D01*
X0258894Y0211154D01*
X0258823Y0211298D01*
X0258755Y0211444D01*
X0258692Y0211592D01*
X0258631Y0211741D01*
X0258575Y0211892D01*
X0258522Y0212044D01*
X0258473Y0212197D01*
X0258428Y0212351D01*
X0258387Y0212506D01*
X0258349Y0212663D01*
X0258316Y0212820D01*
X0258286Y0212978D01*
X0258260Y0213137D01*
X0258239Y0213296D01*
X0258221Y0213456D01*
X0258207Y0213616D01*
X0258197Y0213777D01*
X0258191Y0213937D01*
X0258189Y0214098D01*
X0006220Y0214098D02*
X0006222Y0214259D01*
X0006228Y0214419D01*
X0006238Y0214580D01*
X0006252Y0214740D01*
X0006270Y0214900D01*
X0006291Y0215059D01*
X0006317Y0215218D01*
X0006347Y0215376D01*
X0006380Y0215533D01*
X0006418Y0215690D01*
X0006459Y0215845D01*
X0006504Y0215999D01*
X0006553Y0216152D01*
X0006606Y0216304D01*
X0006662Y0216455D01*
X0006723Y0216604D01*
X0006786Y0216752D01*
X0006854Y0216898D01*
X0006925Y0217042D01*
X0006999Y0217184D01*
X0007077Y0217325D01*
X0007159Y0217463D01*
X0007244Y0217600D01*
X0007332Y0217734D01*
X0007424Y0217866D01*
X0007519Y0217996D01*
X0007617Y0218124D01*
X0007718Y0218249D01*
X0007822Y0218371D01*
X0007929Y0218491D01*
X0008039Y0218608D01*
X0008152Y0218723D01*
X0008268Y0218834D01*
X0008387Y0218943D01*
X0008508Y0219048D01*
X0008632Y0219151D01*
X0008758Y0219251D01*
X0008886Y0219347D01*
X0009017Y0219440D01*
X0009151Y0219530D01*
X0009286Y0219617D01*
X0009424Y0219700D01*
X0009563Y0219780D01*
X0009705Y0219856D01*
X0009848Y0219929D01*
X0009993Y0219998D01*
X0010140Y0220064D01*
X0010288Y0220126D01*
X0010438Y0220184D01*
X0010589Y0220239D01*
X0010742Y0220290D01*
X0010896Y0220337D01*
X0011051Y0220380D01*
X0011207Y0220419D01*
X0011363Y0220455D01*
X0011521Y0220486D01*
X0011679Y0220514D01*
X0011838Y0220538D01*
X0011998Y0220558D01*
X0012158Y0220574D01*
X0012318Y0220586D01*
X0012479Y0220594D01*
X0012640Y0220598D01*
X0012800Y0220598D01*
X0012961Y0220594D01*
X0013122Y0220586D01*
X0013282Y0220574D01*
X0013442Y0220558D01*
X0013602Y0220538D01*
X0013761Y0220514D01*
X0013919Y0220486D01*
X0014077Y0220455D01*
X0014233Y0220419D01*
X0014389Y0220380D01*
X0014544Y0220337D01*
X0014698Y0220290D01*
X0014851Y0220239D01*
X0015002Y0220184D01*
X0015152Y0220126D01*
X0015300Y0220064D01*
X0015447Y0219998D01*
X0015592Y0219929D01*
X0015735Y0219856D01*
X0015877Y0219780D01*
X0016016Y0219700D01*
X0016154Y0219617D01*
X0016289Y0219530D01*
X0016423Y0219440D01*
X0016554Y0219347D01*
X0016682Y0219251D01*
X0016808Y0219151D01*
X0016932Y0219048D01*
X0017053Y0218943D01*
X0017172Y0218834D01*
X0017288Y0218723D01*
X0017401Y0218608D01*
X0017511Y0218491D01*
X0017618Y0218371D01*
X0017722Y0218249D01*
X0017823Y0218124D01*
X0017921Y0217996D01*
X0018016Y0217866D01*
X0018108Y0217734D01*
X0018196Y0217600D01*
X0018281Y0217463D01*
X0018363Y0217325D01*
X0018441Y0217184D01*
X0018515Y0217042D01*
X0018586Y0216898D01*
X0018654Y0216752D01*
X0018717Y0216604D01*
X0018778Y0216455D01*
X0018834Y0216304D01*
X0018887Y0216152D01*
X0018936Y0215999D01*
X0018981Y0215845D01*
X0019022Y0215690D01*
X0019060Y0215533D01*
X0019093Y0215376D01*
X0019123Y0215218D01*
X0019149Y0215059D01*
X0019170Y0214900D01*
X0019188Y0214740D01*
X0019202Y0214580D01*
X0019212Y0214419D01*
X0019218Y0214259D01*
X0019220Y0214098D01*
X0019218Y0213937D01*
X0019212Y0213777D01*
X0019202Y0213616D01*
X0019188Y0213456D01*
X0019170Y0213296D01*
X0019149Y0213137D01*
X0019123Y0212978D01*
X0019093Y0212820D01*
X0019060Y0212663D01*
X0019022Y0212506D01*
X0018981Y0212351D01*
X0018936Y0212197D01*
X0018887Y0212044D01*
X0018834Y0211892D01*
X0018778Y0211741D01*
X0018717Y0211592D01*
X0018654Y0211444D01*
X0018586Y0211298D01*
X0018515Y0211154D01*
X0018441Y0211012D01*
X0018363Y0210871D01*
X0018281Y0210733D01*
X0018196Y0210596D01*
X0018108Y0210462D01*
X0018016Y0210330D01*
X0017921Y0210200D01*
X0017823Y0210072D01*
X0017722Y0209947D01*
X0017618Y0209825D01*
X0017511Y0209705D01*
X0017401Y0209588D01*
X0017288Y0209473D01*
X0017172Y0209362D01*
X0017053Y0209253D01*
X0016932Y0209148D01*
X0016808Y0209045D01*
X0016682Y0208945D01*
X0016554Y0208849D01*
X0016423Y0208756D01*
X0016289Y0208666D01*
X0016154Y0208579D01*
X0016016Y0208496D01*
X0015877Y0208416D01*
X0015735Y0208340D01*
X0015592Y0208267D01*
X0015447Y0208198D01*
X0015300Y0208132D01*
X0015152Y0208070D01*
X0015002Y0208012D01*
X0014851Y0207957D01*
X0014698Y0207906D01*
X0014544Y0207859D01*
X0014389Y0207816D01*
X0014233Y0207777D01*
X0014077Y0207741D01*
X0013919Y0207710D01*
X0013761Y0207682D01*
X0013602Y0207658D01*
X0013442Y0207638D01*
X0013282Y0207622D01*
X0013122Y0207610D01*
X0012961Y0207602D01*
X0012800Y0207598D01*
X0012640Y0207598D01*
X0012479Y0207602D01*
X0012318Y0207610D01*
X0012158Y0207622D01*
X0011998Y0207638D01*
X0011838Y0207658D01*
X0011679Y0207682D01*
X0011521Y0207710D01*
X0011363Y0207741D01*
X0011207Y0207777D01*
X0011051Y0207816D01*
X0010896Y0207859D01*
X0010742Y0207906D01*
X0010589Y0207957D01*
X0010438Y0208012D01*
X0010288Y0208070D01*
X0010140Y0208132D01*
X0009993Y0208198D01*
X0009848Y0208267D01*
X0009705Y0208340D01*
X0009563Y0208416D01*
X0009424Y0208496D01*
X0009286Y0208579D01*
X0009151Y0208666D01*
X0009017Y0208756D01*
X0008886Y0208849D01*
X0008758Y0208945D01*
X0008632Y0209045D01*
X0008508Y0209148D01*
X0008387Y0209253D01*
X0008268Y0209362D01*
X0008152Y0209473D01*
X0008039Y0209588D01*
X0007929Y0209705D01*
X0007822Y0209825D01*
X0007718Y0209947D01*
X0007617Y0210072D01*
X0007519Y0210200D01*
X0007424Y0210330D01*
X0007332Y0210462D01*
X0007244Y0210596D01*
X0007159Y0210733D01*
X0007077Y0210871D01*
X0006999Y0211012D01*
X0006925Y0211154D01*
X0006854Y0211298D01*
X0006786Y0211444D01*
X0006723Y0211592D01*
X0006662Y0211741D01*
X0006606Y0211892D01*
X0006553Y0212044D01*
X0006504Y0212197D01*
X0006459Y0212351D01*
X0006418Y0212506D01*
X0006380Y0212663D01*
X0006347Y0212820D01*
X0006317Y0212978D01*
X0006291Y0213137D01*
X0006270Y0213296D01*
X0006252Y0213456D01*
X0006238Y0213616D01*
X0006228Y0213777D01*
X0006222Y0213937D01*
X0006220Y0214098D01*
D11*
X0009690Y0012113D03*
X0009690Y0011913D03*
X0009690Y0011713D03*
X0009690Y0011513D03*
X0009690Y0007713D03*
X0009690Y0007513D03*
X0009690Y0007313D03*
X0009690Y0007113D03*
X0015690Y0007113D03*
X0015690Y0007313D03*
X0015690Y0007513D03*
X0015690Y0007713D03*
X0015690Y0011513D03*
X0015690Y0011713D03*
X0015690Y0011913D03*
X0015690Y0012113D03*
X0021690Y0012113D03*
X0021690Y0011913D03*
X0021690Y0011713D03*
X0021690Y0011513D03*
X0021690Y0007713D03*
X0021690Y0007513D03*
X0021690Y0007313D03*
X0021690Y0007113D03*
X0029890Y0007113D03*
X0029890Y0007313D03*
X0029890Y0007513D03*
X0029890Y0007713D03*
X0029890Y0011513D03*
X0029890Y0011713D03*
X0029890Y0011913D03*
X0029890Y0012113D03*
X0035890Y0012113D03*
X0035890Y0011913D03*
X0035890Y0011713D03*
X0035890Y0011513D03*
X0041890Y0011513D03*
X0041890Y0011713D03*
X0041890Y0011913D03*
X0041890Y0012113D03*
X0041890Y0007713D03*
X0041890Y0007513D03*
X0041890Y0007313D03*
X0041890Y0007113D03*
X0047890Y0007113D03*
X0047890Y0007313D03*
X0047890Y0007513D03*
X0047890Y0007713D03*
X0047890Y0011513D03*
X0047890Y0011713D03*
X0047890Y0011913D03*
X0047890Y0012113D03*
X0053890Y0012113D03*
X0053890Y0011913D03*
X0053890Y0011713D03*
X0053890Y0011513D03*
X0059890Y0011513D03*
X0059890Y0011713D03*
X0059890Y0011913D03*
X0059890Y0012113D03*
X0059890Y0007713D03*
X0059890Y0007513D03*
X0059890Y0007313D03*
X0059890Y0007113D03*
X0065890Y0007113D03*
X0065890Y0007313D03*
X0065890Y0007513D03*
X0065890Y0007713D03*
X0065890Y0011513D03*
X0065890Y0011713D03*
X0065890Y0011913D03*
X0065890Y0012113D03*
D12*
X0053890Y0007713D03*
X0053890Y0007513D03*
X0053890Y0007313D03*
X0053890Y0007113D03*
X0035890Y0007113D03*
X0035890Y0007313D03*
X0035890Y0007513D03*
X0035890Y0007713D03*
D13*
X0036690Y0007913D03*
X0036690Y0008113D03*
X0036690Y0008313D03*
X0036690Y0008513D03*
X0036690Y0008713D03*
X0036690Y0008913D03*
X0036690Y0009113D03*
X0036690Y0009313D03*
X0036690Y0009513D03*
X0036690Y0009713D03*
X0036690Y0009913D03*
X0035090Y0009913D03*
X0035090Y0009713D03*
X0035090Y0009513D03*
X0035090Y0009313D03*
X0035090Y0009113D03*
X0035090Y0008913D03*
X0035090Y0008713D03*
X0035090Y0008513D03*
X0035090Y0008313D03*
X0035090Y0008113D03*
X0035090Y0007913D03*
X0032090Y0007913D03*
X0032090Y0008113D03*
X0032090Y0008313D03*
X0032090Y0008513D03*
X0032090Y0008713D03*
X0032090Y0008913D03*
X0032090Y0009113D03*
X0032090Y0009313D03*
X0032090Y0009513D03*
X0032090Y0009713D03*
X0032090Y0009913D03*
X0032090Y0010113D03*
X0032090Y0010313D03*
X0032090Y0010513D03*
X0032090Y0010713D03*
X0032090Y0010913D03*
X0032090Y0011113D03*
X0032090Y0011313D03*
X0033690Y0011313D03*
X0033690Y0011113D03*
X0033690Y0010913D03*
X0038090Y0010913D03*
X0038090Y0011113D03*
X0038090Y0011313D03*
X0039690Y0011313D03*
X0039690Y0011113D03*
X0039690Y0010913D03*
X0039690Y0009913D03*
X0039690Y0009713D03*
X0039690Y0009513D03*
X0039690Y0009313D03*
X0039690Y0008313D03*
X0039690Y0008113D03*
X0039690Y0007913D03*
X0044090Y0007913D03*
X0044090Y0008113D03*
X0044090Y0008313D03*
X0044090Y0008513D03*
X0044090Y0008713D03*
X0044090Y0008913D03*
X0044090Y0009113D03*
X0044090Y0009313D03*
X0044090Y0009513D03*
X0044090Y0009713D03*
X0044090Y0009913D03*
X0044090Y0010113D03*
X0044090Y0010313D03*
X0044090Y0010513D03*
X0044090Y0010713D03*
X0044090Y0010913D03*
X0044090Y0011113D03*
X0044090Y0011313D03*
X0045690Y0011313D03*
X0045690Y0011113D03*
X0045690Y0010913D03*
X0045690Y0009913D03*
X0045690Y0009713D03*
X0045690Y0009513D03*
X0045690Y0009313D03*
X0045690Y0008313D03*
X0045690Y0008113D03*
X0045690Y0007913D03*
X0050090Y0007913D03*
X0050090Y0008113D03*
X0050090Y0008313D03*
X0050090Y0008513D03*
X0050090Y0008713D03*
X0050090Y0008913D03*
X0050090Y0009113D03*
X0050090Y0009313D03*
X0050090Y0009513D03*
X0050090Y0009713D03*
X0050090Y0009913D03*
X0050090Y0010113D03*
X0050090Y0010313D03*
X0050090Y0010513D03*
X0050090Y0010713D03*
X0050090Y0010913D03*
X0050090Y0011113D03*
X0050090Y0011313D03*
X0051690Y0011313D03*
X0051690Y0011113D03*
X0051690Y0010913D03*
X0053090Y0009913D03*
X0053090Y0009713D03*
X0053090Y0009513D03*
X0053090Y0009313D03*
X0053090Y0009113D03*
X0053090Y0008913D03*
X0053090Y0008713D03*
X0053090Y0008513D03*
X0053090Y0008313D03*
X0053090Y0008113D03*
X0053090Y0007913D03*
X0054690Y0007913D03*
X0054690Y0008113D03*
X0054690Y0008313D03*
X0054690Y0008513D03*
X0054690Y0008713D03*
X0054690Y0008913D03*
X0054690Y0009113D03*
X0054690Y0009313D03*
X0054690Y0009513D03*
X0054690Y0009713D03*
X0054690Y0009913D03*
X0056090Y0010913D03*
X0056090Y0011113D03*
X0056090Y0011313D03*
X0057690Y0011313D03*
X0057690Y0011113D03*
X0057690Y0010913D03*
X0057690Y0010713D03*
X0057690Y0010513D03*
X0057690Y0010313D03*
X0057690Y0010113D03*
X0057690Y0009913D03*
X0057690Y0009713D03*
X0057690Y0009513D03*
X0057690Y0009313D03*
X0057690Y0008313D03*
X0057690Y0008113D03*
X0057690Y0007913D03*
X0062090Y0007913D03*
X0062090Y0008113D03*
X0062090Y0008313D03*
X0062090Y0008513D03*
X0062090Y0008713D03*
X0062090Y0008913D03*
X0062090Y0009113D03*
X0062090Y0009313D03*
X0062090Y0009513D03*
X0062090Y0009713D03*
X0062090Y0009913D03*
X0062090Y0010913D03*
X0062090Y0011113D03*
X0062090Y0011313D03*
X0063690Y0011313D03*
X0063690Y0011113D03*
X0063690Y0010913D03*
X0063690Y0010713D03*
X0063690Y0010513D03*
X0063690Y0010313D03*
X0063690Y0010113D03*
X0063690Y0009913D03*
X0063690Y0009713D03*
X0063690Y0009513D03*
X0063690Y0009313D03*
X0063690Y0009113D03*
X0063690Y0008913D03*
X0063690Y0008713D03*
X0063690Y0008513D03*
X0063690Y0008313D03*
X0063690Y0008113D03*
X0063690Y0007913D03*
X0068090Y0007913D03*
X0068090Y0008113D03*
X0068090Y0008313D03*
X0068090Y0009313D03*
X0068090Y0009513D03*
X0068090Y0009713D03*
X0068090Y0009913D03*
X0068090Y0010913D03*
X0068090Y0011113D03*
X0068090Y0011313D03*
X0029890Y0011313D03*
X0029890Y0011113D03*
X0029890Y0010913D03*
X0029890Y0010713D03*
X0029890Y0010513D03*
X0029890Y0010313D03*
X0029890Y0010113D03*
X0029890Y0009113D03*
X0029890Y0008913D03*
X0029890Y0008713D03*
X0029890Y0008513D03*
X0029890Y0008313D03*
X0029890Y0008113D03*
X0029890Y0007913D03*
X0027690Y0007913D03*
X0027690Y0008113D03*
X0027690Y0008313D03*
X0027690Y0008513D03*
X0027690Y0008713D03*
X0027690Y0008913D03*
X0027690Y0009113D03*
X0027690Y0009313D03*
X0027690Y0009513D03*
X0027690Y0009713D03*
X0027690Y0009913D03*
X0027690Y0010113D03*
X0027690Y0010313D03*
X0027690Y0010513D03*
X0027690Y0010713D03*
X0027690Y0010913D03*
X0027690Y0011113D03*
X0027690Y0011313D03*
X0023890Y0011313D03*
X0023890Y0011113D03*
X0023890Y0010913D03*
X0023890Y0010713D03*
X0023890Y0010513D03*
X0023890Y0010313D03*
X0023890Y0010113D03*
X0023890Y0009913D03*
X0023890Y0009713D03*
X0023890Y0009513D03*
X0023890Y0009313D03*
X0023890Y0009113D03*
X0023890Y0008913D03*
X0023890Y0008713D03*
X0023890Y0008513D03*
X0023890Y0008313D03*
X0023890Y0008113D03*
X0023890Y0007913D03*
X0021690Y0009313D03*
X0021690Y0009513D03*
X0021690Y0009713D03*
X0021690Y0009913D03*
X0019490Y0009913D03*
X0019490Y0010113D03*
X0019490Y0010313D03*
X0019490Y0010513D03*
X0019490Y0010713D03*
X0019490Y0010913D03*
X0019490Y0011113D03*
X0019490Y0011313D03*
X0017890Y0011313D03*
X0017890Y0011113D03*
X0017890Y0010913D03*
X0017890Y0010713D03*
X0017890Y0010513D03*
X0017890Y0010313D03*
X0017890Y0010113D03*
X0017890Y0009913D03*
X0017890Y0009713D03*
X0017890Y0009513D03*
X0017890Y0009313D03*
X0017890Y0009113D03*
X0017890Y0008913D03*
X0017890Y0008713D03*
X0017890Y0008513D03*
X0017890Y0008313D03*
X0017890Y0008113D03*
X0017890Y0007913D03*
X0019490Y0007913D03*
X0019490Y0008113D03*
X0019490Y0008313D03*
X0019490Y0008513D03*
X0019490Y0008713D03*
X0019490Y0008913D03*
X0019490Y0009113D03*
X0019490Y0009313D03*
X0019490Y0009513D03*
X0019490Y0009713D03*
X0015690Y0010113D03*
X0015690Y0010313D03*
X0015690Y0010513D03*
X0015690Y0010713D03*
X0015690Y0009113D03*
X0015690Y0008913D03*
X0015690Y0008713D03*
X0015690Y0008513D03*
X0015690Y0008313D03*
X0015690Y0008113D03*
X0015690Y0007913D03*
X0013490Y0007913D03*
X0013490Y0008113D03*
X0013490Y0008313D03*
X0013490Y0009313D03*
X0013490Y0009513D03*
X0013490Y0009713D03*
X0013490Y0009913D03*
X0013490Y0010113D03*
X0013490Y0010313D03*
X0013490Y0010513D03*
X0013490Y0010713D03*
X0013490Y0010913D03*
X0013490Y0011113D03*
X0013490Y0011313D03*
X0011890Y0011313D03*
X0011890Y0011113D03*
X0011890Y0010913D03*
X0011890Y0010713D03*
X0011890Y0010513D03*
X0011890Y0010313D03*
X0011890Y0010113D03*
X0011890Y0009913D03*
X0011890Y0009713D03*
X0011890Y0009513D03*
X0011890Y0009313D03*
X0011890Y0009113D03*
X0011890Y0008913D03*
X0011890Y0008713D03*
X0011890Y0008513D03*
X0011890Y0008313D03*
X0011890Y0008113D03*
X0011890Y0007913D03*
X0009690Y0009313D03*
X0009690Y0009513D03*
X0009690Y0009713D03*
X0009690Y0009913D03*
X0007490Y0009913D03*
X0007490Y0009713D03*
X0007490Y0009513D03*
X0007490Y0009313D03*
X0007490Y0009113D03*
X0007490Y0008913D03*
X0007490Y0008713D03*
X0007490Y0008513D03*
X0007490Y0008313D03*
X0007490Y0008113D03*
X0007490Y0007913D03*
X0007490Y0010913D03*
X0007490Y0011113D03*
X0007490Y0011313D03*
D14*
X0008590Y0010713D03*
X0008590Y0010513D03*
X0008590Y0010313D03*
X0008590Y0010113D03*
X0040790Y0010113D03*
X0040790Y0010313D03*
X0040790Y0010513D03*
X0040790Y0010713D03*
X0040790Y0009113D03*
X0040790Y0008913D03*
X0040790Y0008713D03*
X0040790Y0008513D03*
X0046790Y0008513D03*
X0046790Y0008713D03*
X0046790Y0008913D03*
X0046790Y0009113D03*
X0046790Y0010113D03*
X0046790Y0010313D03*
X0046790Y0010513D03*
X0046790Y0010713D03*
X0066990Y0010713D03*
X0066990Y0010513D03*
X0066990Y0010313D03*
X0066990Y0010113D03*
X0066990Y0009113D03*
X0066990Y0008913D03*
X0066990Y0008713D03*
X0066990Y0008513D03*
D15*
X0061390Y0010113D03*
X0061390Y0010313D03*
X0061390Y0010513D03*
X0061390Y0010713D03*
X0058390Y0009113D03*
X0058390Y0008913D03*
X0058390Y0008713D03*
X0058390Y0008513D03*
X0055390Y0010113D03*
X0055390Y0010313D03*
X0055390Y0010513D03*
X0055390Y0010713D03*
X0052390Y0010713D03*
X0052390Y0010513D03*
X0052390Y0010313D03*
X0052390Y0010113D03*
X0037390Y0010113D03*
X0037390Y0010313D03*
X0037390Y0010513D03*
X0037390Y0010713D03*
X0034390Y0010713D03*
X0034390Y0010513D03*
X0034390Y0010313D03*
X0034390Y0010113D03*
D16*
X0013790Y0009113D03*
X0013790Y0008913D03*
X0013790Y0008713D03*
X0013790Y0008513D03*
D17*
X0009290Y0008513D03*
X0009290Y0008713D03*
X0009290Y0008913D03*
X0009290Y0009113D03*
D18*
X0170100Y0128694D02*
X0172800Y0128694D01*
X0158823Y0152602D02*
X0160398Y0154177D01*
X0160398Y0188823D01*
X0158823Y0190398D01*
X0124177Y0190398D01*
X0122602Y0188823D01*
X0122602Y0154177D01*
X0124177Y0152602D01*
X0158823Y0152602D01*
X0201776Y0196657D02*
X0211224Y0196657D01*
X0211224Y0202563D01*
X0211224Y0210437D02*
X0211224Y0214768D01*
X0209650Y0216343D01*
X0203350Y0216343D01*
X0201776Y0214768D01*
X0201776Y0210437D01*
X0201776Y0202563D02*
X0201776Y0196657D01*
X0173348Y0205740D02*
X0171946Y0207141D01*
X0169144Y0207141D01*
X0169845Y0208943D02*
X0172647Y0211745D01*
X0169845Y0211745D01*
X0169144Y0211044D01*
X0169144Y0209643D01*
X0169845Y0208943D01*
X0172647Y0208943D01*
X0173348Y0209643D01*
X0173348Y0211044D01*
X0172647Y0211745D01*
X0171246Y0207141D02*
X0171246Y0204339D01*
X0171946Y0204339D02*
X0173348Y0205740D01*
X0171946Y0204339D02*
X0169144Y0204339D01*
X0163348Y0205740D02*
X0161946Y0207141D01*
X0159144Y0207141D01*
X0159144Y0208943D02*
X0159144Y0211745D01*
X0159144Y0210344D02*
X0163348Y0210344D01*
X0161946Y0208943D01*
X0161246Y0207141D02*
X0161246Y0204339D01*
X0161946Y0204339D02*
X0159144Y0204339D01*
X0161946Y0204339D02*
X0163348Y0205740D01*
X0153348Y0205740D02*
X0151946Y0207141D01*
X0149144Y0207141D01*
X0149144Y0208943D02*
X0151946Y0211745D01*
X0152647Y0211745D01*
X0153348Y0211044D01*
X0153348Y0209643D01*
X0152647Y0208943D01*
X0151246Y0207141D02*
X0151246Y0204339D01*
X0151946Y0204339D02*
X0153348Y0205740D01*
X0151946Y0204339D02*
X0149144Y0204339D01*
X0149144Y0208943D02*
X0149144Y0211745D01*
X0143348Y0211044D02*
X0143348Y0209643D01*
X0142647Y0208943D01*
X0141946Y0207141D02*
X0139144Y0207141D01*
X0139845Y0208943D02*
X0139144Y0209643D01*
X0139144Y0211044D01*
X0139845Y0211745D01*
X0140545Y0211745D01*
X0141246Y0211044D01*
X0141246Y0210344D01*
X0141246Y0211044D02*
X0141946Y0211745D01*
X0142647Y0211745D01*
X0143348Y0211044D01*
X0141946Y0207141D02*
X0143348Y0205740D01*
X0141946Y0204339D01*
X0139144Y0204339D01*
X0141246Y0204339D02*
X0141246Y0207141D01*
X0133348Y0205740D02*
X0131946Y0207141D01*
X0129144Y0207141D01*
X0131246Y0207141D02*
X0131246Y0204339D01*
X0131946Y0204339D02*
X0133348Y0205740D01*
X0131946Y0204339D02*
X0129144Y0204339D01*
X0131246Y0208943D02*
X0131246Y0211745D01*
X0133348Y0211044D02*
X0131246Y0208943D01*
X0129144Y0211044D02*
X0133348Y0211044D01*
X0123348Y0211745D02*
X0123348Y0208943D01*
X0121246Y0208943D01*
X0121946Y0210344D01*
X0121946Y0211044D01*
X0121246Y0211745D01*
X0119845Y0211745D01*
X0119144Y0211044D01*
X0119144Y0209643D01*
X0119845Y0208943D01*
X0119144Y0207141D02*
X0121946Y0207141D01*
X0123348Y0205740D01*
X0121946Y0204339D01*
X0119144Y0204339D01*
X0121246Y0204339D02*
X0121246Y0207141D01*
X0113348Y0205740D02*
X0109144Y0205740D01*
X0109144Y0204339D02*
X0109144Y0207141D01*
X0109144Y0208942D02*
X0109144Y0211745D01*
X0109144Y0210344D02*
X0113348Y0210344D01*
X0111946Y0208942D01*
X0113348Y0205740D02*
X0111946Y0204339D01*
X0112647Y0202537D02*
X0109845Y0202537D01*
X0109144Y0201836D01*
X0109144Y0199735D01*
X0113348Y0199735D01*
X0113348Y0201836D01*
X0112647Y0202537D01*
X0103348Y0204339D02*
X0103348Y0206440D01*
X0102647Y0207141D01*
X0099845Y0207141D01*
X0099144Y0206440D01*
X0099144Y0204339D01*
X0103348Y0204339D01*
X0103348Y0208943D02*
X0103348Y0211745D01*
X0102647Y0211745D01*
X0099845Y0208943D01*
X0099144Y0208943D01*
X0233823Y0207642D02*
X0241500Y0207642D01*
X0241500Y0209610D01*
X0249374Y0209610D01*
X0249374Y0207642D01*
X0257051Y0207642D01*
X0257051Y0225358D01*
X0233823Y0225358D01*
X0233823Y0207642D01*
X0241008Y0193705D02*
X0241008Y0190161D01*
X0250850Y0196461D02*
X0259118Y0196461D01*
X0241008Y0172839D02*
X0241008Y0169295D01*
X0250850Y0166539D02*
X0259118Y0166539D01*
X0260063Y0151500D02*
X0247937Y0151500D01*
X0244000Y0146382D02*
X0244000Y0136500D01*
X0247937Y0131500D02*
X0260063Y0131500D01*
X0264000Y0136618D02*
X0264000Y0146382D01*
X0249000Y0141500D02*
X0249002Y0141641D01*
X0249008Y0141782D01*
X0249018Y0141922D01*
X0249032Y0142062D01*
X0249050Y0142202D01*
X0249071Y0142341D01*
X0249097Y0142480D01*
X0249126Y0142618D01*
X0249160Y0142754D01*
X0249197Y0142890D01*
X0249238Y0143025D01*
X0249283Y0143159D01*
X0249332Y0143291D01*
X0249384Y0143422D01*
X0249440Y0143551D01*
X0249500Y0143678D01*
X0249563Y0143804D01*
X0249629Y0143928D01*
X0249700Y0144051D01*
X0249773Y0144171D01*
X0249850Y0144289D01*
X0249930Y0144405D01*
X0250014Y0144518D01*
X0250100Y0144629D01*
X0250190Y0144738D01*
X0250283Y0144844D01*
X0250378Y0144947D01*
X0250477Y0145048D01*
X0250578Y0145146D01*
X0250682Y0145241D01*
X0250789Y0145333D01*
X0250898Y0145422D01*
X0251010Y0145507D01*
X0251124Y0145590D01*
X0251240Y0145670D01*
X0251359Y0145746D01*
X0251480Y0145818D01*
X0251602Y0145888D01*
X0251727Y0145953D01*
X0251853Y0146016D01*
X0251981Y0146074D01*
X0252111Y0146129D01*
X0252242Y0146181D01*
X0252375Y0146228D01*
X0252509Y0146272D01*
X0252644Y0146313D01*
X0252780Y0146349D01*
X0252917Y0146381D01*
X0253055Y0146410D01*
X0253193Y0146435D01*
X0253333Y0146455D01*
X0253473Y0146472D01*
X0253613Y0146485D01*
X0253754Y0146494D01*
X0253894Y0146499D01*
X0254035Y0146500D01*
X0254176Y0146497D01*
X0254317Y0146490D01*
X0254457Y0146479D01*
X0254597Y0146464D01*
X0254737Y0146445D01*
X0254876Y0146423D01*
X0255014Y0146396D01*
X0255152Y0146366D01*
X0255288Y0146331D01*
X0255424Y0146293D01*
X0255558Y0146251D01*
X0255692Y0146205D01*
X0255824Y0146156D01*
X0255954Y0146102D01*
X0256083Y0146045D01*
X0256210Y0145985D01*
X0256336Y0145921D01*
X0256459Y0145853D01*
X0256581Y0145782D01*
X0256701Y0145708D01*
X0256818Y0145630D01*
X0256933Y0145549D01*
X0257046Y0145465D01*
X0257157Y0145378D01*
X0257265Y0145287D01*
X0257370Y0145194D01*
X0257473Y0145097D01*
X0257573Y0144998D01*
X0257670Y0144896D01*
X0257764Y0144791D01*
X0257855Y0144684D01*
X0257943Y0144574D01*
X0258028Y0144462D01*
X0258110Y0144347D01*
X0258189Y0144230D01*
X0258264Y0144111D01*
X0258336Y0143990D01*
X0258404Y0143867D01*
X0258469Y0143742D01*
X0258531Y0143615D01*
X0258588Y0143486D01*
X0258643Y0143356D01*
X0258693Y0143225D01*
X0258740Y0143092D01*
X0258783Y0142958D01*
X0258822Y0142822D01*
X0258857Y0142686D01*
X0258889Y0142549D01*
X0258916Y0142411D01*
X0258940Y0142272D01*
X0258960Y0142132D01*
X0258976Y0141992D01*
X0258988Y0141852D01*
X0258996Y0141711D01*
X0259000Y0141570D01*
X0259000Y0141430D01*
X0258996Y0141289D01*
X0258988Y0141148D01*
X0258976Y0141008D01*
X0258960Y0140868D01*
X0258940Y0140728D01*
X0258916Y0140589D01*
X0258889Y0140451D01*
X0258857Y0140314D01*
X0258822Y0140178D01*
X0258783Y0140042D01*
X0258740Y0139908D01*
X0258693Y0139775D01*
X0258643Y0139644D01*
X0258588Y0139514D01*
X0258531Y0139385D01*
X0258469Y0139258D01*
X0258404Y0139133D01*
X0258336Y0139010D01*
X0258264Y0138889D01*
X0258189Y0138770D01*
X0258110Y0138653D01*
X0258028Y0138538D01*
X0257943Y0138426D01*
X0257855Y0138316D01*
X0257764Y0138209D01*
X0257670Y0138104D01*
X0257573Y0138002D01*
X0257473Y0137903D01*
X0257370Y0137806D01*
X0257265Y0137713D01*
X0257157Y0137622D01*
X0257046Y0137535D01*
X0256933Y0137451D01*
X0256818Y0137370D01*
X0256701Y0137292D01*
X0256581Y0137218D01*
X0256459Y0137147D01*
X0256336Y0137079D01*
X0256210Y0137015D01*
X0256083Y0136955D01*
X0255954Y0136898D01*
X0255824Y0136844D01*
X0255692Y0136795D01*
X0255558Y0136749D01*
X0255424Y0136707D01*
X0255288Y0136669D01*
X0255152Y0136634D01*
X0255014Y0136604D01*
X0254876Y0136577D01*
X0254737Y0136555D01*
X0254597Y0136536D01*
X0254457Y0136521D01*
X0254317Y0136510D01*
X0254176Y0136503D01*
X0254035Y0136500D01*
X0253894Y0136501D01*
X0253754Y0136506D01*
X0253613Y0136515D01*
X0253473Y0136528D01*
X0253333Y0136545D01*
X0253193Y0136565D01*
X0253055Y0136590D01*
X0252917Y0136619D01*
X0252780Y0136651D01*
X0252644Y0136687D01*
X0252509Y0136728D01*
X0252375Y0136772D01*
X0252242Y0136819D01*
X0252111Y0136871D01*
X0251981Y0136926D01*
X0251853Y0136984D01*
X0251727Y0137047D01*
X0251602Y0137112D01*
X0251480Y0137182D01*
X0251359Y0137254D01*
X0251240Y0137330D01*
X0251124Y0137410D01*
X0251010Y0137493D01*
X0250898Y0137578D01*
X0250789Y0137667D01*
X0250682Y0137759D01*
X0250578Y0137854D01*
X0250477Y0137952D01*
X0250378Y0138053D01*
X0250283Y0138156D01*
X0250190Y0138262D01*
X0250100Y0138371D01*
X0250014Y0138482D01*
X0249930Y0138595D01*
X0249850Y0138711D01*
X0249773Y0138829D01*
X0249700Y0138949D01*
X0249629Y0139072D01*
X0249563Y0139196D01*
X0249500Y0139322D01*
X0249440Y0139449D01*
X0249384Y0139578D01*
X0249332Y0139709D01*
X0249283Y0139841D01*
X0249238Y0139975D01*
X0249197Y0140110D01*
X0249160Y0140246D01*
X0249126Y0140382D01*
X0249097Y0140520D01*
X0249071Y0140659D01*
X0249050Y0140798D01*
X0249032Y0140938D01*
X0249018Y0141078D01*
X0249008Y0141218D01*
X0249002Y0141359D01*
X0249000Y0141500D01*
D19*
X0229380Y0170116D03*
X0223580Y0170116D03*
X0223620Y0179006D03*
X0229420Y0179006D03*
X0229420Y0186506D03*
X0223620Y0186506D03*
X0198317Y0163463D03*
X0192517Y0163463D03*
D20*
X0156343Y0136292D02*
X0156343Y0126446D01*
X0156341Y0126376D01*
X0156335Y0126307D01*
X0156325Y0126237D01*
X0156312Y0126169D01*
X0156294Y0126101D01*
X0156273Y0126035D01*
X0156248Y0125970D01*
X0156220Y0125906D01*
X0156188Y0125844D01*
X0156152Y0125784D01*
X0156113Y0125726D01*
X0156071Y0125670D01*
X0156026Y0125616D01*
X0155978Y0125566D01*
X0155928Y0125518D01*
X0155874Y0125473D01*
X0155818Y0125431D01*
X0155760Y0125392D01*
X0155700Y0125356D01*
X0155638Y0125324D01*
X0155574Y0125296D01*
X0155509Y0125271D01*
X0155443Y0125250D01*
X0155375Y0125232D01*
X0155307Y0125219D01*
X0155237Y0125209D01*
X0155168Y0125203D01*
X0155098Y0125201D01*
X0137538Y0125201D01*
X0137480Y0125203D01*
X0137423Y0125209D01*
X0137366Y0125218D01*
X0137310Y0125231D01*
X0137255Y0125248D01*
X0137201Y0125268D01*
X0137149Y0125292D01*
X0137098Y0125319D01*
X0137049Y0125349D01*
X0137002Y0125383D01*
X0136958Y0125419D01*
X0136916Y0125459D01*
X0136876Y0125501D01*
X0136840Y0125545D01*
X0136806Y0125592D01*
X0136776Y0125641D01*
X0136749Y0125692D01*
X0136725Y0125744D01*
X0136705Y0125798D01*
X0136688Y0125853D01*
X0136675Y0125909D01*
X0136666Y0125966D01*
X0136660Y0126023D01*
X0136658Y0126081D01*
X0136657Y0126081D02*
X0136657Y0136292D01*
X0136658Y0136292D02*
X0136649Y0136363D01*
X0136644Y0136435D01*
X0136643Y0136507D01*
X0136646Y0136578D01*
X0136653Y0136650D01*
X0136663Y0136721D01*
X0136678Y0136791D01*
X0136696Y0136861D01*
X0136718Y0136929D01*
X0136744Y0136996D01*
X0136773Y0137061D01*
X0136806Y0137125D01*
X0136842Y0137187D01*
X0136881Y0137247D01*
X0136924Y0137305D01*
X0136970Y0137360D01*
X0137018Y0137413D01*
X0137070Y0137463D01*
X0137124Y0137510D01*
X0137180Y0137554D01*
X0137239Y0137596D01*
X0137300Y0137633D01*
X0137363Y0137668D01*
X0137428Y0137699D01*
X0137494Y0137726D01*
X0137562Y0137750D01*
X0137631Y0137770D01*
X0137700Y0137787D01*
X0137771Y0137799D01*
X0155229Y0137799D01*
X0155300Y0137787D01*
X0155369Y0137770D01*
X0155438Y0137750D01*
X0155506Y0137726D01*
X0155572Y0137699D01*
X0155637Y0137668D01*
X0155700Y0137633D01*
X0155761Y0137596D01*
X0155820Y0137554D01*
X0155876Y0137510D01*
X0155930Y0137463D01*
X0155982Y0137413D01*
X0156030Y0137360D01*
X0156076Y0137305D01*
X0156119Y0137247D01*
X0156158Y0137187D01*
X0156194Y0137125D01*
X0156227Y0137061D01*
X0156256Y0136996D01*
X0156282Y0136929D01*
X0156304Y0136861D01*
X0156322Y0136791D01*
X0156337Y0136721D01*
X0156347Y0136650D01*
X0156354Y0136578D01*
X0156357Y0136507D01*
X0156356Y0136435D01*
X0156351Y0136363D01*
X0156342Y0136292D01*
X0154374Y0134650D02*
X0154374Y0129138D01*
X0154373Y0129138D02*
X0154379Y0129038D01*
X0154381Y0128937D01*
X0154379Y0128836D01*
X0154373Y0128735D01*
X0154363Y0128635D01*
X0154349Y0128535D01*
X0154331Y0128436D01*
X0154309Y0128338D01*
X0154283Y0128240D01*
X0154254Y0128144D01*
X0154221Y0128049D01*
X0154184Y0127955D01*
X0154143Y0127863D01*
X0154099Y0127772D01*
X0154051Y0127684D01*
X0154000Y0127597D01*
X0153946Y0127512D01*
X0153888Y0127429D01*
X0153827Y0127349D01*
X0153763Y0127271D01*
X0153696Y0127196D01*
X0153626Y0127124D01*
X0153553Y0127054D01*
X0153478Y0126987D01*
X0153400Y0126923D01*
X0153319Y0126863D01*
X0153237Y0126805D01*
X0153152Y0126751D01*
X0153065Y0126700D01*
X0152976Y0126653D01*
X0152885Y0126609D01*
X0152793Y0126569D01*
X0152699Y0126532D01*
X0152603Y0126499D01*
X0152507Y0126470D01*
X0152409Y0126445D01*
X0152311Y0126424D01*
X0152212Y0126406D01*
X0152112Y0126392D01*
X0152012Y0126383D01*
X0152012Y0126382D02*
X0140988Y0126382D01*
X0140893Y0126384D01*
X0140798Y0126390D01*
X0140703Y0126399D01*
X0140609Y0126413D01*
X0140516Y0126430D01*
X0140423Y0126451D01*
X0140331Y0126475D01*
X0140240Y0126504D01*
X0140150Y0126535D01*
X0140062Y0126571D01*
X0139975Y0126610D01*
X0139890Y0126653D01*
X0139807Y0126698D01*
X0139726Y0126748D01*
X0139646Y0126800D01*
X0139569Y0126856D01*
X0139494Y0126914D01*
X0139422Y0126976D01*
X0139352Y0127041D01*
X0139285Y0127108D01*
X0139220Y0127178D01*
X0139158Y0127250D01*
X0139100Y0127325D01*
X0139044Y0127402D01*
X0138992Y0127482D01*
X0138942Y0127563D01*
X0138897Y0127646D01*
X0138854Y0127731D01*
X0138815Y0127818D01*
X0138779Y0127906D01*
X0138748Y0127996D01*
X0138719Y0128087D01*
X0138695Y0128179D01*
X0138674Y0128272D01*
X0138657Y0128365D01*
X0138643Y0128459D01*
X0138634Y0128554D01*
X0138628Y0128649D01*
X0138626Y0128744D01*
X0138626Y0134256D01*
X0138635Y0134354D01*
X0138648Y0134451D01*
X0138665Y0134548D01*
X0138686Y0134644D01*
X0138710Y0134740D01*
X0138738Y0134834D01*
X0138769Y0134927D01*
X0138804Y0135019D01*
X0138843Y0135109D01*
X0138885Y0135198D01*
X0138930Y0135286D01*
X0138979Y0135371D01*
X0139031Y0135455D01*
X0139086Y0135536D01*
X0139144Y0135615D01*
X0139205Y0135693D01*
X0139269Y0135767D01*
X0139336Y0135839D01*
X0139405Y0135909D01*
X0139477Y0135976D01*
X0139552Y0136040D01*
X0139629Y0136101D01*
X0139708Y0136159D01*
X0139790Y0136214D01*
X0139874Y0136266D01*
X0139959Y0136314D01*
X0140046Y0136360D01*
X0140135Y0136402D01*
X0140226Y0136440D01*
X0140318Y0136475D01*
X0140411Y0136506D01*
X0140505Y0136534D01*
X0140600Y0136559D01*
X0140697Y0136579D01*
X0140794Y0136596D01*
X0140891Y0136609D01*
X0140989Y0136618D01*
X0141087Y0136624D01*
X0141185Y0136626D01*
X0141284Y0136624D01*
X0141382Y0136618D01*
X0152012Y0136618D01*
X0152104Y0136624D01*
X0152196Y0136627D01*
X0152289Y0136626D01*
X0152381Y0136620D01*
X0152473Y0136611D01*
X0152564Y0136598D01*
X0152655Y0136581D01*
X0152745Y0136560D01*
X0152834Y0136535D01*
X0152921Y0136507D01*
X0153008Y0136475D01*
X0153093Y0136439D01*
X0153177Y0136400D01*
X0153258Y0136357D01*
X0153338Y0136311D01*
X0153416Y0136261D01*
X0153492Y0136208D01*
X0153565Y0136152D01*
X0153636Y0136093D01*
X0153704Y0136031D01*
X0153770Y0135966D01*
X0153833Y0135899D01*
X0153893Y0135828D01*
X0153949Y0135756D01*
X0154003Y0135681D01*
X0154054Y0135603D01*
X0154101Y0135524D01*
X0154145Y0135443D01*
X0154185Y0135360D01*
X0154222Y0135275D01*
X0154255Y0135189D01*
X0154284Y0135102D01*
X0154310Y0135013D01*
X0154332Y0134923D01*
X0154350Y0134833D01*
X0154364Y0134742D01*
X0154374Y0134650D01*
X0202500Y0208000D02*
X0210500Y0208000D01*
D21*
X0180043Y0163469D03*
X0126500Y0136894D03*
D22*
X0126494Y0124420D03*
X0126494Y0118620D03*
D23*
X0156135Y0187248D02*
X0156137Y0187315D01*
X0156143Y0187381D01*
X0156153Y0187447D01*
X0156167Y0187512D01*
X0156184Y0187576D01*
X0156206Y0187639D01*
X0156231Y0187701D01*
X0156260Y0187761D01*
X0156293Y0187819D01*
X0156328Y0187875D01*
X0156368Y0187929D01*
X0156410Y0187980D01*
X0156455Y0188029D01*
X0156503Y0188075D01*
X0156554Y0188118D01*
X0156607Y0188158D01*
X0156663Y0188195D01*
X0156721Y0188228D01*
X0156780Y0188258D01*
X0156841Y0188284D01*
X0156904Y0188307D01*
X0156968Y0188325D01*
X0157033Y0188340D01*
X0157099Y0188351D01*
X0157165Y0188358D01*
X0157231Y0188361D01*
X0157298Y0188360D01*
X0157364Y0188355D01*
X0157430Y0188346D01*
X0157496Y0188333D01*
X0157560Y0188316D01*
X0157623Y0188296D01*
X0157685Y0188271D01*
X0157746Y0188243D01*
X0157805Y0188212D01*
X0157861Y0188177D01*
X0157916Y0188139D01*
X0157968Y0188097D01*
X0158017Y0188052D01*
X0158064Y0188005D01*
X0158108Y0187955D01*
X0158148Y0187902D01*
X0158186Y0187847D01*
X0158220Y0187790D01*
X0158251Y0187731D01*
X0158278Y0187670D01*
X0158301Y0187608D01*
X0158321Y0187544D01*
X0158337Y0187479D01*
X0158349Y0187414D01*
X0158357Y0187348D01*
X0158361Y0187281D01*
X0158361Y0187215D01*
X0158357Y0187148D01*
X0158349Y0187082D01*
X0158337Y0187017D01*
X0158321Y0186952D01*
X0158301Y0186888D01*
X0158278Y0186826D01*
X0158251Y0186765D01*
X0158220Y0186706D01*
X0158186Y0186649D01*
X0158148Y0186594D01*
X0158108Y0186541D01*
X0158064Y0186491D01*
X0158017Y0186444D01*
X0157968Y0186399D01*
X0157916Y0186357D01*
X0157861Y0186319D01*
X0157804Y0186284D01*
X0157746Y0186253D01*
X0157685Y0186225D01*
X0157623Y0186200D01*
X0157560Y0186180D01*
X0157496Y0186163D01*
X0157430Y0186150D01*
X0157364Y0186141D01*
X0157298Y0186136D01*
X0157231Y0186135D01*
X0157165Y0186138D01*
X0157099Y0186145D01*
X0157033Y0186156D01*
X0156968Y0186171D01*
X0156904Y0186189D01*
X0156841Y0186212D01*
X0156780Y0186238D01*
X0156721Y0186268D01*
X0156663Y0186301D01*
X0156607Y0186338D01*
X0156554Y0186378D01*
X0156503Y0186421D01*
X0156455Y0186467D01*
X0156410Y0186516D01*
X0156368Y0186567D01*
X0156328Y0186621D01*
X0156293Y0186677D01*
X0156260Y0186735D01*
X0156231Y0186795D01*
X0156206Y0186857D01*
X0156184Y0186920D01*
X0156167Y0186984D01*
X0156153Y0187049D01*
X0156143Y0187115D01*
X0156137Y0187181D01*
X0156135Y0187248D01*
M02*
