G75*
%MOIN*%
%OFA0B0*%
%FSLAX25Y25*%
%IPPOS*%
%LPD*%
%AMOC8*
5,1,8,0,0,1.08239X$1,22.5*
%
%ADD10C,0.00000*%
%ADD11C,0.01600*%
%ADD12C,0.00600*%
%ADD13C,0.00200*%
%ADD14C,0.00400*%
%ADD15R,0.00650X0.00050*%
%ADD16R,0.00850X0.00050*%
%ADD17R,0.01050X0.00050*%
%ADD18R,0.01150X0.00050*%
%ADD19R,0.01250X0.00050*%
%ADD20R,0.01350X0.00050*%
%ADD21R,0.01450X0.00050*%
%ADD22R,0.01550X0.00050*%
%ADD23R,0.01650X0.00050*%
%ADD24R,0.01700X0.00050*%
%ADD25R,0.01750X0.00050*%
%ADD26R,0.01800X0.00050*%
%ADD27R,0.01900X0.00050*%
%ADD28R,0.01850X0.00050*%
%ADD29R,0.01950X0.00050*%
%ADD30R,0.02000X0.00050*%
%ADD31R,0.02050X0.00050*%
%ADD32R,0.02100X0.00050*%
%ADD33R,0.02150X0.00050*%
%ADD34R,0.13150X0.00050*%
%ADD35R,0.13100X0.00050*%
%ADD36R,0.13050X0.00050*%
%ADD37R,0.12950X0.00050*%
%ADD38R,0.12850X0.00050*%
%ADD39R,0.12800X0.00050*%
%ADD40R,0.12750X0.00050*%
%ADD41R,0.12700X0.00050*%
%ADD42R,0.12650X0.00050*%
%ADD43R,0.12550X0.00050*%
%ADD44R,0.12450X0.00050*%
%ADD45R,0.12400X0.00050*%
%ADD46R,0.12350X0.00050*%
%ADD47R,0.12250X0.00050*%
%ADD48R,0.12150X0.00050*%
%ADD49R,0.13250X0.00050*%
%ADD50R,0.13350X0.00050*%
%ADD51R,0.13450X0.00050*%
%ADD52R,0.13500X0.00050*%
%ADD53R,0.13550X0.00050*%
%ADD54R,0.13650X0.00050*%
%ADD55R,0.13750X0.00050*%
%ADD56R,0.13850X0.00050*%
%ADD57R,0.13900X0.00050*%
%ADD58R,0.13950X0.00050*%
%ADD59R,0.14050X0.00050*%
%ADD60R,0.14150X0.00050*%
%ADD61R,0.14200X0.00050*%
%ADD62R,0.14250X0.00050*%
%ADD63R,0.14300X0.00050*%
%ADD64R,0.14350X0.00050*%
%ADD65R,0.14450X0.00050*%
%ADD66R,0.14550X0.00050*%
%ADD67R,0.14600X0.00050*%
%ADD68R,0.14650X0.00050*%
%ADD69R,0.14750X0.00050*%
%ADD70R,0.14850X0.00050*%
%ADD71R,0.14950X0.00050*%
%ADD72R,0.15000X0.00050*%
%ADD73R,0.15050X0.00050*%
%ADD74R,0.15150X0.00050*%
%ADD75R,0.15250X0.00050*%
%ADD76R,0.15300X0.00050*%
%ADD77R,0.15350X0.00050*%
%ADD78R,0.15400X0.00050*%
%ADD79R,0.15450X0.00050*%
%ADD80R,0.15550X0.00050*%
%ADD81R,0.15650X0.00050*%
%ADD82R,0.15700X0.00050*%
%ADD83R,0.15750X0.00050*%
%ADD84R,0.15800X0.00050*%
%ADD85R,0.15850X0.00050*%
%ADD86R,0.15950X0.00050*%
%ADD87R,0.16050X0.00050*%
%ADD88R,0.16100X0.00050*%
%ADD89R,0.16150X0.00050*%
%ADD90R,0.16250X0.00050*%
%ADD91R,0.16350X0.00050*%
%ADD92R,0.16450X0.00050*%
%ADD93R,0.16500X0.00050*%
%ADD94R,0.16550X0.00050*%
%ADD95R,0.16650X0.00050*%
%ADD96R,0.16750X0.00050*%
%ADD97R,0.16800X0.00050*%
%ADD98R,0.16850X0.00050*%
%ADD99R,0.16900X0.00050*%
%ADD100R,0.16950X0.00050*%
%ADD101R,0.17050X0.00050*%
%ADD102R,0.17150X0.00050*%
%ADD103R,0.17200X0.00050*%
%ADD104R,0.17250X0.00050*%
%ADD105R,0.17350X0.00050*%
%ADD106R,0.17450X0.00050*%
%ADD107R,0.17550X0.00050*%
%ADD108R,0.17600X0.00050*%
%ADD109R,0.17650X0.00050*%
%ADD110R,0.17750X0.00050*%
%ADD111R,0.17850X0.00050*%
%ADD112R,0.17950X0.00050*%
%ADD113R,0.18000X0.00050*%
%ADD114R,0.18050X0.00050*%
%ADD115R,0.18150X0.00050*%
%ADD116R,0.18250X0.00050*%
%ADD117R,0.18300X0.00050*%
%ADD118R,0.18350X0.00050*%
%ADD119R,0.18400X0.00050*%
%ADD120R,0.18450X0.00050*%
%ADD121R,0.18550X0.00050*%
%ADD122R,0.18650X0.00050*%
%ADD123R,0.18700X0.00050*%
%ADD124R,0.18750X0.00050*%
%ADD125R,0.18850X0.00050*%
%ADD126R,0.18950X0.00050*%
%ADD127R,0.19050X0.00050*%
%ADD128R,0.19100X0.00050*%
%ADD129R,0.19150X0.00050*%
%ADD130R,0.19250X0.00050*%
%ADD131R,0.19350X0.00050*%
%ADD132R,0.19400X0.00050*%
%ADD133R,0.19450X0.00050*%
%ADD134R,0.19500X0.00050*%
%ADD135R,0.19550X0.00050*%
%ADD136R,0.19650X0.00050*%
%ADD137R,0.19750X0.00050*%
%ADD138R,0.19800X0.00050*%
%ADD139R,0.19850X0.00050*%
%ADD140R,0.19900X0.00050*%
%ADD141R,0.19950X0.00050*%
%ADD142R,0.20050X0.00050*%
%ADD143R,0.20150X0.00050*%
%ADD144R,0.20200X0.00050*%
%ADD145R,0.20250X0.00050*%
%ADD146R,0.20350X0.00050*%
%ADD147R,0.20450X0.00050*%
%ADD148R,0.20550X0.00050*%
%ADD149R,0.20600X0.00050*%
%ADD150R,0.20650X0.00050*%
%ADD151R,0.20750X0.00050*%
%ADD152R,0.20850X0.00050*%
%ADD153R,0.20900X0.00050*%
%ADD154R,0.20950X0.00050*%
%ADD155R,0.21000X0.00050*%
%ADD156R,0.21050X0.00050*%
%ADD157R,0.29400X0.00050*%
%ADD158R,0.29600X0.00050*%
%ADD159R,0.29750X0.00050*%
%ADD160R,0.29900X0.00050*%
%ADD161R,0.29950X0.00050*%
%ADD162R,0.30050X0.00050*%
%ADD163R,0.30100X0.00050*%
%ADD164R,0.30200X0.00050*%
%ADD165R,0.30250X0.00050*%
%ADD166R,0.30300X0.00050*%
%ADD167R,0.30400X0.00050*%
%ADD168R,0.30500X0.00050*%
%ADD169R,0.30550X0.00050*%
%ADD170R,0.30650X0.00050*%
%ADD171R,0.30700X0.00050*%
%ADD172R,0.30600X0.00050*%
%ADD173R,0.29800X0.00050*%
%ADD174R,0.29650X0.00050*%
%ADD175R,0.29450X0.00050*%
%ADD176R,0.20500X0.00050*%
%ADD177R,0.11150X0.00050*%
%ADD178R,0.11200X0.00050*%
%ADD179R,0.11250X0.00050*%
%ADD180R,0.11350X0.00050*%
%ADD181R,0.11450X0.00050*%
%ADD182R,0.20100X0.00050*%
%ADD183R,0.11550X0.00050*%
%ADD184R,0.11600X0.00050*%
%ADD185R,0.11650X0.00050*%
%ADD186R,0.11750X0.00050*%
%ADD187R,0.11850X0.00050*%
%ADD188R,0.11950X0.00050*%
%ADD189R,0.12000X0.00050*%
%ADD190R,0.12050X0.00050*%
%ADD191R,0.12300X0.00050*%
%ADD192R,0.19000X0.00050*%
%ADD193R,0.18600X0.00050*%
%ADD194R,0.13400X0.00050*%
%ADD195R,0.17900X0.00050*%
%ADD196R,0.13800X0.00050*%
%ADD197R,0.17500X0.00050*%
%ADD198R,0.17100X0.00050*%
%ADD199R,0.14900X0.00050*%
%ADD200R,0.16400X0.00050*%
%ADD201R,0.16000X0.00050*%
%ADD202R,0.15600X0.00050*%
%ADD203R,0.14500X0.00050*%
%ADD204R,0.13000X0.00050*%
%ADD205R,0.11900X0.00050*%
%ADD206R,0.11500X0.00050*%
%ADD207R,0.21150X0.00050*%
%ADD208R,0.21200X0.00050*%
%ADD209R,0.21250X0.00050*%
%ADD210R,0.21300X0.00050*%
%ADD211R,0.21350X0.00050*%
%ADD212R,0.21450X0.00050*%
%ADD213R,0.21550X0.00050*%
%ADD214R,0.21600X0.00050*%
%ADD215R,0.21650X0.00050*%
%ADD216R,0.21700X0.00050*%
%ADD217R,0.21750X0.00050*%
%ADD218R,0.21850X0.00050*%
%ADD219R,0.21950X0.00050*%
%ADD220R,0.22000X0.00050*%
%ADD221R,0.22050X0.00050*%
%ADD222R,0.22150X0.00050*%
%ADD223R,0.22100X0.00050*%
D10*
X0001500Y0009374D02*
X0001500Y0174728D01*
X0001502Y0174918D01*
X0001509Y0175108D01*
X0001521Y0175298D01*
X0001537Y0175488D01*
X0001557Y0175677D01*
X0001583Y0175866D01*
X0001612Y0176054D01*
X0001647Y0176241D01*
X0001686Y0176427D01*
X0001729Y0176612D01*
X0001777Y0176797D01*
X0001829Y0176980D01*
X0001885Y0177161D01*
X0001946Y0177341D01*
X0002012Y0177520D01*
X0002081Y0177697D01*
X0002155Y0177873D01*
X0002233Y0178046D01*
X0002316Y0178218D01*
X0002402Y0178387D01*
X0002492Y0178555D01*
X0002587Y0178720D01*
X0002685Y0178883D01*
X0002788Y0179043D01*
X0002894Y0179201D01*
X0003004Y0179356D01*
X0003117Y0179509D01*
X0003235Y0179659D01*
X0003356Y0179805D01*
X0003480Y0179949D01*
X0003608Y0180090D01*
X0003739Y0180228D01*
X0003874Y0180363D01*
X0004012Y0180494D01*
X0004153Y0180622D01*
X0004297Y0180746D01*
X0004443Y0180867D01*
X0004593Y0180985D01*
X0004746Y0181098D01*
X0004901Y0181208D01*
X0005059Y0181314D01*
X0005219Y0181417D01*
X0005382Y0181515D01*
X0005547Y0181610D01*
X0005715Y0181700D01*
X0005884Y0181786D01*
X0006056Y0181869D01*
X0006229Y0181947D01*
X0006405Y0182021D01*
X0006582Y0182090D01*
X0006761Y0182156D01*
X0006941Y0182217D01*
X0007122Y0182273D01*
X0007305Y0182325D01*
X0007490Y0182373D01*
X0007675Y0182416D01*
X0007861Y0182455D01*
X0008048Y0182490D01*
X0008236Y0182519D01*
X0008425Y0182545D01*
X0008614Y0182565D01*
X0008804Y0182581D01*
X0008994Y0182593D01*
X0009184Y0182600D01*
X0009374Y0182602D01*
X0131421Y0182602D01*
X0131611Y0182600D01*
X0131801Y0182593D01*
X0131991Y0182581D01*
X0132181Y0182565D01*
X0132370Y0182545D01*
X0132559Y0182519D01*
X0132747Y0182490D01*
X0132934Y0182455D01*
X0133120Y0182416D01*
X0133305Y0182373D01*
X0133490Y0182325D01*
X0133673Y0182273D01*
X0133854Y0182217D01*
X0134034Y0182156D01*
X0134213Y0182090D01*
X0134390Y0182021D01*
X0134566Y0181947D01*
X0134739Y0181869D01*
X0134911Y0181786D01*
X0135080Y0181700D01*
X0135248Y0181610D01*
X0135413Y0181515D01*
X0135576Y0181417D01*
X0135736Y0181314D01*
X0135894Y0181208D01*
X0136049Y0181098D01*
X0136202Y0180985D01*
X0136352Y0180867D01*
X0136498Y0180746D01*
X0136642Y0180622D01*
X0136783Y0180494D01*
X0136921Y0180363D01*
X0137056Y0180228D01*
X0137187Y0180090D01*
X0137315Y0179949D01*
X0137439Y0179805D01*
X0137560Y0179659D01*
X0137678Y0179509D01*
X0137791Y0179356D01*
X0137901Y0179201D01*
X0138007Y0179043D01*
X0138110Y0178883D01*
X0138208Y0178720D01*
X0138303Y0178555D01*
X0138393Y0178387D01*
X0138479Y0178218D01*
X0138562Y0178046D01*
X0138640Y0177873D01*
X0138714Y0177697D01*
X0138783Y0177520D01*
X0138849Y0177341D01*
X0138910Y0177161D01*
X0138966Y0176980D01*
X0139018Y0176797D01*
X0139066Y0176612D01*
X0139109Y0176427D01*
X0139148Y0176241D01*
X0139183Y0176054D01*
X0139212Y0175866D01*
X0139238Y0175677D01*
X0139258Y0175488D01*
X0139274Y0175298D01*
X0139286Y0175108D01*
X0139293Y0174918D01*
X0139295Y0174728D01*
X0139295Y0009374D01*
X0139293Y0009184D01*
X0139286Y0008994D01*
X0139274Y0008804D01*
X0139258Y0008614D01*
X0139238Y0008425D01*
X0139212Y0008236D01*
X0139183Y0008048D01*
X0139148Y0007861D01*
X0139109Y0007675D01*
X0139066Y0007490D01*
X0139018Y0007305D01*
X0138966Y0007122D01*
X0138910Y0006941D01*
X0138849Y0006761D01*
X0138783Y0006582D01*
X0138714Y0006405D01*
X0138640Y0006229D01*
X0138562Y0006056D01*
X0138479Y0005884D01*
X0138393Y0005715D01*
X0138303Y0005547D01*
X0138208Y0005382D01*
X0138110Y0005219D01*
X0138007Y0005059D01*
X0137901Y0004901D01*
X0137791Y0004746D01*
X0137678Y0004593D01*
X0137560Y0004443D01*
X0137439Y0004297D01*
X0137315Y0004153D01*
X0137187Y0004012D01*
X0137056Y0003874D01*
X0136921Y0003739D01*
X0136783Y0003608D01*
X0136642Y0003480D01*
X0136498Y0003356D01*
X0136352Y0003235D01*
X0136202Y0003117D01*
X0136049Y0003004D01*
X0135894Y0002894D01*
X0135736Y0002788D01*
X0135576Y0002685D01*
X0135413Y0002587D01*
X0135248Y0002492D01*
X0135080Y0002402D01*
X0134911Y0002316D01*
X0134739Y0002233D01*
X0134566Y0002155D01*
X0134390Y0002081D01*
X0134213Y0002012D01*
X0134034Y0001946D01*
X0133854Y0001885D01*
X0133673Y0001829D01*
X0133490Y0001777D01*
X0133305Y0001729D01*
X0133120Y0001686D01*
X0132934Y0001647D01*
X0132747Y0001612D01*
X0132559Y0001583D01*
X0132370Y0001557D01*
X0132181Y0001537D01*
X0131991Y0001521D01*
X0131801Y0001509D01*
X0131611Y0001502D01*
X0131421Y0001500D01*
X0009374Y0001500D01*
X0009184Y0001502D01*
X0008994Y0001509D01*
X0008804Y0001521D01*
X0008614Y0001537D01*
X0008425Y0001557D01*
X0008236Y0001583D01*
X0008048Y0001612D01*
X0007861Y0001647D01*
X0007675Y0001686D01*
X0007490Y0001729D01*
X0007305Y0001777D01*
X0007122Y0001829D01*
X0006941Y0001885D01*
X0006761Y0001946D01*
X0006582Y0002012D01*
X0006405Y0002081D01*
X0006229Y0002155D01*
X0006056Y0002233D01*
X0005884Y0002316D01*
X0005715Y0002402D01*
X0005547Y0002492D01*
X0005382Y0002587D01*
X0005219Y0002685D01*
X0005059Y0002788D01*
X0004901Y0002894D01*
X0004746Y0003004D01*
X0004593Y0003117D01*
X0004443Y0003235D01*
X0004297Y0003356D01*
X0004153Y0003480D01*
X0004012Y0003608D01*
X0003874Y0003739D01*
X0003739Y0003874D01*
X0003608Y0004012D01*
X0003480Y0004153D01*
X0003356Y0004297D01*
X0003235Y0004443D01*
X0003117Y0004593D01*
X0003004Y0004746D01*
X0002894Y0004901D01*
X0002788Y0005059D01*
X0002685Y0005219D01*
X0002587Y0005382D01*
X0002492Y0005547D01*
X0002402Y0005715D01*
X0002316Y0005884D01*
X0002233Y0006056D01*
X0002155Y0006229D01*
X0002081Y0006405D01*
X0002012Y0006582D01*
X0001946Y0006761D01*
X0001885Y0006941D01*
X0001829Y0007122D01*
X0001777Y0007305D01*
X0001729Y0007490D01*
X0001686Y0007675D01*
X0001647Y0007861D01*
X0001612Y0008048D01*
X0001583Y0008236D01*
X0001557Y0008425D01*
X0001537Y0008614D01*
X0001521Y0008804D01*
X0001509Y0008994D01*
X0001502Y0009184D01*
X0001500Y0009374D01*
X0007441Y0016953D02*
X0007443Y0017114D01*
X0007449Y0017274D01*
X0007459Y0017435D01*
X0007473Y0017595D01*
X0007491Y0017755D01*
X0007512Y0017914D01*
X0007538Y0018073D01*
X0007568Y0018231D01*
X0007601Y0018388D01*
X0007639Y0018545D01*
X0007680Y0018700D01*
X0007725Y0018854D01*
X0007774Y0019007D01*
X0007827Y0019159D01*
X0007883Y0019310D01*
X0007944Y0019459D01*
X0008007Y0019607D01*
X0008075Y0019753D01*
X0008146Y0019897D01*
X0008220Y0020039D01*
X0008298Y0020180D01*
X0008380Y0020318D01*
X0008465Y0020455D01*
X0008553Y0020589D01*
X0008645Y0020721D01*
X0008740Y0020851D01*
X0008838Y0020979D01*
X0008939Y0021104D01*
X0009043Y0021226D01*
X0009150Y0021346D01*
X0009260Y0021463D01*
X0009373Y0021578D01*
X0009489Y0021689D01*
X0009608Y0021798D01*
X0009729Y0021903D01*
X0009853Y0022006D01*
X0009979Y0022106D01*
X0010107Y0022202D01*
X0010238Y0022295D01*
X0010372Y0022385D01*
X0010507Y0022472D01*
X0010645Y0022555D01*
X0010784Y0022635D01*
X0010926Y0022711D01*
X0011069Y0022784D01*
X0011214Y0022853D01*
X0011361Y0022919D01*
X0011509Y0022981D01*
X0011659Y0023039D01*
X0011810Y0023094D01*
X0011963Y0023145D01*
X0012117Y0023192D01*
X0012272Y0023235D01*
X0012428Y0023274D01*
X0012584Y0023310D01*
X0012742Y0023341D01*
X0012900Y0023369D01*
X0013059Y0023393D01*
X0013219Y0023413D01*
X0013379Y0023429D01*
X0013539Y0023441D01*
X0013700Y0023449D01*
X0013861Y0023453D01*
X0014021Y0023453D01*
X0014182Y0023449D01*
X0014343Y0023441D01*
X0014503Y0023429D01*
X0014663Y0023413D01*
X0014823Y0023393D01*
X0014982Y0023369D01*
X0015140Y0023341D01*
X0015298Y0023310D01*
X0015454Y0023274D01*
X0015610Y0023235D01*
X0015765Y0023192D01*
X0015919Y0023145D01*
X0016072Y0023094D01*
X0016223Y0023039D01*
X0016373Y0022981D01*
X0016521Y0022919D01*
X0016668Y0022853D01*
X0016813Y0022784D01*
X0016956Y0022711D01*
X0017098Y0022635D01*
X0017237Y0022555D01*
X0017375Y0022472D01*
X0017510Y0022385D01*
X0017644Y0022295D01*
X0017775Y0022202D01*
X0017903Y0022106D01*
X0018029Y0022006D01*
X0018153Y0021903D01*
X0018274Y0021798D01*
X0018393Y0021689D01*
X0018509Y0021578D01*
X0018622Y0021463D01*
X0018732Y0021346D01*
X0018839Y0021226D01*
X0018943Y0021104D01*
X0019044Y0020979D01*
X0019142Y0020851D01*
X0019237Y0020721D01*
X0019329Y0020589D01*
X0019417Y0020455D01*
X0019502Y0020318D01*
X0019584Y0020180D01*
X0019662Y0020039D01*
X0019736Y0019897D01*
X0019807Y0019753D01*
X0019875Y0019607D01*
X0019938Y0019459D01*
X0019999Y0019310D01*
X0020055Y0019159D01*
X0020108Y0019007D01*
X0020157Y0018854D01*
X0020202Y0018700D01*
X0020243Y0018545D01*
X0020281Y0018388D01*
X0020314Y0018231D01*
X0020344Y0018073D01*
X0020370Y0017914D01*
X0020391Y0017755D01*
X0020409Y0017595D01*
X0020423Y0017435D01*
X0020433Y0017274D01*
X0020439Y0017114D01*
X0020441Y0016953D01*
X0020439Y0016792D01*
X0020433Y0016632D01*
X0020423Y0016471D01*
X0020409Y0016311D01*
X0020391Y0016151D01*
X0020370Y0015992D01*
X0020344Y0015833D01*
X0020314Y0015675D01*
X0020281Y0015518D01*
X0020243Y0015361D01*
X0020202Y0015206D01*
X0020157Y0015052D01*
X0020108Y0014899D01*
X0020055Y0014747D01*
X0019999Y0014596D01*
X0019938Y0014447D01*
X0019875Y0014299D01*
X0019807Y0014153D01*
X0019736Y0014009D01*
X0019662Y0013867D01*
X0019584Y0013726D01*
X0019502Y0013588D01*
X0019417Y0013451D01*
X0019329Y0013317D01*
X0019237Y0013185D01*
X0019142Y0013055D01*
X0019044Y0012927D01*
X0018943Y0012802D01*
X0018839Y0012680D01*
X0018732Y0012560D01*
X0018622Y0012443D01*
X0018509Y0012328D01*
X0018393Y0012217D01*
X0018274Y0012108D01*
X0018153Y0012003D01*
X0018029Y0011900D01*
X0017903Y0011800D01*
X0017775Y0011704D01*
X0017644Y0011611D01*
X0017510Y0011521D01*
X0017375Y0011434D01*
X0017237Y0011351D01*
X0017098Y0011271D01*
X0016956Y0011195D01*
X0016813Y0011122D01*
X0016668Y0011053D01*
X0016521Y0010987D01*
X0016373Y0010925D01*
X0016223Y0010867D01*
X0016072Y0010812D01*
X0015919Y0010761D01*
X0015765Y0010714D01*
X0015610Y0010671D01*
X0015454Y0010632D01*
X0015298Y0010596D01*
X0015140Y0010565D01*
X0014982Y0010537D01*
X0014823Y0010513D01*
X0014663Y0010493D01*
X0014503Y0010477D01*
X0014343Y0010465D01*
X0014182Y0010457D01*
X0014021Y0010453D01*
X0013861Y0010453D01*
X0013700Y0010457D01*
X0013539Y0010465D01*
X0013379Y0010477D01*
X0013219Y0010493D01*
X0013059Y0010513D01*
X0012900Y0010537D01*
X0012742Y0010565D01*
X0012584Y0010596D01*
X0012428Y0010632D01*
X0012272Y0010671D01*
X0012117Y0010714D01*
X0011963Y0010761D01*
X0011810Y0010812D01*
X0011659Y0010867D01*
X0011509Y0010925D01*
X0011361Y0010987D01*
X0011214Y0011053D01*
X0011069Y0011122D01*
X0010926Y0011195D01*
X0010784Y0011271D01*
X0010645Y0011351D01*
X0010507Y0011434D01*
X0010372Y0011521D01*
X0010238Y0011611D01*
X0010107Y0011704D01*
X0009979Y0011800D01*
X0009853Y0011900D01*
X0009729Y0012003D01*
X0009608Y0012108D01*
X0009489Y0012217D01*
X0009373Y0012328D01*
X0009260Y0012443D01*
X0009150Y0012560D01*
X0009043Y0012680D01*
X0008939Y0012802D01*
X0008838Y0012927D01*
X0008740Y0013055D01*
X0008645Y0013185D01*
X0008553Y0013317D01*
X0008465Y0013451D01*
X0008380Y0013588D01*
X0008298Y0013726D01*
X0008220Y0013867D01*
X0008146Y0014009D01*
X0008075Y0014153D01*
X0008007Y0014299D01*
X0007944Y0014447D01*
X0007883Y0014596D01*
X0007827Y0014747D01*
X0007774Y0014899D01*
X0007725Y0015052D01*
X0007680Y0015206D01*
X0007639Y0015361D01*
X0007601Y0015518D01*
X0007568Y0015675D01*
X0007538Y0015833D01*
X0007512Y0015992D01*
X0007491Y0016151D01*
X0007473Y0016311D01*
X0007459Y0016471D01*
X0007449Y0016632D01*
X0007443Y0016792D01*
X0007441Y0016953D01*
X0007441Y0168921D02*
X0007443Y0169082D01*
X0007449Y0169242D01*
X0007459Y0169403D01*
X0007473Y0169563D01*
X0007491Y0169723D01*
X0007512Y0169882D01*
X0007538Y0170041D01*
X0007568Y0170199D01*
X0007601Y0170356D01*
X0007639Y0170513D01*
X0007680Y0170668D01*
X0007725Y0170822D01*
X0007774Y0170975D01*
X0007827Y0171127D01*
X0007883Y0171278D01*
X0007944Y0171427D01*
X0008007Y0171575D01*
X0008075Y0171721D01*
X0008146Y0171865D01*
X0008220Y0172007D01*
X0008298Y0172148D01*
X0008380Y0172286D01*
X0008465Y0172423D01*
X0008553Y0172557D01*
X0008645Y0172689D01*
X0008740Y0172819D01*
X0008838Y0172947D01*
X0008939Y0173072D01*
X0009043Y0173194D01*
X0009150Y0173314D01*
X0009260Y0173431D01*
X0009373Y0173546D01*
X0009489Y0173657D01*
X0009608Y0173766D01*
X0009729Y0173871D01*
X0009853Y0173974D01*
X0009979Y0174074D01*
X0010107Y0174170D01*
X0010238Y0174263D01*
X0010372Y0174353D01*
X0010507Y0174440D01*
X0010645Y0174523D01*
X0010784Y0174603D01*
X0010926Y0174679D01*
X0011069Y0174752D01*
X0011214Y0174821D01*
X0011361Y0174887D01*
X0011509Y0174949D01*
X0011659Y0175007D01*
X0011810Y0175062D01*
X0011963Y0175113D01*
X0012117Y0175160D01*
X0012272Y0175203D01*
X0012428Y0175242D01*
X0012584Y0175278D01*
X0012742Y0175309D01*
X0012900Y0175337D01*
X0013059Y0175361D01*
X0013219Y0175381D01*
X0013379Y0175397D01*
X0013539Y0175409D01*
X0013700Y0175417D01*
X0013861Y0175421D01*
X0014021Y0175421D01*
X0014182Y0175417D01*
X0014343Y0175409D01*
X0014503Y0175397D01*
X0014663Y0175381D01*
X0014823Y0175361D01*
X0014982Y0175337D01*
X0015140Y0175309D01*
X0015298Y0175278D01*
X0015454Y0175242D01*
X0015610Y0175203D01*
X0015765Y0175160D01*
X0015919Y0175113D01*
X0016072Y0175062D01*
X0016223Y0175007D01*
X0016373Y0174949D01*
X0016521Y0174887D01*
X0016668Y0174821D01*
X0016813Y0174752D01*
X0016956Y0174679D01*
X0017098Y0174603D01*
X0017237Y0174523D01*
X0017375Y0174440D01*
X0017510Y0174353D01*
X0017644Y0174263D01*
X0017775Y0174170D01*
X0017903Y0174074D01*
X0018029Y0173974D01*
X0018153Y0173871D01*
X0018274Y0173766D01*
X0018393Y0173657D01*
X0018509Y0173546D01*
X0018622Y0173431D01*
X0018732Y0173314D01*
X0018839Y0173194D01*
X0018943Y0173072D01*
X0019044Y0172947D01*
X0019142Y0172819D01*
X0019237Y0172689D01*
X0019329Y0172557D01*
X0019417Y0172423D01*
X0019502Y0172286D01*
X0019584Y0172148D01*
X0019662Y0172007D01*
X0019736Y0171865D01*
X0019807Y0171721D01*
X0019875Y0171575D01*
X0019938Y0171427D01*
X0019999Y0171278D01*
X0020055Y0171127D01*
X0020108Y0170975D01*
X0020157Y0170822D01*
X0020202Y0170668D01*
X0020243Y0170513D01*
X0020281Y0170356D01*
X0020314Y0170199D01*
X0020344Y0170041D01*
X0020370Y0169882D01*
X0020391Y0169723D01*
X0020409Y0169563D01*
X0020423Y0169403D01*
X0020433Y0169242D01*
X0020439Y0169082D01*
X0020441Y0168921D01*
X0020439Y0168760D01*
X0020433Y0168600D01*
X0020423Y0168439D01*
X0020409Y0168279D01*
X0020391Y0168119D01*
X0020370Y0167960D01*
X0020344Y0167801D01*
X0020314Y0167643D01*
X0020281Y0167486D01*
X0020243Y0167329D01*
X0020202Y0167174D01*
X0020157Y0167020D01*
X0020108Y0166867D01*
X0020055Y0166715D01*
X0019999Y0166564D01*
X0019938Y0166415D01*
X0019875Y0166267D01*
X0019807Y0166121D01*
X0019736Y0165977D01*
X0019662Y0165835D01*
X0019584Y0165694D01*
X0019502Y0165556D01*
X0019417Y0165419D01*
X0019329Y0165285D01*
X0019237Y0165153D01*
X0019142Y0165023D01*
X0019044Y0164895D01*
X0018943Y0164770D01*
X0018839Y0164648D01*
X0018732Y0164528D01*
X0018622Y0164411D01*
X0018509Y0164296D01*
X0018393Y0164185D01*
X0018274Y0164076D01*
X0018153Y0163971D01*
X0018029Y0163868D01*
X0017903Y0163768D01*
X0017775Y0163672D01*
X0017644Y0163579D01*
X0017510Y0163489D01*
X0017375Y0163402D01*
X0017237Y0163319D01*
X0017098Y0163239D01*
X0016956Y0163163D01*
X0016813Y0163090D01*
X0016668Y0163021D01*
X0016521Y0162955D01*
X0016373Y0162893D01*
X0016223Y0162835D01*
X0016072Y0162780D01*
X0015919Y0162729D01*
X0015765Y0162682D01*
X0015610Y0162639D01*
X0015454Y0162600D01*
X0015298Y0162564D01*
X0015140Y0162533D01*
X0014982Y0162505D01*
X0014823Y0162481D01*
X0014663Y0162461D01*
X0014503Y0162445D01*
X0014343Y0162433D01*
X0014182Y0162425D01*
X0014021Y0162421D01*
X0013861Y0162421D01*
X0013700Y0162425D01*
X0013539Y0162433D01*
X0013379Y0162445D01*
X0013219Y0162461D01*
X0013059Y0162481D01*
X0012900Y0162505D01*
X0012742Y0162533D01*
X0012584Y0162564D01*
X0012428Y0162600D01*
X0012272Y0162639D01*
X0012117Y0162682D01*
X0011963Y0162729D01*
X0011810Y0162780D01*
X0011659Y0162835D01*
X0011509Y0162893D01*
X0011361Y0162955D01*
X0011214Y0163021D01*
X0011069Y0163090D01*
X0010926Y0163163D01*
X0010784Y0163239D01*
X0010645Y0163319D01*
X0010507Y0163402D01*
X0010372Y0163489D01*
X0010238Y0163579D01*
X0010107Y0163672D01*
X0009979Y0163768D01*
X0009853Y0163868D01*
X0009729Y0163971D01*
X0009608Y0164076D01*
X0009489Y0164185D01*
X0009373Y0164296D01*
X0009260Y0164411D01*
X0009150Y0164528D01*
X0009043Y0164648D01*
X0008939Y0164770D01*
X0008838Y0164895D01*
X0008740Y0165023D01*
X0008645Y0165153D01*
X0008553Y0165285D01*
X0008465Y0165419D01*
X0008380Y0165556D01*
X0008298Y0165694D01*
X0008220Y0165835D01*
X0008146Y0165977D01*
X0008075Y0166121D01*
X0008007Y0166267D01*
X0007944Y0166415D01*
X0007883Y0166564D01*
X0007827Y0166715D01*
X0007774Y0166867D01*
X0007725Y0167020D01*
X0007680Y0167174D01*
X0007639Y0167329D01*
X0007601Y0167486D01*
X0007568Y0167643D01*
X0007538Y0167801D01*
X0007512Y0167960D01*
X0007491Y0168119D01*
X0007473Y0168279D01*
X0007459Y0168439D01*
X0007449Y0168600D01*
X0007443Y0168760D01*
X0007441Y0168921D01*
D11*
X0117990Y0043239D02*
X0119565Y0044420D01*
X0118147Y0043239D02*
X0121297Y0043239D01*
X0119565Y0042058D02*
X0117990Y0043239D01*
X0119722Y0034420D02*
X0121297Y0033239D01*
X0119722Y0032058D01*
X0121297Y0033239D02*
X0118147Y0033239D01*
X0128462Y0033495D02*
X0129643Y0031920D01*
X0130824Y0033613D01*
X0129643Y0035267D02*
X0129643Y0031920D01*
X0129643Y0041606D02*
X0129643Y0044952D01*
X0128462Y0043377D01*
X0129643Y0044952D02*
X0130824Y0043377D01*
D12*
X0126104Y0043157D02*
X0126106Y0043275D01*
X0126112Y0043393D01*
X0126122Y0043511D01*
X0126136Y0043628D01*
X0126154Y0043745D01*
X0126176Y0043862D01*
X0126201Y0043977D01*
X0126231Y0044091D01*
X0126265Y0044205D01*
X0126302Y0044317D01*
X0126343Y0044428D01*
X0126388Y0044537D01*
X0126436Y0044645D01*
X0126488Y0044751D01*
X0126544Y0044856D01*
X0126603Y0044958D01*
X0126665Y0045058D01*
X0126731Y0045156D01*
X0126800Y0045252D01*
X0126873Y0045346D01*
X0126948Y0045437D01*
X0127027Y0045525D01*
X0127108Y0045611D01*
X0127193Y0045694D01*
X0127280Y0045774D01*
X0127369Y0045851D01*
X0127462Y0045925D01*
X0127556Y0045995D01*
X0127653Y0046063D01*
X0127753Y0046127D01*
X0127854Y0046188D01*
X0127957Y0046245D01*
X0128063Y0046299D01*
X0128170Y0046350D01*
X0128278Y0046396D01*
X0128388Y0046439D01*
X0128500Y0046478D01*
X0128613Y0046514D01*
X0128727Y0046545D01*
X0128842Y0046573D01*
X0128957Y0046597D01*
X0129074Y0046617D01*
X0129191Y0046633D01*
X0129309Y0046645D01*
X0129427Y0046653D01*
X0129545Y0046657D01*
X0129663Y0046657D01*
X0129781Y0046653D01*
X0129899Y0046645D01*
X0130017Y0046633D01*
X0130134Y0046617D01*
X0130251Y0046597D01*
X0130366Y0046573D01*
X0130481Y0046545D01*
X0130595Y0046514D01*
X0130708Y0046478D01*
X0130820Y0046439D01*
X0130930Y0046396D01*
X0131038Y0046350D01*
X0131145Y0046299D01*
X0131251Y0046245D01*
X0131354Y0046188D01*
X0131455Y0046127D01*
X0131555Y0046063D01*
X0131652Y0045995D01*
X0131746Y0045925D01*
X0131839Y0045851D01*
X0131928Y0045774D01*
X0132015Y0045694D01*
X0132100Y0045611D01*
X0132181Y0045525D01*
X0132260Y0045437D01*
X0132335Y0045346D01*
X0132408Y0045252D01*
X0132477Y0045156D01*
X0132543Y0045058D01*
X0132605Y0044958D01*
X0132664Y0044856D01*
X0132720Y0044751D01*
X0132772Y0044645D01*
X0132820Y0044537D01*
X0132865Y0044428D01*
X0132906Y0044317D01*
X0132943Y0044205D01*
X0132977Y0044091D01*
X0133007Y0043977D01*
X0133032Y0043862D01*
X0133054Y0043745D01*
X0133072Y0043628D01*
X0133086Y0043511D01*
X0133096Y0043393D01*
X0133102Y0043275D01*
X0133104Y0043157D01*
X0133102Y0043039D01*
X0133096Y0042921D01*
X0133086Y0042803D01*
X0133072Y0042686D01*
X0133054Y0042569D01*
X0133032Y0042452D01*
X0133007Y0042337D01*
X0132977Y0042223D01*
X0132943Y0042109D01*
X0132906Y0041997D01*
X0132865Y0041886D01*
X0132820Y0041777D01*
X0132772Y0041669D01*
X0132720Y0041563D01*
X0132664Y0041458D01*
X0132605Y0041356D01*
X0132543Y0041256D01*
X0132477Y0041158D01*
X0132408Y0041062D01*
X0132335Y0040968D01*
X0132260Y0040877D01*
X0132181Y0040789D01*
X0132100Y0040703D01*
X0132015Y0040620D01*
X0131928Y0040540D01*
X0131839Y0040463D01*
X0131746Y0040389D01*
X0131652Y0040319D01*
X0131555Y0040251D01*
X0131455Y0040187D01*
X0131354Y0040126D01*
X0131251Y0040069D01*
X0131145Y0040015D01*
X0131038Y0039964D01*
X0130930Y0039918D01*
X0130820Y0039875D01*
X0130708Y0039836D01*
X0130595Y0039800D01*
X0130481Y0039769D01*
X0130366Y0039741D01*
X0130251Y0039717D01*
X0130134Y0039697D01*
X0130017Y0039681D01*
X0129899Y0039669D01*
X0129781Y0039661D01*
X0129663Y0039657D01*
X0129545Y0039657D01*
X0129427Y0039661D01*
X0129309Y0039669D01*
X0129191Y0039681D01*
X0129074Y0039697D01*
X0128957Y0039717D01*
X0128842Y0039741D01*
X0128727Y0039769D01*
X0128613Y0039800D01*
X0128500Y0039836D01*
X0128388Y0039875D01*
X0128278Y0039918D01*
X0128170Y0039964D01*
X0128063Y0040015D01*
X0127957Y0040069D01*
X0127854Y0040126D01*
X0127753Y0040187D01*
X0127653Y0040251D01*
X0127556Y0040319D01*
X0127462Y0040389D01*
X0127369Y0040463D01*
X0127280Y0040540D01*
X0127193Y0040620D01*
X0127108Y0040703D01*
X0127027Y0040789D01*
X0126948Y0040877D01*
X0126873Y0040968D01*
X0126800Y0041062D01*
X0126731Y0041158D01*
X0126665Y0041256D01*
X0126603Y0041356D01*
X0126544Y0041458D01*
X0126488Y0041563D01*
X0126436Y0041669D01*
X0126388Y0041777D01*
X0126343Y0041886D01*
X0126302Y0041997D01*
X0126265Y0042109D01*
X0126231Y0042223D01*
X0126201Y0042337D01*
X0126176Y0042452D01*
X0126154Y0042569D01*
X0126136Y0042686D01*
X0126122Y0042803D01*
X0126112Y0042921D01*
X0126106Y0043039D01*
X0126104Y0043157D01*
X0116104Y0043314D02*
X0116106Y0043432D01*
X0116112Y0043550D01*
X0116122Y0043668D01*
X0116136Y0043785D01*
X0116154Y0043902D01*
X0116176Y0044019D01*
X0116201Y0044134D01*
X0116231Y0044248D01*
X0116265Y0044362D01*
X0116302Y0044474D01*
X0116343Y0044585D01*
X0116388Y0044694D01*
X0116436Y0044802D01*
X0116488Y0044908D01*
X0116544Y0045013D01*
X0116603Y0045115D01*
X0116665Y0045215D01*
X0116731Y0045313D01*
X0116800Y0045409D01*
X0116873Y0045503D01*
X0116948Y0045594D01*
X0117027Y0045682D01*
X0117108Y0045768D01*
X0117193Y0045851D01*
X0117280Y0045931D01*
X0117369Y0046008D01*
X0117462Y0046082D01*
X0117556Y0046152D01*
X0117653Y0046220D01*
X0117753Y0046284D01*
X0117854Y0046345D01*
X0117957Y0046402D01*
X0118063Y0046456D01*
X0118170Y0046507D01*
X0118278Y0046553D01*
X0118388Y0046596D01*
X0118500Y0046635D01*
X0118613Y0046671D01*
X0118727Y0046702D01*
X0118842Y0046730D01*
X0118957Y0046754D01*
X0119074Y0046774D01*
X0119191Y0046790D01*
X0119309Y0046802D01*
X0119427Y0046810D01*
X0119545Y0046814D01*
X0119663Y0046814D01*
X0119781Y0046810D01*
X0119899Y0046802D01*
X0120017Y0046790D01*
X0120134Y0046774D01*
X0120251Y0046754D01*
X0120366Y0046730D01*
X0120481Y0046702D01*
X0120595Y0046671D01*
X0120708Y0046635D01*
X0120820Y0046596D01*
X0120930Y0046553D01*
X0121038Y0046507D01*
X0121145Y0046456D01*
X0121251Y0046402D01*
X0121354Y0046345D01*
X0121455Y0046284D01*
X0121555Y0046220D01*
X0121652Y0046152D01*
X0121746Y0046082D01*
X0121839Y0046008D01*
X0121928Y0045931D01*
X0122015Y0045851D01*
X0122100Y0045768D01*
X0122181Y0045682D01*
X0122260Y0045594D01*
X0122335Y0045503D01*
X0122408Y0045409D01*
X0122477Y0045313D01*
X0122543Y0045215D01*
X0122605Y0045115D01*
X0122664Y0045013D01*
X0122720Y0044908D01*
X0122772Y0044802D01*
X0122820Y0044694D01*
X0122865Y0044585D01*
X0122906Y0044474D01*
X0122943Y0044362D01*
X0122977Y0044248D01*
X0123007Y0044134D01*
X0123032Y0044019D01*
X0123054Y0043902D01*
X0123072Y0043785D01*
X0123086Y0043668D01*
X0123096Y0043550D01*
X0123102Y0043432D01*
X0123104Y0043314D01*
X0123102Y0043196D01*
X0123096Y0043078D01*
X0123086Y0042960D01*
X0123072Y0042843D01*
X0123054Y0042726D01*
X0123032Y0042609D01*
X0123007Y0042494D01*
X0122977Y0042380D01*
X0122943Y0042266D01*
X0122906Y0042154D01*
X0122865Y0042043D01*
X0122820Y0041934D01*
X0122772Y0041826D01*
X0122720Y0041720D01*
X0122664Y0041615D01*
X0122605Y0041513D01*
X0122543Y0041413D01*
X0122477Y0041315D01*
X0122408Y0041219D01*
X0122335Y0041125D01*
X0122260Y0041034D01*
X0122181Y0040946D01*
X0122100Y0040860D01*
X0122015Y0040777D01*
X0121928Y0040697D01*
X0121839Y0040620D01*
X0121746Y0040546D01*
X0121652Y0040476D01*
X0121555Y0040408D01*
X0121455Y0040344D01*
X0121354Y0040283D01*
X0121251Y0040226D01*
X0121145Y0040172D01*
X0121038Y0040121D01*
X0120930Y0040075D01*
X0120820Y0040032D01*
X0120708Y0039993D01*
X0120595Y0039957D01*
X0120481Y0039926D01*
X0120366Y0039898D01*
X0120251Y0039874D01*
X0120134Y0039854D01*
X0120017Y0039838D01*
X0119899Y0039826D01*
X0119781Y0039818D01*
X0119663Y0039814D01*
X0119545Y0039814D01*
X0119427Y0039818D01*
X0119309Y0039826D01*
X0119191Y0039838D01*
X0119074Y0039854D01*
X0118957Y0039874D01*
X0118842Y0039898D01*
X0118727Y0039926D01*
X0118613Y0039957D01*
X0118500Y0039993D01*
X0118388Y0040032D01*
X0118278Y0040075D01*
X0118170Y0040121D01*
X0118063Y0040172D01*
X0117957Y0040226D01*
X0117854Y0040283D01*
X0117753Y0040344D01*
X0117653Y0040408D01*
X0117556Y0040476D01*
X0117462Y0040546D01*
X0117369Y0040620D01*
X0117280Y0040697D01*
X0117193Y0040777D01*
X0117108Y0040860D01*
X0117027Y0040946D01*
X0116948Y0041034D01*
X0116873Y0041125D01*
X0116800Y0041219D01*
X0116731Y0041315D01*
X0116665Y0041413D01*
X0116603Y0041513D01*
X0116544Y0041615D01*
X0116488Y0041720D01*
X0116436Y0041826D01*
X0116388Y0041934D01*
X0116343Y0042043D01*
X0116302Y0042154D01*
X0116265Y0042266D01*
X0116231Y0042380D01*
X0116201Y0042494D01*
X0116176Y0042609D01*
X0116154Y0042726D01*
X0116136Y0042843D01*
X0116122Y0042960D01*
X0116112Y0043078D01*
X0116106Y0043196D01*
X0116104Y0043314D01*
X0106104Y0043314D02*
X0106106Y0043432D01*
X0106112Y0043550D01*
X0106122Y0043668D01*
X0106136Y0043785D01*
X0106154Y0043902D01*
X0106176Y0044019D01*
X0106201Y0044134D01*
X0106231Y0044248D01*
X0106265Y0044362D01*
X0106302Y0044474D01*
X0106343Y0044585D01*
X0106388Y0044694D01*
X0106436Y0044802D01*
X0106488Y0044908D01*
X0106544Y0045013D01*
X0106603Y0045115D01*
X0106665Y0045215D01*
X0106731Y0045313D01*
X0106800Y0045409D01*
X0106873Y0045503D01*
X0106948Y0045594D01*
X0107027Y0045682D01*
X0107108Y0045768D01*
X0107193Y0045851D01*
X0107280Y0045931D01*
X0107369Y0046008D01*
X0107462Y0046082D01*
X0107556Y0046152D01*
X0107653Y0046220D01*
X0107753Y0046284D01*
X0107854Y0046345D01*
X0107957Y0046402D01*
X0108063Y0046456D01*
X0108170Y0046507D01*
X0108278Y0046553D01*
X0108388Y0046596D01*
X0108500Y0046635D01*
X0108613Y0046671D01*
X0108727Y0046702D01*
X0108842Y0046730D01*
X0108957Y0046754D01*
X0109074Y0046774D01*
X0109191Y0046790D01*
X0109309Y0046802D01*
X0109427Y0046810D01*
X0109545Y0046814D01*
X0109663Y0046814D01*
X0109781Y0046810D01*
X0109899Y0046802D01*
X0110017Y0046790D01*
X0110134Y0046774D01*
X0110251Y0046754D01*
X0110366Y0046730D01*
X0110481Y0046702D01*
X0110595Y0046671D01*
X0110708Y0046635D01*
X0110820Y0046596D01*
X0110930Y0046553D01*
X0111038Y0046507D01*
X0111145Y0046456D01*
X0111251Y0046402D01*
X0111354Y0046345D01*
X0111455Y0046284D01*
X0111555Y0046220D01*
X0111652Y0046152D01*
X0111746Y0046082D01*
X0111839Y0046008D01*
X0111928Y0045931D01*
X0112015Y0045851D01*
X0112100Y0045768D01*
X0112181Y0045682D01*
X0112260Y0045594D01*
X0112335Y0045503D01*
X0112408Y0045409D01*
X0112477Y0045313D01*
X0112543Y0045215D01*
X0112605Y0045115D01*
X0112664Y0045013D01*
X0112720Y0044908D01*
X0112772Y0044802D01*
X0112820Y0044694D01*
X0112865Y0044585D01*
X0112906Y0044474D01*
X0112943Y0044362D01*
X0112977Y0044248D01*
X0113007Y0044134D01*
X0113032Y0044019D01*
X0113054Y0043902D01*
X0113072Y0043785D01*
X0113086Y0043668D01*
X0113096Y0043550D01*
X0113102Y0043432D01*
X0113104Y0043314D01*
X0113102Y0043196D01*
X0113096Y0043078D01*
X0113086Y0042960D01*
X0113072Y0042843D01*
X0113054Y0042726D01*
X0113032Y0042609D01*
X0113007Y0042494D01*
X0112977Y0042380D01*
X0112943Y0042266D01*
X0112906Y0042154D01*
X0112865Y0042043D01*
X0112820Y0041934D01*
X0112772Y0041826D01*
X0112720Y0041720D01*
X0112664Y0041615D01*
X0112605Y0041513D01*
X0112543Y0041413D01*
X0112477Y0041315D01*
X0112408Y0041219D01*
X0112335Y0041125D01*
X0112260Y0041034D01*
X0112181Y0040946D01*
X0112100Y0040860D01*
X0112015Y0040777D01*
X0111928Y0040697D01*
X0111839Y0040620D01*
X0111746Y0040546D01*
X0111652Y0040476D01*
X0111555Y0040408D01*
X0111455Y0040344D01*
X0111354Y0040283D01*
X0111251Y0040226D01*
X0111145Y0040172D01*
X0111038Y0040121D01*
X0110930Y0040075D01*
X0110820Y0040032D01*
X0110708Y0039993D01*
X0110595Y0039957D01*
X0110481Y0039926D01*
X0110366Y0039898D01*
X0110251Y0039874D01*
X0110134Y0039854D01*
X0110017Y0039838D01*
X0109899Y0039826D01*
X0109781Y0039818D01*
X0109663Y0039814D01*
X0109545Y0039814D01*
X0109427Y0039818D01*
X0109309Y0039826D01*
X0109191Y0039838D01*
X0109074Y0039854D01*
X0108957Y0039874D01*
X0108842Y0039898D01*
X0108727Y0039926D01*
X0108613Y0039957D01*
X0108500Y0039993D01*
X0108388Y0040032D01*
X0108278Y0040075D01*
X0108170Y0040121D01*
X0108063Y0040172D01*
X0107957Y0040226D01*
X0107854Y0040283D01*
X0107753Y0040344D01*
X0107653Y0040408D01*
X0107556Y0040476D01*
X0107462Y0040546D01*
X0107369Y0040620D01*
X0107280Y0040697D01*
X0107193Y0040777D01*
X0107108Y0040860D01*
X0107027Y0040946D01*
X0106948Y0041034D01*
X0106873Y0041125D01*
X0106800Y0041219D01*
X0106731Y0041315D01*
X0106665Y0041413D01*
X0106603Y0041513D01*
X0106544Y0041615D01*
X0106488Y0041720D01*
X0106436Y0041826D01*
X0106388Y0041934D01*
X0106343Y0042043D01*
X0106302Y0042154D01*
X0106265Y0042266D01*
X0106231Y0042380D01*
X0106201Y0042494D01*
X0106176Y0042609D01*
X0106154Y0042726D01*
X0106136Y0042843D01*
X0106122Y0042960D01*
X0106112Y0043078D01*
X0106106Y0043196D01*
X0106104Y0043314D01*
X0096104Y0043314D02*
X0096106Y0043432D01*
X0096112Y0043550D01*
X0096122Y0043668D01*
X0096136Y0043785D01*
X0096154Y0043902D01*
X0096176Y0044019D01*
X0096201Y0044134D01*
X0096231Y0044248D01*
X0096265Y0044362D01*
X0096302Y0044474D01*
X0096343Y0044585D01*
X0096388Y0044694D01*
X0096436Y0044802D01*
X0096488Y0044908D01*
X0096544Y0045013D01*
X0096603Y0045115D01*
X0096665Y0045215D01*
X0096731Y0045313D01*
X0096800Y0045409D01*
X0096873Y0045503D01*
X0096948Y0045594D01*
X0097027Y0045682D01*
X0097108Y0045768D01*
X0097193Y0045851D01*
X0097280Y0045931D01*
X0097369Y0046008D01*
X0097462Y0046082D01*
X0097556Y0046152D01*
X0097653Y0046220D01*
X0097753Y0046284D01*
X0097854Y0046345D01*
X0097957Y0046402D01*
X0098063Y0046456D01*
X0098170Y0046507D01*
X0098278Y0046553D01*
X0098388Y0046596D01*
X0098500Y0046635D01*
X0098613Y0046671D01*
X0098727Y0046702D01*
X0098842Y0046730D01*
X0098957Y0046754D01*
X0099074Y0046774D01*
X0099191Y0046790D01*
X0099309Y0046802D01*
X0099427Y0046810D01*
X0099545Y0046814D01*
X0099663Y0046814D01*
X0099781Y0046810D01*
X0099899Y0046802D01*
X0100017Y0046790D01*
X0100134Y0046774D01*
X0100251Y0046754D01*
X0100366Y0046730D01*
X0100481Y0046702D01*
X0100595Y0046671D01*
X0100708Y0046635D01*
X0100820Y0046596D01*
X0100930Y0046553D01*
X0101038Y0046507D01*
X0101145Y0046456D01*
X0101251Y0046402D01*
X0101354Y0046345D01*
X0101455Y0046284D01*
X0101555Y0046220D01*
X0101652Y0046152D01*
X0101746Y0046082D01*
X0101839Y0046008D01*
X0101928Y0045931D01*
X0102015Y0045851D01*
X0102100Y0045768D01*
X0102181Y0045682D01*
X0102260Y0045594D01*
X0102335Y0045503D01*
X0102408Y0045409D01*
X0102477Y0045313D01*
X0102543Y0045215D01*
X0102605Y0045115D01*
X0102664Y0045013D01*
X0102720Y0044908D01*
X0102772Y0044802D01*
X0102820Y0044694D01*
X0102865Y0044585D01*
X0102906Y0044474D01*
X0102943Y0044362D01*
X0102977Y0044248D01*
X0103007Y0044134D01*
X0103032Y0044019D01*
X0103054Y0043902D01*
X0103072Y0043785D01*
X0103086Y0043668D01*
X0103096Y0043550D01*
X0103102Y0043432D01*
X0103104Y0043314D01*
X0103102Y0043196D01*
X0103096Y0043078D01*
X0103086Y0042960D01*
X0103072Y0042843D01*
X0103054Y0042726D01*
X0103032Y0042609D01*
X0103007Y0042494D01*
X0102977Y0042380D01*
X0102943Y0042266D01*
X0102906Y0042154D01*
X0102865Y0042043D01*
X0102820Y0041934D01*
X0102772Y0041826D01*
X0102720Y0041720D01*
X0102664Y0041615D01*
X0102605Y0041513D01*
X0102543Y0041413D01*
X0102477Y0041315D01*
X0102408Y0041219D01*
X0102335Y0041125D01*
X0102260Y0041034D01*
X0102181Y0040946D01*
X0102100Y0040860D01*
X0102015Y0040777D01*
X0101928Y0040697D01*
X0101839Y0040620D01*
X0101746Y0040546D01*
X0101652Y0040476D01*
X0101555Y0040408D01*
X0101455Y0040344D01*
X0101354Y0040283D01*
X0101251Y0040226D01*
X0101145Y0040172D01*
X0101038Y0040121D01*
X0100930Y0040075D01*
X0100820Y0040032D01*
X0100708Y0039993D01*
X0100595Y0039957D01*
X0100481Y0039926D01*
X0100366Y0039898D01*
X0100251Y0039874D01*
X0100134Y0039854D01*
X0100017Y0039838D01*
X0099899Y0039826D01*
X0099781Y0039818D01*
X0099663Y0039814D01*
X0099545Y0039814D01*
X0099427Y0039818D01*
X0099309Y0039826D01*
X0099191Y0039838D01*
X0099074Y0039854D01*
X0098957Y0039874D01*
X0098842Y0039898D01*
X0098727Y0039926D01*
X0098613Y0039957D01*
X0098500Y0039993D01*
X0098388Y0040032D01*
X0098278Y0040075D01*
X0098170Y0040121D01*
X0098063Y0040172D01*
X0097957Y0040226D01*
X0097854Y0040283D01*
X0097753Y0040344D01*
X0097653Y0040408D01*
X0097556Y0040476D01*
X0097462Y0040546D01*
X0097369Y0040620D01*
X0097280Y0040697D01*
X0097193Y0040777D01*
X0097108Y0040860D01*
X0097027Y0040946D01*
X0096948Y0041034D01*
X0096873Y0041125D01*
X0096800Y0041219D01*
X0096731Y0041315D01*
X0096665Y0041413D01*
X0096603Y0041513D01*
X0096544Y0041615D01*
X0096488Y0041720D01*
X0096436Y0041826D01*
X0096388Y0041934D01*
X0096343Y0042043D01*
X0096302Y0042154D01*
X0096265Y0042266D01*
X0096231Y0042380D01*
X0096201Y0042494D01*
X0096176Y0042609D01*
X0096154Y0042726D01*
X0096136Y0042843D01*
X0096122Y0042960D01*
X0096112Y0043078D01*
X0096106Y0043196D01*
X0096104Y0043314D01*
X0086104Y0043314D02*
X0086106Y0043432D01*
X0086112Y0043550D01*
X0086122Y0043668D01*
X0086136Y0043785D01*
X0086154Y0043902D01*
X0086176Y0044019D01*
X0086201Y0044134D01*
X0086231Y0044248D01*
X0086265Y0044362D01*
X0086302Y0044474D01*
X0086343Y0044585D01*
X0086388Y0044694D01*
X0086436Y0044802D01*
X0086488Y0044908D01*
X0086544Y0045013D01*
X0086603Y0045115D01*
X0086665Y0045215D01*
X0086731Y0045313D01*
X0086800Y0045409D01*
X0086873Y0045503D01*
X0086948Y0045594D01*
X0087027Y0045682D01*
X0087108Y0045768D01*
X0087193Y0045851D01*
X0087280Y0045931D01*
X0087369Y0046008D01*
X0087462Y0046082D01*
X0087556Y0046152D01*
X0087653Y0046220D01*
X0087753Y0046284D01*
X0087854Y0046345D01*
X0087957Y0046402D01*
X0088063Y0046456D01*
X0088170Y0046507D01*
X0088278Y0046553D01*
X0088388Y0046596D01*
X0088500Y0046635D01*
X0088613Y0046671D01*
X0088727Y0046702D01*
X0088842Y0046730D01*
X0088957Y0046754D01*
X0089074Y0046774D01*
X0089191Y0046790D01*
X0089309Y0046802D01*
X0089427Y0046810D01*
X0089545Y0046814D01*
X0089663Y0046814D01*
X0089781Y0046810D01*
X0089899Y0046802D01*
X0090017Y0046790D01*
X0090134Y0046774D01*
X0090251Y0046754D01*
X0090366Y0046730D01*
X0090481Y0046702D01*
X0090595Y0046671D01*
X0090708Y0046635D01*
X0090820Y0046596D01*
X0090930Y0046553D01*
X0091038Y0046507D01*
X0091145Y0046456D01*
X0091251Y0046402D01*
X0091354Y0046345D01*
X0091455Y0046284D01*
X0091555Y0046220D01*
X0091652Y0046152D01*
X0091746Y0046082D01*
X0091839Y0046008D01*
X0091928Y0045931D01*
X0092015Y0045851D01*
X0092100Y0045768D01*
X0092181Y0045682D01*
X0092260Y0045594D01*
X0092335Y0045503D01*
X0092408Y0045409D01*
X0092477Y0045313D01*
X0092543Y0045215D01*
X0092605Y0045115D01*
X0092664Y0045013D01*
X0092720Y0044908D01*
X0092772Y0044802D01*
X0092820Y0044694D01*
X0092865Y0044585D01*
X0092906Y0044474D01*
X0092943Y0044362D01*
X0092977Y0044248D01*
X0093007Y0044134D01*
X0093032Y0044019D01*
X0093054Y0043902D01*
X0093072Y0043785D01*
X0093086Y0043668D01*
X0093096Y0043550D01*
X0093102Y0043432D01*
X0093104Y0043314D01*
X0093102Y0043196D01*
X0093096Y0043078D01*
X0093086Y0042960D01*
X0093072Y0042843D01*
X0093054Y0042726D01*
X0093032Y0042609D01*
X0093007Y0042494D01*
X0092977Y0042380D01*
X0092943Y0042266D01*
X0092906Y0042154D01*
X0092865Y0042043D01*
X0092820Y0041934D01*
X0092772Y0041826D01*
X0092720Y0041720D01*
X0092664Y0041615D01*
X0092605Y0041513D01*
X0092543Y0041413D01*
X0092477Y0041315D01*
X0092408Y0041219D01*
X0092335Y0041125D01*
X0092260Y0041034D01*
X0092181Y0040946D01*
X0092100Y0040860D01*
X0092015Y0040777D01*
X0091928Y0040697D01*
X0091839Y0040620D01*
X0091746Y0040546D01*
X0091652Y0040476D01*
X0091555Y0040408D01*
X0091455Y0040344D01*
X0091354Y0040283D01*
X0091251Y0040226D01*
X0091145Y0040172D01*
X0091038Y0040121D01*
X0090930Y0040075D01*
X0090820Y0040032D01*
X0090708Y0039993D01*
X0090595Y0039957D01*
X0090481Y0039926D01*
X0090366Y0039898D01*
X0090251Y0039874D01*
X0090134Y0039854D01*
X0090017Y0039838D01*
X0089899Y0039826D01*
X0089781Y0039818D01*
X0089663Y0039814D01*
X0089545Y0039814D01*
X0089427Y0039818D01*
X0089309Y0039826D01*
X0089191Y0039838D01*
X0089074Y0039854D01*
X0088957Y0039874D01*
X0088842Y0039898D01*
X0088727Y0039926D01*
X0088613Y0039957D01*
X0088500Y0039993D01*
X0088388Y0040032D01*
X0088278Y0040075D01*
X0088170Y0040121D01*
X0088063Y0040172D01*
X0087957Y0040226D01*
X0087854Y0040283D01*
X0087753Y0040344D01*
X0087653Y0040408D01*
X0087556Y0040476D01*
X0087462Y0040546D01*
X0087369Y0040620D01*
X0087280Y0040697D01*
X0087193Y0040777D01*
X0087108Y0040860D01*
X0087027Y0040946D01*
X0086948Y0041034D01*
X0086873Y0041125D01*
X0086800Y0041219D01*
X0086731Y0041315D01*
X0086665Y0041413D01*
X0086603Y0041513D01*
X0086544Y0041615D01*
X0086488Y0041720D01*
X0086436Y0041826D01*
X0086388Y0041934D01*
X0086343Y0042043D01*
X0086302Y0042154D01*
X0086265Y0042266D01*
X0086231Y0042380D01*
X0086201Y0042494D01*
X0086176Y0042609D01*
X0086154Y0042726D01*
X0086136Y0042843D01*
X0086122Y0042960D01*
X0086112Y0043078D01*
X0086106Y0043196D01*
X0086104Y0043314D01*
X0076104Y0043314D02*
X0076106Y0043432D01*
X0076112Y0043550D01*
X0076122Y0043668D01*
X0076136Y0043785D01*
X0076154Y0043902D01*
X0076176Y0044019D01*
X0076201Y0044134D01*
X0076231Y0044248D01*
X0076265Y0044362D01*
X0076302Y0044474D01*
X0076343Y0044585D01*
X0076388Y0044694D01*
X0076436Y0044802D01*
X0076488Y0044908D01*
X0076544Y0045013D01*
X0076603Y0045115D01*
X0076665Y0045215D01*
X0076731Y0045313D01*
X0076800Y0045409D01*
X0076873Y0045503D01*
X0076948Y0045594D01*
X0077027Y0045682D01*
X0077108Y0045768D01*
X0077193Y0045851D01*
X0077280Y0045931D01*
X0077369Y0046008D01*
X0077462Y0046082D01*
X0077556Y0046152D01*
X0077653Y0046220D01*
X0077753Y0046284D01*
X0077854Y0046345D01*
X0077957Y0046402D01*
X0078063Y0046456D01*
X0078170Y0046507D01*
X0078278Y0046553D01*
X0078388Y0046596D01*
X0078500Y0046635D01*
X0078613Y0046671D01*
X0078727Y0046702D01*
X0078842Y0046730D01*
X0078957Y0046754D01*
X0079074Y0046774D01*
X0079191Y0046790D01*
X0079309Y0046802D01*
X0079427Y0046810D01*
X0079545Y0046814D01*
X0079663Y0046814D01*
X0079781Y0046810D01*
X0079899Y0046802D01*
X0080017Y0046790D01*
X0080134Y0046774D01*
X0080251Y0046754D01*
X0080366Y0046730D01*
X0080481Y0046702D01*
X0080595Y0046671D01*
X0080708Y0046635D01*
X0080820Y0046596D01*
X0080930Y0046553D01*
X0081038Y0046507D01*
X0081145Y0046456D01*
X0081251Y0046402D01*
X0081354Y0046345D01*
X0081455Y0046284D01*
X0081555Y0046220D01*
X0081652Y0046152D01*
X0081746Y0046082D01*
X0081839Y0046008D01*
X0081928Y0045931D01*
X0082015Y0045851D01*
X0082100Y0045768D01*
X0082181Y0045682D01*
X0082260Y0045594D01*
X0082335Y0045503D01*
X0082408Y0045409D01*
X0082477Y0045313D01*
X0082543Y0045215D01*
X0082605Y0045115D01*
X0082664Y0045013D01*
X0082720Y0044908D01*
X0082772Y0044802D01*
X0082820Y0044694D01*
X0082865Y0044585D01*
X0082906Y0044474D01*
X0082943Y0044362D01*
X0082977Y0044248D01*
X0083007Y0044134D01*
X0083032Y0044019D01*
X0083054Y0043902D01*
X0083072Y0043785D01*
X0083086Y0043668D01*
X0083096Y0043550D01*
X0083102Y0043432D01*
X0083104Y0043314D01*
X0083102Y0043196D01*
X0083096Y0043078D01*
X0083086Y0042960D01*
X0083072Y0042843D01*
X0083054Y0042726D01*
X0083032Y0042609D01*
X0083007Y0042494D01*
X0082977Y0042380D01*
X0082943Y0042266D01*
X0082906Y0042154D01*
X0082865Y0042043D01*
X0082820Y0041934D01*
X0082772Y0041826D01*
X0082720Y0041720D01*
X0082664Y0041615D01*
X0082605Y0041513D01*
X0082543Y0041413D01*
X0082477Y0041315D01*
X0082408Y0041219D01*
X0082335Y0041125D01*
X0082260Y0041034D01*
X0082181Y0040946D01*
X0082100Y0040860D01*
X0082015Y0040777D01*
X0081928Y0040697D01*
X0081839Y0040620D01*
X0081746Y0040546D01*
X0081652Y0040476D01*
X0081555Y0040408D01*
X0081455Y0040344D01*
X0081354Y0040283D01*
X0081251Y0040226D01*
X0081145Y0040172D01*
X0081038Y0040121D01*
X0080930Y0040075D01*
X0080820Y0040032D01*
X0080708Y0039993D01*
X0080595Y0039957D01*
X0080481Y0039926D01*
X0080366Y0039898D01*
X0080251Y0039874D01*
X0080134Y0039854D01*
X0080017Y0039838D01*
X0079899Y0039826D01*
X0079781Y0039818D01*
X0079663Y0039814D01*
X0079545Y0039814D01*
X0079427Y0039818D01*
X0079309Y0039826D01*
X0079191Y0039838D01*
X0079074Y0039854D01*
X0078957Y0039874D01*
X0078842Y0039898D01*
X0078727Y0039926D01*
X0078613Y0039957D01*
X0078500Y0039993D01*
X0078388Y0040032D01*
X0078278Y0040075D01*
X0078170Y0040121D01*
X0078063Y0040172D01*
X0077957Y0040226D01*
X0077854Y0040283D01*
X0077753Y0040344D01*
X0077653Y0040408D01*
X0077556Y0040476D01*
X0077462Y0040546D01*
X0077369Y0040620D01*
X0077280Y0040697D01*
X0077193Y0040777D01*
X0077108Y0040860D01*
X0077027Y0040946D01*
X0076948Y0041034D01*
X0076873Y0041125D01*
X0076800Y0041219D01*
X0076731Y0041315D01*
X0076665Y0041413D01*
X0076603Y0041513D01*
X0076544Y0041615D01*
X0076488Y0041720D01*
X0076436Y0041826D01*
X0076388Y0041934D01*
X0076343Y0042043D01*
X0076302Y0042154D01*
X0076265Y0042266D01*
X0076231Y0042380D01*
X0076201Y0042494D01*
X0076176Y0042609D01*
X0076154Y0042726D01*
X0076136Y0042843D01*
X0076122Y0042960D01*
X0076112Y0043078D01*
X0076106Y0043196D01*
X0076104Y0043314D01*
X0066104Y0043314D02*
X0066106Y0043432D01*
X0066112Y0043550D01*
X0066122Y0043668D01*
X0066136Y0043785D01*
X0066154Y0043902D01*
X0066176Y0044019D01*
X0066201Y0044134D01*
X0066231Y0044248D01*
X0066265Y0044362D01*
X0066302Y0044474D01*
X0066343Y0044585D01*
X0066388Y0044694D01*
X0066436Y0044802D01*
X0066488Y0044908D01*
X0066544Y0045013D01*
X0066603Y0045115D01*
X0066665Y0045215D01*
X0066731Y0045313D01*
X0066800Y0045409D01*
X0066873Y0045503D01*
X0066948Y0045594D01*
X0067027Y0045682D01*
X0067108Y0045768D01*
X0067193Y0045851D01*
X0067280Y0045931D01*
X0067369Y0046008D01*
X0067462Y0046082D01*
X0067556Y0046152D01*
X0067653Y0046220D01*
X0067753Y0046284D01*
X0067854Y0046345D01*
X0067957Y0046402D01*
X0068063Y0046456D01*
X0068170Y0046507D01*
X0068278Y0046553D01*
X0068388Y0046596D01*
X0068500Y0046635D01*
X0068613Y0046671D01*
X0068727Y0046702D01*
X0068842Y0046730D01*
X0068957Y0046754D01*
X0069074Y0046774D01*
X0069191Y0046790D01*
X0069309Y0046802D01*
X0069427Y0046810D01*
X0069545Y0046814D01*
X0069663Y0046814D01*
X0069781Y0046810D01*
X0069899Y0046802D01*
X0070017Y0046790D01*
X0070134Y0046774D01*
X0070251Y0046754D01*
X0070366Y0046730D01*
X0070481Y0046702D01*
X0070595Y0046671D01*
X0070708Y0046635D01*
X0070820Y0046596D01*
X0070930Y0046553D01*
X0071038Y0046507D01*
X0071145Y0046456D01*
X0071251Y0046402D01*
X0071354Y0046345D01*
X0071455Y0046284D01*
X0071555Y0046220D01*
X0071652Y0046152D01*
X0071746Y0046082D01*
X0071839Y0046008D01*
X0071928Y0045931D01*
X0072015Y0045851D01*
X0072100Y0045768D01*
X0072181Y0045682D01*
X0072260Y0045594D01*
X0072335Y0045503D01*
X0072408Y0045409D01*
X0072477Y0045313D01*
X0072543Y0045215D01*
X0072605Y0045115D01*
X0072664Y0045013D01*
X0072720Y0044908D01*
X0072772Y0044802D01*
X0072820Y0044694D01*
X0072865Y0044585D01*
X0072906Y0044474D01*
X0072943Y0044362D01*
X0072977Y0044248D01*
X0073007Y0044134D01*
X0073032Y0044019D01*
X0073054Y0043902D01*
X0073072Y0043785D01*
X0073086Y0043668D01*
X0073096Y0043550D01*
X0073102Y0043432D01*
X0073104Y0043314D01*
X0073102Y0043196D01*
X0073096Y0043078D01*
X0073086Y0042960D01*
X0073072Y0042843D01*
X0073054Y0042726D01*
X0073032Y0042609D01*
X0073007Y0042494D01*
X0072977Y0042380D01*
X0072943Y0042266D01*
X0072906Y0042154D01*
X0072865Y0042043D01*
X0072820Y0041934D01*
X0072772Y0041826D01*
X0072720Y0041720D01*
X0072664Y0041615D01*
X0072605Y0041513D01*
X0072543Y0041413D01*
X0072477Y0041315D01*
X0072408Y0041219D01*
X0072335Y0041125D01*
X0072260Y0041034D01*
X0072181Y0040946D01*
X0072100Y0040860D01*
X0072015Y0040777D01*
X0071928Y0040697D01*
X0071839Y0040620D01*
X0071746Y0040546D01*
X0071652Y0040476D01*
X0071555Y0040408D01*
X0071455Y0040344D01*
X0071354Y0040283D01*
X0071251Y0040226D01*
X0071145Y0040172D01*
X0071038Y0040121D01*
X0070930Y0040075D01*
X0070820Y0040032D01*
X0070708Y0039993D01*
X0070595Y0039957D01*
X0070481Y0039926D01*
X0070366Y0039898D01*
X0070251Y0039874D01*
X0070134Y0039854D01*
X0070017Y0039838D01*
X0069899Y0039826D01*
X0069781Y0039818D01*
X0069663Y0039814D01*
X0069545Y0039814D01*
X0069427Y0039818D01*
X0069309Y0039826D01*
X0069191Y0039838D01*
X0069074Y0039854D01*
X0068957Y0039874D01*
X0068842Y0039898D01*
X0068727Y0039926D01*
X0068613Y0039957D01*
X0068500Y0039993D01*
X0068388Y0040032D01*
X0068278Y0040075D01*
X0068170Y0040121D01*
X0068063Y0040172D01*
X0067957Y0040226D01*
X0067854Y0040283D01*
X0067753Y0040344D01*
X0067653Y0040408D01*
X0067556Y0040476D01*
X0067462Y0040546D01*
X0067369Y0040620D01*
X0067280Y0040697D01*
X0067193Y0040777D01*
X0067108Y0040860D01*
X0067027Y0040946D01*
X0066948Y0041034D01*
X0066873Y0041125D01*
X0066800Y0041219D01*
X0066731Y0041315D01*
X0066665Y0041413D01*
X0066603Y0041513D01*
X0066544Y0041615D01*
X0066488Y0041720D01*
X0066436Y0041826D01*
X0066388Y0041934D01*
X0066343Y0042043D01*
X0066302Y0042154D01*
X0066265Y0042266D01*
X0066231Y0042380D01*
X0066201Y0042494D01*
X0066176Y0042609D01*
X0066154Y0042726D01*
X0066136Y0042843D01*
X0066122Y0042960D01*
X0066112Y0043078D01*
X0066106Y0043196D01*
X0066104Y0043314D01*
X0056104Y0043314D02*
X0056106Y0043432D01*
X0056112Y0043550D01*
X0056122Y0043668D01*
X0056136Y0043785D01*
X0056154Y0043902D01*
X0056176Y0044019D01*
X0056201Y0044134D01*
X0056231Y0044248D01*
X0056265Y0044362D01*
X0056302Y0044474D01*
X0056343Y0044585D01*
X0056388Y0044694D01*
X0056436Y0044802D01*
X0056488Y0044908D01*
X0056544Y0045013D01*
X0056603Y0045115D01*
X0056665Y0045215D01*
X0056731Y0045313D01*
X0056800Y0045409D01*
X0056873Y0045503D01*
X0056948Y0045594D01*
X0057027Y0045682D01*
X0057108Y0045768D01*
X0057193Y0045851D01*
X0057280Y0045931D01*
X0057369Y0046008D01*
X0057462Y0046082D01*
X0057556Y0046152D01*
X0057653Y0046220D01*
X0057753Y0046284D01*
X0057854Y0046345D01*
X0057957Y0046402D01*
X0058063Y0046456D01*
X0058170Y0046507D01*
X0058278Y0046553D01*
X0058388Y0046596D01*
X0058500Y0046635D01*
X0058613Y0046671D01*
X0058727Y0046702D01*
X0058842Y0046730D01*
X0058957Y0046754D01*
X0059074Y0046774D01*
X0059191Y0046790D01*
X0059309Y0046802D01*
X0059427Y0046810D01*
X0059545Y0046814D01*
X0059663Y0046814D01*
X0059781Y0046810D01*
X0059899Y0046802D01*
X0060017Y0046790D01*
X0060134Y0046774D01*
X0060251Y0046754D01*
X0060366Y0046730D01*
X0060481Y0046702D01*
X0060595Y0046671D01*
X0060708Y0046635D01*
X0060820Y0046596D01*
X0060930Y0046553D01*
X0061038Y0046507D01*
X0061145Y0046456D01*
X0061251Y0046402D01*
X0061354Y0046345D01*
X0061455Y0046284D01*
X0061555Y0046220D01*
X0061652Y0046152D01*
X0061746Y0046082D01*
X0061839Y0046008D01*
X0061928Y0045931D01*
X0062015Y0045851D01*
X0062100Y0045768D01*
X0062181Y0045682D01*
X0062260Y0045594D01*
X0062335Y0045503D01*
X0062408Y0045409D01*
X0062477Y0045313D01*
X0062543Y0045215D01*
X0062605Y0045115D01*
X0062664Y0045013D01*
X0062720Y0044908D01*
X0062772Y0044802D01*
X0062820Y0044694D01*
X0062865Y0044585D01*
X0062906Y0044474D01*
X0062943Y0044362D01*
X0062977Y0044248D01*
X0063007Y0044134D01*
X0063032Y0044019D01*
X0063054Y0043902D01*
X0063072Y0043785D01*
X0063086Y0043668D01*
X0063096Y0043550D01*
X0063102Y0043432D01*
X0063104Y0043314D01*
X0063102Y0043196D01*
X0063096Y0043078D01*
X0063086Y0042960D01*
X0063072Y0042843D01*
X0063054Y0042726D01*
X0063032Y0042609D01*
X0063007Y0042494D01*
X0062977Y0042380D01*
X0062943Y0042266D01*
X0062906Y0042154D01*
X0062865Y0042043D01*
X0062820Y0041934D01*
X0062772Y0041826D01*
X0062720Y0041720D01*
X0062664Y0041615D01*
X0062605Y0041513D01*
X0062543Y0041413D01*
X0062477Y0041315D01*
X0062408Y0041219D01*
X0062335Y0041125D01*
X0062260Y0041034D01*
X0062181Y0040946D01*
X0062100Y0040860D01*
X0062015Y0040777D01*
X0061928Y0040697D01*
X0061839Y0040620D01*
X0061746Y0040546D01*
X0061652Y0040476D01*
X0061555Y0040408D01*
X0061455Y0040344D01*
X0061354Y0040283D01*
X0061251Y0040226D01*
X0061145Y0040172D01*
X0061038Y0040121D01*
X0060930Y0040075D01*
X0060820Y0040032D01*
X0060708Y0039993D01*
X0060595Y0039957D01*
X0060481Y0039926D01*
X0060366Y0039898D01*
X0060251Y0039874D01*
X0060134Y0039854D01*
X0060017Y0039838D01*
X0059899Y0039826D01*
X0059781Y0039818D01*
X0059663Y0039814D01*
X0059545Y0039814D01*
X0059427Y0039818D01*
X0059309Y0039826D01*
X0059191Y0039838D01*
X0059074Y0039854D01*
X0058957Y0039874D01*
X0058842Y0039898D01*
X0058727Y0039926D01*
X0058613Y0039957D01*
X0058500Y0039993D01*
X0058388Y0040032D01*
X0058278Y0040075D01*
X0058170Y0040121D01*
X0058063Y0040172D01*
X0057957Y0040226D01*
X0057854Y0040283D01*
X0057753Y0040344D01*
X0057653Y0040408D01*
X0057556Y0040476D01*
X0057462Y0040546D01*
X0057369Y0040620D01*
X0057280Y0040697D01*
X0057193Y0040777D01*
X0057108Y0040860D01*
X0057027Y0040946D01*
X0056948Y0041034D01*
X0056873Y0041125D01*
X0056800Y0041219D01*
X0056731Y0041315D01*
X0056665Y0041413D01*
X0056603Y0041513D01*
X0056544Y0041615D01*
X0056488Y0041720D01*
X0056436Y0041826D01*
X0056388Y0041934D01*
X0056343Y0042043D01*
X0056302Y0042154D01*
X0056265Y0042266D01*
X0056231Y0042380D01*
X0056201Y0042494D01*
X0056176Y0042609D01*
X0056154Y0042726D01*
X0056136Y0042843D01*
X0056122Y0042960D01*
X0056112Y0043078D01*
X0056106Y0043196D01*
X0056104Y0043314D01*
X0046104Y0043314D02*
X0046106Y0043432D01*
X0046112Y0043550D01*
X0046122Y0043668D01*
X0046136Y0043785D01*
X0046154Y0043902D01*
X0046176Y0044019D01*
X0046201Y0044134D01*
X0046231Y0044248D01*
X0046265Y0044362D01*
X0046302Y0044474D01*
X0046343Y0044585D01*
X0046388Y0044694D01*
X0046436Y0044802D01*
X0046488Y0044908D01*
X0046544Y0045013D01*
X0046603Y0045115D01*
X0046665Y0045215D01*
X0046731Y0045313D01*
X0046800Y0045409D01*
X0046873Y0045503D01*
X0046948Y0045594D01*
X0047027Y0045682D01*
X0047108Y0045768D01*
X0047193Y0045851D01*
X0047280Y0045931D01*
X0047369Y0046008D01*
X0047462Y0046082D01*
X0047556Y0046152D01*
X0047653Y0046220D01*
X0047753Y0046284D01*
X0047854Y0046345D01*
X0047957Y0046402D01*
X0048063Y0046456D01*
X0048170Y0046507D01*
X0048278Y0046553D01*
X0048388Y0046596D01*
X0048500Y0046635D01*
X0048613Y0046671D01*
X0048727Y0046702D01*
X0048842Y0046730D01*
X0048957Y0046754D01*
X0049074Y0046774D01*
X0049191Y0046790D01*
X0049309Y0046802D01*
X0049427Y0046810D01*
X0049545Y0046814D01*
X0049663Y0046814D01*
X0049781Y0046810D01*
X0049899Y0046802D01*
X0050017Y0046790D01*
X0050134Y0046774D01*
X0050251Y0046754D01*
X0050366Y0046730D01*
X0050481Y0046702D01*
X0050595Y0046671D01*
X0050708Y0046635D01*
X0050820Y0046596D01*
X0050930Y0046553D01*
X0051038Y0046507D01*
X0051145Y0046456D01*
X0051251Y0046402D01*
X0051354Y0046345D01*
X0051455Y0046284D01*
X0051555Y0046220D01*
X0051652Y0046152D01*
X0051746Y0046082D01*
X0051839Y0046008D01*
X0051928Y0045931D01*
X0052015Y0045851D01*
X0052100Y0045768D01*
X0052181Y0045682D01*
X0052260Y0045594D01*
X0052335Y0045503D01*
X0052408Y0045409D01*
X0052477Y0045313D01*
X0052543Y0045215D01*
X0052605Y0045115D01*
X0052664Y0045013D01*
X0052720Y0044908D01*
X0052772Y0044802D01*
X0052820Y0044694D01*
X0052865Y0044585D01*
X0052906Y0044474D01*
X0052943Y0044362D01*
X0052977Y0044248D01*
X0053007Y0044134D01*
X0053032Y0044019D01*
X0053054Y0043902D01*
X0053072Y0043785D01*
X0053086Y0043668D01*
X0053096Y0043550D01*
X0053102Y0043432D01*
X0053104Y0043314D01*
X0053102Y0043196D01*
X0053096Y0043078D01*
X0053086Y0042960D01*
X0053072Y0042843D01*
X0053054Y0042726D01*
X0053032Y0042609D01*
X0053007Y0042494D01*
X0052977Y0042380D01*
X0052943Y0042266D01*
X0052906Y0042154D01*
X0052865Y0042043D01*
X0052820Y0041934D01*
X0052772Y0041826D01*
X0052720Y0041720D01*
X0052664Y0041615D01*
X0052605Y0041513D01*
X0052543Y0041413D01*
X0052477Y0041315D01*
X0052408Y0041219D01*
X0052335Y0041125D01*
X0052260Y0041034D01*
X0052181Y0040946D01*
X0052100Y0040860D01*
X0052015Y0040777D01*
X0051928Y0040697D01*
X0051839Y0040620D01*
X0051746Y0040546D01*
X0051652Y0040476D01*
X0051555Y0040408D01*
X0051455Y0040344D01*
X0051354Y0040283D01*
X0051251Y0040226D01*
X0051145Y0040172D01*
X0051038Y0040121D01*
X0050930Y0040075D01*
X0050820Y0040032D01*
X0050708Y0039993D01*
X0050595Y0039957D01*
X0050481Y0039926D01*
X0050366Y0039898D01*
X0050251Y0039874D01*
X0050134Y0039854D01*
X0050017Y0039838D01*
X0049899Y0039826D01*
X0049781Y0039818D01*
X0049663Y0039814D01*
X0049545Y0039814D01*
X0049427Y0039818D01*
X0049309Y0039826D01*
X0049191Y0039838D01*
X0049074Y0039854D01*
X0048957Y0039874D01*
X0048842Y0039898D01*
X0048727Y0039926D01*
X0048613Y0039957D01*
X0048500Y0039993D01*
X0048388Y0040032D01*
X0048278Y0040075D01*
X0048170Y0040121D01*
X0048063Y0040172D01*
X0047957Y0040226D01*
X0047854Y0040283D01*
X0047753Y0040344D01*
X0047653Y0040408D01*
X0047556Y0040476D01*
X0047462Y0040546D01*
X0047369Y0040620D01*
X0047280Y0040697D01*
X0047193Y0040777D01*
X0047108Y0040860D01*
X0047027Y0040946D01*
X0046948Y0041034D01*
X0046873Y0041125D01*
X0046800Y0041219D01*
X0046731Y0041315D01*
X0046665Y0041413D01*
X0046603Y0041513D01*
X0046544Y0041615D01*
X0046488Y0041720D01*
X0046436Y0041826D01*
X0046388Y0041934D01*
X0046343Y0042043D01*
X0046302Y0042154D01*
X0046265Y0042266D01*
X0046231Y0042380D01*
X0046201Y0042494D01*
X0046176Y0042609D01*
X0046154Y0042726D01*
X0046136Y0042843D01*
X0046122Y0042960D01*
X0046112Y0043078D01*
X0046106Y0043196D01*
X0046104Y0043314D01*
X0036104Y0043314D02*
X0036106Y0043432D01*
X0036112Y0043550D01*
X0036122Y0043668D01*
X0036136Y0043785D01*
X0036154Y0043902D01*
X0036176Y0044019D01*
X0036201Y0044134D01*
X0036231Y0044248D01*
X0036265Y0044362D01*
X0036302Y0044474D01*
X0036343Y0044585D01*
X0036388Y0044694D01*
X0036436Y0044802D01*
X0036488Y0044908D01*
X0036544Y0045013D01*
X0036603Y0045115D01*
X0036665Y0045215D01*
X0036731Y0045313D01*
X0036800Y0045409D01*
X0036873Y0045503D01*
X0036948Y0045594D01*
X0037027Y0045682D01*
X0037108Y0045768D01*
X0037193Y0045851D01*
X0037280Y0045931D01*
X0037369Y0046008D01*
X0037462Y0046082D01*
X0037556Y0046152D01*
X0037653Y0046220D01*
X0037753Y0046284D01*
X0037854Y0046345D01*
X0037957Y0046402D01*
X0038063Y0046456D01*
X0038170Y0046507D01*
X0038278Y0046553D01*
X0038388Y0046596D01*
X0038500Y0046635D01*
X0038613Y0046671D01*
X0038727Y0046702D01*
X0038842Y0046730D01*
X0038957Y0046754D01*
X0039074Y0046774D01*
X0039191Y0046790D01*
X0039309Y0046802D01*
X0039427Y0046810D01*
X0039545Y0046814D01*
X0039663Y0046814D01*
X0039781Y0046810D01*
X0039899Y0046802D01*
X0040017Y0046790D01*
X0040134Y0046774D01*
X0040251Y0046754D01*
X0040366Y0046730D01*
X0040481Y0046702D01*
X0040595Y0046671D01*
X0040708Y0046635D01*
X0040820Y0046596D01*
X0040930Y0046553D01*
X0041038Y0046507D01*
X0041145Y0046456D01*
X0041251Y0046402D01*
X0041354Y0046345D01*
X0041455Y0046284D01*
X0041555Y0046220D01*
X0041652Y0046152D01*
X0041746Y0046082D01*
X0041839Y0046008D01*
X0041928Y0045931D01*
X0042015Y0045851D01*
X0042100Y0045768D01*
X0042181Y0045682D01*
X0042260Y0045594D01*
X0042335Y0045503D01*
X0042408Y0045409D01*
X0042477Y0045313D01*
X0042543Y0045215D01*
X0042605Y0045115D01*
X0042664Y0045013D01*
X0042720Y0044908D01*
X0042772Y0044802D01*
X0042820Y0044694D01*
X0042865Y0044585D01*
X0042906Y0044474D01*
X0042943Y0044362D01*
X0042977Y0044248D01*
X0043007Y0044134D01*
X0043032Y0044019D01*
X0043054Y0043902D01*
X0043072Y0043785D01*
X0043086Y0043668D01*
X0043096Y0043550D01*
X0043102Y0043432D01*
X0043104Y0043314D01*
X0043102Y0043196D01*
X0043096Y0043078D01*
X0043086Y0042960D01*
X0043072Y0042843D01*
X0043054Y0042726D01*
X0043032Y0042609D01*
X0043007Y0042494D01*
X0042977Y0042380D01*
X0042943Y0042266D01*
X0042906Y0042154D01*
X0042865Y0042043D01*
X0042820Y0041934D01*
X0042772Y0041826D01*
X0042720Y0041720D01*
X0042664Y0041615D01*
X0042605Y0041513D01*
X0042543Y0041413D01*
X0042477Y0041315D01*
X0042408Y0041219D01*
X0042335Y0041125D01*
X0042260Y0041034D01*
X0042181Y0040946D01*
X0042100Y0040860D01*
X0042015Y0040777D01*
X0041928Y0040697D01*
X0041839Y0040620D01*
X0041746Y0040546D01*
X0041652Y0040476D01*
X0041555Y0040408D01*
X0041455Y0040344D01*
X0041354Y0040283D01*
X0041251Y0040226D01*
X0041145Y0040172D01*
X0041038Y0040121D01*
X0040930Y0040075D01*
X0040820Y0040032D01*
X0040708Y0039993D01*
X0040595Y0039957D01*
X0040481Y0039926D01*
X0040366Y0039898D01*
X0040251Y0039874D01*
X0040134Y0039854D01*
X0040017Y0039838D01*
X0039899Y0039826D01*
X0039781Y0039818D01*
X0039663Y0039814D01*
X0039545Y0039814D01*
X0039427Y0039818D01*
X0039309Y0039826D01*
X0039191Y0039838D01*
X0039074Y0039854D01*
X0038957Y0039874D01*
X0038842Y0039898D01*
X0038727Y0039926D01*
X0038613Y0039957D01*
X0038500Y0039993D01*
X0038388Y0040032D01*
X0038278Y0040075D01*
X0038170Y0040121D01*
X0038063Y0040172D01*
X0037957Y0040226D01*
X0037854Y0040283D01*
X0037753Y0040344D01*
X0037653Y0040408D01*
X0037556Y0040476D01*
X0037462Y0040546D01*
X0037369Y0040620D01*
X0037280Y0040697D01*
X0037193Y0040777D01*
X0037108Y0040860D01*
X0037027Y0040946D01*
X0036948Y0041034D01*
X0036873Y0041125D01*
X0036800Y0041219D01*
X0036731Y0041315D01*
X0036665Y0041413D01*
X0036603Y0041513D01*
X0036544Y0041615D01*
X0036488Y0041720D01*
X0036436Y0041826D01*
X0036388Y0041934D01*
X0036343Y0042043D01*
X0036302Y0042154D01*
X0036265Y0042266D01*
X0036231Y0042380D01*
X0036201Y0042494D01*
X0036176Y0042609D01*
X0036154Y0042726D01*
X0036136Y0042843D01*
X0036122Y0042960D01*
X0036112Y0043078D01*
X0036106Y0043196D01*
X0036104Y0043314D01*
X0036104Y0033314D02*
X0036106Y0033432D01*
X0036112Y0033550D01*
X0036122Y0033668D01*
X0036136Y0033785D01*
X0036154Y0033902D01*
X0036176Y0034019D01*
X0036201Y0034134D01*
X0036231Y0034248D01*
X0036265Y0034362D01*
X0036302Y0034474D01*
X0036343Y0034585D01*
X0036388Y0034694D01*
X0036436Y0034802D01*
X0036488Y0034908D01*
X0036544Y0035013D01*
X0036603Y0035115D01*
X0036665Y0035215D01*
X0036731Y0035313D01*
X0036800Y0035409D01*
X0036873Y0035503D01*
X0036948Y0035594D01*
X0037027Y0035682D01*
X0037108Y0035768D01*
X0037193Y0035851D01*
X0037280Y0035931D01*
X0037369Y0036008D01*
X0037462Y0036082D01*
X0037556Y0036152D01*
X0037653Y0036220D01*
X0037753Y0036284D01*
X0037854Y0036345D01*
X0037957Y0036402D01*
X0038063Y0036456D01*
X0038170Y0036507D01*
X0038278Y0036553D01*
X0038388Y0036596D01*
X0038500Y0036635D01*
X0038613Y0036671D01*
X0038727Y0036702D01*
X0038842Y0036730D01*
X0038957Y0036754D01*
X0039074Y0036774D01*
X0039191Y0036790D01*
X0039309Y0036802D01*
X0039427Y0036810D01*
X0039545Y0036814D01*
X0039663Y0036814D01*
X0039781Y0036810D01*
X0039899Y0036802D01*
X0040017Y0036790D01*
X0040134Y0036774D01*
X0040251Y0036754D01*
X0040366Y0036730D01*
X0040481Y0036702D01*
X0040595Y0036671D01*
X0040708Y0036635D01*
X0040820Y0036596D01*
X0040930Y0036553D01*
X0041038Y0036507D01*
X0041145Y0036456D01*
X0041251Y0036402D01*
X0041354Y0036345D01*
X0041455Y0036284D01*
X0041555Y0036220D01*
X0041652Y0036152D01*
X0041746Y0036082D01*
X0041839Y0036008D01*
X0041928Y0035931D01*
X0042015Y0035851D01*
X0042100Y0035768D01*
X0042181Y0035682D01*
X0042260Y0035594D01*
X0042335Y0035503D01*
X0042408Y0035409D01*
X0042477Y0035313D01*
X0042543Y0035215D01*
X0042605Y0035115D01*
X0042664Y0035013D01*
X0042720Y0034908D01*
X0042772Y0034802D01*
X0042820Y0034694D01*
X0042865Y0034585D01*
X0042906Y0034474D01*
X0042943Y0034362D01*
X0042977Y0034248D01*
X0043007Y0034134D01*
X0043032Y0034019D01*
X0043054Y0033902D01*
X0043072Y0033785D01*
X0043086Y0033668D01*
X0043096Y0033550D01*
X0043102Y0033432D01*
X0043104Y0033314D01*
X0043102Y0033196D01*
X0043096Y0033078D01*
X0043086Y0032960D01*
X0043072Y0032843D01*
X0043054Y0032726D01*
X0043032Y0032609D01*
X0043007Y0032494D01*
X0042977Y0032380D01*
X0042943Y0032266D01*
X0042906Y0032154D01*
X0042865Y0032043D01*
X0042820Y0031934D01*
X0042772Y0031826D01*
X0042720Y0031720D01*
X0042664Y0031615D01*
X0042605Y0031513D01*
X0042543Y0031413D01*
X0042477Y0031315D01*
X0042408Y0031219D01*
X0042335Y0031125D01*
X0042260Y0031034D01*
X0042181Y0030946D01*
X0042100Y0030860D01*
X0042015Y0030777D01*
X0041928Y0030697D01*
X0041839Y0030620D01*
X0041746Y0030546D01*
X0041652Y0030476D01*
X0041555Y0030408D01*
X0041455Y0030344D01*
X0041354Y0030283D01*
X0041251Y0030226D01*
X0041145Y0030172D01*
X0041038Y0030121D01*
X0040930Y0030075D01*
X0040820Y0030032D01*
X0040708Y0029993D01*
X0040595Y0029957D01*
X0040481Y0029926D01*
X0040366Y0029898D01*
X0040251Y0029874D01*
X0040134Y0029854D01*
X0040017Y0029838D01*
X0039899Y0029826D01*
X0039781Y0029818D01*
X0039663Y0029814D01*
X0039545Y0029814D01*
X0039427Y0029818D01*
X0039309Y0029826D01*
X0039191Y0029838D01*
X0039074Y0029854D01*
X0038957Y0029874D01*
X0038842Y0029898D01*
X0038727Y0029926D01*
X0038613Y0029957D01*
X0038500Y0029993D01*
X0038388Y0030032D01*
X0038278Y0030075D01*
X0038170Y0030121D01*
X0038063Y0030172D01*
X0037957Y0030226D01*
X0037854Y0030283D01*
X0037753Y0030344D01*
X0037653Y0030408D01*
X0037556Y0030476D01*
X0037462Y0030546D01*
X0037369Y0030620D01*
X0037280Y0030697D01*
X0037193Y0030777D01*
X0037108Y0030860D01*
X0037027Y0030946D01*
X0036948Y0031034D01*
X0036873Y0031125D01*
X0036800Y0031219D01*
X0036731Y0031315D01*
X0036665Y0031413D01*
X0036603Y0031513D01*
X0036544Y0031615D01*
X0036488Y0031720D01*
X0036436Y0031826D01*
X0036388Y0031934D01*
X0036343Y0032043D01*
X0036302Y0032154D01*
X0036265Y0032266D01*
X0036231Y0032380D01*
X0036201Y0032494D01*
X0036176Y0032609D01*
X0036154Y0032726D01*
X0036136Y0032843D01*
X0036122Y0032960D01*
X0036112Y0033078D01*
X0036106Y0033196D01*
X0036104Y0033314D01*
X0046104Y0033314D02*
X0046106Y0033432D01*
X0046112Y0033550D01*
X0046122Y0033668D01*
X0046136Y0033785D01*
X0046154Y0033902D01*
X0046176Y0034019D01*
X0046201Y0034134D01*
X0046231Y0034248D01*
X0046265Y0034362D01*
X0046302Y0034474D01*
X0046343Y0034585D01*
X0046388Y0034694D01*
X0046436Y0034802D01*
X0046488Y0034908D01*
X0046544Y0035013D01*
X0046603Y0035115D01*
X0046665Y0035215D01*
X0046731Y0035313D01*
X0046800Y0035409D01*
X0046873Y0035503D01*
X0046948Y0035594D01*
X0047027Y0035682D01*
X0047108Y0035768D01*
X0047193Y0035851D01*
X0047280Y0035931D01*
X0047369Y0036008D01*
X0047462Y0036082D01*
X0047556Y0036152D01*
X0047653Y0036220D01*
X0047753Y0036284D01*
X0047854Y0036345D01*
X0047957Y0036402D01*
X0048063Y0036456D01*
X0048170Y0036507D01*
X0048278Y0036553D01*
X0048388Y0036596D01*
X0048500Y0036635D01*
X0048613Y0036671D01*
X0048727Y0036702D01*
X0048842Y0036730D01*
X0048957Y0036754D01*
X0049074Y0036774D01*
X0049191Y0036790D01*
X0049309Y0036802D01*
X0049427Y0036810D01*
X0049545Y0036814D01*
X0049663Y0036814D01*
X0049781Y0036810D01*
X0049899Y0036802D01*
X0050017Y0036790D01*
X0050134Y0036774D01*
X0050251Y0036754D01*
X0050366Y0036730D01*
X0050481Y0036702D01*
X0050595Y0036671D01*
X0050708Y0036635D01*
X0050820Y0036596D01*
X0050930Y0036553D01*
X0051038Y0036507D01*
X0051145Y0036456D01*
X0051251Y0036402D01*
X0051354Y0036345D01*
X0051455Y0036284D01*
X0051555Y0036220D01*
X0051652Y0036152D01*
X0051746Y0036082D01*
X0051839Y0036008D01*
X0051928Y0035931D01*
X0052015Y0035851D01*
X0052100Y0035768D01*
X0052181Y0035682D01*
X0052260Y0035594D01*
X0052335Y0035503D01*
X0052408Y0035409D01*
X0052477Y0035313D01*
X0052543Y0035215D01*
X0052605Y0035115D01*
X0052664Y0035013D01*
X0052720Y0034908D01*
X0052772Y0034802D01*
X0052820Y0034694D01*
X0052865Y0034585D01*
X0052906Y0034474D01*
X0052943Y0034362D01*
X0052977Y0034248D01*
X0053007Y0034134D01*
X0053032Y0034019D01*
X0053054Y0033902D01*
X0053072Y0033785D01*
X0053086Y0033668D01*
X0053096Y0033550D01*
X0053102Y0033432D01*
X0053104Y0033314D01*
X0053102Y0033196D01*
X0053096Y0033078D01*
X0053086Y0032960D01*
X0053072Y0032843D01*
X0053054Y0032726D01*
X0053032Y0032609D01*
X0053007Y0032494D01*
X0052977Y0032380D01*
X0052943Y0032266D01*
X0052906Y0032154D01*
X0052865Y0032043D01*
X0052820Y0031934D01*
X0052772Y0031826D01*
X0052720Y0031720D01*
X0052664Y0031615D01*
X0052605Y0031513D01*
X0052543Y0031413D01*
X0052477Y0031315D01*
X0052408Y0031219D01*
X0052335Y0031125D01*
X0052260Y0031034D01*
X0052181Y0030946D01*
X0052100Y0030860D01*
X0052015Y0030777D01*
X0051928Y0030697D01*
X0051839Y0030620D01*
X0051746Y0030546D01*
X0051652Y0030476D01*
X0051555Y0030408D01*
X0051455Y0030344D01*
X0051354Y0030283D01*
X0051251Y0030226D01*
X0051145Y0030172D01*
X0051038Y0030121D01*
X0050930Y0030075D01*
X0050820Y0030032D01*
X0050708Y0029993D01*
X0050595Y0029957D01*
X0050481Y0029926D01*
X0050366Y0029898D01*
X0050251Y0029874D01*
X0050134Y0029854D01*
X0050017Y0029838D01*
X0049899Y0029826D01*
X0049781Y0029818D01*
X0049663Y0029814D01*
X0049545Y0029814D01*
X0049427Y0029818D01*
X0049309Y0029826D01*
X0049191Y0029838D01*
X0049074Y0029854D01*
X0048957Y0029874D01*
X0048842Y0029898D01*
X0048727Y0029926D01*
X0048613Y0029957D01*
X0048500Y0029993D01*
X0048388Y0030032D01*
X0048278Y0030075D01*
X0048170Y0030121D01*
X0048063Y0030172D01*
X0047957Y0030226D01*
X0047854Y0030283D01*
X0047753Y0030344D01*
X0047653Y0030408D01*
X0047556Y0030476D01*
X0047462Y0030546D01*
X0047369Y0030620D01*
X0047280Y0030697D01*
X0047193Y0030777D01*
X0047108Y0030860D01*
X0047027Y0030946D01*
X0046948Y0031034D01*
X0046873Y0031125D01*
X0046800Y0031219D01*
X0046731Y0031315D01*
X0046665Y0031413D01*
X0046603Y0031513D01*
X0046544Y0031615D01*
X0046488Y0031720D01*
X0046436Y0031826D01*
X0046388Y0031934D01*
X0046343Y0032043D01*
X0046302Y0032154D01*
X0046265Y0032266D01*
X0046231Y0032380D01*
X0046201Y0032494D01*
X0046176Y0032609D01*
X0046154Y0032726D01*
X0046136Y0032843D01*
X0046122Y0032960D01*
X0046112Y0033078D01*
X0046106Y0033196D01*
X0046104Y0033314D01*
X0056104Y0033314D02*
X0056106Y0033432D01*
X0056112Y0033550D01*
X0056122Y0033668D01*
X0056136Y0033785D01*
X0056154Y0033902D01*
X0056176Y0034019D01*
X0056201Y0034134D01*
X0056231Y0034248D01*
X0056265Y0034362D01*
X0056302Y0034474D01*
X0056343Y0034585D01*
X0056388Y0034694D01*
X0056436Y0034802D01*
X0056488Y0034908D01*
X0056544Y0035013D01*
X0056603Y0035115D01*
X0056665Y0035215D01*
X0056731Y0035313D01*
X0056800Y0035409D01*
X0056873Y0035503D01*
X0056948Y0035594D01*
X0057027Y0035682D01*
X0057108Y0035768D01*
X0057193Y0035851D01*
X0057280Y0035931D01*
X0057369Y0036008D01*
X0057462Y0036082D01*
X0057556Y0036152D01*
X0057653Y0036220D01*
X0057753Y0036284D01*
X0057854Y0036345D01*
X0057957Y0036402D01*
X0058063Y0036456D01*
X0058170Y0036507D01*
X0058278Y0036553D01*
X0058388Y0036596D01*
X0058500Y0036635D01*
X0058613Y0036671D01*
X0058727Y0036702D01*
X0058842Y0036730D01*
X0058957Y0036754D01*
X0059074Y0036774D01*
X0059191Y0036790D01*
X0059309Y0036802D01*
X0059427Y0036810D01*
X0059545Y0036814D01*
X0059663Y0036814D01*
X0059781Y0036810D01*
X0059899Y0036802D01*
X0060017Y0036790D01*
X0060134Y0036774D01*
X0060251Y0036754D01*
X0060366Y0036730D01*
X0060481Y0036702D01*
X0060595Y0036671D01*
X0060708Y0036635D01*
X0060820Y0036596D01*
X0060930Y0036553D01*
X0061038Y0036507D01*
X0061145Y0036456D01*
X0061251Y0036402D01*
X0061354Y0036345D01*
X0061455Y0036284D01*
X0061555Y0036220D01*
X0061652Y0036152D01*
X0061746Y0036082D01*
X0061839Y0036008D01*
X0061928Y0035931D01*
X0062015Y0035851D01*
X0062100Y0035768D01*
X0062181Y0035682D01*
X0062260Y0035594D01*
X0062335Y0035503D01*
X0062408Y0035409D01*
X0062477Y0035313D01*
X0062543Y0035215D01*
X0062605Y0035115D01*
X0062664Y0035013D01*
X0062720Y0034908D01*
X0062772Y0034802D01*
X0062820Y0034694D01*
X0062865Y0034585D01*
X0062906Y0034474D01*
X0062943Y0034362D01*
X0062977Y0034248D01*
X0063007Y0034134D01*
X0063032Y0034019D01*
X0063054Y0033902D01*
X0063072Y0033785D01*
X0063086Y0033668D01*
X0063096Y0033550D01*
X0063102Y0033432D01*
X0063104Y0033314D01*
X0063102Y0033196D01*
X0063096Y0033078D01*
X0063086Y0032960D01*
X0063072Y0032843D01*
X0063054Y0032726D01*
X0063032Y0032609D01*
X0063007Y0032494D01*
X0062977Y0032380D01*
X0062943Y0032266D01*
X0062906Y0032154D01*
X0062865Y0032043D01*
X0062820Y0031934D01*
X0062772Y0031826D01*
X0062720Y0031720D01*
X0062664Y0031615D01*
X0062605Y0031513D01*
X0062543Y0031413D01*
X0062477Y0031315D01*
X0062408Y0031219D01*
X0062335Y0031125D01*
X0062260Y0031034D01*
X0062181Y0030946D01*
X0062100Y0030860D01*
X0062015Y0030777D01*
X0061928Y0030697D01*
X0061839Y0030620D01*
X0061746Y0030546D01*
X0061652Y0030476D01*
X0061555Y0030408D01*
X0061455Y0030344D01*
X0061354Y0030283D01*
X0061251Y0030226D01*
X0061145Y0030172D01*
X0061038Y0030121D01*
X0060930Y0030075D01*
X0060820Y0030032D01*
X0060708Y0029993D01*
X0060595Y0029957D01*
X0060481Y0029926D01*
X0060366Y0029898D01*
X0060251Y0029874D01*
X0060134Y0029854D01*
X0060017Y0029838D01*
X0059899Y0029826D01*
X0059781Y0029818D01*
X0059663Y0029814D01*
X0059545Y0029814D01*
X0059427Y0029818D01*
X0059309Y0029826D01*
X0059191Y0029838D01*
X0059074Y0029854D01*
X0058957Y0029874D01*
X0058842Y0029898D01*
X0058727Y0029926D01*
X0058613Y0029957D01*
X0058500Y0029993D01*
X0058388Y0030032D01*
X0058278Y0030075D01*
X0058170Y0030121D01*
X0058063Y0030172D01*
X0057957Y0030226D01*
X0057854Y0030283D01*
X0057753Y0030344D01*
X0057653Y0030408D01*
X0057556Y0030476D01*
X0057462Y0030546D01*
X0057369Y0030620D01*
X0057280Y0030697D01*
X0057193Y0030777D01*
X0057108Y0030860D01*
X0057027Y0030946D01*
X0056948Y0031034D01*
X0056873Y0031125D01*
X0056800Y0031219D01*
X0056731Y0031315D01*
X0056665Y0031413D01*
X0056603Y0031513D01*
X0056544Y0031615D01*
X0056488Y0031720D01*
X0056436Y0031826D01*
X0056388Y0031934D01*
X0056343Y0032043D01*
X0056302Y0032154D01*
X0056265Y0032266D01*
X0056231Y0032380D01*
X0056201Y0032494D01*
X0056176Y0032609D01*
X0056154Y0032726D01*
X0056136Y0032843D01*
X0056122Y0032960D01*
X0056112Y0033078D01*
X0056106Y0033196D01*
X0056104Y0033314D01*
X0066104Y0033314D02*
X0066106Y0033432D01*
X0066112Y0033550D01*
X0066122Y0033668D01*
X0066136Y0033785D01*
X0066154Y0033902D01*
X0066176Y0034019D01*
X0066201Y0034134D01*
X0066231Y0034248D01*
X0066265Y0034362D01*
X0066302Y0034474D01*
X0066343Y0034585D01*
X0066388Y0034694D01*
X0066436Y0034802D01*
X0066488Y0034908D01*
X0066544Y0035013D01*
X0066603Y0035115D01*
X0066665Y0035215D01*
X0066731Y0035313D01*
X0066800Y0035409D01*
X0066873Y0035503D01*
X0066948Y0035594D01*
X0067027Y0035682D01*
X0067108Y0035768D01*
X0067193Y0035851D01*
X0067280Y0035931D01*
X0067369Y0036008D01*
X0067462Y0036082D01*
X0067556Y0036152D01*
X0067653Y0036220D01*
X0067753Y0036284D01*
X0067854Y0036345D01*
X0067957Y0036402D01*
X0068063Y0036456D01*
X0068170Y0036507D01*
X0068278Y0036553D01*
X0068388Y0036596D01*
X0068500Y0036635D01*
X0068613Y0036671D01*
X0068727Y0036702D01*
X0068842Y0036730D01*
X0068957Y0036754D01*
X0069074Y0036774D01*
X0069191Y0036790D01*
X0069309Y0036802D01*
X0069427Y0036810D01*
X0069545Y0036814D01*
X0069663Y0036814D01*
X0069781Y0036810D01*
X0069899Y0036802D01*
X0070017Y0036790D01*
X0070134Y0036774D01*
X0070251Y0036754D01*
X0070366Y0036730D01*
X0070481Y0036702D01*
X0070595Y0036671D01*
X0070708Y0036635D01*
X0070820Y0036596D01*
X0070930Y0036553D01*
X0071038Y0036507D01*
X0071145Y0036456D01*
X0071251Y0036402D01*
X0071354Y0036345D01*
X0071455Y0036284D01*
X0071555Y0036220D01*
X0071652Y0036152D01*
X0071746Y0036082D01*
X0071839Y0036008D01*
X0071928Y0035931D01*
X0072015Y0035851D01*
X0072100Y0035768D01*
X0072181Y0035682D01*
X0072260Y0035594D01*
X0072335Y0035503D01*
X0072408Y0035409D01*
X0072477Y0035313D01*
X0072543Y0035215D01*
X0072605Y0035115D01*
X0072664Y0035013D01*
X0072720Y0034908D01*
X0072772Y0034802D01*
X0072820Y0034694D01*
X0072865Y0034585D01*
X0072906Y0034474D01*
X0072943Y0034362D01*
X0072977Y0034248D01*
X0073007Y0034134D01*
X0073032Y0034019D01*
X0073054Y0033902D01*
X0073072Y0033785D01*
X0073086Y0033668D01*
X0073096Y0033550D01*
X0073102Y0033432D01*
X0073104Y0033314D01*
X0073102Y0033196D01*
X0073096Y0033078D01*
X0073086Y0032960D01*
X0073072Y0032843D01*
X0073054Y0032726D01*
X0073032Y0032609D01*
X0073007Y0032494D01*
X0072977Y0032380D01*
X0072943Y0032266D01*
X0072906Y0032154D01*
X0072865Y0032043D01*
X0072820Y0031934D01*
X0072772Y0031826D01*
X0072720Y0031720D01*
X0072664Y0031615D01*
X0072605Y0031513D01*
X0072543Y0031413D01*
X0072477Y0031315D01*
X0072408Y0031219D01*
X0072335Y0031125D01*
X0072260Y0031034D01*
X0072181Y0030946D01*
X0072100Y0030860D01*
X0072015Y0030777D01*
X0071928Y0030697D01*
X0071839Y0030620D01*
X0071746Y0030546D01*
X0071652Y0030476D01*
X0071555Y0030408D01*
X0071455Y0030344D01*
X0071354Y0030283D01*
X0071251Y0030226D01*
X0071145Y0030172D01*
X0071038Y0030121D01*
X0070930Y0030075D01*
X0070820Y0030032D01*
X0070708Y0029993D01*
X0070595Y0029957D01*
X0070481Y0029926D01*
X0070366Y0029898D01*
X0070251Y0029874D01*
X0070134Y0029854D01*
X0070017Y0029838D01*
X0069899Y0029826D01*
X0069781Y0029818D01*
X0069663Y0029814D01*
X0069545Y0029814D01*
X0069427Y0029818D01*
X0069309Y0029826D01*
X0069191Y0029838D01*
X0069074Y0029854D01*
X0068957Y0029874D01*
X0068842Y0029898D01*
X0068727Y0029926D01*
X0068613Y0029957D01*
X0068500Y0029993D01*
X0068388Y0030032D01*
X0068278Y0030075D01*
X0068170Y0030121D01*
X0068063Y0030172D01*
X0067957Y0030226D01*
X0067854Y0030283D01*
X0067753Y0030344D01*
X0067653Y0030408D01*
X0067556Y0030476D01*
X0067462Y0030546D01*
X0067369Y0030620D01*
X0067280Y0030697D01*
X0067193Y0030777D01*
X0067108Y0030860D01*
X0067027Y0030946D01*
X0066948Y0031034D01*
X0066873Y0031125D01*
X0066800Y0031219D01*
X0066731Y0031315D01*
X0066665Y0031413D01*
X0066603Y0031513D01*
X0066544Y0031615D01*
X0066488Y0031720D01*
X0066436Y0031826D01*
X0066388Y0031934D01*
X0066343Y0032043D01*
X0066302Y0032154D01*
X0066265Y0032266D01*
X0066231Y0032380D01*
X0066201Y0032494D01*
X0066176Y0032609D01*
X0066154Y0032726D01*
X0066136Y0032843D01*
X0066122Y0032960D01*
X0066112Y0033078D01*
X0066106Y0033196D01*
X0066104Y0033314D01*
X0076104Y0033314D02*
X0076106Y0033432D01*
X0076112Y0033550D01*
X0076122Y0033668D01*
X0076136Y0033785D01*
X0076154Y0033902D01*
X0076176Y0034019D01*
X0076201Y0034134D01*
X0076231Y0034248D01*
X0076265Y0034362D01*
X0076302Y0034474D01*
X0076343Y0034585D01*
X0076388Y0034694D01*
X0076436Y0034802D01*
X0076488Y0034908D01*
X0076544Y0035013D01*
X0076603Y0035115D01*
X0076665Y0035215D01*
X0076731Y0035313D01*
X0076800Y0035409D01*
X0076873Y0035503D01*
X0076948Y0035594D01*
X0077027Y0035682D01*
X0077108Y0035768D01*
X0077193Y0035851D01*
X0077280Y0035931D01*
X0077369Y0036008D01*
X0077462Y0036082D01*
X0077556Y0036152D01*
X0077653Y0036220D01*
X0077753Y0036284D01*
X0077854Y0036345D01*
X0077957Y0036402D01*
X0078063Y0036456D01*
X0078170Y0036507D01*
X0078278Y0036553D01*
X0078388Y0036596D01*
X0078500Y0036635D01*
X0078613Y0036671D01*
X0078727Y0036702D01*
X0078842Y0036730D01*
X0078957Y0036754D01*
X0079074Y0036774D01*
X0079191Y0036790D01*
X0079309Y0036802D01*
X0079427Y0036810D01*
X0079545Y0036814D01*
X0079663Y0036814D01*
X0079781Y0036810D01*
X0079899Y0036802D01*
X0080017Y0036790D01*
X0080134Y0036774D01*
X0080251Y0036754D01*
X0080366Y0036730D01*
X0080481Y0036702D01*
X0080595Y0036671D01*
X0080708Y0036635D01*
X0080820Y0036596D01*
X0080930Y0036553D01*
X0081038Y0036507D01*
X0081145Y0036456D01*
X0081251Y0036402D01*
X0081354Y0036345D01*
X0081455Y0036284D01*
X0081555Y0036220D01*
X0081652Y0036152D01*
X0081746Y0036082D01*
X0081839Y0036008D01*
X0081928Y0035931D01*
X0082015Y0035851D01*
X0082100Y0035768D01*
X0082181Y0035682D01*
X0082260Y0035594D01*
X0082335Y0035503D01*
X0082408Y0035409D01*
X0082477Y0035313D01*
X0082543Y0035215D01*
X0082605Y0035115D01*
X0082664Y0035013D01*
X0082720Y0034908D01*
X0082772Y0034802D01*
X0082820Y0034694D01*
X0082865Y0034585D01*
X0082906Y0034474D01*
X0082943Y0034362D01*
X0082977Y0034248D01*
X0083007Y0034134D01*
X0083032Y0034019D01*
X0083054Y0033902D01*
X0083072Y0033785D01*
X0083086Y0033668D01*
X0083096Y0033550D01*
X0083102Y0033432D01*
X0083104Y0033314D01*
X0083102Y0033196D01*
X0083096Y0033078D01*
X0083086Y0032960D01*
X0083072Y0032843D01*
X0083054Y0032726D01*
X0083032Y0032609D01*
X0083007Y0032494D01*
X0082977Y0032380D01*
X0082943Y0032266D01*
X0082906Y0032154D01*
X0082865Y0032043D01*
X0082820Y0031934D01*
X0082772Y0031826D01*
X0082720Y0031720D01*
X0082664Y0031615D01*
X0082605Y0031513D01*
X0082543Y0031413D01*
X0082477Y0031315D01*
X0082408Y0031219D01*
X0082335Y0031125D01*
X0082260Y0031034D01*
X0082181Y0030946D01*
X0082100Y0030860D01*
X0082015Y0030777D01*
X0081928Y0030697D01*
X0081839Y0030620D01*
X0081746Y0030546D01*
X0081652Y0030476D01*
X0081555Y0030408D01*
X0081455Y0030344D01*
X0081354Y0030283D01*
X0081251Y0030226D01*
X0081145Y0030172D01*
X0081038Y0030121D01*
X0080930Y0030075D01*
X0080820Y0030032D01*
X0080708Y0029993D01*
X0080595Y0029957D01*
X0080481Y0029926D01*
X0080366Y0029898D01*
X0080251Y0029874D01*
X0080134Y0029854D01*
X0080017Y0029838D01*
X0079899Y0029826D01*
X0079781Y0029818D01*
X0079663Y0029814D01*
X0079545Y0029814D01*
X0079427Y0029818D01*
X0079309Y0029826D01*
X0079191Y0029838D01*
X0079074Y0029854D01*
X0078957Y0029874D01*
X0078842Y0029898D01*
X0078727Y0029926D01*
X0078613Y0029957D01*
X0078500Y0029993D01*
X0078388Y0030032D01*
X0078278Y0030075D01*
X0078170Y0030121D01*
X0078063Y0030172D01*
X0077957Y0030226D01*
X0077854Y0030283D01*
X0077753Y0030344D01*
X0077653Y0030408D01*
X0077556Y0030476D01*
X0077462Y0030546D01*
X0077369Y0030620D01*
X0077280Y0030697D01*
X0077193Y0030777D01*
X0077108Y0030860D01*
X0077027Y0030946D01*
X0076948Y0031034D01*
X0076873Y0031125D01*
X0076800Y0031219D01*
X0076731Y0031315D01*
X0076665Y0031413D01*
X0076603Y0031513D01*
X0076544Y0031615D01*
X0076488Y0031720D01*
X0076436Y0031826D01*
X0076388Y0031934D01*
X0076343Y0032043D01*
X0076302Y0032154D01*
X0076265Y0032266D01*
X0076231Y0032380D01*
X0076201Y0032494D01*
X0076176Y0032609D01*
X0076154Y0032726D01*
X0076136Y0032843D01*
X0076122Y0032960D01*
X0076112Y0033078D01*
X0076106Y0033196D01*
X0076104Y0033314D01*
X0086104Y0033314D02*
X0086106Y0033432D01*
X0086112Y0033550D01*
X0086122Y0033668D01*
X0086136Y0033785D01*
X0086154Y0033902D01*
X0086176Y0034019D01*
X0086201Y0034134D01*
X0086231Y0034248D01*
X0086265Y0034362D01*
X0086302Y0034474D01*
X0086343Y0034585D01*
X0086388Y0034694D01*
X0086436Y0034802D01*
X0086488Y0034908D01*
X0086544Y0035013D01*
X0086603Y0035115D01*
X0086665Y0035215D01*
X0086731Y0035313D01*
X0086800Y0035409D01*
X0086873Y0035503D01*
X0086948Y0035594D01*
X0087027Y0035682D01*
X0087108Y0035768D01*
X0087193Y0035851D01*
X0087280Y0035931D01*
X0087369Y0036008D01*
X0087462Y0036082D01*
X0087556Y0036152D01*
X0087653Y0036220D01*
X0087753Y0036284D01*
X0087854Y0036345D01*
X0087957Y0036402D01*
X0088063Y0036456D01*
X0088170Y0036507D01*
X0088278Y0036553D01*
X0088388Y0036596D01*
X0088500Y0036635D01*
X0088613Y0036671D01*
X0088727Y0036702D01*
X0088842Y0036730D01*
X0088957Y0036754D01*
X0089074Y0036774D01*
X0089191Y0036790D01*
X0089309Y0036802D01*
X0089427Y0036810D01*
X0089545Y0036814D01*
X0089663Y0036814D01*
X0089781Y0036810D01*
X0089899Y0036802D01*
X0090017Y0036790D01*
X0090134Y0036774D01*
X0090251Y0036754D01*
X0090366Y0036730D01*
X0090481Y0036702D01*
X0090595Y0036671D01*
X0090708Y0036635D01*
X0090820Y0036596D01*
X0090930Y0036553D01*
X0091038Y0036507D01*
X0091145Y0036456D01*
X0091251Y0036402D01*
X0091354Y0036345D01*
X0091455Y0036284D01*
X0091555Y0036220D01*
X0091652Y0036152D01*
X0091746Y0036082D01*
X0091839Y0036008D01*
X0091928Y0035931D01*
X0092015Y0035851D01*
X0092100Y0035768D01*
X0092181Y0035682D01*
X0092260Y0035594D01*
X0092335Y0035503D01*
X0092408Y0035409D01*
X0092477Y0035313D01*
X0092543Y0035215D01*
X0092605Y0035115D01*
X0092664Y0035013D01*
X0092720Y0034908D01*
X0092772Y0034802D01*
X0092820Y0034694D01*
X0092865Y0034585D01*
X0092906Y0034474D01*
X0092943Y0034362D01*
X0092977Y0034248D01*
X0093007Y0034134D01*
X0093032Y0034019D01*
X0093054Y0033902D01*
X0093072Y0033785D01*
X0093086Y0033668D01*
X0093096Y0033550D01*
X0093102Y0033432D01*
X0093104Y0033314D01*
X0093102Y0033196D01*
X0093096Y0033078D01*
X0093086Y0032960D01*
X0093072Y0032843D01*
X0093054Y0032726D01*
X0093032Y0032609D01*
X0093007Y0032494D01*
X0092977Y0032380D01*
X0092943Y0032266D01*
X0092906Y0032154D01*
X0092865Y0032043D01*
X0092820Y0031934D01*
X0092772Y0031826D01*
X0092720Y0031720D01*
X0092664Y0031615D01*
X0092605Y0031513D01*
X0092543Y0031413D01*
X0092477Y0031315D01*
X0092408Y0031219D01*
X0092335Y0031125D01*
X0092260Y0031034D01*
X0092181Y0030946D01*
X0092100Y0030860D01*
X0092015Y0030777D01*
X0091928Y0030697D01*
X0091839Y0030620D01*
X0091746Y0030546D01*
X0091652Y0030476D01*
X0091555Y0030408D01*
X0091455Y0030344D01*
X0091354Y0030283D01*
X0091251Y0030226D01*
X0091145Y0030172D01*
X0091038Y0030121D01*
X0090930Y0030075D01*
X0090820Y0030032D01*
X0090708Y0029993D01*
X0090595Y0029957D01*
X0090481Y0029926D01*
X0090366Y0029898D01*
X0090251Y0029874D01*
X0090134Y0029854D01*
X0090017Y0029838D01*
X0089899Y0029826D01*
X0089781Y0029818D01*
X0089663Y0029814D01*
X0089545Y0029814D01*
X0089427Y0029818D01*
X0089309Y0029826D01*
X0089191Y0029838D01*
X0089074Y0029854D01*
X0088957Y0029874D01*
X0088842Y0029898D01*
X0088727Y0029926D01*
X0088613Y0029957D01*
X0088500Y0029993D01*
X0088388Y0030032D01*
X0088278Y0030075D01*
X0088170Y0030121D01*
X0088063Y0030172D01*
X0087957Y0030226D01*
X0087854Y0030283D01*
X0087753Y0030344D01*
X0087653Y0030408D01*
X0087556Y0030476D01*
X0087462Y0030546D01*
X0087369Y0030620D01*
X0087280Y0030697D01*
X0087193Y0030777D01*
X0087108Y0030860D01*
X0087027Y0030946D01*
X0086948Y0031034D01*
X0086873Y0031125D01*
X0086800Y0031219D01*
X0086731Y0031315D01*
X0086665Y0031413D01*
X0086603Y0031513D01*
X0086544Y0031615D01*
X0086488Y0031720D01*
X0086436Y0031826D01*
X0086388Y0031934D01*
X0086343Y0032043D01*
X0086302Y0032154D01*
X0086265Y0032266D01*
X0086231Y0032380D01*
X0086201Y0032494D01*
X0086176Y0032609D01*
X0086154Y0032726D01*
X0086136Y0032843D01*
X0086122Y0032960D01*
X0086112Y0033078D01*
X0086106Y0033196D01*
X0086104Y0033314D01*
X0096104Y0033314D02*
X0096106Y0033432D01*
X0096112Y0033550D01*
X0096122Y0033668D01*
X0096136Y0033785D01*
X0096154Y0033902D01*
X0096176Y0034019D01*
X0096201Y0034134D01*
X0096231Y0034248D01*
X0096265Y0034362D01*
X0096302Y0034474D01*
X0096343Y0034585D01*
X0096388Y0034694D01*
X0096436Y0034802D01*
X0096488Y0034908D01*
X0096544Y0035013D01*
X0096603Y0035115D01*
X0096665Y0035215D01*
X0096731Y0035313D01*
X0096800Y0035409D01*
X0096873Y0035503D01*
X0096948Y0035594D01*
X0097027Y0035682D01*
X0097108Y0035768D01*
X0097193Y0035851D01*
X0097280Y0035931D01*
X0097369Y0036008D01*
X0097462Y0036082D01*
X0097556Y0036152D01*
X0097653Y0036220D01*
X0097753Y0036284D01*
X0097854Y0036345D01*
X0097957Y0036402D01*
X0098063Y0036456D01*
X0098170Y0036507D01*
X0098278Y0036553D01*
X0098388Y0036596D01*
X0098500Y0036635D01*
X0098613Y0036671D01*
X0098727Y0036702D01*
X0098842Y0036730D01*
X0098957Y0036754D01*
X0099074Y0036774D01*
X0099191Y0036790D01*
X0099309Y0036802D01*
X0099427Y0036810D01*
X0099545Y0036814D01*
X0099663Y0036814D01*
X0099781Y0036810D01*
X0099899Y0036802D01*
X0100017Y0036790D01*
X0100134Y0036774D01*
X0100251Y0036754D01*
X0100366Y0036730D01*
X0100481Y0036702D01*
X0100595Y0036671D01*
X0100708Y0036635D01*
X0100820Y0036596D01*
X0100930Y0036553D01*
X0101038Y0036507D01*
X0101145Y0036456D01*
X0101251Y0036402D01*
X0101354Y0036345D01*
X0101455Y0036284D01*
X0101555Y0036220D01*
X0101652Y0036152D01*
X0101746Y0036082D01*
X0101839Y0036008D01*
X0101928Y0035931D01*
X0102015Y0035851D01*
X0102100Y0035768D01*
X0102181Y0035682D01*
X0102260Y0035594D01*
X0102335Y0035503D01*
X0102408Y0035409D01*
X0102477Y0035313D01*
X0102543Y0035215D01*
X0102605Y0035115D01*
X0102664Y0035013D01*
X0102720Y0034908D01*
X0102772Y0034802D01*
X0102820Y0034694D01*
X0102865Y0034585D01*
X0102906Y0034474D01*
X0102943Y0034362D01*
X0102977Y0034248D01*
X0103007Y0034134D01*
X0103032Y0034019D01*
X0103054Y0033902D01*
X0103072Y0033785D01*
X0103086Y0033668D01*
X0103096Y0033550D01*
X0103102Y0033432D01*
X0103104Y0033314D01*
X0103102Y0033196D01*
X0103096Y0033078D01*
X0103086Y0032960D01*
X0103072Y0032843D01*
X0103054Y0032726D01*
X0103032Y0032609D01*
X0103007Y0032494D01*
X0102977Y0032380D01*
X0102943Y0032266D01*
X0102906Y0032154D01*
X0102865Y0032043D01*
X0102820Y0031934D01*
X0102772Y0031826D01*
X0102720Y0031720D01*
X0102664Y0031615D01*
X0102605Y0031513D01*
X0102543Y0031413D01*
X0102477Y0031315D01*
X0102408Y0031219D01*
X0102335Y0031125D01*
X0102260Y0031034D01*
X0102181Y0030946D01*
X0102100Y0030860D01*
X0102015Y0030777D01*
X0101928Y0030697D01*
X0101839Y0030620D01*
X0101746Y0030546D01*
X0101652Y0030476D01*
X0101555Y0030408D01*
X0101455Y0030344D01*
X0101354Y0030283D01*
X0101251Y0030226D01*
X0101145Y0030172D01*
X0101038Y0030121D01*
X0100930Y0030075D01*
X0100820Y0030032D01*
X0100708Y0029993D01*
X0100595Y0029957D01*
X0100481Y0029926D01*
X0100366Y0029898D01*
X0100251Y0029874D01*
X0100134Y0029854D01*
X0100017Y0029838D01*
X0099899Y0029826D01*
X0099781Y0029818D01*
X0099663Y0029814D01*
X0099545Y0029814D01*
X0099427Y0029818D01*
X0099309Y0029826D01*
X0099191Y0029838D01*
X0099074Y0029854D01*
X0098957Y0029874D01*
X0098842Y0029898D01*
X0098727Y0029926D01*
X0098613Y0029957D01*
X0098500Y0029993D01*
X0098388Y0030032D01*
X0098278Y0030075D01*
X0098170Y0030121D01*
X0098063Y0030172D01*
X0097957Y0030226D01*
X0097854Y0030283D01*
X0097753Y0030344D01*
X0097653Y0030408D01*
X0097556Y0030476D01*
X0097462Y0030546D01*
X0097369Y0030620D01*
X0097280Y0030697D01*
X0097193Y0030777D01*
X0097108Y0030860D01*
X0097027Y0030946D01*
X0096948Y0031034D01*
X0096873Y0031125D01*
X0096800Y0031219D01*
X0096731Y0031315D01*
X0096665Y0031413D01*
X0096603Y0031513D01*
X0096544Y0031615D01*
X0096488Y0031720D01*
X0096436Y0031826D01*
X0096388Y0031934D01*
X0096343Y0032043D01*
X0096302Y0032154D01*
X0096265Y0032266D01*
X0096231Y0032380D01*
X0096201Y0032494D01*
X0096176Y0032609D01*
X0096154Y0032726D01*
X0096136Y0032843D01*
X0096122Y0032960D01*
X0096112Y0033078D01*
X0096106Y0033196D01*
X0096104Y0033314D01*
X0106104Y0033314D02*
X0106106Y0033432D01*
X0106112Y0033550D01*
X0106122Y0033668D01*
X0106136Y0033785D01*
X0106154Y0033902D01*
X0106176Y0034019D01*
X0106201Y0034134D01*
X0106231Y0034248D01*
X0106265Y0034362D01*
X0106302Y0034474D01*
X0106343Y0034585D01*
X0106388Y0034694D01*
X0106436Y0034802D01*
X0106488Y0034908D01*
X0106544Y0035013D01*
X0106603Y0035115D01*
X0106665Y0035215D01*
X0106731Y0035313D01*
X0106800Y0035409D01*
X0106873Y0035503D01*
X0106948Y0035594D01*
X0107027Y0035682D01*
X0107108Y0035768D01*
X0107193Y0035851D01*
X0107280Y0035931D01*
X0107369Y0036008D01*
X0107462Y0036082D01*
X0107556Y0036152D01*
X0107653Y0036220D01*
X0107753Y0036284D01*
X0107854Y0036345D01*
X0107957Y0036402D01*
X0108063Y0036456D01*
X0108170Y0036507D01*
X0108278Y0036553D01*
X0108388Y0036596D01*
X0108500Y0036635D01*
X0108613Y0036671D01*
X0108727Y0036702D01*
X0108842Y0036730D01*
X0108957Y0036754D01*
X0109074Y0036774D01*
X0109191Y0036790D01*
X0109309Y0036802D01*
X0109427Y0036810D01*
X0109545Y0036814D01*
X0109663Y0036814D01*
X0109781Y0036810D01*
X0109899Y0036802D01*
X0110017Y0036790D01*
X0110134Y0036774D01*
X0110251Y0036754D01*
X0110366Y0036730D01*
X0110481Y0036702D01*
X0110595Y0036671D01*
X0110708Y0036635D01*
X0110820Y0036596D01*
X0110930Y0036553D01*
X0111038Y0036507D01*
X0111145Y0036456D01*
X0111251Y0036402D01*
X0111354Y0036345D01*
X0111455Y0036284D01*
X0111555Y0036220D01*
X0111652Y0036152D01*
X0111746Y0036082D01*
X0111839Y0036008D01*
X0111928Y0035931D01*
X0112015Y0035851D01*
X0112100Y0035768D01*
X0112181Y0035682D01*
X0112260Y0035594D01*
X0112335Y0035503D01*
X0112408Y0035409D01*
X0112477Y0035313D01*
X0112543Y0035215D01*
X0112605Y0035115D01*
X0112664Y0035013D01*
X0112720Y0034908D01*
X0112772Y0034802D01*
X0112820Y0034694D01*
X0112865Y0034585D01*
X0112906Y0034474D01*
X0112943Y0034362D01*
X0112977Y0034248D01*
X0113007Y0034134D01*
X0113032Y0034019D01*
X0113054Y0033902D01*
X0113072Y0033785D01*
X0113086Y0033668D01*
X0113096Y0033550D01*
X0113102Y0033432D01*
X0113104Y0033314D01*
X0113102Y0033196D01*
X0113096Y0033078D01*
X0113086Y0032960D01*
X0113072Y0032843D01*
X0113054Y0032726D01*
X0113032Y0032609D01*
X0113007Y0032494D01*
X0112977Y0032380D01*
X0112943Y0032266D01*
X0112906Y0032154D01*
X0112865Y0032043D01*
X0112820Y0031934D01*
X0112772Y0031826D01*
X0112720Y0031720D01*
X0112664Y0031615D01*
X0112605Y0031513D01*
X0112543Y0031413D01*
X0112477Y0031315D01*
X0112408Y0031219D01*
X0112335Y0031125D01*
X0112260Y0031034D01*
X0112181Y0030946D01*
X0112100Y0030860D01*
X0112015Y0030777D01*
X0111928Y0030697D01*
X0111839Y0030620D01*
X0111746Y0030546D01*
X0111652Y0030476D01*
X0111555Y0030408D01*
X0111455Y0030344D01*
X0111354Y0030283D01*
X0111251Y0030226D01*
X0111145Y0030172D01*
X0111038Y0030121D01*
X0110930Y0030075D01*
X0110820Y0030032D01*
X0110708Y0029993D01*
X0110595Y0029957D01*
X0110481Y0029926D01*
X0110366Y0029898D01*
X0110251Y0029874D01*
X0110134Y0029854D01*
X0110017Y0029838D01*
X0109899Y0029826D01*
X0109781Y0029818D01*
X0109663Y0029814D01*
X0109545Y0029814D01*
X0109427Y0029818D01*
X0109309Y0029826D01*
X0109191Y0029838D01*
X0109074Y0029854D01*
X0108957Y0029874D01*
X0108842Y0029898D01*
X0108727Y0029926D01*
X0108613Y0029957D01*
X0108500Y0029993D01*
X0108388Y0030032D01*
X0108278Y0030075D01*
X0108170Y0030121D01*
X0108063Y0030172D01*
X0107957Y0030226D01*
X0107854Y0030283D01*
X0107753Y0030344D01*
X0107653Y0030408D01*
X0107556Y0030476D01*
X0107462Y0030546D01*
X0107369Y0030620D01*
X0107280Y0030697D01*
X0107193Y0030777D01*
X0107108Y0030860D01*
X0107027Y0030946D01*
X0106948Y0031034D01*
X0106873Y0031125D01*
X0106800Y0031219D01*
X0106731Y0031315D01*
X0106665Y0031413D01*
X0106603Y0031513D01*
X0106544Y0031615D01*
X0106488Y0031720D01*
X0106436Y0031826D01*
X0106388Y0031934D01*
X0106343Y0032043D01*
X0106302Y0032154D01*
X0106265Y0032266D01*
X0106231Y0032380D01*
X0106201Y0032494D01*
X0106176Y0032609D01*
X0106154Y0032726D01*
X0106136Y0032843D01*
X0106122Y0032960D01*
X0106112Y0033078D01*
X0106106Y0033196D01*
X0106104Y0033314D01*
X0116104Y0033314D02*
X0116106Y0033432D01*
X0116112Y0033550D01*
X0116122Y0033668D01*
X0116136Y0033785D01*
X0116154Y0033902D01*
X0116176Y0034019D01*
X0116201Y0034134D01*
X0116231Y0034248D01*
X0116265Y0034362D01*
X0116302Y0034474D01*
X0116343Y0034585D01*
X0116388Y0034694D01*
X0116436Y0034802D01*
X0116488Y0034908D01*
X0116544Y0035013D01*
X0116603Y0035115D01*
X0116665Y0035215D01*
X0116731Y0035313D01*
X0116800Y0035409D01*
X0116873Y0035503D01*
X0116948Y0035594D01*
X0117027Y0035682D01*
X0117108Y0035768D01*
X0117193Y0035851D01*
X0117280Y0035931D01*
X0117369Y0036008D01*
X0117462Y0036082D01*
X0117556Y0036152D01*
X0117653Y0036220D01*
X0117753Y0036284D01*
X0117854Y0036345D01*
X0117957Y0036402D01*
X0118063Y0036456D01*
X0118170Y0036507D01*
X0118278Y0036553D01*
X0118388Y0036596D01*
X0118500Y0036635D01*
X0118613Y0036671D01*
X0118727Y0036702D01*
X0118842Y0036730D01*
X0118957Y0036754D01*
X0119074Y0036774D01*
X0119191Y0036790D01*
X0119309Y0036802D01*
X0119427Y0036810D01*
X0119545Y0036814D01*
X0119663Y0036814D01*
X0119781Y0036810D01*
X0119899Y0036802D01*
X0120017Y0036790D01*
X0120134Y0036774D01*
X0120251Y0036754D01*
X0120366Y0036730D01*
X0120481Y0036702D01*
X0120595Y0036671D01*
X0120708Y0036635D01*
X0120820Y0036596D01*
X0120930Y0036553D01*
X0121038Y0036507D01*
X0121145Y0036456D01*
X0121251Y0036402D01*
X0121354Y0036345D01*
X0121455Y0036284D01*
X0121555Y0036220D01*
X0121652Y0036152D01*
X0121746Y0036082D01*
X0121839Y0036008D01*
X0121928Y0035931D01*
X0122015Y0035851D01*
X0122100Y0035768D01*
X0122181Y0035682D01*
X0122260Y0035594D01*
X0122335Y0035503D01*
X0122408Y0035409D01*
X0122477Y0035313D01*
X0122543Y0035215D01*
X0122605Y0035115D01*
X0122664Y0035013D01*
X0122720Y0034908D01*
X0122772Y0034802D01*
X0122820Y0034694D01*
X0122865Y0034585D01*
X0122906Y0034474D01*
X0122943Y0034362D01*
X0122977Y0034248D01*
X0123007Y0034134D01*
X0123032Y0034019D01*
X0123054Y0033902D01*
X0123072Y0033785D01*
X0123086Y0033668D01*
X0123096Y0033550D01*
X0123102Y0033432D01*
X0123104Y0033314D01*
X0123102Y0033196D01*
X0123096Y0033078D01*
X0123086Y0032960D01*
X0123072Y0032843D01*
X0123054Y0032726D01*
X0123032Y0032609D01*
X0123007Y0032494D01*
X0122977Y0032380D01*
X0122943Y0032266D01*
X0122906Y0032154D01*
X0122865Y0032043D01*
X0122820Y0031934D01*
X0122772Y0031826D01*
X0122720Y0031720D01*
X0122664Y0031615D01*
X0122605Y0031513D01*
X0122543Y0031413D01*
X0122477Y0031315D01*
X0122408Y0031219D01*
X0122335Y0031125D01*
X0122260Y0031034D01*
X0122181Y0030946D01*
X0122100Y0030860D01*
X0122015Y0030777D01*
X0121928Y0030697D01*
X0121839Y0030620D01*
X0121746Y0030546D01*
X0121652Y0030476D01*
X0121555Y0030408D01*
X0121455Y0030344D01*
X0121354Y0030283D01*
X0121251Y0030226D01*
X0121145Y0030172D01*
X0121038Y0030121D01*
X0120930Y0030075D01*
X0120820Y0030032D01*
X0120708Y0029993D01*
X0120595Y0029957D01*
X0120481Y0029926D01*
X0120366Y0029898D01*
X0120251Y0029874D01*
X0120134Y0029854D01*
X0120017Y0029838D01*
X0119899Y0029826D01*
X0119781Y0029818D01*
X0119663Y0029814D01*
X0119545Y0029814D01*
X0119427Y0029818D01*
X0119309Y0029826D01*
X0119191Y0029838D01*
X0119074Y0029854D01*
X0118957Y0029874D01*
X0118842Y0029898D01*
X0118727Y0029926D01*
X0118613Y0029957D01*
X0118500Y0029993D01*
X0118388Y0030032D01*
X0118278Y0030075D01*
X0118170Y0030121D01*
X0118063Y0030172D01*
X0117957Y0030226D01*
X0117854Y0030283D01*
X0117753Y0030344D01*
X0117653Y0030408D01*
X0117556Y0030476D01*
X0117462Y0030546D01*
X0117369Y0030620D01*
X0117280Y0030697D01*
X0117193Y0030777D01*
X0117108Y0030860D01*
X0117027Y0030946D01*
X0116948Y0031034D01*
X0116873Y0031125D01*
X0116800Y0031219D01*
X0116731Y0031315D01*
X0116665Y0031413D01*
X0116603Y0031513D01*
X0116544Y0031615D01*
X0116488Y0031720D01*
X0116436Y0031826D01*
X0116388Y0031934D01*
X0116343Y0032043D01*
X0116302Y0032154D01*
X0116265Y0032266D01*
X0116231Y0032380D01*
X0116201Y0032494D01*
X0116176Y0032609D01*
X0116154Y0032726D01*
X0116136Y0032843D01*
X0116122Y0032960D01*
X0116112Y0033078D01*
X0116106Y0033196D01*
X0116104Y0033314D01*
X0126104Y0033472D02*
X0126106Y0033590D01*
X0126112Y0033708D01*
X0126122Y0033826D01*
X0126136Y0033943D01*
X0126154Y0034060D01*
X0126176Y0034177D01*
X0126201Y0034292D01*
X0126231Y0034406D01*
X0126265Y0034520D01*
X0126302Y0034632D01*
X0126343Y0034743D01*
X0126388Y0034852D01*
X0126436Y0034960D01*
X0126488Y0035066D01*
X0126544Y0035171D01*
X0126603Y0035273D01*
X0126665Y0035373D01*
X0126731Y0035471D01*
X0126800Y0035567D01*
X0126873Y0035661D01*
X0126948Y0035752D01*
X0127027Y0035840D01*
X0127108Y0035926D01*
X0127193Y0036009D01*
X0127280Y0036089D01*
X0127369Y0036166D01*
X0127462Y0036240D01*
X0127556Y0036310D01*
X0127653Y0036378D01*
X0127753Y0036442D01*
X0127854Y0036503D01*
X0127957Y0036560D01*
X0128063Y0036614D01*
X0128170Y0036665D01*
X0128278Y0036711D01*
X0128388Y0036754D01*
X0128500Y0036793D01*
X0128613Y0036829D01*
X0128727Y0036860D01*
X0128842Y0036888D01*
X0128957Y0036912D01*
X0129074Y0036932D01*
X0129191Y0036948D01*
X0129309Y0036960D01*
X0129427Y0036968D01*
X0129545Y0036972D01*
X0129663Y0036972D01*
X0129781Y0036968D01*
X0129899Y0036960D01*
X0130017Y0036948D01*
X0130134Y0036932D01*
X0130251Y0036912D01*
X0130366Y0036888D01*
X0130481Y0036860D01*
X0130595Y0036829D01*
X0130708Y0036793D01*
X0130820Y0036754D01*
X0130930Y0036711D01*
X0131038Y0036665D01*
X0131145Y0036614D01*
X0131251Y0036560D01*
X0131354Y0036503D01*
X0131455Y0036442D01*
X0131555Y0036378D01*
X0131652Y0036310D01*
X0131746Y0036240D01*
X0131839Y0036166D01*
X0131928Y0036089D01*
X0132015Y0036009D01*
X0132100Y0035926D01*
X0132181Y0035840D01*
X0132260Y0035752D01*
X0132335Y0035661D01*
X0132408Y0035567D01*
X0132477Y0035471D01*
X0132543Y0035373D01*
X0132605Y0035273D01*
X0132664Y0035171D01*
X0132720Y0035066D01*
X0132772Y0034960D01*
X0132820Y0034852D01*
X0132865Y0034743D01*
X0132906Y0034632D01*
X0132943Y0034520D01*
X0132977Y0034406D01*
X0133007Y0034292D01*
X0133032Y0034177D01*
X0133054Y0034060D01*
X0133072Y0033943D01*
X0133086Y0033826D01*
X0133096Y0033708D01*
X0133102Y0033590D01*
X0133104Y0033472D01*
X0133102Y0033354D01*
X0133096Y0033236D01*
X0133086Y0033118D01*
X0133072Y0033001D01*
X0133054Y0032884D01*
X0133032Y0032767D01*
X0133007Y0032652D01*
X0132977Y0032538D01*
X0132943Y0032424D01*
X0132906Y0032312D01*
X0132865Y0032201D01*
X0132820Y0032092D01*
X0132772Y0031984D01*
X0132720Y0031878D01*
X0132664Y0031773D01*
X0132605Y0031671D01*
X0132543Y0031571D01*
X0132477Y0031473D01*
X0132408Y0031377D01*
X0132335Y0031283D01*
X0132260Y0031192D01*
X0132181Y0031104D01*
X0132100Y0031018D01*
X0132015Y0030935D01*
X0131928Y0030855D01*
X0131839Y0030778D01*
X0131746Y0030704D01*
X0131652Y0030634D01*
X0131555Y0030566D01*
X0131455Y0030502D01*
X0131354Y0030441D01*
X0131251Y0030384D01*
X0131145Y0030330D01*
X0131038Y0030279D01*
X0130930Y0030233D01*
X0130820Y0030190D01*
X0130708Y0030151D01*
X0130595Y0030115D01*
X0130481Y0030084D01*
X0130366Y0030056D01*
X0130251Y0030032D01*
X0130134Y0030012D01*
X0130017Y0029996D01*
X0129899Y0029984D01*
X0129781Y0029976D01*
X0129663Y0029972D01*
X0129545Y0029972D01*
X0129427Y0029976D01*
X0129309Y0029984D01*
X0129191Y0029996D01*
X0129074Y0030012D01*
X0128957Y0030032D01*
X0128842Y0030056D01*
X0128727Y0030084D01*
X0128613Y0030115D01*
X0128500Y0030151D01*
X0128388Y0030190D01*
X0128278Y0030233D01*
X0128170Y0030279D01*
X0128063Y0030330D01*
X0127957Y0030384D01*
X0127854Y0030441D01*
X0127753Y0030502D01*
X0127653Y0030566D01*
X0127556Y0030634D01*
X0127462Y0030704D01*
X0127369Y0030778D01*
X0127280Y0030855D01*
X0127193Y0030935D01*
X0127108Y0031018D01*
X0127027Y0031104D01*
X0126948Y0031192D01*
X0126873Y0031283D01*
X0126800Y0031377D01*
X0126731Y0031473D01*
X0126665Y0031571D01*
X0126603Y0031671D01*
X0126544Y0031773D01*
X0126488Y0031878D01*
X0126436Y0031984D01*
X0126388Y0032092D01*
X0126343Y0032201D01*
X0126302Y0032312D01*
X0126265Y0032424D01*
X0126231Y0032538D01*
X0126201Y0032652D01*
X0126176Y0032767D01*
X0126154Y0032884D01*
X0126136Y0033001D01*
X0126122Y0033118D01*
X0126112Y0033236D01*
X0126106Y0033354D01*
X0126104Y0033472D01*
D13*
X0111965Y0033681D02*
X0111731Y0033914D01*
X0111264Y0033914D01*
X0111030Y0033681D01*
X0111030Y0033447D01*
X0111264Y0033214D01*
X0111731Y0033214D01*
X0111965Y0032980D01*
X0111965Y0032747D01*
X0111731Y0032513D01*
X0111264Y0032513D01*
X0111030Y0032747D01*
X0110491Y0032513D02*
X0110491Y0033914D01*
X0109557Y0033914D01*
X0109018Y0033914D02*
X0108084Y0033914D01*
X0109018Y0033914D02*
X0109018Y0032513D01*
X0109557Y0032513D02*
X0110491Y0032513D01*
X0110491Y0033214D02*
X0110024Y0033214D01*
X0110143Y0042913D02*
X0109976Y0043080D01*
X0109976Y0043747D01*
X0110143Y0043914D01*
X0110476Y0043914D01*
X0110643Y0043747D01*
X0110643Y0043080D01*
X0110476Y0042913D01*
X0110143Y0042913D01*
X0109538Y0042913D02*
X0109205Y0043247D01*
X0108871Y0042913D01*
X0108871Y0043914D01*
X0108433Y0043914D02*
X0107766Y0043914D01*
X0108100Y0043414D02*
X0108433Y0043414D01*
X0108433Y0043914D02*
X0108433Y0042913D01*
X0107766Y0042913D01*
X0109538Y0042913D02*
X0109538Y0043914D01*
X0111081Y0043914D02*
X0111081Y0042913D01*
X0111081Y0043414D02*
X0111748Y0043414D01*
X0111748Y0043914D02*
X0111748Y0042913D01*
X0101965Y0033681D02*
X0101731Y0033914D01*
X0101264Y0033914D01*
X0101030Y0033681D01*
X0101030Y0033447D01*
X0101264Y0033214D01*
X0101731Y0033214D01*
X0101965Y0032980D01*
X0101965Y0032747D01*
X0101731Y0032513D01*
X0101264Y0032513D01*
X0101030Y0032747D01*
X0100491Y0032513D02*
X0099557Y0032513D01*
X0100024Y0032513D02*
X0100024Y0033914D01*
X0099018Y0033914D02*
X0099018Y0032980D01*
X0098551Y0032513D01*
X0098084Y0032980D01*
X0098084Y0033914D01*
X0098084Y0033214D02*
X0099018Y0033214D01*
X0081965Y0042747D02*
X0081965Y0043681D01*
X0081731Y0043914D01*
X0081264Y0043914D01*
X0081030Y0043681D01*
X0081030Y0043214D01*
X0081498Y0043214D01*
X0081965Y0042747D02*
X0081731Y0042513D01*
X0081264Y0042513D01*
X0081030Y0042747D01*
X0080491Y0042513D02*
X0079557Y0043914D01*
X0079557Y0042513D01*
X0079018Y0042513D02*
X0078317Y0042513D01*
X0078084Y0042747D01*
X0078084Y0043681D01*
X0078317Y0043914D01*
X0079018Y0043914D01*
X0079018Y0042513D01*
X0080491Y0042513D02*
X0080491Y0043914D01*
X0051965Y0043681D02*
X0051731Y0043914D01*
X0051264Y0043914D01*
X0051030Y0043681D01*
X0051030Y0043214D01*
X0051498Y0043214D01*
X0051965Y0042747D02*
X0051965Y0043681D01*
X0051965Y0042747D02*
X0051731Y0042513D01*
X0051264Y0042513D01*
X0051030Y0042747D01*
X0050491Y0042513D02*
X0049557Y0043914D01*
X0049557Y0042513D01*
X0049018Y0042513D02*
X0048317Y0042513D01*
X0048084Y0042747D01*
X0048084Y0043681D01*
X0048317Y0043914D01*
X0049018Y0043914D01*
X0049018Y0042513D01*
X0050491Y0042513D02*
X0050491Y0043914D01*
X0050491Y0033914D02*
X0050491Y0032513D01*
X0049557Y0033914D01*
X0049557Y0032513D01*
X0049018Y0032513D02*
X0049018Y0033914D01*
X0048317Y0033914D01*
X0048084Y0033681D01*
X0048084Y0032747D01*
X0048317Y0032513D01*
X0049018Y0032513D01*
X0051030Y0032747D02*
X0051264Y0032513D01*
X0051731Y0032513D01*
X0051965Y0032747D01*
X0051965Y0033681D01*
X0051731Y0033914D01*
X0051264Y0033914D01*
X0051030Y0033681D01*
X0051030Y0033214D01*
X0051498Y0033214D01*
X0041965Y0033447D02*
X0041965Y0032513D01*
X0041965Y0033447D02*
X0041498Y0033914D01*
X0041030Y0033447D01*
X0041030Y0032513D01*
X0040491Y0032747D02*
X0040491Y0033681D01*
X0040258Y0033914D01*
X0039791Y0033914D01*
X0039557Y0033681D01*
X0039018Y0033681D02*
X0039018Y0032747D01*
X0038785Y0032513D01*
X0038317Y0032513D01*
X0038084Y0032747D01*
X0038084Y0033681D02*
X0038317Y0033914D01*
X0038785Y0033914D01*
X0039018Y0033681D01*
X0039557Y0032747D02*
X0039791Y0032513D01*
X0040258Y0032513D01*
X0040491Y0032747D01*
X0040258Y0042513D02*
X0040491Y0042747D01*
X0040491Y0043681D01*
X0040258Y0043914D01*
X0039791Y0043914D01*
X0039557Y0043681D01*
X0039018Y0043681D02*
X0038785Y0043914D01*
X0038317Y0043914D01*
X0038084Y0043681D01*
X0039018Y0043681D02*
X0039018Y0042747D01*
X0038785Y0042513D01*
X0038317Y0042513D01*
X0038084Y0042747D01*
X0039557Y0042747D02*
X0039791Y0042513D01*
X0040258Y0042513D01*
X0041030Y0042513D02*
X0041030Y0043447D01*
X0041498Y0043914D01*
X0041965Y0043447D01*
X0041965Y0042513D01*
D14*
X0058104Y0042278D02*
X0059438Y0043612D01*
X0059105Y0043279D02*
X0058104Y0044280D01*
X0059438Y0044280D02*
X0059438Y0042278D01*
X0060647Y0042278D02*
X0061648Y0043279D01*
X0060314Y0043279D01*
X0060647Y0044280D02*
X0060647Y0042278D01*
X0060647Y0034280D02*
X0060314Y0033946D01*
X0060314Y0033612D01*
X0060647Y0033279D01*
X0060981Y0033279D01*
X0060647Y0033279D02*
X0060314Y0032945D01*
X0060314Y0032611D01*
X0060647Y0032278D01*
X0061314Y0032278D01*
X0061648Y0032611D01*
X0061648Y0033946D02*
X0061314Y0034280D01*
X0060647Y0034280D01*
X0059438Y0034280D02*
X0059438Y0032278D01*
X0059105Y0033279D02*
X0058104Y0034280D01*
X0059438Y0033612D02*
X0058104Y0032278D01*
X0068104Y0032278D02*
X0069438Y0033612D01*
X0069105Y0033279D02*
X0068104Y0034280D01*
X0069438Y0034280D02*
X0069438Y0032278D01*
X0070981Y0032278D02*
X0070981Y0034280D01*
X0071648Y0034280D02*
X0070314Y0034280D01*
X0071648Y0032945D02*
X0070981Y0032278D01*
X0078104Y0032611D02*
X0078104Y0033279D01*
X0078437Y0033612D01*
X0079438Y0033612D01*
X0079438Y0034280D02*
X0079438Y0032278D01*
X0078437Y0032278D01*
X0078104Y0032611D01*
X0080314Y0033279D02*
X0081648Y0033279D01*
X0080647Y0032278D01*
X0080647Y0034280D01*
X0088104Y0033279D02*
X0088104Y0032611D01*
X0088437Y0032278D01*
X0089438Y0032278D01*
X0089438Y0034280D01*
X0089438Y0033612D02*
X0088437Y0033612D01*
X0088104Y0033279D01*
X0090314Y0032945D02*
X0090314Y0032611D01*
X0090647Y0032278D01*
X0091314Y0032278D01*
X0091648Y0032611D01*
X0090314Y0032945D02*
X0091648Y0034280D01*
X0090314Y0034280D01*
X0090647Y0042278D02*
X0090314Y0042611D01*
X0090314Y0042945D01*
X0090647Y0043279D01*
X0090314Y0043612D01*
X0090314Y0043946D01*
X0090647Y0044280D01*
X0091314Y0044280D01*
X0091648Y0043946D01*
X0090981Y0043279D02*
X0090647Y0043279D01*
X0090647Y0042278D02*
X0091314Y0042278D01*
X0091648Y0042611D01*
X0089438Y0042278D02*
X0088437Y0042278D01*
X0088104Y0042611D01*
X0088104Y0043279D01*
X0088437Y0043612D01*
X0089438Y0043612D01*
X0089438Y0044280D02*
X0089438Y0042278D01*
X0098104Y0042611D02*
X0098437Y0042278D01*
X0099438Y0042278D01*
X0099438Y0044280D01*
X0099438Y0043612D02*
X0098437Y0043612D01*
X0098104Y0043279D01*
X0098104Y0042611D01*
X0100314Y0044280D02*
X0101648Y0044280D01*
X0100981Y0044280D02*
X0100981Y0042278D01*
X0101648Y0042945D01*
X0071648Y0042611D02*
X0071314Y0042278D01*
X0070647Y0042278D01*
X0070314Y0042611D01*
X0070314Y0042945D01*
X0071648Y0044280D01*
X0070314Y0044280D01*
X0069438Y0044280D02*
X0069438Y0042278D01*
X0069105Y0043279D02*
X0068104Y0044280D01*
X0069438Y0043612D02*
X0068104Y0042278D01*
D15*
X0069847Y0100909D03*
X0088547Y0100909D03*
X0088547Y0157209D03*
X0069847Y0157209D03*
D16*
X0069847Y0157159D03*
X0088547Y0157159D03*
X0088547Y0100959D03*
X0069847Y0100959D03*
D17*
X0069847Y0101009D03*
X0088547Y0101009D03*
X0088547Y0157109D03*
X0069847Y0157109D03*
D18*
X0069847Y0157059D03*
X0088547Y0157059D03*
X0088547Y0101059D03*
X0069847Y0101059D03*
D19*
X0069847Y0101109D03*
X0088547Y0101109D03*
X0088547Y0157009D03*
X0069847Y0157009D03*
D20*
X0069847Y0156959D03*
X0088547Y0156959D03*
X0088547Y0101159D03*
X0069847Y0101159D03*
D21*
X0069847Y0101209D03*
X0088547Y0101209D03*
X0088547Y0156909D03*
X0069847Y0156909D03*
D22*
X0069847Y0156859D03*
X0069847Y0156809D03*
X0088547Y0156809D03*
X0088547Y0156859D03*
X0088547Y0101309D03*
X0088547Y0101259D03*
X0069847Y0101259D03*
X0069847Y0101309D03*
D23*
X0069847Y0101359D03*
X0088547Y0101359D03*
X0088547Y0101409D03*
X0088547Y0156709D03*
X0088547Y0156759D03*
X0069847Y0156759D03*
D24*
X0069872Y0156709D03*
X0069872Y0101409D03*
D25*
X0069847Y0101459D03*
X0088547Y0101459D03*
X0088547Y0156659D03*
X0069847Y0156659D03*
D26*
X0069872Y0156609D03*
X0069872Y0156559D03*
X0088522Y0156559D03*
X0088522Y0156609D03*
X0088522Y0101559D03*
X0088522Y0101509D03*
X0069872Y0101509D03*
X0069872Y0101559D03*
D27*
X0069922Y0101659D03*
X0088522Y0101659D03*
X0088522Y0101609D03*
X0088522Y0156459D03*
X0088522Y0156509D03*
X0069922Y0156459D03*
D28*
X0069897Y0156509D03*
X0069897Y0101609D03*
D29*
X0069897Y0101709D03*
X0088497Y0101709D03*
X0088497Y0101759D03*
X0088497Y0156359D03*
X0088497Y0156409D03*
X0069897Y0156409D03*
D30*
X0069922Y0156359D03*
X0069922Y0156309D03*
X0069972Y0156209D03*
X0088472Y0156309D03*
X0088472Y0101809D03*
X0069972Y0101909D03*
X0069922Y0101809D03*
X0069922Y0101759D03*
D31*
X0069947Y0101859D03*
X0069997Y0101959D03*
X0088397Y0101959D03*
X0088397Y0102009D03*
X0088447Y0101909D03*
X0088447Y0101859D03*
X0088397Y0156109D03*
X0088397Y0156159D03*
X0088447Y0156209D03*
X0088447Y0156259D03*
X0069997Y0156159D03*
X0069947Y0156259D03*
D32*
X0070022Y0156109D03*
X0070022Y0156059D03*
X0070072Y0156009D03*
X0070072Y0155959D03*
X0070122Y0155909D03*
X0070122Y0155859D03*
X0070172Y0155809D03*
X0070222Y0155709D03*
X0070272Y0155609D03*
X0070322Y0155559D03*
X0070322Y0155509D03*
X0070372Y0155459D03*
X0070422Y0155359D03*
X0070472Y0155259D03*
X0070522Y0155209D03*
X0070572Y0155109D03*
X0070622Y0155009D03*
X0070672Y0154909D03*
X0070722Y0154859D03*
X0070772Y0154759D03*
X0070822Y0154659D03*
X0070872Y0154609D03*
X0070872Y0154559D03*
X0070922Y0154509D03*
X0070972Y0154409D03*
X0071022Y0154309D03*
X0071072Y0154259D03*
X0071122Y0154159D03*
X0071172Y0154059D03*
X0071222Y0153959D03*
X0071272Y0153909D03*
X0071322Y0153809D03*
X0071372Y0153709D03*
X0071422Y0153609D03*
X0071472Y0153559D03*
X0071522Y0153459D03*
X0071572Y0153359D03*
X0071622Y0153309D03*
X0071622Y0153259D03*
X0071672Y0153209D03*
X0071722Y0153109D03*
X0071772Y0153009D03*
X0071822Y0152959D03*
X0071872Y0152859D03*
X0071922Y0152759D03*
X0071972Y0152659D03*
X0072022Y0152609D03*
X0072072Y0152509D03*
X0072122Y0152409D03*
X0072172Y0152309D03*
X0072222Y0152259D03*
X0072272Y0152159D03*
X0072322Y0152059D03*
X0072372Y0152009D03*
X0072372Y0151959D03*
X0072422Y0151909D03*
X0072472Y0151809D03*
X0072522Y0151709D03*
X0072572Y0151659D03*
X0072622Y0151559D03*
X0072672Y0151459D03*
X0072722Y0151359D03*
X0072772Y0151309D03*
X0072822Y0151209D03*
X0072872Y0151109D03*
X0072922Y0151009D03*
X0072972Y0150959D03*
X0073022Y0150859D03*
X0073072Y0150759D03*
X0073122Y0150709D03*
X0073122Y0150659D03*
X0073172Y0150609D03*
X0073222Y0150509D03*
X0073272Y0150409D03*
X0073322Y0150359D03*
X0073372Y0150259D03*
X0073422Y0150159D03*
X0073472Y0150059D03*
X0073522Y0150009D03*
X0073572Y0149909D03*
X0073622Y0149809D03*
X0073672Y0149759D03*
X0084772Y0149809D03*
X0084822Y0149909D03*
X0084872Y0149959D03*
X0084922Y0150059D03*
X0084972Y0150159D03*
X0085022Y0150209D03*
X0085022Y0150259D03*
X0085072Y0150309D03*
X0085122Y0150409D03*
X0085172Y0150509D03*
X0085222Y0150559D03*
X0085272Y0150659D03*
X0085322Y0150759D03*
X0085372Y0150859D03*
X0085422Y0150909D03*
X0085472Y0151009D03*
X0085522Y0151109D03*
X0085572Y0151209D03*
X0085622Y0151259D03*
X0085672Y0151359D03*
X0085722Y0151459D03*
X0085772Y0151509D03*
X0085772Y0151559D03*
X0085822Y0151609D03*
X0085872Y0151709D03*
X0085922Y0151809D03*
X0085972Y0151859D03*
X0086022Y0151959D03*
X0086072Y0152059D03*
X0086122Y0152159D03*
X0086172Y0152209D03*
X0086222Y0152309D03*
X0086272Y0152409D03*
X0086322Y0152509D03*
X0086372Y0152559D03*
X0086422Y0152659D03*
X0086472Y0152759D03*
X0086522Y0152809D03*
X0086522Y0152859D03*
X0086572Y0152909D03*
X0086622Y0153009D03*
X0086672Y0153109D03*
X0086722Y0153159D03*
X0086772Y0153259D03*
X0086822Y0153359D03*
X0086872Y0153459D03*
X0086922Y0153509D03*
X0086972Y0153609D03*
X0087022Y0153709D03*
X0087072Y0153759D03*
X0087072Y0153809D03*
X0087122Y0153859D03*
X0087172Y0153959D03*
X0087222Y0154059D03*
X0087272Y0154109D03*
X0087322Y0154209D03*
X0087372Y0154309D03*
X0087422Y0154409D03*
X0087472Y0154459D03*
X0087522Y0154559D03*
X0087572Y0154659D03*
X0087622Y0154759D03*
X0087672Y0154809D03*
X0087722Y0154909D03*
X0087772Y0155009D03*
X0087822Y0155059D03*
X0087822Y0155109D03*
X0087872Y0155159D03*
X0087922Y0155259D03*
X0087972Y0155359D03*
X0088022Y0155409D03*
X0088072Y0155509D03*
X0088122Y0155609D03*
X0088172Y0155709D03*
X0088222Y0155759D03*
X0088272Y0155859D03*
X0088322Y0155959D03*
X0088372Y0156059D03*
X0084772Y0108309D03*
X0084822Y0108209D03*
X0084872Y0108159D03*
X0084922Y0108059D03*
X0084972Y0107959D03*
X0085022Y0107909D03*
X0085022Y0107859D03*
X0085072Y0107809D03*
X0085122Y0107709D03*
X0085172Y0107609D03*
X0085222Y0107559D03*
X0085272Y0107459D03*
X0085322Y0107359D03*
X0085372Y0107259D03*
X0085422Y0107209D03*
X0085472Y0107109D03*
X0085522Y0107009D03*
X0085572Y0106909D03*
X0085622Y0106859D03*
X0085672Y0106759D03*
X0085722Y0106659D03*
X0085772Y0106609D03*
X0085772Y0106559D03*
X0085822Y0106509D03*
X0085872Y0106409D03*
X0085922Y0106309D03*
X0085972Y0106259D03*
X0086022Y0106159D03*
X0086072Y0106059D03*
X0086122Y0105959D03*
X0086172Y0105909D03*
X0086222Y0105809D03*
X0086272Y0105709D03*
X0086322Y0105609D03*
X0086372Y0105559D03*
X0086422Y0105459D03*
X0086472Y0105359D03*
X0086522Y0105309D03*
X0086522Y0105259D03*
X0086572Y0105209D03*
X0086622Y0105109D03*
X0086672Y0105009D03*
X0086722Y0104959D03*
X0086772Y0104859D03*
X0086822Y0104759D03*
X0086872Y0104659D03*
X0086922Y0104609D03*
X0086972Y0104509D03*
X0087022Y0104409D03*
X0087072Y0104359D03*
X0087072Y0104309D03*
X0087122Y0104259D03*
X0087172Y0104159D03*
X0087222Y0104059D03*
X0087272Y0104009D03*
X0087322Y0103909D03*
X0087372Y0103809D03*
X0087422Y0103709D03*
X0087472Y0103659D03*
X0087522Y0103559D03*
X0087572Y0103459D03*
X0087622Y0103359D03*
X0087672Y0103309D03*
X0087722Y0103209D03*
X0087772Y0103109D03*
X0087822Y0103059D03*
X0087822Y0103009D03*
X0087872Y0102959D03*
X0087922Y0102859D03*
X0087972Y0102759D03*
X0088022Y0102709D03*
X0088072Y0102609D03*
X0088122Y0102509D03*
X0088172Y0102409D03*
X0088222Y0102359D03*
X0088272Y0102259D03*
X0088322Y0102159D03*
X0088372Y0102059D03*
X0073672Y0108359D03*
X0073622Y0108309D03*
X0073572Y0108209D03*
X0073522Y0108109D03*
X0073472Y0108059D03*
X0073422Y0107959D03*
X0073372Y0107859D03*
X0073322Y0107759D03*
X0073272Y0107709D03*
X0073222Y0107609D03*
X0073172Y0107509D03*
X0073122Y0107459D03*
X0073122Y0107409D03*
X0073072Y0107359D03*
X0073022Y0107259D03*
X0072972Y0107159D03*
X0072922Y0107109D03*
X0072872Y0107009D03*
X0072822Y0106909D03*
X0072772Y0106809D03*
X0072722Y0106759D03*
X0072672Y0106659D03*
X0072622Y0106559D03*
X0072572Y0106459D03*
X0072522Y0106409D03*
X0072472Y0106309D03*
X0072422Y0106209D03*
X0072372Y0106159D03*
X0072372Y0106109D03*
X0072322Y0106059D03*
X0072272Y0105959D03*
X0072222Y0105859D03*
X0072172Y0105809D03*
X0072122Y0105709D03*
X0072072Y0105609D03*
X0072022Y0105509D03*
X0071972Y0105459D03*
X0071922Y0105359D03*
X0071872Y0105259D03*
X0071822Y0105159D03*
X0071772Y0105109D03*
X0071722Y0105009D03*
X0071672Y0104909D03*
X0071622Y0104859D03*
X0071622Y0104809D03*
X0071572Y0104759D03*
X0071522Y0104659D03*
X0071472Y0104559D03*
X0071422Y0104509D03*
X0071372Y0104409D03*
X0071322Y0104309D03*
X0071272Y0104209D03*
X0071222Y0104159D03*
X0071172Y0104059D03*
X0071122Y0103959D03*
X0071072Y0103859D03*
X0071022Y0103809D03*
X0070972Y0103709D03*
X0070922Y0103609D03*
X0070872Y0103559D03*
X0070872Y0103509D03*
X0070822Y0103459D03*
X0070772Y0103359D03*
X0070722Y0103259D03*
X0070672Y0103209D03*
X0070622Y0103109D03*
X0070572Y0103009D03*
X0070522Y0102909D03*
X0070472Y0102859D03*
X0070422Y0102759D03*
X0070372Y0102659D03*
X0070322Y0102609D03*
X0070322Y0102559D03*
X0070272Y0102509D03*
X0070222Y0102409D03*
X0070172Y0102309D03*
X0070122Y0102259D03*
X0070122Y0102209D03*
X0070072Y0102159D03*
X0070072Y0102109D03*
X0070022Y0102059D03*
X0070022Y0102009D03*
D33*
X0070197Y0102359D03*
X0070247Y0102459D03*
X0070397Y0102709D03*
X0070447Y0102809D03*
X0070547Y0102959D03*
X0070597Y0103059D03*
X0070647Y0103159D03*
X0070747Y0103309D03*
X0070797Y0103409D03*
X0070947Y0103659D03*
X0070997Y0103759D03*
X0071097Y0103909D03*
X0071147Y0104009D03*
X0071197Y0104109D03*
X0071297Y0104259D03*
X0071347Y0104359D03*
X0071397Y0104459D03*
X0071497Y0104609D03*
X0071547Y0104709D03*
X0071697Y0104959D03*
X0071747Y0105059D03*
X0071847Y0105209D03*
X0071897Y0105309D03*
X0071947Y0105409D03*
X0072047Y0105559D03*
X0072097Y0105659D03*
X0072147Y0105759D03*
X0072247Y0105909D03*
X0072297Y0106009D03*
X0072447Y0106259D03*
X0072497Y0106359D03*
X0072597Y0106509D03*
X0072647Y0106609D03*
X0072697Y0106709D03*
X0072797Y0106859D03*
X0072847Y0106959D03*
X0072897Y0107059D03*
X0072997Y0107209D03*
X0073047Y0107309D03*
X0073197Y0107559D03*
X0073247Y0107659D03*
X0073347Y0107809D03*
X0073397Y0107909D03*
X0073447Y0108009D03*
X0073547Y0108159D03*
X0073597Y0108259D03*
X0084747Y0108359D03*
X0084797Y0108259D03*
X0084897Y0108109D03*
X0084947Y0108009D03*
X0085097Y0107759D03*
X0085147Y0107659D03*
X0085247Y0107509D03*
X0085297Y0107409D03*
X0085347Y0107309D03*
X0085447Y0107159D03*
X0085497Y0107059D03*
X0085547Y0106959D03*
X0085647Y0106809D03*
X0085697Y0106709D03*
X0085847Y0106459D03*
X0085897Y0106359D03*
X0085997Y0106209D03*
X0086047Y0106109D03*
X0086097Y0106009D03*
X0086197Y0105859D03*
X0086247Y0105759D03*
X0086297Y0105659D03*
X0086397Y0105509D03*
X0086447Y0105409D03*
X0086597Y0105159D03*
X0086647Y0105059D03*
X0086747Y0104909D03*
X0086797Y0104809D03*
X0086847Y0104709D03*
X0086947Y0104559D03*
X0086997Y0104459D03*
X0087147Y0104209D03*
X0087197Y0104109D03*
X0087297Y0103959D03*
X0087347Y0103859D03*
X0087397Y0103759D03*
X0087497Y0103609D03*
X0087547Y0103509D03*
X0087597Y0103409D03*
X0087697Y0103259D03*
X0087747Y0103159D03*
X0087897Y0102909D03*
X0087947Y0102809D03*
X0088047Y0102659D03*
X0088097Y0102559D03*
X0088147Y0102459D03*
X0088247Y0102309D03*
X0088297Y0102209D03*
X0088347Y0102109D03*
X0084747Y0149759D03*
X0084797Y0149859D03*
X0084897Y0150009D03*
X0084947Y0150109D03*
X0085097Y0150359D03*
X0085147Y0150459D03*
X0085247Y0150609D03*
X0085297Y0150709D03*
X0085347Y0150809D03*
X0085447Y0150959D03*
X0085497Y0151059D03*
X0085547Y0151159D03*
X0085647Y0151309D03*
X0085697Y0151409D03*
X0085847Y0151659D03*
X0085897Y0151759D03*
X0085997Y0151909D03*
X0086047Y0152009D03*
X0086097Y0152109D03*
X0086197Y0152259D03*
X0086247Y0152359D03*
X0086297Y0152459D03*
X0086397Y0152609D03*
X0086447Y0152709D03*
X0086597Y0152959D03*
X0086647Y0153059D03*
X0086747Y0153209D03*
X0086797Y0153309D03*
X0086847Y0153409D03*
X0086947Y0153559D03*
X0086997Y0153659D03*
X0087147Y0153909D03*
X0087197Y0154009D03*
X0087297Y0154159D03*
X0087347Y0154259D03*
X0087397Y0154359D03*
X0087497Y0154509D03*
X0087547Y0154609D03*
X0087597Y0154709D03*
X0087697Y0154859D03*
X0087747Y0154959D03*
X0087897Y0155209D03*
X0087947Y0155309D03*
X0088047Y0155459D03*
X0088097Y0155559D03*
X0088147Y0155659D03*
X0088247Y0155809D03*
X0088297Y0155909D03*
X0088347Y0156009D03*
X0073597Y0149859D03*
X0073547Y0149959D03*
X0073447Y0150109D03*
X0073397Y0150209D03*
X0073347Y0150309D03*
X0073247Y0150459D03*
X0073197Y0150559D03*
X0073047Y0150809D03*
X0072997Y0150909D03*
X0072897Y0151059D03*
X0072847Y0151159D03*
X0072797Y0151259D03*
X0072697Y0151409D03*
X0072647Y0151509D03*
X0072597Y0151609D03*
X0072497Y0151759D03*
X0072447Y0151859D03*
X0072297Y0152109D03*
X0072247Y0152209D03*
X0072147Y0152359D03*
X0072097Y0152459D03*
X0072047Y0152559D03*
X0071947Y0152709D03*
X0071897Y0152809D03*
X0071847Y0152909D03*
X0071747Y0153059D03*
X0071697Y0153159D03*
X0071547Y0153409D03*
X0071497Y0153509D03*
X0071397Y0153659D03*
X0071347Y0153759D03*
X0071297Y0153859D03*
X0071197Y0154009D03*
X0071147Y0154109D03*
X0071097Y0154209D03*
X0070997Y0154359D03*
X0070947Y0154459D03*
X0070797Y0154709D03*
X0070747Y0154809D03*
X0070647Y0154959D03*
X0070597Y0155059D03*
X0070547Y0155159D03*
X0070447Y0155309D03*
X0070397Y0155409D03*
X0070247Y0155659D03*
X0070197Y0155759D03*
D34*
X0079197Y0149709D03*
X0079197Y0147959D03*
X0079197Y0132359D03*
X0079197Y0125759D03*
X0079197Y0110159D03*
X0079197Y0108409D03*
X0098497Y0121259D03*
X0098497Y0136859D03*
D35*
X0098472Y0136909D03*
X0098472Y0121209D03*
X0079222Y0125809D03*
X0079222Y0132309D03*
X0079222Y0148009D03*
X0079222Y0149659D03*
X0079222Y0110109D03*
X0079222Y0108459D03*
D36*
X0079197Y0108509D03*
X0079197Y0110059D03*
X0079197Y0125859D03*
X0079197Y0132259D03*
X0079197Y0148059D03*
X0079197Y0149609D03*
X0098497Y0136959D03*
X0098497Y0121159D03*
D37*
X0098497Y0121109D03*
X0098497Y0121059D03*
X0098497Y0137009D03*
X0098497Y0137059D03*
X0079197Y0132159D03*
X0079197Y0125959D03*
X0079197Y0110009D03*
X0079197Y0109959D03*
X0079197Y0108609D03*
X0079197Y0108559D03*
X0079197Y0148109D03*
X0079197Y0148159D03*
X0079197Y0149509D03*
X0079197Y0149559D03*
D38*
X0079197Y0149459D03*
X0079197Y0148209D03*
X0079197Y0132109D03*
X0079197Y0132059D03*
X0079197Y0126059D03*
X0079197Y0126009D03*
X0079197Y0109909D03*
X0079197Y0108659D03*
X0098497Y0120959D03*
X0098497Y0121009D03*
X0098497Y0137109D03*
X0098497Y0137159D03*
D39*
X0079222Y0148259D03*
X0079222Y0149409D03*
X0079222Y0109859D03*
X0079222Y0108709D03*
D40*
X0079197Y0108759D03*
X0079197Y0109809D03*
X0079197Y0126109D03*
X0079197Y0132009D03*
X0079197Y0148309D03*
X0079197Y0149359D03*
X0098497Y0137209D03*
X0098497Y0120909D03*
D41*
X0098472Y0120859D03*
X0098472Y0137259D03*
X0079222Y0131959D03*
X0079222Y0126159D03*
X0079222Y0109759D03*
X0079222Y0108809D03*
X0079222Y0148359D03*
X0079222Y0149309D03*
D42*
X0079197Y0149259D03*
X0079197Y0148409D03*
X0079197Y0131909D03*
X0079197Y0126209D03*
X0079197Y0109709D03*
X0079197Y0108859D03*
X0098497Y0120809D03*
X0098497Y0137309D03*
D43*
X0098497Y0137359D03*
X0098497Y0137409D03*
X0098497Y0120759D03*
X0098497Y0120709D03*
X0079197Y0126259D03*
X0079197Y0126309D03*
X0079197Y0131809D03*
X0079197Y0131859D03*
X0079197Y0148459D03*
X0079197Y0148509D03*
X0079197Y0149159D03*
X0079197Y0149209D03*
X0079197Y0109659D03*
X0079197Y0109609D03*
X0079197Y0108959D03*
X0079197Y0108909D03*
D44*
X0079197Y0109009D03*
X0079197Y0109559D03*
X0079197Y0126359D03*
X0079197Y0126409D03*
X0079197Y0131709D03*
X0079197Y0131759D03*
X0079197Y0148559D03*
X0079197Y0149109D03*
X0098497Y0137459D03*
X0098497Y0120659D03*
D45*
X0098472Y0120609D03*
X0098472Y0137509D03*
X0079222Y0148609D03*
X0079222Y0149059D03*
X0079222Y0109509D03*
X0079222Y0109059D03*
D46*
X0079197Y0109109D03*
X0079197Y0109459D03*
X0079197Y0126459D03*
X0079197Y0131659D03*
X0079197Y0148659D03*
X0079197Y0149009D03*
X0098497Y0137559D03*
X0098497Y0120559D03*
D47*
X0098497Y0120459D03*
X0098497Y0137659D03*
X0079197Y0131559D03*
X0079197Y0126559D03*
X0079197Y0109409D03*
X0079197Y0109359D03*
X0079197Y0109209D03*
X0079197Y0109159D03*
X0079197Y0148709D03*
X0079197Y0148759D03*
X0079197Y0148909D03*
X0079197Y0148959D03*
D48*
X0079197Y0148859D03*
X0079197Y0148809D03*
X0079197Y0131509D03*
X0079197Y0131459D03*
X0079197Y0126659D03*
X0079197Y0126609D03*
X0079197Y0109309D03*
X0079197Y0109259D03*
X0098497Y0120359D03*
X0098497Y0120409D03*
X0098497Y0137709D03*
X0098497Y0137759D03*
D49*
X0098497Y0136809D03*
X0098497Y0136759D03*
X0098497Y0121359D03*
X0098497Y0121309D03*
X0079197Y0125659D03*
X0079197Y0125709D03*
X0079197Y0132409D03*
X0079197Y0132459D03*
X0079197Y0147859D03*
X0079197Y0147909D03*
X0079197Y0110259D03*
X0079197Y0110209D03*
D50*
X0079197Y0110309D03*
X0079197Y0110359D03*
X0079197Y0125609D03*
X0079197Y0132509D03*
X0079197Y0147759D03*
X0079197Y0147809D03*
X0098497Y0136709D03*
X0098497Y0121409D03*
D51*
X0098497Y0121509D03*
X0098497Y0136609D03*
X0079197Y0132609D03*
X0079197Y0125509D03*
X0079197Y0110409D03*
X0079197Y0147709D03*
D52*
X0079222Y0147659D03*
X0098472Y0136559D03*
X0098472Y0121559D03*
X0079222Y0110459D03*
D53*
X0079197Y0110509D03*
X0079197Y0125409D03*
X0079197Y0125459D03*
X0079197Y0132659D03*
X0079197Y0132709D03*
X0079197Y0147609D03*
X0098497Y0136509D03*
X0098497Y0121609D03*
D54*
X0098497Y0121659D03*
X0098497Y0121709D03*
X0098497Y0136409D03*
X0098497Y0136459D03*
X0079197Y0132809D03*
X0079197Y0132759D03*
X0079197Y0125359D03*
X0079197Y0125309D03*
X0079197Y0110609D03*
X0079197Y0110559D03*
X0079197Y0147509D03*
X0079197Y0147559D03*
D55*
X0079197Y0147459D03*
X0079197Y0147409D03*
X0079197Y0132859D03*
X0079197Y0125259D03*
X0079197Y0110709D03*
X0079197Y0110659D03*
X0098497Y0121759D03*
X0098497Y0136359D03*
D56*
X0098497Y0136259D03*
X0098497Y0121859D03*
X0079197Y0125159D03*
X0079197Y0132959D03*
X0079197Y0147359D03*
X0079197Y0110759D03*
D57*
X0079222Y0110809D03*
X0098472Y0121909D03*
X0098472Y0136209D03*
X0079222Y0147309D03*
D58*
X0079197Y0147259D03*
X0079197Y0133059D03*
X0079197Y0133009D03*
X0079197Y0125109D03*
X0079197Y0125059D03*
X0079197Y0110859D03*
X0098497Y0121959D03*
X0098497Y0136159D03*
D59*
X0098497Y0136109D03*
X0098497Y0136059D03*
X0098497Y0122059D03*
X0098497Y0122009D03*
X0079197Y0124959D03*
X0079197Y0125009D03*
X0079197Y0133109D03*
X0079197Y0133159D03*
X0079197Y0147159D03*
X0079197Y0147209D03*
X0079197Y0110959D03*
X0079197Y0110909D03*
D60*
X0079197Y0111009D03*
X0079197Y0124909D03*
X0079197Y0133209D03*
X0079197Y0147109D03*
X0098497Y0136009D03*
X0098497Y0122109D03*
D61*
X0098472Y0122159D03*
X0098472Y0135959D03*
X0079222Y0133259D03*
X0079222Y0124859D03*
X0079222Y0111059D03*
X0079222Y0147059D03*
D62*
X0079197Y0147009D03*
X0079197Y0133309D03*
X0079197Y0124809D03*
X0079197Y0111109D03*
X0098497Y0122209D03*
X0098497Y0135909D03*
D63*
X0079222Y0146959D03*
X0079222Y0111159D03*
D64*
X0079197Y0111209D03*
X0079197Y0124709D03*
X0079197Y0124759D03*
X0079197Y0133359D03*
X0079197Y0133409D03*
X0079197Y0146909D03*
X0098497Y0135859D03*
X0098497Y0135809D03*
X0098497Y0122309D03*
X0098497Y0122259D03*
D65*
X0098497Y0122359D03*
X0098497Y0122409D03*
X0098497Y0135709D03*
X0098497Y0135759D03*
X0079197Y0133459D03*
X0079197Y0124659D03*
X0079197Y0111309D03*
X0079197Y0111259D03*
X0079197Y0146809D03*
X0079197Y0146859D03*
D66*
X0079197Y0146759D03*
X0079197Y0133559D03*
X0079197Y0124559D03*
X0079197Y0111359D03*
X0098497Y0122459D03*
X0098497Y0135659D03*
D67*
X0098472Y0135609D03*
X0098472Y0122509D03*
X0079222Y0124509D03*
X0079222Y0133609D03*
X0079222Y0146709D03*
X0079222Y0111409D03*
D68*
X0079197Y0111459D03*
X0079197Y0124459D03*
X0079197Y0133659D03*
X0079197Y0146659D03*
X0098497Y0135559D03*
X0098497Y0122559D03*
D69*
X0098497Y0122609D03*
X0098497Y0122659D03*
X0098497Y0135459D03*
X0098497Y0135509D03*
X0079197Y0133759D03*
X0079197Y0133709D03*
X0079197Y0124409D03*
X0079197Y0124359D03*
X0079197Y0111559D03*
X0079197Y0111509D03*
X0079197Y0146559D03*
X0079197Y0146609D03*
D70*
X0079197Y0146509D03*
X0079197Y0146459D03*
X0079197Y0133809D03*
X0079197Y0124309D03*
X0079197Y0111659D03*
X0079197Y0111609D03*
X0098497Y0122709D03*
X0098497Y0135409D03*
D71*
X0098497Y0135309D03*
X0098497Y0122809D03*
X0079197Y0124209D03*
X0079197Y0133909D03*
X0079197Y0146409D03*
X0079197Y0111709D03*
D72*
X0079222Y0111759D03*
X0098472Y0122859D03*
X0098472Y0135259D03*
X0079222Y0146359D03*
D73*
X0079197Y0146309D03*
X0079197Y0134009D03*
X0079197Y0133959D03*
X0079197Y0124159D03*
X0079197Y0124109D03*
X0079197Y0111809D03*
X0098497Y0122909D03*
X0098497Y0135209D03*
D74*
X0098497Y0135159D03*
X0098497Y0135109D03*
X0098497Y0123009D03*
X0098497Y0122959D03*
X0079197Y0124009D03*
X0079197Y0124059D03*
X0079197Y0134059D03*
X0079197Y0134109D03*
X0079197Y0146209D03*
X0079197Y0146259D03*
X0079197Y0111909D03*
X0079197Y0111859D03*
D75*
X0079197Y0111959D03*
X0079197Y0123959D03*
X0079197Y0134159D03*
X0079197Y0146159D03*
X0098497Y0135059D03*
X0098497Y0123059D03*
D76*
X0098472Y0123109D03*
X0098472Y0135009D03*
X0079222Y0134209D03*
X0079222Y0123909D03*
X0079222Y0112009D03*
X0079222Y0146109D03*
D77*
X0079197Y0146059D03*
X0079197Y0134259D03*
X0079197Y0123859D03*
X0079197Y0112059D03*
X0098497Y0123159D03*
X0098497Y0134959D03*
D78*
X0079222Y0146009D03*
X0079222Y0112109D03*
D79*
X0079197Y0112159D03*
X0079197Y0123759D03*
X0079197Y0123809D03*
X0079197Y0134309D03*
X0079197Y0134359D03*
X0079197Y0145959D03*
X0098497Y0134909D03*
X0098497Y0134859D03*
X0098497Y0123259D03*
X0098497Y0123209D03*
D80*
X0098497Y0123309D03*
X0098497Y0123359D03*
X0098497Y0134759D03*
X0098497Y0134809D03*
X0079197Y0134409D03*
X0079197Y0123709D03*
X0079197Y0112259D03*
X0079197Y0112209D03*
X0079197Y0145859D03*
X0079197Y0145909D03*
D81*
X0079197Y0145809D03*
X0079197Y0134509D03*
X0079197Y0123609D03*
X0079197Y0112309D03*
X0098497Y0123409D03*
X0098497Y0134709D03*
D82*
X0098472Y0134659D03*
X0098472Y0123459D03*
X0079222Y0123559D03*
X0079222Y0134559D03*
X0079222Y0145759D03*
X0079222Y0112359D03*
D83*
X0079197Y0112409D03*
X0079197Y0123509D03*
X0079197Y0134609D03*
X0079197Y0145709D03*
X0098497Y0134609D03*
X0098497Y0123509D03*
D84*
X0079222Y0112459D03*
X0079222Y0145659D03*
D85*
X0079197Y0145609D03*
X0079197Y0134709D03*
X0079197Y0134659D03*
X0079197Y0123459D03*
X0079197Y0123409D03*
X0079197Y0112509D03*
X0098497Y0123559D03*
X0098497Y0123609D03*
X0098497Y0134509D03*
X0098497Y0134559D03*
D86*
X0098497Y0134459D03*
X0098497Y0134409D03*
X0098497Y0123709D03*
X0098497Y0123659D03*
X0079197Y0123359D03*
X0079197Y0112609D03*
X0079197Y0112559D03*
X0079197Y0134759D03*
X0079197Y0145509D03*
X0079197Y0145559D03*
D87*
X0079197Y0145459D03*
X0079197Y0134859D03*
X0079197Y0123259D03*
X0079197Y0112659D03*
X0098497Y0123759D03*
X0098497Y0134359D03*
D88*
X0098472Y0134309D03*
X0098472Y0123809D03*
X0079222Y0123209D03*
X0079222Y0112709D03*
X0079222Y0134909D03*
X0079222Y0145409D03*
D89*
X0079197Y0145359D03*
X0079197Y0134959D03*
X0079197Y0123159D03*
X0079197Y0112759D03*
X0098497Y0123859D03*
X0098497Y0134259D03*
D90*
X0098497Y0134209D03*
X0098497Y0134159D03*
X0098497Y0123959D03*
X0098497Y0123909D03*
X0079197Y0123109D03*
X0079197Y0123059D03*
X0079197Y0112859D03*
X0079197Y0112809D03*
X0079197Y0135009D03*
X0079197Y0135059D03*
X0079197Y0145259D03*
X0079197Y0145309D03*
D91*
X0079197Y0145209D03*
X0079197Y0145159D03*
X0079197Y0135109D03*
X0079197Y0123009D03*
X0079197Y0112959D03*
X0079197Y0112909D03*
X0098497Y0124009D03*
X0098497Y0134109D03*
D92*
X0098497Y0134009D03*
X0098497Y0124109D03*
X0079197Y0122909D03*
X0079197Y0113009D03*
X0079197Y0135209D03*
X0079197Y0145109D03*
D93*
X0079222Y0145059D03*
X0098472Y0133959D03*
X0098472Y0124159D03*
X0079222Y0113059D03*
D94*
X0079197Y0113109D03*
X0079197Y0122809D03*
X0079197Y0122859D03*
X0079197Y0135259D03*
X0079197Y0135309D03*
X0079197Y0145009D03*
X0098497Y0133909D03*
X0098497Y0124209D03*
D95*
X0098497Y0124259D03*
X0098497Y0124309D03*
X0098497Y0133809D03*
X0098497Y0133859D03*
X0079197Y0135359D03*
X0079197Y0135409D03*
X0079197Y0144909D03*
X0079197Y0144959D03*
X0079197Y0122759D03*
X0079197Y0122709D03*
X0079197Y0113209D03*
X0079197Y0113159D03*
D96*
X0079197Y0113259D03*
X0079197Y0122659D03*
X0079197Y0135459D03*
X0079197Y0144859D03*
X0098497Y0133759D03*
X0098497Y0124359D03*
D97*
X0098472Y0124409D03*
X0098472Y0133709D03*
X0079222Y0135509D03*
X0079222Y0144809D03*
X0079222Y0122609D03*
X0079222Y0113309D03*
D98*
X0079197Y0113359D03*
X0079197Y0122559D03*
X0079197Y0135559D03*
X0079197Y0144759D03*
X0098497Y0133659D03*
X0098497Y0124459D03*
D99*
X0079222Y0113409D03*
X0079222Y0144709D03*
D100*
X0079197Y0144659D03*
X0079197Y0135659D03*
X0079197Y0135609D03*
X0079197Y0122509D03*
X0079197Y0122459D03*
X0079197Y0113459D03*
X0098497Y0124509D03*
X0098497Y0124559D03*
X0098497Y0133559D03*
X0098497Y0133609D03*
D101*
X0098497Y0133509D03*
X0098497Y0133459D03*
X0098497Y0124659D03*
X0098497Y0124609D03*
X0079197Y0122409D03*
X0079197Y0113559D03*
X0079197Y0113509D03*
X0079197Y0135709D03*
X0079197Y0144559D03*
X0079197Y0144609D03*
D102*
X0079197Y0144509D03*
X0079197Y0135809D03*
X0079197Y0122309D03*
X0079197Y0113609D03*
X0098497Y0124709D03*
X0098497Y0133409D03*
D103*
X0098472Y0133359D03*
X0098472Y0124759D03*
X0079222Y0122259D03*
X0079222Y0113659D03*
X0079222Y0135859D03*
X0079222Y0144459D03*
D104*
X0079197Y0144409D03*
X0079197Y0135909D03*
X0079197Y0122209D03*
X0079197Y0113709D03*
X0098497Y0124809D03*
X0098497Y0133309D03*
D105*
X0098497Y0133259D03*
X0098497Y0133209D03*
X0098497Y0124909D03*
X0098497Y0124859D03*
X0079197Y0122159D03*
X0079197Y0122109D03*
X0079197Y0113809D03*
X0079197Y0113759D03*
X0079197Y0135959D03*
X0079197Y0136009D03*
X0079197Y0144309D03*
X0079197Y0144359D03*
D106*
X0079197Y0144259D03*
X0079197Y0144209D03*
X0079197Y0136059D03*
X0079197Y0122059D03*
X0079197Y0113909D03*
X0079197Y0113859D03*
X0098497Y0124959D03*
X0098497Y0133159D03*
D107*
X0098497Y0133059D03*
X0098497Y0125059D03*
X0079197Y0121959D03*
X0079197Y0113959D03*
X0079197Y0136159D03*
X0079197Y0144159D03*
D108*
X0079222Y0144109D03*
X0098472Y0133009D03*
X0098472Y0125109D03*
X0079222Y0114009D03*
D109*
X0079197Y0114059D03*
X0079197Y0121859D03*
X0079197Y0121909D03*
X0079197Y0136209D03*
X0079197Y0136259D03*
X0079197Y0144059D03*
X0098497Y0132959D03*
X0098497Y0125159D03*
D110*
X0098497Y0125209D03*
X0098497Y0125259D03*
X0098497Y0132859D03*
X0098497Y0132909D03*
X0079197Y0136309D03*
X0079197Y0136359D03*
X0079197Y0143959D03*
X0079197Y0144009D03*
X0079197Y0121809D03*
X0079197Y0121759D03*
X0079197Y0114159D03*
X0079197Y0114109D03*
D111*
X0079197Y0114209D03*
X0079197Y0114259D03*
X0079197Y0121709D03*
X0079197Y0136409D03*
X0079197Y0143859D03*
X0079197Y0143909D03*
X0098497Y0132809D03*
X0098497Y0125309D03*
D112*
X0098497Y0125409D03*
X0098497Y0132709D03*
X0079197Y0136509D03*
X0079197Y0143809D03*
X0079197Y0121609D03*
X0079197Y0114309D03*
D113*
X0079222Y0114359D03*
X0098472Y0125459D03*
X0098472Y0132659D03*
X0079222Y0143759D03*
D114*
X0079197Y0143709D03*
X0079197Y0136609D03*
X0079197Y0136559D03*
X0079197Y0121559D03*
X0079197Y0121509D03*
X0079197Y0114409D03*
X0098497Y0125509D03*
X0098497Y0132609D03*
D115*
X0098497Y0132559D03*
X0098497Y0132509D03*
X0098497Y0125609D03*
X0098497Y0125559D03*
X0079197Y0121459D03*
X0079197Y0121409D03*
X0079197Y0114509D03*
X0079197Y0114459D03*
X0079197Y0136659D03*
X0079197Y0136709D03*
X0079197Y0143609D03*
X0079197Y0143659D03*
D116*
X0079197Y0143559D03*
X0079197Y0136759D03*
X0079197Y0121359D03*
X0079197Y0114559D03*
X0098497Y0125659D03*
X0098497Y0132459D03*
D117*
X0098472Y0132409D03*
X0098472Y0125709D03*
X0079222Y0121309D03*
X0079222Y0114609D03*
X0079222Y0136809D03*
X0079222Y0143509D03*
D118*
X0079197Y0143459D03*
X0079197Y0136859D03*
X0079197Y0121259D03*
X0079197Y0114659D03*
X0098497Y0125759D03*
X0098497Y0132359D03*
D119*
X0079222Y0143409D03*
X0079222Y0114709D03*
D120*
X0079197Y0114759D03*
X0079197Y0121159D03*
X0079197Y0121209D03*
X0079197Y0136909D03*
X0079197Y0136959D03*
X0079197Y0143359D03*
X0098497Y0132309D03*
X0098497Y0132259D03*
X0098497Y0125859D03*
X0098497Y0125809D03*
D121*
X0098497Y0125909D03*
X0098497Y0125959D03*
X0098497Y0132159D03*
X0098497Y0132209D03*
X0079197Y0137009D03*
X0079197Y0143259D03*
X0079197Y0143309D03*
X0079197Y0121109D03*
X0079197Y0114859D03*
X0079197Y0114809D03*
D122*
X0079197Y0114909D03*
X0079197Y0121009D03*
X0079197Y0137109D03*
X0079197Y0143209D03*
X0098497Y0132109D03*
X0098497Y0126009D03*
D123*
X0098472Y0126059D03*
X0098472Y0132059D03*
X0079222Y0137159D03*
X0079222Y0143159D03*
X0079222Y0120959D03*
X0079222Y0114959D03*
D124*
X0079197Y0115009D03*
X0079197Y0120909D03*
X0079197Y0137209D03*
X0079197Y0143109D03*
X0098497Y0132009D03*
X0098497Y0126109D03*
D125*
X0098497Y0126159D03*
X0098497Y0126209D03*
X0098497Y0131909D03*
X0098497Y0131959D03*
X0079197Y0137259D03*
X0079197Y0137309D03*
X0079197Y0143009D03*
X0079197Y0143059D03*
X0079197Y0120859D03*
X0079197Y0120809D03*
X0079197Y0115109D03*
X0079197Y0115059D03*
D126*
X0079197Y0115159D03*
X0079197Y0115209D03*
X0079197Y0120759D03*
X0079197Y0137359D03*
X0079197Y0142909D03*
X0079197Y0142959D03*
X0098497Y0131859D03*
X0098497Y0126259D03*
D127*
X0098497Y0126359D03*
X0098497Y0131759D03*
X0079197Y0137459D03*
X0079197Y0142859D03*
X0079197Y0120659D03*
X0079197Y0115259D03*
D128*
X0079222Y0115309D03*
X0098472Y0126409D03*
X0098472Y0131709D03*
X0079222Y0142809D03*
D129*
X0079197Y0142759D03*
X0079197Y0137559D03*
X0079197Y0137509D03*
X0079197Y0120609D03*
X0079197Y0120559D03*
X0079197Y0115359D03*
X0098497Y0126459D03*
X0098497Y0131659D03*
D130*
X0098497Y0131609D03*
X0098497Y0131559D03*
X0098497Y0126559D03*
X0098497Y0126509D03*
X0079197Y0120509D03*
X0079197Y0120459D03*
X0079197Y0115459D03*
X0079197Y0115409D03*
X0079197Y0137609D03*
X0079197Y0137659D03*
X0079197Y0142659D03*
X0079197Y0142709D03*
D131*
X0079197Y0142609D03*
X0079197Y0137709D03*
X0079197Y0120409D03*
X0079197Y0115509D03*
X0098497Y0126609D03*
X0098497Y0131509D03*
D132*
X0098472Y0131459D03*
X0098472Y0126659D03*
X0079222Y0120359D03*
X0079222Y0115559D03*
X0079222Y0137759D03*
X0079222Y0142559D03*
D133*
X0079197Y0142509D03*
X0079197Y0137809D03*
X0079197Y0120309D03*
X0079197Y0115609D03*
X0098497Y0126709D03*
X0098497Y0131409D03*
D134*
X0079222Y0142459D03*
X0079222Y0115659D03*
D135*
X0079197Y0115709D03*
X0079197Y0120209D03*
X0079197Y0120259D03*
X0079197Y0137859D03*
X0079197Y0137909D03*
X0079197Y0142409D03*
X0098497Y0131359D03*
X0098497Y0131309D03*
X0098497Y0126809D03*
X0098497Y0126759D03*
D136*
X0098497Y0126859D03*
X0098497Y0126909D03*
X0098497Y0131209D03*
X0098497Y0131259D03*
X0079197Y0137959D03*
X0079197Y0138009D03*
X0079197Y0142309D03*
X0079197Y0142359D03*
X0079197Y0120159D03*
X0079197Y0120109D03*
X0079197Y0115809D03*
X0079197Y0115759D03*
D137*
X0079197Y0115859D03*
X0079197Y0120059D03*
X0079197Y0138059D03*
X0079197Y0142259D03*
X0098497Y0131159D03*
X0098497Y0126959D03*
D138*
X0098472Y0127009D03*
X0098472Y0131109D03*
X0079222Y0138109D03*
X0079222Y0142209D03*
X0079222Y0120009D03*
X0079222Y0115909D03*
D139*
X0079197Y0115959D03*
X0079197Y0119959D03*
X0079197Y0138159D03*
X0079197Y0142159D03*
X0098497Y0131059D03*
X0098497Y0127059D03*
D140*
X0079222Y0116009D03*
X0079222Y0142109D03*
D141*
X0079197Y0142059D03*
X0079197Y0138259D03*
X0079197Y0138209D03*
X0079197Y0119909D03*
X0079197Y0119859D03*
X0079197Y0116059D03*
X0098497Y0127109D03*
X0098497Y0127159D03*
X0098497Y0130959D03*
X0098497Y0131009D03*
D142*
X0098497Y0130909D03*
X0098497Y0130859D03*
X0098497Y0127259D03*
X0098497Y0127209D03*
X0079197Y0119809D03*
X0079197Y0116159D03*
X0079197Y0116109D03*
X0079197Y0138309D03*
X0079197Y0141959D03*
X0079197Y0142009D03*
D143*
X0079197Y0141909D03*
X0079197Y0138409D03*
X0079197Y0119709D03*
X0079197Y0116209D03*
X0098497Y0127309D03*
X0098497Y0130809D03*
D144*
X0098472Y0130759D03*
X0098472Y0127359D03*
X0079222Y0119659D03*
X0079222Y0116259D03*
X0079222Y0138459D03*
X0079222Y0141859D03*
D145*
X0079197Y0141809D03*
X0079197Y0138509D03*
X0079197Y0119609D03*
X0079197Y0116309D03*
X0098497Y0127409D03*
X0098497Y0130709D03*
D146*
X0098497Y0130659D03*
X0098497Y0130609D03*
X0098497Y0127509D03*
X0098497Y0127459D03*
X0079197Y0119559D03*
X0079197Y0119509D03*
X0079197Y0116409D03*
X0079197Y0116359D03*
X0079197Y0138559D03*
X0079197Y0138609D03*
X0079197Y0141709D03*
X0079197Y0141759D03*
D147*
X0079197Y0141659D03*
X0079197Y0141609D03*
X0079197Y0138659D03*
X0079197Y0119459D03*
X0079197Y0116509D03*
X0079197Y0116459D03*
X0098497Y0127559D03*
X0098497Y0130559D03*
D148*
X0098497Y0130459D03*
X0098497Y0127659D03*
X0079197Y0119359D03*
X0079197Y0116559D03*
X0079197Y0138759D03*
X0079197Y0141559D03*
D149*
X0079222Y0141509D03*
X0098472Y0130409D03*
X0098472Y0127709D03*
X0079222Y0116609D03*
D150*
X0079197Y0116659D03*
X0079197Y0119259D03*
X0079197Y0119309D03*
X0079197Y0138809D03*
X0079197Y0138859D03*
X0079197Y0141459D03*
X0098497Y0130359D03*
X0098497Y0127759D03*
D151*
X0098497Y0127809D03*
X0098497Y0127859D03*
X0098497Y0130259D03*
X0098497Y0130309D03*
X0079197Y0138909D03*
X0079197Y0138959D03*
X0079197Y0141359D03*
X0079197Y0141409D03*
X0079197Y0119209D03*
X0079197Y0119159D03*
X0079197Y0116759D03*
X0079197Y0116709D03*
D152*
X0079197Y0116809D03*
X0079197Y0119109D03*
X0079197Y0139009D03*
X0079197Y0141309D03*
X0098497Y0130209D03*
X0098497Y0127909D03*
D153*
X0098472Y0127959D03*
X0098472Y0130159D03*
X0079222Y0139059D03*
X0079222Y0141259D03*
X0079222Y0119059D03*
X0079222Y0116859D03*
D154*
X0079197Y0116909D03*
X0079197Y0119009D03*
X0079197Y0139109D03*
X0079197Y0141209D03*
X0098497Y0130109D03*
X0098497Y0128009D03*
D155*
X0079222Y0116959D03*
X0079222Y0141159D03*
D156*
X0079197Y0141109D03*
X0079197Y0139209D03*
X0079197Y0139159D03*
X0079197Y0118959D03*
X0079197Y0118909D03*
X0079197Y0117009D03*
X0098497Y0128059D03*
X0098497Y0128109D03*
X0098497Y0130009D03*
X0098497Y0130059D03*
D157*
X0102622Y0129959D03*
X0102622Y0128159D03*
X0075072Y0117059D03*
D158*
X0074972Y0117109D03*
X0102722Y0128209D03*
X0102722Y0129909D03*
D159*
X0102747Y0129859D03*
X0102747Y0128259D03*
X0074947Y0117159D03*
D160*
X0074922Y0117209D03*
X0074922Y0118709D03*
X0102772Y0128309D03*
X0102772Y0129809D03*
D161*
X0102797Y0129759D03*
X0102797Y0128359D03*
X0074897Y0118659D03*
X0074897Y0117259D03*
D162*
X0074897Y0117309D03*
X0074897Y0118609D03*
X0102797Y0128409D03*
X0102797Y0129709D03*
D163*
X0102822Y0129659D03*
X0102822Y0128459D03*
X0074872Y0118559D03*
X0074872Y0117359D03*
D164*
X0074872Y0117409D03*
X0074872Y0118509D03*
X0102822Y0128509D03*
X0102822Y0129609D03*
D165*
X0102847Y0129559D03*
X0102847Y0128559D03*
X0074847Y0117459D03*
D166*
X0074872Y0117509D03*
X0074872Y0118409D03*
X0074872Y0118459D03*
X0102822Y0128609D03*
X0102822Y0129509D03*
D167*
X0102822Y0129459D03*
X0102822Y0129409D03*
X0102822Y0128709D03*
X0102822Y0128659D03*
X0074872Y0118359D03*
X0074872Y0118309D03*
X0074872Y0117609D03*
X0074872Y0117559D03*
D168*
X0074872Y0117659D03*
X0074872Y0117709D03*
X0074872Y0118209D03*
X0074872Y0118259D03*
X0102822Y0128759D03*
X0102822Y0128809D03*
X0102822Y0129309D03*
X0102822Y0129359D03*
D169*
X0102797Y0129259D03*
X0102797Y0128859D03*
X0074897Y0118159D03*
X0074897Y0117809D03*
X0074897Y0117759D03*
D170*
X0074897Y0117859D03*
X0074897Y0118059D03*
X0102797Y0128959D03*
X0102797Y0129159D03*
D171*
X0102772Y0129109D03*
X0102772Y0129059D03*
X0102772Y0129009D03*
X0074922Y0118009D03*
X0074922Y0117959D03*
X0074922Y0117909D03*
D172*
X0074922Y0118109D03*
X0102772Y0128909D03*
X0102772Y0129209D03*
D173*
X0074922Y0118759D03*
D174*
X0074997Y0118809D03*
D175*
X0075047Y0118859D03*
D176*
X0079222Y0119409D03*
X0079222Y0138709D03*
X0098472Y0130509D03*
X0098472Y0127609D03*
D177*
X0098497Y0119509D03*
X0098497Y0138609D03*
X0079197Y0130609D03*
X0079197Y0127509D03*
D178*
X0079222Y0127459D03*
X0079222Y0130659D03*
X0098472Y0138559D03*
X0098472Y0119559D03*
D179*
X0098497Y0119609D03*
X0098497Y0138509D03*
X0079197Y0130709D03*
X0079197Y0127409D03*
D180*
X0079197Y0127359D03*
X0079197Y0127309D03*
X0079197Y0130759D03*
X0079197Y0130809D03*
X0098497Y0138409D03*
X0098497Y0138459D03*
X0098497Y0119709D03*
X0098497Y0119659D03*
D181*
X0098497Y0119759D03*
X0098497Y0119809D03*
X0098497Y0138309D03*
X0098497Y0138359D03*
X0079197Y0130859D03*
X0079197Y0127259D03*
D182*
X0079222Y0119759D03*
X0079222Y0138359D03*
D183*
X0079197Y0130959D03*
X0079197Y0127159D03*
X0098497Y0119859D03*
X0098497Y0138259D03*
D184*
X0098472Y0138209D03*
X0098472Y0119909D03*
X0079222Y0127109D03*
X0079222Y0131009D03*
D185*
X0079197Y0131059D03*
X0079197Y0127059D03*
X0098497Y0119959D03*
X0098497Y0138159D03*
D186*
X0098497Y0138109D03*
X0098497Y0138059D03*
X0098497Y0120059D03*
X0098497Y0120009D03*
X0079197Y0126959D03*
X0079197Y0127009D03*
X0079197Y0131109D03*
X0079197Y0131159D03*
D187*
X0079197Y0131209D03*
X0079197Y0126909D03*
X0098497Y0120159D03*
X0098497Y0120109D03*
X0098497Y0137959D03*
X0098497Y0138009D03*
D188*
X0098497Y0137909D03*
X0098497Y0120209D03*
X0079197Y0126809D03*
X0079197Y0131309D03*
D189*
X0098472Y0137859D03*
X0098472Y0120259D03*
D190*
X0098497Y0120309D03*
X0098497Y0137809D03*
X0079197Y0131409D03*
X0079197Y0131359D03*
X0079197Y0126759D03*
X0079197Y0126709D03*
D191*
X0079222Y0126509D03*
X0079222Y0131609D03*
X0098472Y0137609D03*
X0098472Y0120509D03*
D192*
X0098472Y0126309D03*
X0098472Y0131809D03*
X0079222Y0137409D03*
X0079222Y0120709D03*
D193*
X0079222Y0121059D03*
X0079222Y0137059D03*
D194*
X0079222Y0132559D03*
X0079222Y0125559D03*
X0098472Y0121459D03*
X0098472Y0136659D03*
D195*
X0098472Y0132759D03*
X0098472Y0125359D03*
X0079222Y0121659D03*
X0079222Y0136459D03*
D196*
X0079222Y0132909D03*
X0079222Y0125209D03*
X0098472Y0121809D03*
X0098472Y0136309D03*
D197*
X0098472Y0133109D03*
X0098472Y0125009D03*
X0079222Y0122009D03*
X0079222Y0136109D03*
D198*
X0079222Y0135759D03*
X0079222Y0122359D03*
D199*
X0079222Y0124259D03*
X0079222Y0133859D03*
X0098472Y0135359D03*
X0098472Y0122759D03*
D200*
X0098472Y0124059D03*
X0098472Y0134059D03*
X0079222Y0135159D03*
X0079222Y0122959D03*
D201*
X0079222Y0123309D03*
X0079222Y0134809D03*
D202*
X0079222Y0134459D03*
X0079222Y0123659D03*
D203*
X0079222Y0124609D03*
X0079222Y0133509D03*
D204*
X0079222Y0132209D03*
X0079222Y0125909D03*
D205*
X0079222Y0126859D03*
X0079222Y0131259D03*
D206*
X0079222Y0130909D03*
X0079222Y0127209D03*
D207*
X0079197Y0139259D03*
X0079197Y0141009D03*
X0079197Y0141059D03*
D208*
X0079222Y0139309D03*
D209*
X0079197Y0139359D03*
X0079197Y0140959D03*
D210*
X0079222Y0140909D03*
X0079222Y0139409D03*
D211*
X0079197Y0139459D03*
X0079197Y0140859D03*
D212*
X0079197Y0140809D03*
X0079197Y0140759D03*
X0079197Y0139559D03*
X0079197Y0139509D03*
D213*
X0079197Y0139609D03*
X0079197Y0140659D03*
X0079197Y0140709D03*
D214*
X0079222Y0139659D03*
D215*
X0079197Y0139709D03*
X0079197Y0140609D03*
D216*
X0079222Y0140559D03*
X0079222Y0139759D03*
D217*
X0079197Y0139809D03*
X0079197Y0140509D03*
D218*
X0079197Y0140459D03*
X0079197Y0140409D03*
X0079197Y0139909D03*
X0079197Y0139859D03*
D219*
X0079197Y0139959D03*
X0079197Y0140309D03*
X0079197Y0140359D03*
D220*
X0079222Y0140009D03*
D221*
X0079197Y0140059D03*
X0079197Y0140259D03*
D222*
X0079197Y0140159D03*
X0079197Y0140109D03*
D223*
X0079222Y0140209D03*
M02*
