G75*
%MOIN*%
%OFA0B0*%
%FSLAX25Y25*%
%IPPOS*%
%LPD*%
%AMOC8*
5,1,8,0,0,1.08239X$1,22.5*
%
%ADD10C,0.00000*%
%ADD11C,0.07400*%
%ADD12C,0.04000*%
%ADD13R,0.05512X0.04331*%
%ADD14R,0.04724X0.04724*%
%ADD15R,0.03000X0.06000*%
%ADD16R,0.02200X0.05000*%
%ADD17R,0.05000X0.02200*%
%ADD18R,0.07874X0.09449*%
%ADD19R,0.05906X0.05118*%
%ADD20C,0.01000*%
%ADD21C,0.03569*%
D10*
X0001500Y0009374D02*
X0001500Y0174728D01*
X0001502Y0174918D01*
X0001509Y0175108D01*
X0001521Y0175298D01*
X0001537Y0175488D01*
X0001557Y0175677D01*
X0001583Y0175866D01*
X0001612Y0176054D01*
X0001647Y0176241D01*
X0001686Y0176427D01*
X0001729Y0176612D01*
X0001777Y0176797D01*
X0001829Y0176980D01*
X0001885Y0177161D01*
X0001946Y0177341D01*
X0002012Y0177520D01*
X0002081Y0177697D01*
X0002155Y0177873D01*
X0002233Y0178046D01*
X0002316Y0178218D01*
X0002402Y0178387D01*
X0002492Y0178555D01*
X0002587Y0178720D01*
X0002685Y0178883D01*
X0002788Y0179043D01*
X0002894Y0179201D01*
X0003004Y0179356D01*
X0003117Y0179509D01*
X0003235Y0179659D01*
X0003356Y0179805D01*
X0003480Y0179949D01*
X0003608Y0180090D01*
X0003739Y0180228D01*
X0003874Y0180363D01*
X0004012Y0180494D01*
X0004153Y0180622D01*
X0004297Y0180746D01*
X0004443Y0180867D01*
X0004593Y0180985D01*
X0004746Y0181098D01*
X0004901Y0181208D01*
X0005059Y0181314D01*
X0005219Y0181417D01*
X0005382Y0181515D01*
X0005547Y0181610D01*
X0005715Y0181700D01*
X0005884Y0181786D01*
X0006056Y0181869D01*
X0006229Y0181947D01*
X0006405Y0182021D01*
X0006582Y0182090D01*
X0006761Y0182156D01*
X0006941Y0182217D01*
X0007122Y0182273D01*
X0007305Y0182325D01*
X0007490Y0182373D01*
X0007675Y0182416D01*
X0007861Y0182455D01*
X0008048Y0182490D01*
X0008236Y0182519D01*
X0008425Y0182545D01*
X0008614Y0182565D01*
X0008804Y0182581D01*
X0008994Y0182593D01*
X0009184Y0182600D01*
X0009374Y0182602D01*
X0131421Y0182602D01*
X0131611Y0182600D01*
X0131801Y0182593D01*
X0131991Y0182581D01*
X0132181Y0182565D01*
X0132370Y0182545D01*
X0132559Y0182519D01*
X0132747Y0182490D01*
X0132934Y0182455D01*
X0133120Y0182416D01*
X0133305Y0182373D01*
X0133490Y0182325D01*
X0133673Y0182273D01*
X0133854Y0182217D01*
X0134034Y0182156D01*
X0134213Y0182090D01*
X0134390Y0182021D01*
X0134566Y0181947D01*
X0134739Y0181869D01*
X0134911Y0181786D01*
X0135080Y0181700D01*
X0135248Y0181610D01*
X0135413Y0181515D01*
X0135576Y0181417D01*
X0135736Y0181314D01*
X0135894Y0181208D01*
X0136049Y0181098D01*
X0136202Y0180985D01*
X0136352Y0180867D01*
X0136498Y0180746D01*
X0136642Y0180622D01*
X0136783Y0180494D01*
X0136921Y0180363D01*
X0137056Y0180228D01*
X0137187Y0180090D01*
X0137315Y0179949D01*
X0137439Y0179805D01*
X0137560Y0179659D01*
X0137678Y0179509D01*
X0137791Y0179356D01*
X0137901Y0179201D01*
X0138007Y0179043D01*
X0138110Y0178883D01*
X0138208Y0178720D01*
X0138303Y0178555D01*
X0138393Y0178387D01*
X0138479Y0178218D01*
X0138562Y0178046D01*
X0138640Y0177873D01*
X0138714Y0177697D01*
X0138783Y0177520D01*
X0138849Y0177341D01*
X0138910Y0177161D01*
X0138966Y0176980D01*
X0139018Y0176797D01*
X0139066Y0176612D01*
X0139109Y0176427D01*
X0139148Y0176241D01*
X0139183Y0176054D01*
X0139212Y0175866D01*
X0139238Y0175677D01*
X0139258Y0175488D01*
X0139274Y0175298D01*
X0139286Y0175108D01*
X0139293Y0174918D01*
X0139295Y0174728D01*
X0139295Y0009374D01*
X0139293Y0009184D01*
X0139286Y0008994D01*
X0139274Y0008804D01*
X0139258Y0008614D01*
X0139238Y0008425D01*
X0139212Y0008236D01*
X0139183Y0008048D01*
X0139148Y0007861D01*
X0139109Y0007675D01*
X0139066Y0007490D01*
X0139018Y0007305D01*
X0138966Y0007122D01*
X0138910Y0006941D01*
X0138849Y0006761D01*
X0138783Y0006582D01*
X0138714Y0006405D01*
X0138640Y0006229D01*
X0138562Y0006056D01*
X0138479Y0005884D01*
X0138393Y0005715D01*
X0138303Y0005547D01*
X0138208Y0005382D01*
X0138110Y0005219D01*
X0138007Y0005059D01*
X0137901Y0004901D01*
X0137791Y0004746D01*
X0137678Y0004593D01*
X0137560Y0004443D01*
X0137439Y0004297D01*
X0137315Y0004153D01*
X0137187Y0004012D01*
X0137056Y0003874D01*
X0136921Y0003739D01*
X0136783Y0003608D01*
X0136642Y0003480D01*
X0136498Y0003356D01*
X0136352Y0003235D01*
X0136202Y0003117D01*
X0136049Y0003004D01*
X0135894Y0002894D01*
X0135736Y0002788D01*
X0135576Y0002685D01*
X0135413Y0002587D01*
X0135248Y0002492D01*
X0135080Y0002402D01*
X0134911Y0002316D01*
X0134739Y0002233D01*
X0134566Y0002155D01*
X0134390Y0002081D01*
X0134213Y0002012D01*
X0134034Y0001946D01*
X0133854Y0001885D01*
X0133673Y0001829D01*
X0133490Y0001777D01*
X0133305Y0001729D01*
X0133120Y0001686D01*
X0132934Y0001647D01*
X0132747Y0001612D01*
X0132559Y0001583D01*
X0132370Y0001557D01*
X0132181Y0001537D01*
X0131991Y0001521D01*
X0131801Y0001509D01*
X0131611Y0001502D01*
X0131421Y0001500D01*
X0009374Y0001500D01*
X0009184Y0001502D01*
X0008994Y0001509D01*
X0008804Y0001521D01*
X0008614Y0001537D01*
X0008425Y0001557D01*
X0008236Y0001583D01*
X0008048Y0001612D01*
X0007861Y0001647D01*
X0007675Y0001686D01*
X0007490Y0001729D01*
X0007305Y0001777D01*
X0007122Y0001829D01*
X0006941Y0001885D01*
X0006761Y0001946D01*
X0006582Y0002012D01*
X0006405Y0002081D01*
X0006229Y0002155D01*
X0006056Y0002233D01*
X0005884Y0002316D01*
X0005715Y0002402D01*
X0005547Y0002492D01*
X0005382Y0002587D01*
X0005219Y0002685D01*
X0005059Y0002788D01*
X0004901Y0002894D01*
X0004746Y0003004D01*
X0004593Y0003117D01*
X0004443Y0003235D01*
X0004297Y0003356D01*
X0004153Y0003480D01*
X0004012Y0003608D01*
X0003874Y0003739D01*
X0003739Y0003874D01*
X0003608Y0004012D01*
X0003480Y0004153D01*
X0003356Y0004297D01*
X0003235Y0004443D01*
X0003117Y0004593D01*
X0003004Y0004746D01*
X0002894Y0004901D01*
X0002788Y0005059D01*
X0002685Y0005219D01*
X0002587Y0005382D01*
X0002492Y0005547D01*
X0002402Y0005715D01*
X0002316Y0005884D01*
X0002233Y0006056D01*
X0002155Y0006229D01*
X0002081Y0006405D01*
X0002012Y0006582D01*
X0001946Y0006761D01*
X0001885Y0006941D01*
X0001829Y0007122D01*
X0001777Y0007305D01*
X0001729Y0007490D01*
X0001686Y0007675D01*
X0001647Y0007861D01*
X0001612Y0008048D01*
X0001583Y0008236D01*
X0001557Y0008425D01*
X0001537Y0008614D01*
X0001521Y0008804D01*
X0001509Y0008994D01*
X0001502Y0009184D01*
X0001500Y0009374D01*
X0007441Y0016953D02*
X0007443Y0017114D01*
X0007449Y0017274D01*
X0007459Y0017435D01*
X0007473Y0017595D01*
X0007491Y0017755D01*
X0007512Y0017914D01*
X0007538Y0018073D01*
X0007568Y0018231D01*
X0007601Y0018388D01*
X0007639Y0018545D01*
X0007680Y0018700D01*
X0007725Y0018854D01*
X0007774Y0019007D01*
X0007827Y0019159D01*
X0007883Y0019310D01*
X0007944Y0019459D01*
X0008007Y0019607D01*
X0008075Y0019753D01*
X0008146Y0019897D01*
X0008220Y0020039D01*
X0008298Y0020180D01*
X0008380Y0020318D01*
X0008465Y0020455D01*
X0008553Y0020589D01*
X0008645Y0020721D01*
X0008740Y0020851D01*
X0008838Y0020979D01*
X0008939Y0021104D01*
X0009043Y0021226D01*
X0009150Y0021346D01*
X0009260Y0021463D01*
X0009373Y0021578D01*
X0009489Y0021689D01*
X0009608Y0021798D01*
X0009729Y0021903D01*
X0009853Y0022006D01*
X0009979Y0022106D01*
X0010107Y0022202D01*
X0010238Y0022295D01*
X0010372Y0022385D01*
X0010507Y0022472D01*
X0010645Y0022555D01*
X0010784Y0022635D01*
X0010926Y0022711D01*
X0011069Y0022784D01*
X0011214Y0022853D01*
X0011361Y0022919D01*
X0011509Y0022981D01*
X0011659Y0023039D01*
X0011810Y0023094D01*
X0011963Y0023145D01*
X0012117Y0023192D01*
X0012272Y0023235D01*
X0012428Y0023274D01*
X0012584Y0023310D01*
X0012742Y0023341D01*
X0012900Y0023369D01*
X0013059Y0023393D01*
X0013219Y0023413D01*
X0013379Y0023429D01*
X0013539Y0023441D01*
X0013700Y0023449D01*
X0013861Y0023453D01*
X0014021Y0023453D01*
X0014182Y0023449D01*
X0014343Y0023441D01*
X0014503Y0023429D01*
X0014663Y0023413D01*
X0014823Y0023393D01*
X0014982Y0023369D01*
X0015140Y0023341D01*
X0015298Y0023310D01*
X0015454Y0023274D01*
X0015610Y0023235D01*
X0015765Y0023192D01*
X0015919Y0023145D01*
X0016072Y0023094D01*
X0016223Y0023039D01*
X0016373Y0022981D01*
X0016521Y0022919D01*
X0016668Y0022853D01*
X0016813Y0022784D01*
X0016956Y0022711D01*
X0017098Y0022635D01*
X0017237Y0022555D01*
X0017375Y0022472D01*
X0017510Y0022385D01*
X0017644Y0022295D01*
X0017775Y0022202D01*
X0017903Y0022106D01*
X0018029Y0022006D01*
X0018153Y0021903D01*
X0018274Y0021798D01*
X0018393Y0021689D01*
X0018509Y0021578D01*
X0018622Y0021463D01*
X0018732Y0021346D01*
X0018839Y0021226D01*
X0018943Y0021104D01*
X0019044Y0020979D01*
X0019142Y0020851D01*
X0019237Y0020721D01*
X0019329Y0020589D01*
X0019417Y0020455D01*
X0019502Y0020318D01*
X0019584Y0020180D01*
X0019662Y0020039D01*
X0019736Y0019897D01*
X0019807Y0019753D01*
X0019875Y0019607D01*
X0019938Y0019459D01*
X0019999Y0019310D01*
X0020055Y0019159D01*
X0020108Y0019007D01*
X0020157Y0018854D01*
X0020202Y0018700D01*
X0020243Y0018545D01*
X0020281Y0018388D01*
X0020314Y0018231D01*
X0020344Y0018073D01*
X0020370Y0017914D01*
X0020391Y0017755D01*
X0020409Y0017595D01*
X0020423Y0017435D01*
X0020433Y0017274D01*
X0020439Y0017114D01*
X0020441Y0016953D01*
X0020439Y0016792D01*
X0020433Y0016632D01*
X0020423Y0016471D01*
X0020409Y0016311D01*
X0020391Y0016151D01*
X0020370Y0015992D01*
X0020344Y0015833D01*
X0020314Y0015675D01*
X0020281Y0015518D01*
X0020243Y0015361D01*
X0020202Y0015206D01*
X0020157Y0015052D01*
X0020108Y0014899D01*
X0020055Y0014747D01*
X0019999Y0014596D01*
X0019938Y0014447D01*
X0019875Y0014299D01*
X0019807Y0014153D01*
X0019736Y0014009D01*
X0019662Y0013867D01*
X0019584Y0013726D01*
X0019502Y0013588D01*
X0019417Y0013451D01*
X0019329Y0013317D01*
X0019237Y0013185D01*
X0019142Y0013055D01*
X0019044Y0012927D01*
X0018943Y0012802D01*
X0018839Y0012680D01*
X0018732Y0012560D01*
X0018622Y0012443D01*
X0018509Y0012328D01*
X0018393Y0012217D01*
X0018274Y0012108D01*
X0018153Y0012003D01*
X0018029Y0011900D01*
X0017903Y0011800D01*
X0017775Y0011704D01*
X0017644Y0011611D01*
X0017510Y0011521D01*
X0017375Y0011434D01*
X0017237Y0011351D01*
X0017098Y0011271D01*
X0016956Y0011195D01*
X0016813Y0011122D01*
X0016668Y0011053D01*
X0016521Y0010987D01*
X0016373Y0010925D01*
X0016223Y0010867D01*
X0016072Y0010812D01*
X0015919Y0010761D01*
X0015765Y0010714D01*
X0015610Y0010671D01*
X0015454Y0010632D01*
X0015298Y0010596D01*
X0015140Y0010565D01*
X0014982Y0010537D01*
X0014823Y0010513D01*
X0014663Y0010493D01*
X0014503Y0010477D01*
X0014343Y0010465D01*
X0014182Y0010457D01*
X0014021Y0010453D01*
X0013861Y0010453D01*
X0013700Y0010457D01*
X0013539Y0010465D01*
X0013379Y0010477D01*
X0013219Y0010493D01*
X0013059Y0010513D01*
X0012900Y0010537D01*
X0012742Y0010565D01*
X0012584Y0010596D01*
X0012428Y0010632D01*
X0012272Y0010671D01*
X0012117Y0010714D01*
X0011963Y0010761D01*
X0011810Y0010812D01*
X0011659Y0010867D01*
X0011509Y0010925D01*
X0011361Y0010987D01*
X0011214Y0011053D01*
X0011069Y0011122D01*
X0010926Y0011195D01*
X0010784Y0011271D01*
X0010645Y0011351D01*
X0010507Y0011434D01*
X0010372Y0011521D01*
X0010238Y0011611D01*
X0010107Y0011704D01*
X0009979Y0011800D01*
X0009853Y0011900D01*
X0009729Y0012003D01*
X0009608Y0012108D01*
X0009489Y0012217D01*
X0009373Y0012328D01*
X0009260Y0012443D01*
X0009150Y0012560D01*
X0009043Y0012680D01*
X0008939Y0012802D01*
X0008838Y0012927D01*
X0008740Y0013055D01*
X0008645Y0013185D01*
X0008553Y0013317D01*
X0008465Y0013451D01*
X0008380Y0013588D01*
X0008298Y0013726D01*
X0008220Y0013867D01*
X0008146Y0014009D01*
X0008075Y0014153D01*
X0008007Y0014299D01*
X0007944Y0014447D01*
X0007883Y0014596D01*
X0007827Y0014747D01*
X0007774Y0014899D01*
X0007725Y0015052D01*
X0007680Y0015206D01*
X0007639Y0015361D01*
X0007601Y0015518D01*
X0007568Y0015675D01*
X0007538Y0015833D01*
X0007512Y0015992D01*
X0007491Y0016151D01*
X0007473Y0016311D01*
X0007459Y0016471D01*
X0007449Y0016632D01*
X0007443Y0016792D01*
X0007441Y0016953D01*
X0007441Y0168921D02*
X0007443Y0169082D01*
X0007449Y0169242D01*
X0007459Y0169403D01*
X0007473Y0169563D01*
X0007491Y0169723D01*
X0007512Y0169882D01*
X0007538Y0170041D01*
X0007568Y0170199D01*
X0007601Y0170356D01*
X0007639Y0170513D01*
X0007680Y0170668D01*
X0007725Y0170822D01*
X0007774Y0170975D01*
X0007827Y0171127D01*
X0007883Y0171278D01*
X0007944Y0171427D01*
X0008007Y0171575D01*
X0008075Y0171721D01*
X0008146Y0171865D01*
X0008220Y0172007D01*
X0008298Y0172148D01*
X0008380Y0172286D01*
X0008465Y0172423D01*
X0008553Y0172557D01*
X0008645Y0172689D01*
X0008740Y0172819D01*
X0008838Y0172947D01*
X0008939Y0173072D01*
X0009043Y0173194D01*
X0009150Y0173314D01*
X0009260Y0173431D01*
X0009373Y0173546D01*
X0009489Y0173657D01*
X0009608Y0173766D01*
X0009729Y0173871D01*
X0009853Y0173974D01*
X0009979Y0174074D01*
X0010107Y0174170D01*
X0010238Y0174263D01*
X0010372Y0174353D01*
X0010507Y0174440D01*
X0010645Y0174523D01*
X0010784Y0174603D01*
X0010926Y0174679D01*
X0011069Y0174752D01*
X0011214Y0174821D01*
X0011361Y0174887D01*
X0011509Y0174949D01*
X0011659Y0175007D01*
X0011810Y0175062D01*
X0011963Y0175113D01*
X0012117Y0175160D01*
X0012272Y0175203D01*
X0012428Y0175242D01*
X0012584Y0175278D01*
X0012742Y0175309D01*
X0012900Y0175337D01*
X0013059Y0175361D01*
X0013219Y0175381D01*
X0013379Y0175397D01*
X0013539Y0175409D01*
X0013700Y0175417D01*
X0013861Y0175421D01*
X0014021Y0175421D01*
X0014182Y0175417D01*
X0014343Y0175409D01*
X0014503Y0175397D01*
X0014663Y0175381D01*
X0014823Y0175361D01*
X0014982Y0175337D01*
X0015140Y0175309D01*
X0015298Y0175278D01*
X0015454Y0175242D01*
X0015610Y0175203D01*
X0015765Y0175160D01*
X0015919Y0175113D01*
X0016072Y0175062D01*
X0016223Y0175007D01*
X0016373Y0174949D01*
X0016521Y0174887D01*
X0016668Y0174821D01*
X0016813Y0174752D01*
X0016956Y0174679D01*
X0017098Y0174603D01*
X0017237Y0174523D01*
X0017375Y0174440D01*
X0017510Y0174353D01*
X0017644Y0174263D01*
X0017775Y0174170D01*
X0017903Y0174074D01*
X0018029Y0173974D01*
X0018153Y0173871D01*
X0018274Y0173766D01*
X0018393Y0173657D01*
X0018509Y0173546D01*
X0018622Y0173431D01*
X0018732Y0173314D01*
X0018839Y0173194D01*
X0018943Y0173072D01*
X0019044Y0172947D01*
X0019142Y0172819D01*
X0019237Y0172689D01*
X0019329Y0172557D01*
X0019417Y0172423D01*
X0019502Y0172286D01*
X0019584Y0172148D01*
X0019662Y0172007D01*
X0019736Y0171865D01*
X0019807Y0171721D01*
X0019875Y0171575D01*
X0019938Y0171427D01*
X0019999Y0171278D01*
X0020055Y0171127D01*
X0020108Y0170975D01*
X0020157Y0170822D01*
X0020202Y0170668D01*
X0020243Y0170513D01*
X0020281Y0170356D01*
X0020314Y0170199D01*
X0020344Y0170041D01*
X0020370Y0169882D01*
X0020391Y0169723D01*
X0020409Y0169563D01*
X0020423Y0169403D01*
X0020433Y0169242D01*
X0020439Y0169082D01*
X0020441Y0168921D01*
X0020439Y0168760D01*
X0020433Y0168600D01*
X0020423Y0168439D01*
X0020409Y0168279D01*
X0020391Y0168119D01*
X0020370Y0167960D01*
X0020344Y0167801D01*
X0020314Y0167643D01*
X0020281Y0167486D01*
X0020243Y0167329D01*
X0020202Y0167174D01*
X0020157Y0167020D01*
X0020108Y0166867D01*
X0020055Y0166715D01*
X0019999Y0166564D01*
X0019938Y0166415D01*
X0019875Y0166267D01*
X0019807Y0166121D01*
X0019736Y0165977D01*
X0019662Y0165835D01*
X0019584Y0165694D01*
X0019502Y0165556D01*
X0019417Y0165419D01*
X0019329Y0165285D01*
X0019237Y0165153D01*
X0019142Y0165023D01*
X0019044Y0164895D01*
X0018943Y0164770D01*
X0018839Y0164648D01*
X0018732Y0164528D01*
X0018622Y0164411D01*
X0018509Y0164296D01*
X0018393Y0164185D01*
X0018274Y0164076D01*
X0018153Y0163971D01*
X0018029Y0163868D01*
X0017903Y0163768D01*
X0017775Y0163672D01*
X0017644Y0163579D01*
X0017510Y0163489D01*
X0017375Y0163402D01*
X0017237Y0163319D01*
X0017098Y0163239D01*
X0016956Y0163163D01*
X0016813Y0163090D01*
X0016668Y0163021D01*
X0016521Y0162955D01*
X0016373Y0162893D01*
X0016223Y0162835D01*
X0016072Y0162780D01*
X0015919Y0162729D01*
X0015765Y0162682D01*
X0015610Y0162639D01*
X0015454Y0162600D01*
X0015298Y0162564D01*
X0015140Y0162533D01*
X0014982Y0162505D01*
X0014823Y0162481D01*
X0014663Y0162461D01*
X0014503Y0162445D01*
X0014343Y0162433D01*
X0014182Y0162425D01*
X0014021Y0162421D01*
X0013861Y0162421D01*
X0013700Y0162425D01*
X0013539Y0162433D01*
X0013379Y0162445D01*
X0013219Y0162461D01*
X0013059Y0162481D01*
X0012900Y0162505D01*
X0012742Y0162533D01*
X0012584Y0162564D01*
X0012428Y0162600D01*
X0012272Y0162639D01*
X0012117Y0162682D01*
X0011963Y0162729D01*
X0011810Y0162780D01*
X0011659Y0162835D01*
X0011509Y0162893D01*
X0011361Y0162955D01*
X0011214Y0163021D01*
X0011069Y0163090D01*
X0010926Y0163163D01*
X0010784Y0163239D01*
X0010645Y0163319D01*
X0010507Y0163402D01*
X0010372Y0163489D01*
X0010238Y0163579D01*
X0010107Y0163672D01*
X0009979Y0163768D01*
X0009853Y0163868D01*
X0009729Y0163971D01*
X0009608Y0164076D01*
X0009489Y0164185D01*
X0009373Y0164296D01*
X0009260Y0164411D01*
X0009150Y0164528D01*
X0009043Y0164648D01*
X0008939Y0164770D01*
X0008838Y0164895D01*
X0008740Y0165023D01*
X0008645Y0165153D01*
X0008553Y0165285D01*
X0008465Y0165419D01*
X0008380Y0165556D01*
X0008298Y0165694D01*
X0008220Y0165835D01*
X0008146Y0165977D01*
X0008075Y0166121D01*
X0008007Y0166267D01*
X0007944Y0166415D01*
X0007883Y0166564D01*
X0007827Y0166715D01*
X0007774Y0166867D01*
X0007725Y0167020D01*
X0007680Y0167174D01*
X0007639Y0167329D01*
X0007601Y0167486D01*
X0007568Y0167643D01*
X0007538Y0167801D01*
X0007512Y0167960D01*
X0007491Y0168119D01*
X0007473Y0168279D01*
X0007459Y0168439D01*
X0007449Y0168600D01*
X0007443Y0168760D01*
X0007441Y0168921D01*
D11*
X0036933Y0170791D03*
X0046933Y0170791D03*
X0056933Y0170791D03*
X0066933Y0170791D03*
X0076933Y0170791D03*
X0079177Y0022248D03*
X0079177Y0012248D03*
X0069177Y0012248D03*
X0069177Y0022248D03*
X0059177Y0022248D03*
X0059177Y0012248D03*
X0049177Y0012248D03*
X0049177Y0022248D03*
X0039177Y0022248D03*
X0039177Y0012248D03*
X0089177Y0012248D03*
X0089177Y0022248D03*
X0099177Y0022248D03*
X0099177Y0012248D03*
X0109177Y0012248D03*
X0109177Y0022248D03*
X0119177Y0022248D03*
X0119177Y0012248D03*
X0129177Y0012248D03*
X0129177Y0022248D03*
D12*
X0123823Y0147248D03*
X0123823Y0157248D03*
X0113823Y0157248D03*
X0113823Y0147248D03*
X0103823Y0147248D03*
X0103823Y0157248D03*
D13*
X0090083Y0166854D03*
X0090083Y0174728D03*
X0044807Y0115673D03*
X0044807Y0107799D03*
D14*
X0097957Y0166657D03*
X0097957Y0174925D03*
D15*
X0026717Y0124705D03*
X0011717Y0124705D03*
X0011717Y0102705D03*
X0026717Y0102705D03*
D16*
X0073154Y0106647D03*
X0076303Y0106647D03*
X0079453Y0106647D03*
X0082602Y0106647D03*
X0085752Y0106647D03*
X0088902Y0106647D03*
X0092051Y0106647D03*
X0095201Y0106647D03*
X0095201Y0140447D03*
X0092051Y0140447D03*
X0088902Y0140447D03*
X0085752Y0140447D03*
X0082602Y0140447D03*
X0079453Y0140447D03*
X0076303Y0140447D03*
X0073154Y0140447D03*
D17*
X0067277Y0134571D03*
X0067277Y0131421D03*
X0067277Y0128272D03*
X0067277Y0125122D03*
X0067277Y0121972D03*
X0067277Y0118823D03*
X0067277Y0115673D03*
X0067277Y0112524D03*
X0101077Y0112524D03*
X0101077Y0115673D03*
X0101077Y0118823D03*
X0101077Y0121972D03*
X0101077Y0125122D03*
X0101077Y0128272D03*
X0101077Y0131421D03*
X0101077Y0134571D03*
D18*
X0101894Y0088114D03*
X0086146Y0088114D03*
D19*
X0086146Y0073744D03*
X0086146Y0067051D03*
X0101894Y0067051D03*
X0101894Y0073744D03*
D20*
X0101894Y0088114D01*
X0095201Y0088114D01*
X0095201Y0106647D01*
X0097601Y0106344D02*
X0099277Y0106344D01*
X0099277Y0107342D02*
X0097601Y0107342D01*
X0097601Y0108341D02*
X0099277Y0108341D01*
X0099277Y0109339D02*
X0097601Y0109339D01*
X0097601Y0109686D02*
X0096839Y0110447D01*
X0090702Y0110447D01*
X0090702Y0116419D01*
X0089647Y0117473D01*
X0087552Y0117473D01*
X0087552Y0129621D01*
X0092797Y0129621D01*
X0093851Y0130676D01*
X0093851Y0136647D01*
X0096839Y0136647D01*
X0097601Y0137409D01*
X0097601Y0143486D01*
X0097001Y0144086D01*
X0097001Y0147605D01*
X0099687Y0150291D01*
X0102076Y0150291D01*
X0101592Y0149967D01*
X0101104Y0149479D01*
X0100721Y0148906D01*
X0100457Y0148269D01*
X0100323Y0147593D01*
X0100323Y0147248D01*
X0100323Y0146903D01*
X0100457Y0146227D01*
X0100721Y0145590D01*
X0101104Y0145017D01*
X0101592Y0144529D01*
X0102165Y0144146D01*
X0102802Y0143883D01*
X0103478Y0143748D01*
X0103823Y0143748D01*
X0104168Y0143748D01*
X0104844Y0143883D01*
X0105481Y0144146D01*
X0106054Y0144529D01*
X0106541Y0145017D01*
X0106924Y0145590D01*
X0107188Y0146227D01*
X0107323Y0146903D01*
X0107323Y0147248D01*
X0103823Y0147248D01*
X0103823Y0147248D01*
X0107323Y0147248D01*
X0107323Y0147593D01*
X0107188Y0148269D01*
X0106924Y0148906D01*
X0106541Y0149479D01*
X0106054Y0149967D01*
X0105569Y0150291D01*
X0109411Y0150291D01*
X0110465Y0151345D01*
X0113097Y0153977D01*
X0113166Y0153948D01*
X0114479Y0153948D01*
X0115692Y0154450D01*
X0116620Y0155379D01*
X0117123Y0156592D01*
X0117123Y0157904D01*
X0116620Y0159117D01*
X0115692Y0160046D01*
X0114479Y0160548D01*
X0113166Y0160548D01*
X0111954Y0160046D01*
X0111025Y0159117D01*
X0110523Y0157904D01*
X0110523Y0156592D01*
X0110552Y0156522D01*
X0107920Y0153891D01*
X0098195Y0153891D01*
X0094455Y0150150D01*
X0093401Y0149096D01*
X0093401Y0144247D01*
X0087552Y0144247D01*
X0087552Y0153243D01*
X0090828Y0153243D01*
X0091883Y0154298D01*
X0091883Y0163389D01*
X0093377Y0163389D01*
X0094094Y0164106D01*
X0094094Y0164098D01*
X0094197Y0163716D01*
X0094394Y0163374D01*
X0094673Y0163095D01*
X0095016Y0162898D01*
X0095397Y0162795D01*
X0097457Y0162795D01*
X0097457Y0166157D01*
X0098457Y0166157D01*
X0098457Y0162795D01*
X0100516Y0162795D01*
X0100898Y0162898D01*
X0101240Y0163095D01*
X0101519Y0163374D01*
X0101717Y0163716D01*
X0101819Y0164098D01*
X0101819Y0166157D01*
X0098457Y0166157D01*
X0098457Y0167157D01*
X0101819Y0167157D01*
X0101819Y0169217D01*
X0101717Y0169599D01*
X0101519Y0169941D01*
X0101240Y0170220D01*
X0100898Y0170417D01*
X0100516Y0170520D01*
X0098457Y0170520D01*
X0098457Y0167158D01*
X0097457Y0167158D01*
X0097457Y0170520D01*
X0095397Y0170520D01*
X0095016Y0170417D01*
X0094673Y0170220D01*
X0094394Y0169941D01*
X0094197Y0169599D01*
X0094139Y0169382D01*
X0094139Y0169558D01*
X0093377Y0170320D01*
X0086788Y0170320D01*
X0086027Y0169558D01*
X0086027Y0164150D01*
X0086788Y0163389D01*
X0088283Y0163389D01*
X0088283Y0156843D01*
X0068733Y0156843D01*
X0068733Y0166125D01*
X0069765Y0166553D01*
X0071172Y0167959D01*
X0071933Y0169797D01*
X0071933Y0171786D01*
X0071172Y0173624D01*
X0069765Y0175030D01*
X0067928Y0175791D01*
X0065938Y0175791D01*
X0064101Y0175030D01*
X0062694Y0173624D01*
X0061933Y0171786D01*
X0061172Y0173624D01*
X0059765Y0175030D01*
X0057928Y0175791D01*
X0055938Y0175791D01*
X0054101Y0175030D01*
X0052694Y0173624D01*
X0051933Y0171786D01*
X0051172Y0173624D01*
X0049765Y0175030D01*
X0047928Y0175791D01*
X0045938Y0175791D01*
X0044101Y0175030D01*
X0042694Y0173624D01*
X0042011Y0171973D01*
X0042005Y0172009D01*
X0041752Y0172787D01*
X0041380Y0173517D01*
X0040899Y0174179D01*
X0040321Y0174758D01*
X0039658Y0175239D01*
X0038929Y0175610D01*
X0038151Y0175863D01*
X0037433Y0175977D01*
X0037433Y0171291D01*
X0036433Y0171291D01*
X0036433Y0170291D01*
X0037433Y0170291D01*
X0037433Y0165606D01*
X0038151Y0165719D01*
X0038929Y0165972D01*
X0039658Y0166344D01*
X0040321Y0166825D01*
X0040899Y0167404D01*
X0041380Y0168066D01*
X0041752Y0168795D01*
X0042005Y0169574D01*
X0042011Y0169609D01*
X0042694Y0167959D01*
X0044101Y0166553D01*
X0045938Y0165791D01*
X0047928Y0165791D01*
X0049765Y0166553D01*
X0051172Y0167959D01*
X0051933Y0169797D01*
X0051933Y0171786D01*
X0051933Y0169797D01*
X0052694Y0167959D01*
X0054101Y0166553D01*
X0055938Y0165791D01*
X0057928Y0165791D01*
X0059765Y0166553D01*
X0061172Y0167959D01*
X0061933Y0169797D01*
X0062694Y0167959D01*
X0064101Y0166553D01*
X0065133Y0166125D01*
X0065133Y0154298D01*
X0066187Y0153243D01*
X0083952Y0153243D01*
X0083952Y0144433D01*
X0083900Y0144447D01*
X0082652Y0144447D01*
X0082652Y0140497D01*
X0082552Y0140497D01*
X0082552Y0144447D01*
X0081305Y0144447D01*
X0080923Y0144345D01*
X0080754Y0144247D01*
X0071515Y0144247D01*
X0070754Y0143486D01*
X0070754Y0137409D01*
X0071515Y0136647D01*
X0080754Y0136647D01*
X0080923Y0136549D01*
X0081305Y0136447D01*
X0082552Y0136447D01*
X0082552Y0140397D01*
X0082652Y0140397D01*
X0082652Y0136447D01*
X0083900Y0136447D01*
X0083952Y0136461D01*
X0083952Y0117473D01*
X0081857Y0117473D01*
X0080802Y0116419D01*
X0080802Y0110633D01*
X0080750Y0110647D01*
X0079503Y0110647D01*
X0079503Y0106697D01*
X0079403Y0106697D01*
X0079403Y0110647D01*
X0078155Y0110647D01*
X0077774Y0110545D01*
X0077604Y0110447D01*
X0071515Y0110447D01*
X0070754Y0109686D01*
X0070754Y0103609D01*
X0071354Y0103009D01*
X0071354Y0060176D01*
X0069077Y0062453D01*
X0069077Y0110124D01*
X0070316Y0110124D01*
X0071077Y0110885D01*
X0071077Y0120172D01*
X0077049Y0120172D01*
X0078103Y0121227D01*
X0078103Y0124922D01*
X0078918Y0125737D01*
X0079387Y0126871D01*
X0079387Y0128098D01*
X0078918Y0129231D01*
X0078050Y0130099D01*
X0076917Y0130568D01*
X0075690Y0130568D01*
X0074556Y0130099D01*
X0073688Y0129231D01*
X0073219Y0128098D01*
X0073219Y0126871D01*
X0073688Y0125737D01*
X0074503Y0124922D01*
X0074503Y0123772D01*
X0071077Y0123772D01*
X0071077Y0136209D01*
X0070316Y0136971D01*
X0064239Y0136971D01*
X0063639Y0136371D01*
X0043274Y0136371D01*
X0031196Y0124293D01*
X0031196Y0082293D01*
X0031135Y0081634D01*
X0031196Y0081559D01*
X0031196Y0081463D01*
X0031664Y0080995D01*
X0052417Y0055969D01*
X0052417Y0026322D01*
X0051903Y0026695D01*
X0051173Y0027067D01*
X0050395Y0027320D01*
X0049677Y0027434D01*
X0049677Y0022748D01*
X0048677Y0022748D01*
X0048677Y0027434D01*
X0047959Y0027320D01*
X0047181Y0027067D01*
X0046452Y0026695D01*
X0045790Y0026214D01*
X0045211Y0025636D01*
X0044730Y0024973D01*
X0044358Y0024244D01*
X0044105Y0023466D01*
X0044100Y0023430D01*
X0043416Y0025080D01*
X0042009Y0026487D01*
X0040172Y0027248D01*
X0038183Y0027248D01*
X0036345Y0026487D01*
X0034938Y0025080D01*
X0034177Y0023243D01*
X0034177Y0021253D01*
X0034938Y0019416D01*
X0036345Y0018009D01*
X0038183Y0017248D01*
X0036345Y0016487D01*
X0034938Y0015080D01*
X0034177Y0013243D01*
X0034177Y0011253D01*
X0034938Y0009416D01*
X0036345Y0008009D01*
X0038183Y0007248D01*
X0040172Y0007248D01*
X0042009Y0008009D01*
X0043416Y0009416D01*
X0044100Y0011066D01*
X0044105Y0011030D01*
X0044358Y0010252D01*
X0044730Y0009523D01*
X0045211Y0008860D01*
X0045790Y0008282D01*
X0046452Y0007801D01*
X0047181Y0007429D01*
X0047959Y0007176D01*
X0048677Y0007062D01*
X0048677Y0011748D01*
X0049677Y0011748D01*
X0049677Y0007062D01*
X0050395Y0007176D01*
X0051173Y0007429D01*
X0051903Y0007801D01*
X0052565Y0008282D01*
X0053143Y0008860D01*
X0053625Y0009523D01*
X0053996Y0010252D01*
X0054249Y0011030D01*
X0054255Y0011066D01*
X0054938Y0009416D01*
X0056345Y0008009D01*
X0058183Y0007248D01*
X0060172Y0007248D01*
X0062009Y0008009D01*
X0063416Y0009416D01*
X0064177Y0011253D01*
X0064177Y0013243D01*
X0064177Y0011253D01*
X0064938Y0009416D01*
X0066345Y0008009D01*
X0068183Y0007248D01*
X0070172Y0007248D01*
X0072009Y0008009D01*
X0073416Y0009416D01*
X0074177Y0011253D01*
X0074177Y0013243D01*
X0074177Y0011253D01*
X0074938Y0009416D01*
X0076345Y0008009D01*
X0078183Y0007248D01*
X0080172Y0007248D01*
X0082009Y0008009D01*
X0083416Y0009416D01*
X0084177Y0011253D01*
X0084177Y0013243D01*
X0084177Y0011253D01*
X0084938Y0009416D01*
X0086345Y0008009D01*
X0088183Y0007248D01*
X0090172Y0007248D01*
X0092009Y0008009D01*
X0093416Y0009416D01*
X0094177Y0011253D01*
X0094177Y0013243D01*
X0094177Y0011253D01*
X0094938Y0009416D01*
X0096345Y0008009D01*
X0098183Y0007248D01*
X0100172Y0007248D01*
X0102009Y0008009D01*
X0103416Y0009416D01*
X0104177Y0011253D01*
X0104177Y0013243D01*
X0104177Y0011253D01*
X0104938Y0009416D01*
X0106345Y0008009D01*
X0108183Y0007248D01*
X0110172Y0007248D01*
X0112009Y0008009D01*
X0113416Y0009416D01*
X0114177Y0011253D01*
X0114177Y0013243D01*
X0114177Y0011253D01*
X0114938Y0009416D01*
X0116345Y0008009D01*
X0118183Y0007248D01*
X0120172Y0007248D01*
X0122009Y0008009D01*
X0123416Y0009416D01*
X0124177Y0011253D01*
X0124177Y0013243D01*
X0124177Y0011253D01*
X0124938Y0009416D01*
X0126345Y0008009D01*
X0128183Y0007248D01*
X0130172Y0007248D01*
X0132009Y0008009D01*
X0133416Y0009416D01*
X0134177Y0011253D01*
X0134177Y0013243D01*
X0133416Y0015080D01*
X0132009Y0016487D01*
X0130172Y0017248D01*
X0132009Y0018009D01*
X0133416Y0019416D01*
X0134177Y0021253D01*
X0134177Y0023243D01*
X0133416Y0025080D01*
X0132009Y0026487D01*
X0130172Y0027248D01*
X0129284Y0027248D01*
X0129284Y0104608D01*
X0128230Y0105662D01*
X0123379Y0110513D01*
X0123379Y0122324D01*
X0122324Y0123379D01*
X0121410Y0124293D01*
X0121410Y0144994D01*
X0121954Y0144450D01*
X0123166Y0143948D01*
X0124479Y0143948D01*
X0125692Y0144450D01*
X0126620Y0145379D01*
X0127123Y0146592D01*
X0127123Y0147904D01*
X0126620Y0149117D01*
X0125692Y0150046D01*
X0124479Y0150548D01*
X0123166Y0150548D01*
X0121954Y0150046D01*
X0121410Y0149502D01*
X0121410Y0152290D01*
X0123097Y0153977D01*
X0123166Y0153948D01*
X0124479Y0153948D01*
X0125692Y0154450D01*
X0126620Y0155379D01*
X0127123Y0156592D01*
X0127123Y0157904D01*
X0126620Y0159117D01*
X0125692Y0160046D01*
X0124479Y0160548D01*
X0123166Y0160548D01*
X0121954Y0160046D01*
X0121025Y0159117D01*
X0120523Y0157904D01*
X0120523Y0156592D01*
X0120552Y0156522D01*
X0118865Y0154835D01*
X0117810Y0153781D01*
X0117810Y0136371D01*
X0104716Y0136371D01*
X0104116Y0136971D01*
X0098039Y0136971D01*
X0097277Y0136209D01*
X0097277Y0110885D01*
X0098039Y0110124D01*
X0099277Y0110124D01*
X0099277Y0101965D01*
X0109936Y0091306D01*
X0109936Y0046532D01*
X0092902Y0029345D01*
X0092377Y0028820D01*
X0092377Y0028816D01*
X0092374Y0028812D01*
X0092377Y0028071D01*
X0092377Y0026119D01*
X0092009Y0026487D01*
X0090977Y0026914D01*
X0090977Y0048427D01*
X0089923Y0049481D01*
X0089923Y0049481D01*
X0078103Y0061301D01*
X0078103Y0102661D01*
X0078155Y0102647D01*
X0079403Y0102647D01*
X0079403Y0106597D01*
X0079503Y0106597D01*
X0079503Y0102647D01*
X0080750Y0102647D01*
X0081132Y0102749D01*
X0081301Y0102847D01*
X0083904Y0102847D01*
X0084073Y0102749D01*
X0084454Y0102647D01*
X0085702Y0102647D01*
X0085702Y0106597D01*
X0085802Y0106597D01*
X0085802Y0102647D01*
X0087049Y0102647D01*
X0087431Y0102749D01*
X0087600Y0102847D01*
X0090251Y0102847D01*
X0090251Y0094139D01*
X0081670Y0094139D01*
X0080909Y0093377D01*
X0080909Y0082851D01*
X0081670Y0082090D01*
X0084346Y0082090D01*
X0084346Y0077603D01*
X0082654Y0077603D01*
X0081893Y0076842D01*
X0081893Y0070647D01*
X0082000Y0070539D01*
X0081993Y0070531D01*
X0081795Y0070189D01*
X0081693Y0069808D01*
X0081693Y0067551D01*
X0085646Y0067551D01*
X0085646Y0066551D01*
X0086646Y0066551D01*
X0086646Y0067551D01*
X0090598Y0067551D01*
X0090598Y0069808D01*
X0090496Y0070189D01*
X0090299Y0070531D01*
X0090291Y0070539D01*
X0090398Y0070647D01*
X0090398Y0076842D01*
X0089637Y0077603D01*
X0087946Y0077603D01*
X0087946Y0082090D01*
X0090621Y0082090D01*
X0091383Y0082851D01*
X0091383Y0086314D01*
X0092797Y0086314D01*
X0093626Y0087143D01*
X0094455Y0086314D01*
X0096657Y0086314D01*
X0096657Y0082851D01*
X0097418Y0082090D01*
X0100094Y0082090D01*
X0100094Y0077603D01*
X0098402Y0077603D01*
X0097641Y0076842D01*
X0097641Y0070647D01*
X0097748Y0070539D01*
X0097741Y0070531D01*
X0097543Y0070189D01*
X0097441Y0069808D01*
X0097441Y0067551D01*
X0101394Y0067551D01*
X0101394Y0066551D01*
X0102394Y0066551D01*
X0102394Y0067551D01*
X0106346Y0067551D01*
X0106346Y0069808D01*
X0106244Y0070189D01*
X0106047Y0070531D01*
X0106039Y0070539D01*
X0106146Y0070647D01*
X0106146Y0076842D01*
X0105385Y0077603D01*
X0103694Y0077603D01*
X0103694Y0082090D01*
X0106369Y0082090D01*
X0107131Y0082851D01*
X0107131Y0093377D01*
X0106369Y0094139D01*
X0097418Y0094139D01*
X0097001Y0093721D01*
X0097001Y0103009D01*
X0097601Y0103609D01*
X0097601Y0109686D01*
X0097825Y0110338D02*
X0096949Y0110338D01*
X0097277Y0111336D02*
X0090702Y0111336D01*
X0090702Y0112335D02*
X0097277Y0112335D01*
X0097277Y0113333D02*
X0090702Y0113333D01*
X0090702Y0114332D02*
X0097277Y0114332D01*
X0097277Y0115330D02*
X0090702Y0115330D01*
X0090702Y0116329D02*
X0097277Y0116329D01*
X0097277Y0117327D02*
X0089793Y0117327D01*
X0088902Y0115673D02*
X0085752Y0115673D01*
X0082602Y0115673D01*
X0082602Y0106647D01*
X0085702Y0106697D02*
X0085702Y0110647D01*
X0084454Y0110647D01*
X0084402Y0110633D01*
X0084402Y0113873D01*
X0087102Y0113873D01*
X0087102Y0110633D01*
X0087049Y0110647D01*
X0085802Y0110647D01*
X0085802Y0106697D01*
X0085702Y0106697D01*
X0085702Y0106344D02*
X0085802Y0106344D01*
X0085802Y0107342D02*
X0085702Y0107342D01*
X0085702Y0108341D02*
X0085802Y0108341D01*
X0085802Y0109339D02*
X0085702Y0109339D01*
X0085702Y0110338D02*
X0085802Y0110338D01*
X0087102Y0111336D02*
X0084402Y0111336D01*
X0084402Y0112335D02*
X0087102Y0112335D01*
X0087102Y0113333D02*
X0084402Y0113333D01*
X0085752Y0115673D02*
X0085752Y0131421D01*
X0092051Y0131421D01*
X0092051Y0140447D01*
X0095201Y0140447D02*
X0095201Y0148350D01*
X0098941Y0152091D01*
X0108665Y0152091D01*
X0113823Y0157248D01*
X0110523Y0157268D02*
X0107123Y0157268D01*
X0107123Y0157904D02*
X0106620Y0159117D01*
X0105692Y0160046D01*
X0104479Y0160548D01*
X0103166Y0160548D01*
X0101954Y0160046D01*
X0101025Y0159117D01*
X0100523Y0157904D01*
X0100523Y0156592D01*
X0101025Y0155379D01*
X0101954Y0154450D01*
X0103166Y0153948D01*
X0104479Y0153948D01*
X0105692Y0154450D01*
X0106620Y0155379D01*
X0107123Y0156592D01*
X0107123Y0157904D01*
X0106973Y0158266D02*
X0110673Y0158266D01*
X0111173Y0159265D02*
X0106473Y0159265D01*
X0105167Y0160263D02*
X0112479Y0160263D01*
X0115167Y0160263D02*
X0122479Y0160263D01*
X0121173Y0159265D02*
X0116473Y0159265D01*
X0116973Y0158266D02*
X0120673Y0158266D01*
X0120523Y0157268D02*
X0117123Y0157268D01*
X0116989Y0156269D02*
X0120298Y0156269D01*
X0119300Y0155271D02*
X0116512Y0155271D01*
X0115262Y0154272D02*
X0118301Y0154272D01*
X0117810Y0153274D02*
X0112394Y0153274D01*
X0111396Y0152275D02*
X0117810Y0152275D01*
X0117810Y0151277D02*
X0110397Y0151277D01*
X0111954Y0150046D02*
X0111025Y0149117D01*
X0110523Y0147904D01*
X0110523Y0146592D01*
X0111025Y0145379D01*
X0111954Y0144450D01*
X0113166Y0143948D01*
X0114479Y0143948D01*
X0115692Y0144450D01*
X0116620Y0145379D01*
X0117123Y0146592D01*
X0117123Y0147904D01*
X0116620Y0149117D01*
X0115692Y0150046D01*
X0114479Y0150548D01*
X0113166Y0150548D01*
X0111954Y0150046D01*
X0112515Y0150278D02*
X0105588Y0150278D01*
X0106675Y0149280D02*
X0111188Y0149280D01*
X0110679Y0148281D02*
X0107183Y0148281D01*
X0107323Y0147283D02*
X0110523Y0147283D01*
X0110650Y0146284D02*
X0107200Y0146284D01*
X0106721Y0145286D02*
X0111118Y0145286D01*
X0112348Y0144287D02*
X0105691Y0144287D01*
X0103823Y0144287D02*
X0103823Y0144287D01*
X0103823Y0143748D02*
X0103823Y0147248D01*
X0103823Y0147248D01*
X0103823Y0143748D01*
X0103823Y0145286D02*
X0103823Y0145286D01*
X0103823Y0146284D02*
X0103823Y0146284D01*
X0103823Y0147248D02*
X0100323Y0147248D01*
X0103823Y0147248D01*
X0103823Y0147248D01*
X0101954Y0144287D02*
X0097001Y0144287D01*
X0097001Y0145286D02*
X0100925Y0145286D01*
X0100446Y0146284D02*
X0097001Y0146284D01*
X0097001Y0147283D02*
X0100323Y0147283D01*
X0100462Y0148281D02*
X0097677Y0148281D01*
X0098676Y0149280D02*
X0100971Y0149280D01*
X0102058Y0150278D02*
X0099674Y0150278D01*
X0097579Y0153274D02*
X0090859Y0153274D01*
X0091857Y0154272D02*
X0102384Y0154272D01*
X0101133Y0155271D02*
X0091883Y0155271D01*
X0091883Y0156269D02*
X0100656Y0156269D01*
X0100523Y0157268D02*
X0091883Y0157268D01*
X0091883Y0158266D02*
X0100673Y0158266D01*
X0101173Y0159265D02*
X0091883Y0159265D01*
X0091883Y0160263D02*
X0102479Y0160263D01*
X0101404Y0163259D02*
X0134795Y0163259D01*
X0134795Y0164257D02*
X0101819Y0164257D01*
X0101819Y0165256D02*
X0134795Y0165256D01*
X0134795Y0166254D02*
X0098457Y0166254D01*
X0098457Y0165256D02*
X0097457Y0165256D01*
X0097457Y0164257D02*
X0098457Y0164257D01*
X0098457Y0163259D02*
X0097457Y0163259D01*
X0094510Y0163259D02*
X0091883Y0163259D01*
X0091883Y0162260D02*
X0134795Y0162260D01*
X0134795Y0161262D02*
X0091883Y0161262D01*
X0088283Y0161262D02*
X0068733Y0161262D01*
X0068733Y0162260D02*
X0088283Y0162260D01*
X0088283Y0163259D02*
X0068733Y0163259D01*
X0068733Y0164257D02*
X0086027Y0164257D01*
X0086027Y0165256D02*
X0068733Y0165256D01*
X0069045Y0166254D02*
X0074821Y0166254D01*
X0074101Y0166553D02*
X0075938Y0165791D01*
X0077928Y0165791D01*
X0079765Y0166553D01*
X0081172Y0167959D01*
X0081933Y0169797D01*
X0081933Y0171786D01*
X0081172Y0173624D01*
X0079765Y0175030D01*
X0077928Y0175791D01*
X0075938Y0175791D01*
X0074101Y0175030D01*
X0072694Y0173624D01*
X0071933Y0171786D01*
X0071933Y0169797D01*
X0072694Y0167959D01*
X0074101Y0166553D01*
X0073400Y0167253D02*
X0070466Y0167253D01*
X0071293Y0168251D02*
X0072573Y0168251D01*
X0072160Y0169250D02*
X0071707Y0169250D01*
X0071933Y0170248D02*
X0071933Y0170248D01*
X0071933Y0171247D02*
X0071933Y0171247D01*
X0071743Y0172245D02*
X0072123Y0172245D01*
X0072537Y0173244D02*
X0071329Y0173244D01*
X0070553Y0174242D02*
X0073313Y0174242D01*
X0074610Y0175241D02*
X0069256Y0175241D01*
X0066933Y0170791D02*
X0066933Y0155043D01*
X0085752Y0155043D01*
X0090083Y0155043D01*
X0090083Y0166854D01*
X0086027Y0167253D02*
X0080466Y0167253D01*
X0081293Y0168251D02*
X0086027Y0168251D01*
X0086027Y0169250D02*
X0081707Y0169250D01*
X0081933Y0170248D02*
X0086717Y0170248D01*
X0086788Y0171263D02*
X0093377Y0171263D01*
X0094139Y0172025D01*
X0094139Y0172928D01*
X0094294Y0172928D01*
X0094294Y0172025D01*
X0095056Y0171263D01*
X0100857Y0171263D01*
X0101619Y0172025D01*
X0101619Y0177826D01*
X0101342Y0178102D01*
X0131421Y0178102D01*
X0131949Y0178061D01*
X0132953Y0177735D01*
X0133807Y0177114D01*
X0134428Y0176260D01*
X0134754Y0175256D01*
X0134795Y0174728D01*
X0134795Y0009374D01*
X0134754Y0008846D01*
X0134428Y0007842D01*
X0133807Y0006988D01*
X0132953Y0006368D01*
X0131949Y0006042D01*
X0131421Y0006000D01*
X0015565Y0006000D01*
X0018187Y0006702D01*
X0020695Y0008151D01*
X0022743Y0010199D01*
X0024191Y0012707D01*
X0024941Y0015505D01*
X0024941Y0018401D01*
X0024191Y0021199D01*
X0022743Y0023707D01*
X0020695Y0025755D01*
X0018187Y0027203D01*
X0015389Y0027953D01*
X0012493Y0027953D01*
X0009695Y0027203D01*
X0007187Y0025755D01*
X0006000Y0024568D01*
X0006000Y0161306D01*
X0007187Y0160119D01*
X0009695Y0158671D01*
X0012493Y0157921D01*
X0015389Y0157921D01*
X0018187Y0158671D01*
X0020695Y0160119D01*
X0022743Y0162167D01*
X0024191Y0164675D01*
X0024941Y0167473D01*
X0024941Y0170369D01*
X0024191Y0173167D01*
X0022743Y0175675D01*
X0020695Y0177723D01*
X0020039Y0178102D01*
X0086697Y0178102D01*
X0086027Y0177432D01*
X0086027Y0172025D01*
X0086788Y0171263D01*
X0086027Y0172245D02*
X0081743Y0172245D01*
X0081933Y0171247D02*
X0134795Y0171247D01*
X0134795Y0172245D02*
X0101619Y0172245D01*
X0101619Y0173244D02*
X0134795Y0173244D01*
X0134795Y0174242D02*
X0101619Y0174242D01*
X0101619Y0175241D02*
X0134755Y0175241D01*
X0134434Y0176239D02*
X0101619Y0176239D01*
X0101619Y0177238D02*
X0133637Y0177238D01*
X0134795Y0170248D02*
X0101191Y0170248D01*
X0101810Y0169250D02*
X0134795Y0169250D01*
X0134795Y0168251D02*
X0101819Y0168251D01*
X0101819Y0167253D02*
X0134795Y0167253D01*
X0134795Y0160263D02*
X0125167Y0160263D01*
X0126473Y0159265D02*
X0134795Y0159265D01*
X0134795Y0158266D02*
X0126973Y0158266D01*
X0127123Y0157268D02*
X0134795Y0157268D01*
X0134795Y0156269D02*
X0126989Y0156269D01*
X0126512Y0155271D02*
X0134795Y0155271D01*
X0134795Y0154272D02*
X0125262Y0154272D01*
X0122394Y0153274D02*
X0134795Y0153274D01*
X0134795Y0152275D02*
X0121410Y0152275D01*
X0121410Y0151277D02*
X0134795Y0151277D01*
X0134795Y0150278D02*
X0125131Y0150278D01*
X0126458Y0149280D02*
X0134795Y0149280D01*
X0134795Y0148281D02*
X0126967Y0148281D01*
X0127123Y0147283D02*
X0134795Y0147283D01*
X0134795Y0146284D02*
X0126995Y0146284D01*
X0126527Y0145286D02*
X0134795Y0145286D01*
X0134795Y0144287D02*
X0125298Y0144287D01*
X0122348Y0144287D02*
X0121410Y0144287D01*
X0121410Y0143289D02*
X0134795Y0143289D01*
X0134795Y0142290D02*
X0121410Y0142290D01*
X0121410Y0141292D02*
X0134795Y0141292D01*
X0134795Y0140293D02*
X0121410Y0140293D01*
X0121410Y0139295D02*
X0134795Y0139295D01*
X0134795Y0138296D02*
X0121410Y0138296D01*
X0121410Y0137298D02*
X0134795Y0137298D01*
X0134795Y0136299D02*
X0121410Y0136299D01*
X0121410Y0135301D02*
X0134795Y0135301D01*
X0134795Y0134302D02*
X0121410Y0134302D01*
X0121410Y0133303D02*
X0134795Y0133303D01*
X0134795Y0132305D02*
X0121410Y0132305D01*
X0121410Y0131306D02*
X0134795Y0131306D01*
X0134795Y0130308D02*
X0121410Y0130308D01*
X0121410Y0129309D02*
X0134795Y0129309D01*
X0134795Y0128311D02*
X0121410Y0128311D01*
X0121410Y0127312D02*
X0134795Y0127312D01*
X0134795Y0126314D02*
X0121410Y0126314D01*
X0121410Y0125315D02*
X0134795Y0125315D01*
X0134795Y0124317D02*
X0121410Y0124317D01*
X0122385Y0123318D02*
X0134795Y0123318D01*
X0134795Y0122320D02*
X0123379Y0122320D01*
X0123379Y0121321D02*
X0134795Y0121321D01*
X0134795Y0120323D02*
X0123379Y0120323D01*
X0123379Y0119324D02*
X0134795Y0119324D01*
X0134795Y0118326D02*
X0123379Y0118326D01*
X0123379Y0117327D02*
X0134795Y0117327D01*
X0134795Y0116329D02*
X0123379Y0116329D01*
X0123379Y0115330D02*
X0134795Y0115330D01*
X0134795Y0114332D02*
X0123379Y0114332D01*
X0123379Y0113333D02*
X0134795Y0113333D01*
X0134795Y0112335D02*
X0123379Y0112335D01*
X0123379Y0111336D02*
X0134795Y0111336D01*
X0134795Y0110338D02*
X0123554Y0110338D01*
X0124553Y0109339D02*
X0134795Y0109339D01*
X0134795Y0108341D02*
X0125551Y0108341D01*
X0126550Y0107342D02*
X0134795Y0107342D01*
X0134795Y0106344D02*
X0127548Y0106344D01*
X0128547Y0105345D02*
X0134795Y0105345D01*
X0134795Y0104347D02*
X0129284Y0104347D01*
X0129284Y0103348D02*
X0134795Y0103348D01*
X0134795Y0102350D02*
X0129284Y0102350D01*
X0129284Y0101351D02*
X0134795Y0101351D01*
X0134795Y0100353D02*
X0129284Y0100353D01*
X0129284Y0099354D02*
X0134795Y0099354D01*
X0134795Y0098356D02*
X0129284Y0098356D01*
X0129284Y0097357D02*
X0134795Y0097357D01*
X0134795Y0096359D02*
X0129284Y0096359D01*
X0129284Y0095360D02*
X0134795Y0095360D01*
X0134795Y0094362D02*
X0129284Y0094362D01*
X0129284Y0093363D02*
X0134795Y0093363D01*
X0134795Y0092365D02*
X0129284Y0092365D01*
X0129284Y0091366D02*
X0134795Y0091366D01*
X0134795Y0090368D02*
X0129284Y0090368D01*
X0129284Y0089369D02*
X0134795Y0089369D01*
X0134795Y0088370D02*
X0129284Y0088370D01*
X0129284Y0087372D02*
X0134795Y0087372D01*
X0134795Y0086373D02*
X0129284Y0086373D01*
X0129284Y0085375D02*
X0134795Y0085375D01*
X0134795Y0084376D02*
X0129284Y0084376D01*
X0129284Y0083378D02*
X0134795Y0083378D01*
X0134795Y0082379D02*
X0129284Y0082379D01*
X0129284Y0081381D02*
X0134795Y0081381D01*
X0134795Y0080382D02*
X0129284Y0080382D01*
X0129284Y0079384D02*
X0134795Y0079384D01*
X0134795Y0078385D02*
X0129284Y0078385D01*
X0129284Y0077387D02*
X0134795Y0077387D01*
X0134795Y0076388D02*
X0129284Y0076388D01*
X0129284Y0075390D02*
X0134795Y0075390D01*
X0134795Y0074391D02*
X0129284Y0074391D01*
X0129284Y0073393D02*
X0134795Y0073393D01*
X0134795Y0072394D02*
X0129284Y0072394D01*
X0129284Y0071396D02*
X0134795Y0071396D01*
X0134795Y0070397D02*
X0129284Y0070397D01*
X0129284Y0069399D02*
X0134795Y0069399D01*
X0134795Y0068400D02*
X0129284Y0068400D01*
X0129284Y0067402D02*
X0134795Y0067402D01*
X0134795Y0066403D02*
X0129284Y0066403D01*
X0129284Y0065405D02*
X0134795Y0065405D01*
X0134795Y0064406D02*
X0129284Y0064406D01*
X0129284Y0063408D02*
X0134795Y0063408D01*
X0134795Y0062409D02*
X0129284Y0062409D01*
X0129284Y0061411D02*
X0134795Y0061411D01*
X0134795Y0060412D02*
X0129284Y0060412D01*
X0129284Y0059414D02*
X0134795Y0059414D01*
X0134795Y0058415D02*
X0129284Y0058415D01*
X0129284Y0057417D02*
X0134795Y0057417D01*
X0134795Y0056418D02*
X0129284Y0056418D01*
X0129284Y0055420D02*
X0134795Y0055420D01*
X0134795Y0054421D02*
X0129284Y0054421D01*
X0129284Y0053423D02*
X0134795Y0053423D01*
X0134795Y0052424D02*
X0129284Y0052424D01*
X0129284Y0051426D02*
X0134795Y0051426D01*
X0134795Y0050427D02*
X0129284Y0050427D01*
X0129284Y0049429D02*
X0134795Y0049429D01*
X0134795Y0048430D02*
X0129284Y0048430D01*
X0129284Y0047432D02*
X0134795Y0047432D01*
X0134795Y0046433D02*
X0129284Y0046433D01*
X0129284Y0045434D02*
X0134795Y0045434D01*
X0134795Y0044436D02*
X0129284Y0044436D01*
X0129284Y0043437D02*
X0134795Y0043437D01*
X0134795Y0042439D02*
X0129284Y0042439D01*
X0129284Y0041440D02*
X0134795Y0041440D01*
X0134795Y0040442D02*
X0129284Y0040442D01*
X0129284Y0039443D02*
X0134795Y0039443D01*
X0134795Y0038445D02*
X0129284Y0038445D01*
X0129284Y0037446D02*
X0134795Y0037446D01*
X0134795Y0036448D02*
X0129284Y0036448D01*
X0129284Y0035449D02*
X0134795Y0035449D01*
X0134795Y0034451D02*
X0129284Y0034451D01*
X0129284Y0033452D02*
X0134795Y0033452D01*
X0134795Y0032454D02*
X0129284Y0032454D01*
X0129284Y0031455D02*
X0134795Y0031455D01*
X0134795Y0030457D02*
X0129284Y0030457D01*
X0129284Y0029458D02*
X0134795Y0029458D01*
X0134795Y0028460D02*
X0129284Y0028460D01*
X0129284Y0027461D02*
X0134795Y0027461D01*
X0134795Y0026463D02*
X0132033Y0026463D01*
X0133032Y0025464D02*
X0134795Y0025464D01*
X0134795Y0024466D02*
X0133671Y0024466D01*
X0134084Y0023467D02*
X0134795Y0023467D01*
X0134795Y0022469D02*
X0134177Y0022469D01*
X0134177Y0021470D02*
X0134795Y0021470D01*
X0134795Y0020472D02*
X0133853Y0020472D01*
X0133440Y0019473D02*
X0134795Y0019473D01*
X0134795Y0018475D02*
X0132475Y0018475D01*
X0130723Y0017476D02*
X0134795Y0017476D01*
X0134795Y0016478D02*
X0132019Y0016478D01*
X0133017Y0015479D02*
X0134795Y0015479D01*
X0134795Y0014481D02*
X0133664Y0014481D01*
X0134078Y0013482D02*
X0134795Y0013482D01*
X0134795Y0012484D02*
X0134177Y0012484D01*
X0134177Y0011485D02*
X0134795Y0011485D01*
X0134795Y0010487D02*
X0133859Y0010487D01*
X0133446Y0009488D02*
X0134795Y0009488D01*
X0134638Y0008490D02*
X0132490Y0008490D01*
X0134172Y0007491D02*
X0130758Y0007491D01*
X0133125Y0006493D02*
X0017404Y0006493D01*
X0019553Y0007491D02*
X0037596Y0007491D01*
X0035865Y0008490D02*
X0021034Y0008490D01*
X0022033Y0009488D02*
X0034908Y0009488D01*
X0034495Y0010487D02*
X0022909Y0010487D01*
X0023486Y0011485D02*
X0034177Y0011485D01*
X0034177Y0012484D02*
X0024062Y0012484D01*
X0024399Y0013482D02*
X0034276Y0013482D01*
X0034690Y0014481D02*
X0024667Y0014481D01*
X0024934Y0015479D02*
X0035337Y0015479D01*
X0036336Y0016478D02*
X0024941Y0016478D01*
X0024941Y0017476D02*
X0037632Y0017476D01*
X0038183Y0017248D02*
X0040172Y0017248D01*
X0042009Y0016487D01*
X0043416Y0015080D01*
X0044100Y0013430D01*
X0044105Y0013466D01*
X0044358Y0014244D01*
X0044730Y0014973D01*
X0045211Y0015636D01*
X0045790Y0016214D01*
X0046452Y0016695D01*
X0047181Y0017067D01*
X0047738Y0017248D01*
X0047181Y0017429D01*
X0046452Y0017801D01*
X0045790Y0018282D01*
X0045211Y0018860D01*
X0044730Y0019523D01*
X0044358Y0020252D01*
X0044105Y0021030D01*
X0044100Y0021066D01*
X0043416Y0019416D01*
X0042009Y0018009D01*
X0040172Y0017248D01*
X0038183Y0017248D01*
X0040723Y0017476D02*
X0047088Y0017476D01*
X0046152Y0016478D02*
X0042019Y0016478D01*
X0043017Y0015479D02*
X0045097Y0015479D01*
X0044479Y0014481D02*
X0043664Y0014481D01*
X0044078Y0013482D02*
X0044111Y0013482D01*
X0044282Y0010487D02*
X0043859Y0010487D01*
X0043446Y0009488D02*
X0044755Y0009488D01*
X0045582Y0008490D02*
X0042490Y0008490D01*
X0040758Y0007491D02*
X0047059Y0007491D01*
X0048677Y0007491D02*
X0049677Y0007491D01*
X0049677Y0008490D02*
X0048677Y0008490D01*
X0048677Y0009488D02*
X0049677Y0009488D01*
X0049677Y0010487D02*
X0048677Y0010487D01*
X0048677Y0011485D02*
X0049677Y0011485D01*
X0049677Y0012748D02*
X0048677Y0012748D01*
X0048677Y0021748D01*
X0049677Y0021748D01*
X0049677Y0017062D01*
X0049677Y0012748D01*
X0049677Y0013482D02*
X0048677Y0013482D01*
X0048677Y0014481D02*
X0049677Y0014481D01*
X0049677Y0015479D02*
X0048677Y0015479D01*
X0048677Y0016478D02*
X0049677Y0016478D01*
X0049677Y0017476D02*
X0048677Y0017476D01*
X0048677Y0018475D02*
X0049677Y0018475D01*
X0049677Y0019473D02*
X0048677Y0019473D01*
X0048677Y0020472D02*
X0049677Y0020472D01*
X0049677Y0021470D02*
X0048677Y0021470D01*
X0048677Y0023467D02*
X0049677Y0023467D01*
X0049677Y0024466D02*
X0048677Y0024466D01*
X0048677Y0025464D02*
X0049677Y0025464D01*
X0049677Y0026463D02*
X0048677Y0026463D01*
X0046132Y0026463D02*
X0042033Y0026463D01*
X0043032Y0025464D02*
X0045086Y0025464D01*
X0044471Y0024466D02*
X0043670Y0024466D01*
X0044084Y0023467D02*
X0044106Y0023467D01*
X0044287Y0020472D02*
X0043853Y0020472D01*
X0043440Y0019473D02*
X0044766Y0019473D01*
X0045597Y0018475D02*
X0042475Y0018475D01*
X0035879Y0018475D02*
X0024921Y0018475D01*
X0024654Y0019473D02*
X0034915Y0019473D01*
X0034501Y0020472D02*
X0024386Y0020472D01*
X0024034Y0021470D02*
X0034177Y0021470D01*
X0034177Y0022469D02*
X0023458Y0022469D01*
X0022881Y0023467D02*
X0034270Y0023467D01*
X0034684Y0024466D02*
X0021984Y0024466D01*
X0020986Y0025464D02*
X0035322Y0025464D01*
X0036321Y0026463D02*
X0019469Y0026463D01*
X0017223Y0027461D02*
X0052417Y0027461D01*
X0052417Y0026463D02*
X0052223Y0026463D01*
X0052417Y0028460D02*
X0006000Y0028460D01*
X0006000Y0029458D02*
X0052417Y0029458D01*
X0052417Y0030457D02*
X0006000Y0030457D01*
X0006000Y0031455D02*
X0052417Y0031455D01*
X0052417Y0032454D02*
X0006000Y0032454D01*
X0006000Y0033452D02*
X0052417Y0033452D01*
X0052417Y0034451D02*
X0006000Y0034451D01*
X0006000Y0035449D02*
X0052417Y0035449D01*
X0052417Y0036448D02*
X0006000Y0036448D01*
X0006000Y0037446D02*
X0052417Y0037446D01*
X0052417Y0038445D02*
X0006000Y0038445D01*
X0006000Y0039443D02*
X0052417Y0039443D01*
X0052417Y0040442D02*
X0006000Y0040442D01*
X0006000Y0041440D02*
X0052417Y0041440D01*
X0052417Y0042439D02*
X0006000Y0042439D01*
X0006000Y0043437D02*
X0052417Y0043437D01*
X0052417Y0044436D02*
X0006000Y0044436D01*
X0006000Y0045434D02*
X0052417Y0045434D01*
X0052417Y0046433D02*
X0006000Y0046433D01*
X0006000Y0047432D02*
X0052417Y0047432D01*
X0052417Y0048430D02*
X0006000Y0048430D01*
X0006000Y0049429D02*
X0052417Y0049429D01*
X0052417Y0050427D02*
X0006000Y0050427D01*
X0006000Y0051426D02*
X0052417Y0051426D01*
X0052417Y0052424D02*
X0006000Y0052424D01*
X0006000Y0053423D02*
X0052417Y0053423D01*
X0052417Y0054421D02*
X0006000Y0054421D01*
X0006000Y0055420D02*
X0052417Y0055420D01*
X0052044Y0056418D02*
X0006000Y0056418D01*
X0006000Y0057417D02*
X0051216Y0057417D01*
X0050388Y0058415D02*
X0006000Y0058415D01*
X0006000Y0059414D02*
X0049560Y0059414D01*
X0048732Y0060412D02*
X0006000Y0060412D01*
X0006000Y0061411D02*
X0047904Y0061411D01*
X0047076Y0062409D02*
X0006000Y0062409D01*
X0006000Y0063408D02*
X0046248Y0063408D01*
X0045420Y0064406D02*
X0006000Y0064406D01*
X0006000Y0065405D02*
X0044592Y0065405D01*
X0043764Y0066403D02*
X0006000Y0066403D01*
X0006000Y0067402D02*
X0042936Y0067402D01*
X0042108Y0068400D02*
X0006000Y0068400D01*
X0006000Y0069399D02*
X0041280Y0069399D01*
X0040452Y0070397D02*
X0006000Y0070397D01*
X0006000Y0071396D02*
X0039624Y0071396D01*
X0038796Y0072394D02*
X0006000Y0072394D01*
X0006000Y0073393D02*
X0037968Y0073393D01*
X0037140Y0074391D02*
X0006000Y0074391D01*
X0006000Y0075390D02*
X0036312Y0075390D01*
X0035484Y0076388D02*
X0006000Y0076388D01*
X0006000Y0077387D02*
X0034656Y0077387D01*
X0033828Y0078385D02*
X0006000Y0078385D01*
X0006000Y0079384D02*
X0033000Y0079384D01*
X0032172Y0080382D02*
X0006000Y0080382D01*
X0006000Y0081381D02*
X0025408Y0081381D01*
X0024969Y0081562D02*
X0026103Y0081093D01*
X0027330Y0081093D01*
X0028464Y0081562D01*
X0029331Y0082430D01*
X0029801Y0083564D01*
X0029801Y0084791D01*
X0029331Y0085924D01*
X0028517Y0086739D01*
X0028517Y0098405D01*
X0028755Y0098405D01*
X0029517Y0099166D01*
X0029517Y0106243D01*
X0028755Y0107005D01*
X0024678Y0107005D01*
X0023917Y0106243D01*
X0023917Y0099166D01*
X0024678Y0098405D01*
X0024917Y0098405D01*
X0024917Y0086739D01*
X0024102Y0085924D01*
X0023632Y0084791D01*
X0023632Y0083564D01*
X0024102Y0082430D01*
X0024969Y0081562D01*
X0024152Y0082379D02*
X0006000Y0082379D01*
X0006000Y0083378D02*
X0023709Y0083378D01*
X0023632Y0084376D02*
X0006000Y0084376D01*
X0006000Y0085375D02*
X0023874Y0085375D01*
X0024551Y0086373D02*
X0006000Y0086373D01*
X0006000Y0087372D02*
X0024917Y0087372D01*
X0024917Y0088370D02*
X0006000Y0088370D01*
X0006000Y0089369D02*
X0024917Y0089369D01*
X0024917Y0090368D02*
X0006000Y0090368D01*
X0006000Y0091366D02*
X0024917Y0091366D01*
X0024917Y0092365D02*
X0006000Y0092365D01*
X0006000Y0093363D02*
X0024917Y0093363D01*
X0024917Y0094362D02*
X0006000Y0094362D01*
X0006000Y0095360D02*
X0024917Y0095360D01*
X0024917Y0096359D02*
X0006000Y0096359D01*
X0006000Y0097357D02*
X0024917Y0097357D01*
X0024917Y0098356D02*
X0013880Y0098356D01*
X0013796Y0098307D02*
X0014138Y0098504D01*
X0014417Y0098784D01*
X0014614Y0099126D01*
X0014717Y0099507D01*
X0014717Y0102455D01*
X0011967Y0102455D01*
X0011967Y0102955D01*
X0014717Y0102955D01*
X0014717Y0105902D01*
X0014614Y0106284D01*
X0014417Y0106626D01*
X0014138Y0106905D01*
X0013796Y0107102D01*
X0013414Y0107205D01*
X0011967Y0107205D01*
X0011967Y0102955D01*
X0011467Y0102955D01*
X0011467Y0107205D01*
X0010019Y0107205D01*
X0009638Y0107102D01*
X0009296Y0106905D01*
X0009016Y0106626D01*
X0008819Y0106284D01*
X0008717Y0105902D01*
X0008717Y0102955D01*
X0011466Y0102955D01*
X0011466Y0102455D01*
X0008717Y0102455D01*
X0008717Y0099507D01*
X0008819Y0099126D01*
X0009016Y0098784D01*
X0009296Y0098504D01*
X0009638Y0098307D01*
X0010019Y0098205D01*
X0011467Y0098205D01*
X0011467Y0102455D01*
X0011967Y0102455D01*
X0011967Y0098205D01*
X0013414Y0098205D01*
X0013796Y0098307D01*
X0014675Y0099354D02*
X0023917Y0099354D01*
X0023917Y0100353D02*
X0014717Y0100353D01*
X0014717Y0101351D02*
X0023917Y0101351D01*
X0023917Y0102350D02*
X0014717Y0102350D01*
X0014717Y0103348D02*
X0023917Y0103348D01*
X0023917Y0104347D02*
X0014717Y0104347D01*
X0014717Y0105345D02*
X0023917Y0105345D01*
X0024017Y0106344D02*
X0014580Y0106344D01*
X0011967Y0106344D02*
X0011467Y0106344D01*
X0011467Y0105345D02*
X0011967Y0105345D01*
X0011967Y0104347D02*
X0011467Y0104347D01*
X0011467Y0103348D02*
X0011967Y0103348D01*
X0011967Y0102350D02*
X0011467Y0102350D01*
X0011467Y0101351D02*
X0011967Y0101351D01*
X0011967Y0100353D02*
X0011467Y0100353D01*
X0011467Y0099354D02*
X0011967Y0099354D01*
X0011967Y0098356D02*
X0011467Y0098356D01*
X0009553Y0098356D02*
X0006000Y0098356D01*
X0006000Y0099354D02*
X0008758Y0099354D01*
X0008717Y0100353D02*
X0006000Y0100353D01*
X0006000Y0101351D02*
X0008717Y0101351D01*
X0008717Y0102350D02*
X0006000Y0102350D01*
X0006000Y0103348D02*
X0008717Y0103348D01*
X0008717Y0104347D02*
X0006000Y0104347D01*
X0006000Y0105345D02*
X0008717Y0105345D01*
X0008853Y0106344D02*
X0006000Y0106344D01*
X0006000Y0107342D02*
X0031196Y0107342D01*
X0031196Y0106344D02*
X0029416Y0106344D01*
X0029517Y0105345D02*
X0031196Y0105345D01*
X0031196Y0104347D02*
X0029517Y0104347D01*
X0029517Y0103348D02*
X0031196Y0103348D01*
X0031196Y0102350D02*
X0029517Y0102350D01*
X0029517Y0101351D02*
X0031196Y0101351D01*
X0031196Y0100353D02*
X0029517Y0100353D01*
X0029517Y0099354D02*
X0031196Y0099354D01*
X0031196Y0098356D02*
X0028517Y0098356D01*
X0028517Y0097357D02*
X0031196Y0097357D01*
X0031196Y0096359D02*
X0028517Y0096359D01*
X0028517Y0095360D02*
X0031196Y0095360D01*
X0031196Y0094362D02*
X0028517Y0094362D01*
X0028517Y0093363D02*
X0031196Y0093363D01*
X0031196Y0092365D02*
X0028517Y0092365D01*
X0028517Y0091366D02*
X0031196Y0091366D01*
X0031196Y0090368D02*
X0028517Y0090368D01*
X0028517Y0089369D02*
X0031196Y0089369D01*
X0031196Y0088370D02*
X0028517Y0088370D01*
X0028517Y0087372D02*
X0031196Y0087372D01*
X0031196Y0086373D02*
X0028882Y0086373D01*
X0029559Y0085375D02*
X0031196Y0085375D01*
X0031196Y0084376D02*
X0029801Y0084376D01*
X0029724Y0083378D02*
X0031196Y0083378D01*
X0031196Y0082379D02*
X0029281Y0082379D01*
X0028025Y0081381D02*
X0031278Y0081381D01*
X0032996Y0082209D02*
X0032996Y0123547D01*
X0044020Y0134571D01*
X0067277Y0134571D01*
X0067277Y0131421D02*
X0044807Y0131421D01*
X0036933Y0123547D01*
X0036933Y0084177D01*
X0059177Y0057996D01*
X0059177Y0022248D01*
X0057632Y0017476D02*
X0056119Y0017476D01*
X0056017Y0017570D02*
X0056017Y0018338D01*
X0056345Y0018009D01*
X0058183Y0017248D01*
X0060172Y0017248D01*
X0062009Y0018009D01*
X0062377Y0018377D01*
X0062377Y0017645D01*
X0062354Y0017620D01*
X0062377Y0016904D01*
X0062377Y0016187D01*
X0062401Y0016163D01*
X0062402Y0016129D01*
X0062925Y0015640D01*
X0063432Y0015133D01*
X0063466Y0015133D01*
X0064542Y0014124D01*
X0064177Y0013243D01*
X0063416Y0015080D01*
X0062009Y0016487D01*
X0060172Y0017248D01*
X0058183Y0017248D01*
X0056935Y0016731D01*
X0056017Y0017570D01*
X0054217Y0016776D02*
X0054217Y0056618D01*
X0032996Y0082209D01*
X0026717Y0084177D02*
X0026717Y0102705D01*
X0031196Y0108341D02*
X0006000Y0108341D01*
X0006000Y0109339D02*
X0031196Y0109339D01*
X0031196Y0110338D02*
X0006000Y0110338D01*
X0006000Y0111336D02*
X0031196Y0111336D01*
X0031196Y0112335D02*
X0006000Y0112335D01*
X0006000Y0113333D02*
X0031196Y0113333D01*
X0031196Y0114332D02*
X0006000Y0114332D01*
X0006000Y0115330D02*
X0031196Y0115330D01*
X0031196Y0116329D02*
X0006000Y0116329D01*
X0006000Y0117327D02*
X0031196Y0117327D01*
X0031196Y0118326D02*
X0006000Y0118326D01*
X0006000Y0119324D02*
X0031196Y0119324D01*
X0031196Y0120323D02*
X0006000Y0120323D01*
X0006000Y0121321D02*
X0008917Y0121321D01*
X0008917Y0121166D02*
X0009678Y0120405D01*
X0013755Y0120405D01*
X0014517Y0121166D01*
X0014517Y0128243D01*
X0013755Y0129005D01*
X0009678Y0129005D01*
X0008917Y0128243D01*
X0008917Y0121166D01*
X0008917Y0122320D02*
X0006000Y0122320D01*
X0006000Y0123318D02*
X0008917Y0123318D01*
X0008917Y0124317D02*
X0006000Y0124317D01*
X0006000Y0125315D02*
X0008917Y0125315D01*
X0008917Y0126314D02*
X0006000Y0126314D01*
X0006000Y0127312D02*
X0008917Y0127312D01*
X0008984Y0128311D02*
X0006000Y0128311D01*
X0006000Y0129309D02*
X0036213Y0129309D01*
X0035214Y0128311D02*
X0029449Y0128311D01*
X0029517Y0128243D02*
X0028755Y0129005D01*
X0024678Y0129005D01*
X0023917Y0128243D01*
X0023917Y0121166D01*
X0024678Y0120405D01*
X0028755Y0120405D01*
X0029517Y0121166D01*
X0029517Y0128243D01*
X0029517Y0127312D02*
X0034216Y0127312D01*
X0033217Y0126314D02*
X0029517Y0126314D01*
X0029517Y0125315D02*
X0032219Y0125315D01*
X0031220Y0124317D02*
X0029517Y0124317D01*
X0029517Y0123318D02*
X0031196Y0123318D01*
X0031196Y0122320D02*
X0029517Y0122320D01*
X0029517Y0121321D02*
X0031196Y0121321D01*
X0023984Y0128311D02*
X0014449Y0128311D01*
X0014517Y0127312D02*
X0023917Y0127312D01*
X0023917Y0126314D02*
X0014517Y0126314D01*
X0014517Y0125315D02*
X0023917Y0125315D01*
X0023917Y0124317D02*
X0014517Y0124317D01*
X0014517Y0123318D02*
X0023917Y0123318D01*
X0023917Y0122320D02*
X0014517Y0122320D01*
X0014517Y0121321D02*
X0023917Y0121321D01*
X0037211Y0130308D02*
X0006000Y0130308D01*
X0006000Y0131306D02*
X0038210Y0131306D01*
X0039208Y0132305D02*
X0006000Y0132305D01*
X0006000Y0133303D02*
X0040207Y0133303D01*
X0041205Y0134302D02*
X0006000Y0134302D01*
X0006000Y0135301D02*
X0042204Y0135301D01*
X0043202Y0136299D02*
X0006000Y0136299D01*
X0006000Y0137298D02*
X0070865Y0137298D01*
X0070754Y0138296D02*
X0006000Y0138296D01*
X0006000Y0139295D02*
X0070754Y0139295D01*
X0070754Y0140293D02*
X0006000Y0140293D01*
X0006000Y0141292D02*
X0070754Y0141292D01*
X0070754Y0142290D02*
X0006000Y0142290D01*
X0006000Y0143289D02*
X0070754Y0143289D01*
X0070987Y0136299D02*
X0083952Y0136299D01*
X0083952Y0135301D02*
X0071077Y0135301D01*
X0071077Y0134302D02*
X0083952Y0134302D01*
X0083952Y0133303D02*
X0071077Y0133303D01*
X0071077Y0132305D02*
X0083952Y0132305D01*
X0083952Y0131306D02*
X0071077Y0131306D01*
X0071077Y0130308D02*
X0075061Y0130308D01*
X0073767Y0129309D02*
X0071077Y0129309D01*
X0071077Y0128311D02*
X0073307Y0128311D01*
X0073219Y0127312D02*
X0071077Y0127312D01*
X0071077Y0126314D02*
X0073450Y0126314D01*
X0074110Y0125315D02*
X0071077Y0125315D01*
X0071077Y0124317D02*
X0074503Y0124317D01*
X0076303Y0121972D02*
X0076303Y0127484D01*
X0078496Y0125315D02*
X0083952Y0125315D01*
X0083952Y0124317D02*
X0078103Y0124317D01*
X0078103Y0123318D02*
X0083952Y0123318D01*
X0083952Y0122320D02*
X0078103Y0122320D01*
X0078103Y0121321D02*
X0083952Y0121321D01*
X0083952Y0120323D02*
X0077199Y0120323D01*
X0076303Y0121972D02*
X0067277Y0121972D01*
X0052681Y0121972D01*
X0052681Y0088114D01*
X0044807Y0099925D02*
X0044807Y0107799D01*
X0044807Y0115673D02*
X0051106Y0121972D01*
X0052681Y0121972D01*
X0057602Y0118823D02*
X0057602Y0063508D01*
X0064177Y0056618D01*
X0064177Y0016933D01*
X0069177Y0012248D01*
X0072490Y0008490D02*
X0075865Y0008490D01*
X0074908Y0009488D02*
X0073446Y0009488D01*
X0073859Y0010487D02*
X0074495Y0010487D01*
X0074177Y0011485D02*
X0074177Y0011485D01*
X0074177Y0012484D02*
X0074177Y0012484D01*
X0074177Y0013243D02*
X0074605Y0014275D01*
X0073589Y0015291D01*
X0072535Y0016345D01*
X0072535Y0018534D01*
X0072009Y0018009D01*
X0070172Y0017248D01*
X0068183Y0017248D01*
X0066345Y0018009D01*
X0065977Y0018377D01*
X0065977Y0017713D01*
X0066997Y0016757D01*
X0068183Y0017248D01*
X0070172Y0017248D01*
X0072009Y0016487D01*
X0073416Y0015080D01*
X0074177Y0013243D01*
X0074078Y0013482D02*
X0074276Y0013482D01*
X0074399Y0014481D02*
X0073664Y0014481D01*
X0073400Y0015479D02*
X0073017Y0015479D01*
X0072535Y0016478D02*
X0072019Y0016478D01*
X0072535Y0017476D02*
X0070723Y0017476D01*
X0072475Y0018475D02*
X0072535Y0018475D01*
X0074335Y0017091D02*
X0074335Y0054650D01*
X0067277Y0061707D01*
X0067277Y0112524D01*
X0067277Y0115673D02*
X0060555Y0115673D01*
X0060555Y0064492D01*
X0069177Y0055870D01*
X0069177Y0022248D01*
X0067632Y0017476D02*
X0066230Y0017476D01*
X0064162Y0014481D02*
X0063664Y0014481D01*
X0064078Y0013482D02*
X0064276Y0013482D01*
X0064177Y0012484D02*
X0064177Y0012484D01*
X0064177Y0011485D02*
X0064177Y0011485D01*
X0063859Y0010487D02*
X0064495Y0010487D01*
X0064908Y0009488D02*
X0063446Y0009488D01*
X0062490Y0008490D02*
X0065865Y0008490D01*
X0067596Y0007491D02*
X0060758Y0007491D01*
X0059177Y0012248D02*
X0054217Y0016776D01*
X0054072Y0010487D02*
X0054495Y0010487D01*
X0054908Y0009488D02*
X0053599Y0009488D01*
X0052773Y0008490D02*
X0055865Y0008490D01*
X0057596Y0007491D02*
X0051295Y0007491D01*
X0060723Y0017476D02*
X0062359Y0017476D01*
X0062377Y0016478D02*
X0062019Y0016478D01*
X0063017Y0015479D02*
X0063085Y0015479D01*
X0070758Y0007491D02*
X0077596Y0007491D01*
X0080758Y0007491D02*
X0087596Y0007491D01*
X0085865Y0008490D02*
X0082490Y0008490D01*
X0083446Y0009488D02*
X0084908Y0009488D01*
X0084495Y0010487D02*
X0083859Y0010487D01*
X0084177Y0011485D02*
X0084177Y0011485D01*
X0084177Y0012484D02*
X0084177Y0012484D01*
X0084177Y0013243D02*
X0084605Y0014275D01*
X0083432Y0015448D01*
X0082377Y0016502D01*
X0082377Y0018145D01*
X0081903Y0017801D01*
X0081173Y0017429D01*
X0080395Y0017176D01*
X0080359Y0017170D01*
X0082009Y0016487D01*
X0083416Y0015080D01*
X0084177Y0013243D01*
X0084078Y0013482D02*
X0084276Y0013482D01*
X0084399Y0014481D02*
X0083664Y0014481D01*
X0083400Y0015479D02*
X0083017Y0015479D01*
X0082402Y0016478D02*
X0082019Y0016478D01*
X0082377Y0017476D02*
X0081266Y0017476D01*
X0084177Y0017248D02*
X0084177Y0048744D01*
X0073154Y0059768D01*
X0073154Y0106647D01*
X0070754Y0106344D02*
X0069077Y0106344D01*
X0069077Y0107342D02*
X0070754Y0107342D01*
X0070754Y0108341D02*
X0069077Y0108341D01*
X0069077Y0109339D02*
X0070754Y0109339D01*
X0070530Y0110338D02*
X0071406Y0110338D01*
X0071077Y0111336D02*
X0080802Y0111336D01*
X0080802Y0112335D02*
X0071077Y0112335D01*
X0071077Y0113333D02*
X0080802Y0113333D01*
X0080802Y0114332D02*
X0071077Y0114332D01*
X0071077Y0115330D02*
X0080802Y0115330D01*
X0080802Y0116329D02*
X0071077Y0116329D01*
X0071077Y0117327D02*
X0081711Y0117327D01*
X0083952Y0118326D02*
X0071077Y0118326D01*
X0071077Y0119324D02*
X0083952Y0119324D01*
X0087552Y0119324D02*
X0097277Y0119324D01*
X0097277Y0118326D02*
X0087552Y0118326D01*
X0087552Y0120323D02*
X0097277Y0120323D01*
X0097277Y0121321D02*
X0087552Y0121321D01*
X0087552Y0122320D02*
X0097277Y0122320D01*
X0097277Y0123318D02*
X0087552Y0123318D01*
X0087552Y0124317D02*
X0097277Y0124317D01*
X0097277Y0125315D02*
X0087552Y0125315D01*
X0087552Y0126314D02*
X0097277Y0126314D01*
X0097277Y0127312D02*
X0087552Y0127312D01*
X0087552Y0128311D02*
X0097277Y0128311D01*
X0097277Y0129309D02*
X0087552Y0129309D01*
X0085752Y0131421D02*
X0085752Y0140447D01*
X0085752Y0155043D01*
X0087552Y0152275D02*
X0096580Y0152275D01*
X0095582Y0151277D02*
X0087552Y0151277D01*
X0087552Y0150278D02*
X0094583Y0150278D01*
X0093584Y0149280D02*
X0087552Y0149280D01*
X0087552Y0148281D02*
X0093401Y0148281D01*
X0093401Y0147283D02*
X0087552Y0147283D01*
X0087552Y0146284D02*
X0093401Y0146284D01*
X0093401Y0145286D02*
X0087552Y0145286D01*
X0087552Y0144287D02*
X0093401Y0144287D01*
X0097601Y0143289D02*
X0117810Y0143289D01*
X0117810Y0144287D02*
X0115298Y0144287D01*
X0116527Y0145286D02*
X0117810Y0145286D01*
X0117810Y0146284D02*
X0116995Y0146284D01*
X0117123Y0147283D02*
X0117810Y0147283D01*
X0117810Y0148281D02*
X0116967Y0148281D01*
X0116458Y0149280D02*
X0117810Y0149280D01*
X0117810Y0150278D02*
X0115131Y0150278D01*
X0119610Y0153035D02*
X0119610Y0134571D01*
X0101077Y0134571D01*
X0101077Y0131421D02*
X0111736Y0131421D01*
X0113705Y0129453D01*
X0115673Y0127484D01*
X0115673Y0123547D01*
X0119610Y0119610D01*
X0119610Y0106815D01*
X0124531Y0101894D01*
X0124531Y0030043D01*
X0124177Y0029059D01*
X0124177Y0017878D01*
X0129177Y0012248D01*
X0125865Y0008490D02*
X0122490Y0008490D01*
X0123446Y0009488D02*
X0124908Y0009488D01*
X0124495Y0010487D02*
X0123859Y0010487D01*
X0124177Y0011485D02*
X0124177Y0011485D01*
X0124177Y0012484D02*
X0124177Y0012484D01*
X0124177Y0013243D02*
X0124721Y0014555D01*
X0122867Y0016643D01*
X0122377Y0017132D01*
X0122377Y0017194D01*
X0122336Y0017240D01*
X0122377Y0017931D01*
X0122377Y0018377D01*
X0122009Y0018009D01*
X0120172Y0017248D01*
X0118183Y0017248D01*
X0116355Y0018005D01*
X0117359Y0016907D01*
X0118183Y0017248D01*
X0120172Y0017248D01*
X0122009Y0016487D01*
X0123416Y0015080D01*
X0124177Y0013243D01*
X0124078Y0013482D02*
X0124276Y0013482D01*
X0124690Y0014481D02*
X0123664Y0014481D01*
X0123900Y0015479D02*
X0123017Y0015479D01*
X0123013Y0016478D02*
X0122019Y0016478D01*
X0122350Y0017476D02*
X0120723Y0017476D01*
X0117632Y0017476D02*
X0116839Y0017476D01*
X0114177Y0017720D02*
X0119177Y0012248D01*
X0115865Y0008490D02*
X0112490Y0008490D01*
X0113446Y0009488D02*
X0114908Y0009488D01*
X0114495Y0010487D02*
X0113859Y0010487D01*
X0114177Y0011485D02*
X0114177Y0011485D01*
X0114177Y0012484D02*
X0114177Y0012484D01*
X0114177Y0013243D02*
X0114693Y0014488D01*
X0112876Y0016476D01*
X0112377Y0016975D01*
X0112377Y0017022D01*
X0112345Y0017057D01*
X0112377Y0017761D01*
X0112377Y0018377D01*
X0112009Y0018009D01*
X0110172Y0017248D01*
X0108183Y0017248D01*
X0106345Y0018009D01*
X0105977Y0018377D01*
X0105977Y0018277D01*
X0107292Y0016879D01*
X0108183Y0017248D01*
X0110172Y0017248D01*
X0112009Y0016487D01*
X0113416Y0015080D01*
X0114177Y0013243D01*
X0114078Y0013482D02*
X0114276Y0013482D01*
X0114690Y0014481D02*
X0113664Y0014481D01*
X0113787Y0015479D02*
X0113017Y0015479D01*
X0112874Y0016478D02*
X0112019Y0016478D01*
X0112364Y0017476D02*
X0110723Y0017476D01*
X0107632Y0017476D02*
X0106730Y0017476D01*
X0104177Y0017563D02*
X0109177Y0012248D01*
X0105865Y0008490D02*
X0102490Y0008490D01*
X0103446Y0009488D02*
X0104908Y0009488D01*
X0104495Y0010487D02*
X0103859Y0010487D01*
X0104177Y0011485D02*
X0104177Y0011485D01*
X0104177Y0012484D02*
X0104177Y0012484D01*
X0104177Y0013243D02*
X0104664Y0014418D01*
X0102885Y0016309D01*
X0102377Y0016817D01*
X0102377Y0016849D01*
X0102355Y0016873D01*
X0102377Y0017590D01*
X0102377Y0018377D01*
X0102009Y0018009D01*
X0100172Y0017248D01*
X0098183Y0017248D01*
X0096345Y0018009D01*
X0095977Y0018377D01*
X0095977Y0018135D01*
X0097222Y0016850D01*
X0098183Y0017248D01*
X0100172Y0017248D01*
X0102009Y0016487D01*
X0103416Y0015080D01*
X0104177Y0013243D01*
X0104078Y0013482D02*
X0104276Y0013482D01*
X0104606Y0014481D02*
X0103664Y0014481D01*
X0103666Y0015479D02*
X0103017Y0015479D01*
X0102717Y0016478D02*
X0102019Y0016478D01*
X0102374Y0017476D02*
X0100723Y0017476D01*
X0097632Y0017476D02*
X0096616Y0017476D01*
X0094177Y0017406D02*
X0099177Y0012248D01*
X0095865Y0008490D02*
X0092490Y0008490D01*
X0093446Y0009488D02*
X0094908Y0009488D01*
X0094495Y0010487D02*
X0093859Y0010487D01*
X0094177Y0011485D02*
X0094177Y0011485D01*
X0094177Y0012484D02*
X0094177Y0012484D01*
X0094177Y0013243D02*
X0094635Y0014347D01*
X0092895Y0016142D01*
X0092377Y0016660D01*
X0092377Y0016676D01*
X0092366Y0016688D01*
X0092377Y0017420D01*
X0092377Y0018377D01*
X0092009Y0018009D01*
X0090172Y0017248D01*
X0088183Y0017248D01*
X0086345Y0018009D01*
X0085977Y0018377D01*
X0085977Y0017994D01*
X0087150Y0016820D01*
X0088183Y0017248D01*
X0090172Y0017248D01*
X0092009Y0016487D01*
X0093416Y0015080D01*
X0094177Y0013243D01*
X0094078Y0013482D02*
X0094276Y0013482D01*
X0094506Y0014481D02*
X0093664Y0014481D01*
X0093538Y0015479D02*
X0093017Y0015479D01*
X0092559Y0016478D02*
X0092019Y0016478D01*
X0092377Y0017476D02*
X0090723Y0017476D01*
X0087632Y0017476D02*
X0086495Y0017476D01*
X0084177Y0017248D02*
X0089177Y0012248D01*
X0090758Y0007491D02*
X0097596Y0007491D01*
X0100758Y0007491D02*
X0107596Y0007491D01*
X0110758Y0007491D02*
X0117596Y0007491D01*
X0120758Y0007491D02*
X0127596Y0007491D01*
X0127423Y0016934D02*
X0126540Y0017929D01*
X0128183Y0017248D01*
X0130172Y0017248D01*
X0128183Y0017248D01*
X0127423Y0016934D01*
X0127632Y0017476D02*
X0126941Y0017476D01*
X0129177Y0022248D02*
X0127484Y0023941D01*
X0127484Y0103862D01*
X0121579Y0109768D01*
X0121579Y0121579D01*
X0119610Y0123547D01*
X0119610Y0134571D01*
X0117810Y0137298D02*
X0097490Y0137298D01*
X0097601Y0138296D02*
X0117810Y0138296D01*
X0117810Y0139295D02*
X0097601Y0139295D01*
X0097601Y0140293D02*
X0117810Y0140293D01*
X0117810Y0141292D02*
X0097601Y0141292D01*
X0097601Y0142290D02*
X0117810Y0142290D01*
X0121410Y0150278D02*
X0122515Y0150278D01*
X0119610Y0153035D02*
X0123823Y0157248D01*
X0110298Y0156269D02*
X0106989Y0156269D01*
X0106512Y0155271D02*
X0109300Y0155271D01*
X0108301Y0154272D02*
X0105262Y0154272D01*
X0098457Y0167253D02*
X0097457Y0167253D01*
X0097457Y0168251D02*
X0098457Y0168251D01*
X0098457Y0169250D02*
X0097457Y0169250D01*
X0097457Y0170248D02*
X0098457Y0170248D01*
X0094723Y0170248D02*
X0093448Y0170248D01*
X0094139Y0172245D02*
X0094294Y0172245D01*
X0097957Y0174728D02*
X0090083Y0174728D01*
X0086027Y0174242D02*
X0080553Y0174242D01*
X0081329Y0173244D02*
X0086027Y0173244D01*
X0086027Y0175241D02*
X0079256Y0175241D01*
X0086027Y0176239D02*
X0022179Y0176239D01*
X0022994Y0175241D02*
X0034212Y0175241D01*
X0034208Y0175239D02*
X0033545Y0174758D01*
X0032967Y0174179D01*
X0032486Y0173517D01*
X0032114Y0172787D01*
X0031861Y0172009D01*
X0031747Y0171291D01*
X0036433Y0171291D01*
X0036433Y0175977D01*
X0035715Y0175863D01*
X0034937Y0175610D01*
X0034208Y0175239D01*
X0033030Y0174242D02*
X0023570Y0174242D01*
X0024147Y0173244D02*
X0032347Y0173244D01*
X0031938Y0172245D02*
X0024438Y0172245D01*
X0024706Y0171247D02*
X0036433Y0171247D01*
X0036433Y0170291D02*
X0031747Y0170291D01*
X0031861Y0169574D01*
X0032114Y0168795D01*
X0032486Y0168066D01*
X0032967Y0167404D01*
X0033545Y0166825D01*
X0034208Y0166344D01*
X0034937Y0165972D01*
X0035715Y0165719D01*
X0036433Y0165606D01*
X0036433Y0170291D01*
X0036433Y0170248D02*
X0037433Y0170248D01*
X0037433Y0169250D02*
X0036433Y0169250D01*
X0036433Y0168251D02*
X0037433Y0168251D01*
X0037433Y0167253D02*
X0036433Y0167253D01*
X0036433Y0166254D02*
X0037433Y0166254D01*
X0039483Y0166254D02*
X0044821Y0166254D01*
X0043400Y0167253D02*
X0040749Y0167253D01*
X0041475Y0168251D02*
X0042573Y0168251D01*
X0042160Y0169250D02*
X0041900Y0169250D01*
X0041928Y0172245D02*
X0042123Y0172245D01*
X0042537Y0173244D02*
X0041520Y0173244D01*
X0040836Y0174242D02*
X0043313Y0174242D01*
X0044610Y0175241D02*
X0039654Y0175241D01*
X0037433Y0175241D02*
X0036433Y0175241D01*
X0036433Y0174242D02*
X0037433Y0174242D01*
X0037433Y0173244D02*
X0036433Y0173244D01*
X0036433Y0172245D02*
X0037433Y0172245D01*
X0032391Y0168251D02*
X0024941Y0168251D01*
X0024941Y0169250D02*
X0031966Y0169250D01*
X0031754Y0170248D02*
X0024941Y0170248D01*
X0024882Y0167253D02*
X0033118Y0167253D01*
X0034383Y0166254D02*
X0024614Y0166254D01*
X0024347Y0165256D02*
X0065133Y0165256D01*
X0065133Y0164257D02*
X0023950Y0164257D01*
X0023373Y0163259D02*
X0065133Y0163259D01*
X0065133Y0162260D02*
X0022797Y0162260D01*
X0021838Y0161262D02*
X0065133Y0161262D01*
X0065133Y0160263D02*
X0020839Y0160263D01*
X0019215Y0159265D02*
X0065133Y0159265D01*
X0065133Y0158266D02*
X0016677Y0158266D01*
X0011205Y0158266D02*
X0006000Y0158266D01*
X0006000Y0157268D02*
X0065133Y0157268D01*
X0065133Y0156269D02*
X0006000Y0156269D01*
X0006000Y0155271D02*
X0065133Y0155271D01*
X0065159Y0154272D02*
X0006000Y0154272D01*
X0006000Y0153274D02*
X0066157Y0153274D01*
X0068733Y0157268D02*
X0088283Y0157268D01*
X0088283Y0158266D02*
X0068733Y0158266D01*
X0068733Y0159265D02*
X0088283Y0159265D01*
X0088283Y0160263D02*
X0068733Y0160263D01*
X0064821Y0166254D02*
X0059045Y0166254D01*
X0060466Y0167253D02*
X0063400Y0167253D01*
X0062573Y0168251D02*
X0061293Y0168251D01*
X0061707Y0169250D02*
X0062160Y0169250D01*
X0061933Y0169797D02*
X0061933Y0171786D01*
X0061933Y0169797D01*
X0061933Y0170248D02*
X0061933Y0170248D01*
X0061933Y0171247D02*
X0061933Y0171247D01*
X0061743Y0172245D02*
X0062123Y0172245D01*
X0062537Y0173244D02*
X0061329Y0173244D01*
X0060553Y0174242D02*
X0063313Y0174242D01*
X0064610Y0175241D02*
X0059256Y0175241D01*
X0054610Y0175241D02*
X0049256Y0175241D01*
X0050553Y0174242D02*
X0053313Y0174242D01*
X0052537Y0173244D02*
X0051329Y0173244D01*
X0051743Y0172245D02*
X0052123Y0172245D01*
X0051933Y0171247D02*
X0051933Y0171247D01*
X0051933Y0170248D02*
X0051933Y0170248D01*
X0051707Y0169250D02*
X0052160Y0169250D01*
X0052573Y0168251D02*
X0051293Y0168251D01*
X0050466Y0167253D02*
X0053400Y0167253D01*
X0054821Y0166254D02*
X0049045Y0166254D01*
X0021181Y0177238D02*
X0086027Y0177238D01*
X0086027Y0166254D02*
X0079045Y0166254D01*
X0083952Y0152275D02*
X0006000Y0152275D01*
X0006000Y0151277D02*
X0083952Y0151277D01*
X0083952Y0150278D02*
X0006000Y0150278D01*
X0006000Y0149280D02*
X0083952Y0149280D01*
X0083952Y0148281D02*
X0006000Y0148281D01*
X0006000Y0147283D02*
X0083952Y0147283D01*
X0083952Y0146284D02*
X0006000Y0146284D01*
X0006000Y0145286D02*
X0083952Y0145286D01*
X0082652Y0144287D02*
X0082552Y0144287D01*
X0082552Y0143289D02*
X0082652Y0143289D01*
X0082652Y0142290D02*
X0082552Y0142290D01*
X0082552Y0141292D02*
X0082652Y0141292D01*
X0082652Y0140293D02*
X0082552Y0140293D01*
X0082552Y0139295D02*
X0082652Y0139295D01*
X0082652Y0138296D02*
X0082552Y0138296D01*
X0082552Y0137298D02*
X0082652Y0137298D01*
X0083952Y0130308D02*
X0077546Y0130308D01*
X0078840Y0129309D02*
X0083952Y0129309D01*
X0083952Y0128311D02*
X0079299Y0128311D01*
X0079387Y0127312D02*
X0083952Y0127312D01*
X0083952Y0126314D02*
X0079157Y0126314D01*
X0088902Y0115673D02*
X0088902Y0106647D01*
X0092051Y0106647D02*
X0092051Y0088114D01*
X0086146Y0088114D01*
X0086146Y0073744D01*
X0087946Y0078385D02*
X0100094Y0078385D01*
X0100094Y0079384D02*
X0087946Y0079384D01*
X0087946Y0080382D02*
X0100094Y0080382D01*
X0100094Y0081381D02*
X0087946Y0081381D01*
X0090911Y0082379D02*
X0097129Y0082379D01*
X0096657Y0083378D02*
X0091383Y0083378D01*
X0091383Y0084376D02*
X0096657Y0084376D01*
X0096657Y0085375D02*
X0091383Y0085375D01*
X0092856Y0086373D02*
X0094396Y0086373D01*
X0098186Y0077387D02*
X0089853Y0077387D01*
X0090398Y0076388D02*
X0097641Y0076388D01*
X0097641Y0075390D02*
X0090398Y0075390D01*
X0090398Y0074391D02*
X0097641Y0074391D01*
X0097641Y0073393D02*
X0090398Y0073393D01*
X0090398Y0072394D02*
X0097641Y0072394D01*
X0097641Y0071396D02*
X0090398Y0071396D01*
X0090376Y0070397D02*
X0097663Y0070397D01*
X0097441Y0069399D02*
X0090598Y0069399D01*
X0090598Y0068400D02*
X0097441Y0068400D01*
X0097441Y0066551D02*
X0097441Y0064295D01*
X0097543Y0063913D01*
X0097741Y0063571D01*
X0098020Y0063292D01*
X0098362Y0063094D01*
X0098743Y0062992D01*
X0101394Y0062992D01*
X0101394Y0066551D01*
X0097441Y0066551D01*
X0097441Y0066403D02*
X0090598Y0066403D01*
X0090598Y0066551D02*
X0086646Y0066551D01*
X0086646Y0062992D01*
X0089296Y0062992D01*
X0089677Y0063094D01*
X0090019Y0063292D01*
X0090299Y0063571D01*
X0090496Y0063913D01*
X0090598Y0064295D01*
X0090598Y0066551D01*
X0090598Y0065405D02*
X0097441Y0065405D01*
X0097441Y0064406D02*
X0090598Y0064406D01*
X0090135Y0063408D02*
X0097904Y0063408D01*
X0101394Y0063408D02*
X0102394Y0063408D01*
X0102394Y0062992D02*
X0105044Y0062992D01*
X0105425Y0063094D01*
X0105767Y0063292D01*
X0106047Y0063571D01*
X0106244Y0063913D01*
X0106346Y0064295D01*
X0106346Y0066551D01*
X0102394Y0066551D01*
X0102394Y0062992D01*
X0102394Y0064406D02*
X0101394Y0064406D01*
X0101394Y0065405D02*
X0102394Y0065405D01*
X0102394Y0066403D02*
X0101394Y0066403D01*
X0101394Y0067402D02*
X0086646Y0067402D01*
X0086646Y0066403D02*
X0085646Y0066403D01*
X0085646Y0066551D02*
X0085646Y0062992D01*
X0082995Y0062992D01*
X0082614Y0063094D01*
X0082272Y0063292D01*
X0081993Y0063571D01*
X0081795Y0063913D01*
X0081693Y0064295D01*
X0081693Y0066551D01*
X0085646Y0066551D01*
X0085646Y0067402D02*
X0078103Y0067402D01*
X0078103Y0068400D02*
X0081693Y0068400D01*
X0081693Y0069399D02*
X0078103Y0069399D01*
X0078103Y0070397D02*
X0081915Y0070397D01*
X0081893Y0071396D02*
X0078103Y0071396D01*
X0078103Y0072394D02*
X0081893Y0072394D01*
X0081893Y0073393D02*
X0078103Y0073393D01*
X0078103Y0074391D02*
X0081893Y0074391D01*
X0081893Y0075390D02*
X0078103Y0075390D01*
X0078103Y0076388D02*
X0081893Y0076388D01*
X0082438Y0077387D02*
X0078103Y0077387D01*
X0078103Y0078385D02*
X0084346Y0078385D01*
X0084346Y0079384D02*
X0078103Y0079384D01*
X0078103Y0080382D02*
X0084346Y0080382D01*
X0084346Y0081381D02*
X0078103Y0081381D01*
X0078103Y0082379D02*
X0081381Y0082379D01*
X0080909Y0083378D02*
X0078103Y0083378D01*
X0078103Y0084376D02*
X0080909Y0084376D01*
X0080909Y0085375D02*
X0078103Y0085375D01*
X0078103Y0086373D02*
X0080909Y0086373D01*
X0080909Y0087372D02*
X0078103Y0087372D01*
X0078103Y0088370D02*
X0080909Y0088370D01*
X0080909Y0089369D02*
X0078103Y0089369D01*
X0078103Y0090368D02*
X0080909Y0090368D01*
X0080909Y0091366D02*
X0078103Y0091366D01*
X0078103Y0092365D02*
X0080909Y0092365D01*
X0080909Y0093363D02*
X0078103Y0093363D01*
X0078103Y0094362D02*
X0090251Y0094362D01*
X0090251Y0095360D02*
X0078103Y0095360D01*
X0078103Y0096359D02*
X0090251Y0096359D01*
X0090251Y0097357D02*
X0078103Y0097357D01*
X0078103Y0098356D02*
X0090251Y0098356D01*
X0090251Y0099354D02*
X0078103Y0099354D01*
X0078103Y0100353D02*
X0090251Y0100353D01*
X0090251Y0101351D02*
X0078103Y0101351D01*
X0078103Y0102350D02*
X0090251Y0102350D01*
X0085802Y0103348D02*
X0085702Y0103348D01*
X0085702Y0104347D02*
X0085802Y0104347D01*
X0085802Y0105345D02*
X0085702Y0105345D01*
X0079503Y0105345D02*
X0079403Y0105345D01*
X0079403Y0104347D02*
X0079503Y0104347D01*
X0079503Y0103348D02*
X0079403Y0103348D01*
X0079403Y0106344D02*
X0079503Y0106344D01*
X0079503Y0107342D02*
X0079403Y0107342D01*
X0079403Y0108341D02*
X0079503Y0108341D01*
X0079503Y0109339D02*
X0079403Y0109339D01*
X0079403Y0110338D02*
X0079503Y0110338D01*
X0076303Y0106647D02*
X0076303Y0060555D01*
X0089177Y0047681D01*
X0089177Y0022248D01*
X0092033Y0026463D02*
X0092377Y0026463D01*
X0092377Y0027461D02*
X0090977Y0027461D01*
X0090977Y0028460D02*
X0092375Y0028460D01*
X0093014Y0029458D02*
X0090977Y0029458D01*
X0090977Y0030457D02*
X0094004Y0030457D01*
X0094993Y0031455D02*
X0090977Y0031455D01*
X0090977Y0032454D02*
X0095983Y0032454D01*
X0096973Y0033452D02*
X0090977Y0033452D01*
X0090977Y0034451D02*
X0097962Y0034451D01*
X0098952Y0035449D02*
X0090977Y0035449D01*
X0090977Y0036448D02*
X0099942Y0036448D01*
X0100931Y0037446D02*
X0090977Y0037446D01*
X0090977Y0038445D02*
X0101921Y0038445D01*
X0102910Y0039443D02*
X0090977Y0039443D01*
X0090977Y0040442D02*
X0103900Y0040442D01*
X0104890Y0041440D02*
X0090977Y0041440D01*
X0090977Y0042439D02*
X0105879Y0042439D01*
X0106869Y0043437D02*
X0090977Y0043437D01*
X0090977Y0044436D02*
X0107859Y0044436D01*
X0108848Y0045434D02*
X0090977Y0045434D01*
X0090977Y0046433D02*
X0109838Y0046433D01*
X0109936Y0047432D02*
X0090977Y0047432D01*
X0090974Y0048430D02*
X0109936Y0048430D01*
X0109936Y0049429D02*
X0089975Y0049429D01*
X0088977Y0050427D02*
X0109936Y0050427D01*
X0109936Y0051426D02*
X0087978Y0051426D01*
X0086980Y0052424D02*
X0109936Y0052424D01*
X0109936Y0053423D02*
X0085981Y0053423D01*
X0084983Y0054421D02*
X0109936Y0054421D01*
X0109936Y0055420D02*
X0083984Y0055420D01*
X0082986Y0056418D02*
X0109936Y0056418D01*
X0109936Y0057417D02*
X0081987Y0057417D01*
X0080989Y0058415D02*
X0109936Y0058415D01*
X0109936Y0059414D02*
X0079990Y0059414D01*
X0078992Y0060412D02*
X0109936Y0060412D01*
X0109936Y0061411D02*
X0078103Y0061411D01*
X0078103Y0062409D02*
X0109936Y0062409D01*
X0109936Y0063408D02*
X0105883Y0063408D01*
X0106346Y0064406D02*
X0109936Y0064406D01*
X0109936Y0065405D02*
X0106346Y0065405D01*
X0106346Y0066403D02*
X0109936Y0066403D01*
X0109936Y0067402D02*
X0102394Y0067402D01*
X0106346Y0068400D02*
X0109936Y0068400D01*
X0109936Y0069399D02*
X0106346Y0069399D01*
X0106124Y0070397D02*
X0109936Y0070397D01*
X0109936Y0071396D02*
X0106146Y0071396D01*
X0106146Y0072394D02*
X0109936Y0072394D01*
X0109936Y0073393D02*
X0106146Y0073393D01*
X0106146Y0074391D02*
X0109936Y0074391D01*
X0109936Y0075390D02*
X0106146Y0075390D01*
X0106146Y0076388D02*
X0109936Y0076388D01*
X0109936Y0077387D02*
X0105601Y0077387D01*
X0103694Y0078385D02*
X0109936Y0078385D01*
X0109936Y0079384D02*
X0103694Y0079384D01*
X0103694Y0080382D02*
X0109936Y0080382D01*
X0109936Y0081381D02*
X0103694Y0081381D01*
X0106659Y0082379D02*
X0109936Y0082379D01*
X0109936Y0083378D02*
X0107131Y0083378D01*
X0107131Y0084376D02*
X0109936Y0084376D01*
X0109936Y0085375D02*
X0107131Y0085375D01*
X0107131Y0086373D02*
X0109936Y0086373D01*
X0109936Y0087372D02*
X0107131Y0087372D01*
X0107131Y0088370D02*
X0109936Y0088370D01*
X0109936Y0089369D02*
X0107131Y0089369D01*
X0107131Y0090368D02*
X0109936Y0090368D01*
X0109876Y0091366D02*
X0107131Y0091366D01*
X0107131Y0092365D02*
X0108877Y0092365D01*
X0107879Y0093363D02*
X0107131Y0093363D01*
X0106880Y0094362D02*
X0097001Y0094362D01*
X0097001Y0095360D02*
X0105882Y0095360D01*
X0104883Y0096359D02*
X0097001Y0096359D01*
X0097001Y0097357D02*
X0103885Y0097357D01*
X0102886Y0098356D02*
X0097001Y0098356D01*
X0097001Y0099354D02*
X0101888Y0099354D01*
X0100889Y0100353D02*
X0097001Y0100353D01*
X0097001Y0101351D02*
X0099891Y0101351D01*
X0099277Y0102350D02*
X0097001Y0102350D01*
X0097340Y0103348D02*
X0099277Y0103348D01*
X0099277Y0104347D02*
X0097601Y0104347D01*
X0097601Y0105345D02*
X0099277Y0105345D01*
X0101077Y0102710D02*
X0111736Y0092051D01*
X0111736Y0045791D01*
X0094177Y0028075D01*
X0094177Y0017406D01*
X0099177Y0022248D02*
X0099177Y0028311D01*
X0113705Y0042839D01*
X0113705Y0094020D01*
X0107799Y0099925D01*
X0107799Y0111736D01*
X0103862Y0115673D01*
X0101077Y0115673D01*
X0101077Y0112524D02*
X0101077Y0102710D01*
X0109768Y0101894D02*
X0109768Y0113705D01*
X0104650Y0118823D01*
X0101077Y0118823D01*
X0101077Y0121972D02*
X0105437Y0121972D01*
X0111736Y0115673D01*
X0111736Y0103862D01*
X0117642Y0097957D01*
X0117642Y0036933D01*
X0109177Y0028469D01*
X0109177Y0022248D01*
X0114177Y0017720D02*
X0114177Y0027091D01*
X0119610Y0032996D01*
X0119610Y0099925D01*
X0113705Y0105831D01*
X0113705Y0116657D01*
X0105240Y0125122D01*
X0101077Y0125122D01*
X0101077Y0128272D02*
X0107012Y0128272D01*
X0116657Y0118626D01*
X0116657Y0106815D01*
X0121579Y0101894D01*
X0121579Y0031028D01*
X0119177Y0028626D01*
X0119177Y0022248D01*
X0104177Y0029059D02*
X0115673Y0040870D01*
X0115673Y0095988D01*
X0109768Y0101894D01*
X0113705Y0129453D02*
X0111736Y0131421D01*
X0097277Y0131306D02*
X0093851Y0131306D01*
X0093851Y0132305D02*
X0097277Y0132305D01*
X0097277Y0133303D02*
X0093851Y0133303D01*
X0093851Y0134302D02*
X0097277Y0134302D01*
X0097277Y0135301D02*
X0093851Y0135301D01*
X0093851Y0136299D02*
X0097367Y0136299D01*
X0097277Y0130308D02*
X0093483Y0130308D01*
X0080823Y0144287D02*
X0006000Y0144287D01*
X0006000Y0159265D02*
X0008666Y0159265D01*
X0007043Y0160263D02*
X0006000Y0160263D01*
X0006000Y0161262D02*
X0006044Y0161262D01*
X0046933Y0125122D02*
X0067277Y0125122D01*
X0067277Y0128272D02*
X0056933Y0128272D01*
X0057602Y0118823D02*
X0067277Y0118823D01*
X0069077Y0105345D02*
X0070754Y0105345D01*
X0070754Y0104347D02*
X0069077Y0104347D01*
X0069077Y0103348D02*
X0071014Y0103348D01*
X0071354Y0102350D02*
X0069077Y0102350D01*
X0069077Y0101351D02*
X0071354Y0101351D01*
X0071354Y0100353D02*
X0069077Y0100353D01*
X0069077Y0099354D02*
X0071354Y0099354D01*
X0071354Y0098356D02*
X0069077Y0098356D01*
X0069077Y0097357D02*
X0071354Y0097357D01*
X0071354Y0096359D02*
X0069077Y0096359D01*
X0069077Y0095360D02*
X0071354Y0095360D01*
X0071354Y0094362D02*
X0069077Y0094362D01*
X0069077Y0093363D02*
X0071354Y0093363D01*
X0071354Y0092365D02*
X0069077Y0092365D01*
X0069077Y0091366D02*
X0071354Y0091366D01*
X0071354Y0090368D02*
X0069077Y0090368D01*
X0069077Y0089369D02*
X0071354Y0089369D01*
X0071354Y0088370D02*
X0069077Y0088370D01*
X0069077Y0087372D02*
X0071354Y0087372D01*
X0071354Y0086373D02*
X0069077Y0086373D01*
X0069077Y0085375D02*
X0071354Y0085375D01*
X0071354Y0084376D02*
X0069077Y0084376D01*
X0069077Y0083378D02*
X0071354Y0083378D01*
X0071354Y0082379D02*
X0069077Y0082379D01*
X0069077Y0081381D02*
X0071354Y0081381D01*
X0071354Y0080382D02*
X0069077Y0080382D01*
X0069077Y0079384D02*
X0071354Y0079384D01*
X0071354Y0078385D02*
X0069077Y0078385D01*
X0069077Y0077387D02*
X0071354Y0077387D01*
X0071354Y0076388D02*
X0069077Y0076388D01*
X0069077Y0075390D02*
X0071354Y0075390D01*
X0071354Y0074391D02*
X0069077Y0074391D01*
X0069077Y0073393D02*
X0071354Y0073393D01*
X0071354Y0072394D02*
X0069077Y0072394D01*
X0069077Y0071396D02*
X0071354Y0071396D01*
X0071354Y0070397D02*
X0069077Y0070397D01*
X0069077Y0069399D02*
X0071354Y0069399D01*
X0071354Y0068400D02*
X0069077Y0068400D01*
X0069077Y0067402D02*
X0071354Y0067402D01*
X0071354Y0066403D02*
X0069077Y0066403D01*
X0069077Y0065405D02*
X0071354Y0065405D01*
X0071354Y0064406D02*
X0069077Y0064406D01*
X0069077Y0063408D02*
X0071354Y0063408D01*
X0071354Y0062409D02*
X0069121Y0062409D01*
X0070119Y0061411D02*
X0071354Y0061411D01*
X0071354Y0060412D02*
X0071118Y0060412D01*
X0076135Y0054241D02*
X0082377Y0047998D01*
X0082377Y0026351D01*
X0081903Y0026695D01*
X0081173Y0027067D01*
X0080395Y0027320D01*
X0079677Y0027434D01*
X0079677Y0022748D01*
X0078677Y0022748D01*
X0078677Y0027434D01*
X0077959Y0027320D01*
X0077181Y0027067D01*
X0076452Y0026695D01*
X0076135Y0026465D01*
X0076135Y0054241D01*
X0076135Y0053423D02*
X0076953Y0053423D01*
X0076135Y0052424D02*
X0077952Y0052424D01*
X0078950Y0051426D02*
X0076135Y0051426D01*
X0076135Y0050427D02*
X0079949Y0050427D01*
X0080947Y0049429D02*
X0076135Y0049429D01*
X0076135Y0048430D02*
X0081946Y0048430D01*
X0082377Y0047432D02*
X0076135Y0047432D01*
X0076135Y0046433D02*
X0082377Y0046433D01*
X0082377Y0045434D02*
X0076135Y0045434D01*
X0076135Y0044436D02*
X0082377Y0044436D01*
X0082377Y0043437D02*
X0076135Y0043437D01*
X0076135Y0042439D02*
X0082377Y0042439D01*
X0082377Y0041440D02*
X0076135Y0041440D01*
X0076135Y0040442D02*
X0082377Y0040442D01*
X0082377Y0039443D02*
X0076135Y0039443D01*
X0076135Y0038445D02*
X0082377Y0038445D01*
X0082377Y0037446D02*
X0076135Y0037446D01*
X0076135Y0036448D02*
X0082377Y0036448D01*
X0082377Y0035449D02*
X0076135Y0035449D01*
X0076135Y0034451D02*
X0082377Y0034451D01*
X0082377Y0033452D02*
X0076135Y0033452D01*
X0076135Y0032454D02*
X0082377Y0032454D01*
X0082377Y0031455D02*
X0076135Y0031455D01*
X0076135Y0030457D02*
X0082377Y0030457D01*
X0082377Y0029458D02*
X0076135Y0029458D01*
X0076135Y0028460D02*
X0082377Y0028460D01*
X0082377Y0027461D02*
X0076135Y0027461D01*
X0078677Y0026463D02*
X0079677Y0026463D01*
X0079677Y0025464D02*
X0078677Y0025464D01*
X0078677Y0024466D02*
X0079677Y0024466D01*
X0079677Y0023467D02*
X0078677Y0023467D01*
X0082223Y0026463D02*
X0082377Y0026463D01*
X0074335Y0017091D02*
X0079177Y0012248D01*
X0104177Y0017563D02*
X0104177Y0029059D01*
X0086646Y0063408D02*
X0085646Y0063408D01*
X0085646Y0064406D02*
X0086646Y0064406D01*
X0086646Y0065405D02*
X0085646Y0065405D01*
X0081693Y0065405D02*
X0078103Y0065405D01*
X0078103Y0066403D02*
X0081693Y0066403D01*
X0081693Y0064406D02*
X0078103Y0064406D01*
X0078103Y0063408D02*
X0082156Y0063408D01*
X0010659Y0027461D02*
X0006000Y0027461D01*
X0006000Y0026463D02*
X0008413Y0026463D01*
X0006896Y0025464D02*
X0006000Y0025464D01*
X0097957Y0174728D02*
X0097957Y0174925D01*
D21*
X0113705Y0129453D03*
X0076303Y0127484D03*
X0056933Y0128272D03*
X0046933Y0125122D03*
X0044807Y0099925D03*
X0052681Y0088114D03*
X0026717Y0084177D03*
M02*
