G75*
%MOIN*%
%OFA0B0*%
%FSLAX25Y25*%
%IPPOS*%
%LPD*%
%AMOC8*
5,1,8,0,0,1.08239X$1,22.5*
%
%ADD10C,0.00000*%
%ADD11R,0.00650X0.00050*%
%ADD12R,0.00850X0.00050*%
%ADD13R,0.01050X0.00050*%
%ADD14R,0.01150X0.00050*%
%ADD15R,0.01250X0.00050*%
%ADD16R,0.01350X0.00050*%
%ADD17R,0.01450X0.00050*%
%ADD18R,0.01550X0.00050*%
%ADD19R,0.01650X0.00050*%
%ADD20R,0.01700X0.00050*%
%ADD21R,0.01750X0.00050*%
%ADD22R,0.01800X0.00050*%
%ADD23R,0.01900X0.00050*%
%ADD24R,0.01850X0.00050*%
%ADD25R,0.01950X0.00050*%
%ADD26R,0.02000X0.00050*%
%ADD27R,0.02050X0.00050*%
%ADD28R,0.02100X0.00050*%
%ADD29R,0.02150X0.00050*%
%ADD30R,0.13150X0.00050*%
%ADD31R,0.13100X0.00050*%
%ADD32R,0.13050X0.00050*%
%ADD33R,0.12950X0.00050*%
%ADD34R,0.12850X0.00050*%
%ADD35R,0.12800X0.00050*%
%ADD36R,0.12750X0.00050*%
%ADD37R,0.12700X0.00050*%
%ADD38R,0.12650X0.00050*%
%ADD39R,0.12550X0.00050*%
%ADD40R,0.12450X0.00050*%
%ADD41R,0.12400X0.00050*%
%ADD42R,0.12350X0.00050*%
%ADD43R,0.12250X0.00050*%
%ADD44R,0.12150X0.00050*%
%ADD45R,0.13250X0.00050*%
%ADD46R,0.13350X0.00050*%
%ADD47R,0.13450X0.00050*%
%ADD48R,0.13500X0.00050*%
%ADD49R,0.13550X0.00050*%
%ADD50R,0.13650X0.00050*%
%ADD51R,0.13750X0.00050*%
%ADD52R,0.13850X0.00050*%
%ADD53R,0.13900X0.00050*%
%ADD54R,0.13950X0.00050*%
%ADD55R,0.14050X0.00050*%
%ADD56R,0.14150X0.00050*%
%ADD57R,0.14200X0.00050*%
%ADD58R,0.14250X0.00050*%
%ADD59R,0.14300X0.00050*%
%ADD60R,0.14350X0.00050*%
%ADD61R,0.14450X0.00050*%
%ADD62R,0.14550X0.00050*%
%ADD63R,0.14600X0.00050*%
%ADD64R,0.14650X0.00050*%
%ADD65R,0.14750X0.00050*%
%ADD66R,0.14850X0.00050*%
%ADD67R,0.14950X0.00050*%
%ADD68R,0.15000X0.00050*%
%ADD69R,0.15050X0.00050*%
%ADD70R,0.15150X0.00050*%
%ADD71R,0.15250X0.00050*%
%ADD72R,0.15300X0.00050*%
%ADD73R,0.15350X0.00050*%
%ADD74R,0.15400X0.00050*%
%ADD75R,0.15450X0.00050*%
%ADD76R,0.15550X0.00050*%
%ADD77R,0.15650X0.00050*%
%ADD78R,0.15700X0.00050*%
%ADD79R,0.15750X0.00050*%
%ADD80R,0.15800X0.00050*%
%ADD81R,0.15850X0.00050*%
%ADD82R,0.15950X0.00050*%
%ADD83R,0.16050X0.00050*%
%ADD84R,0.16100X0.00050*%
%ADD85R,0.16150X0.00050*%
%ADD86R,0.16250X0.00050*%
%ADD87R,0.16350X0.00050*%
%ADD88R,0.16450X0.00050*%
%ADD89R,0.16500X0.00050*%
%ADD90R,0.16550X0.00050*%
%ADD91R,0.16650X0.00050*%
%ADD92R,0.16750X0.00050*%
%ADD93R,0.16800X0.00050*%
%ADD94R,0.16850X0.00050*%
%ADD95R,0.16900X0.00050*%
%ADD96R,0.16950X0.00050*%
%ADD97R,0.17050X0.00050*%
%ADD98R,0.17150X0.00050*%
%ADD99R,0.17200X0.00050*%
%ADD100R,0.17250X0.00050*%
%ADD101R,0.17350X0.00050*%
%ADD102R,0.17450X0.00050*%
%ADD103R,0.17550X0.00050*%
%ADD104R,0.17600X0.00050*%
%ADD105R,0.17650X0.00050*%
%ADD106R,0.17750X0.00050*%
%ADD107R,0.17850X0.00050*%
%ADD108R,0.17950X0.00050*%
%ADD109R,0.18000X0.00050*%
%ADD110R,0.18050X0.00050*%
%ADD111R,0.18150X0.00050*%
%ADD112R,0.18250X0.00050*%
%ADD113R,0.18300X0.00050*%
%ADD114R,0.18350X0.00050*%
%ADD115R,0.18400X0.00050*%
%ADD116R,0.18450X0.00050*%
%ADD117R,0.18550X0.00050*%
%ADD118R,0.18650X0.00050*%
%ADD119R,0.18700X0.00050*%
%ADD120R,0.18750X0.00050*%
%ADD121R,0.18850X0.00050*%
%ADD122R,0.18950X0.00050*%
%ADD123R,0.19050X0.00050*%
%ADD124R,0.19100X0.00050*%
%ADD125R,0.19150X0.00050*%
%ADD126R,0.19250X0.00050*%
%ADD127R,0.19350X0.00050*%
%ADD128R,0.19400X0.00050*%
%ADD129R,0.19450X0.00050*%
%ADD130R,0.19500X0.00050*%
%ADD131R,0.19550X0.00050*%
%ADD132R,0.19650X0.00050*%
%ADD133R,0.19750X0.00050*%
%ADD134R,0.19800X0.00050*%
%ADD135R,0.19850X0.00050*%
%ADD136R,0.19900X0.00050*%
%ADD137R,0.19950X0.00050*%
%ADD138R,0.20050X0.00050*%
%ADD139R,0.20150X0.00050*%
%ADD140R,0.20200X0.00050*%
%ADD141R,0.20250X0.00050*%
%ADD142R,0.20350X0.00050*%
%ADD143R,0.20450X0.00050*%
%ADD144R,0.20550X0.00050*%
%ADD145R,0.20600X0.00050*%
%ADD146R,0.20650X0.00050*%
%ADD147R,0.20750X0.00050*%
%ADD148R,0.20850X0.00050*%
%ADD149R,0.20900X0.00050*%
%ADD150R,0.20950X0.00050*%
%ADD151R,0.21000X0.00050*%
%ADD152R,0.21050X0.00050*%
%ADD153R,0.29400X0.00050*%
%ADD154R,0.29600X0.00050*%
%ADD155R,0.29750X0.00050*%
%ADD156R,0.29900X0.00050*%
%ADD157R,0.29950X0.00050*%
%ADD158R,0.30050X0.00050*%
%ADD159R,0.30100X0.00050*%
%ADD160R,0.30200X0.00050*%
%ADD161R,0.30250X0.00050*%
%ADD162R,0.30300X0.00050*%
%ADD163R,0.30400X0.00050*%
%ADD164R,0.30500X0.00050*%
%ADD165R,0.30550X0.00050*%
%ADD166R,0.30650X0.00050*%
%ADD167R,0.30700X0.00050*%
%ADD168R,0.30600X0.00050*%
%ADD169R,0.29800X0.00050*%
%ADD170R,0.29650X0.00050*%
%ADD171R,0.29450X0.00050*%
%ADD172R,0.20500X0.00050*%
%ADD173R,0.11150X0.00050*%
%ADD174R,0.11200X0.00050*%
%ADD175R,0.11250X0.00050*%
%ADD176R,0.11350X0.00050*%
%ADD177R,0.11450X0.00050*%
%ADD178R,0.20100X0.00050*%
%ADD179R,0.11550X0.00050*%
%ADD180R,0.11600X0.00050*%
%ADD181R,0.11650X0.00050*%
%ADD182R,0.11750X0.00050*%
%ADD183R,0.11850X0.00050*%
%ADD184R,0.11950X0.00050*%
%ADD185R,0.12000X0.00050*%
%ADD186R,0.12050X0.00050*%
%ADD187R,0.12300X0.00050*%
%ADD188R,0.19000X0.00050*%
%ADD189R,0.18600X0.00050*%
%ADD190R,0.13400X0.00050*%
%ADD191R,0.17900X0.00050*%
%ADD192R,0.13800X0.00050*%
%ADD193R,0.17500X0.00050*%
%ADD194R,0.17100X0.00050*%
%ADD195R,0.14900X0.00050*%
%ADD196R,0.16400X0.00050*%
%ADD197R,0.16000X0.00050*%
%ADD198R,0.15600X0.00050*%
%ADD199R,0.14500X0.00050*%
%ADD200R,0.13000X0.00050*%
%ADD201R,0.11900X0.00050*%
%ADD202R,0.11500X0.00050*%
%ADD203R,0.21150X0.00050*%
%ADD204R,0.21200X0.00050*%
%ADD205R,0.21250X0.00050*%
%ADD206R,0.21300X0.00050*%
%ADD207R,0.21350X0.00050*%
%ADD208R,0.21450X0.00050*%
%ADD209R,0.21550X0.00050*%
%ADD210R,0.21600X0.00050*%
%ADD211R,0.21650X0.00050*%
%ADD212R,0.21700X0.00050*%
%ADD213R,0.21750X0.00050*%
%ADD214R,0.21850X0.00050*%
%ADD215R,0.21950X0.00050*%
%ADD216R,0.22000X0.00050*%
%ADD217R,0.22050X0.00050*%
%ADD218R,0.22150X0.00050*%
%ADD219R,0.22100X0.00050*%
%ADD220C,0.01600*%
%ADD221R,0.09488X0.10236*%
%ADD222C,0.01700*%
%ADD223C,0.01000*%
%ADD224R,0.10236X0.09488*%
%ADD225C,0.00500*%
%ADD226C,0.00600*%
%ADD227C,0.00800*%
%ADD228R,0.05512X0.02559*%
%ADD229R,0.00787X0.00787*%
D10*
X0001500Y0009374D02*
X0001500Y0174728D01*
X0001502Y0174918D01*
X0001509Y0175108D01*
X0001521Y0175298D01*
X0001537Y0175488D01*
X0001557Y0175677D01*
X0001583Y0175866D01*
X0001612Y0176054D01*
X0001647Y0176241D01*
X0001686Y0176427D01*
X0001729Y0176612D01*
X0001777Y0176797D01*
X0001829Y0176980D01*
X0001885Y0177161D01*
X0001946Y0177341D01*
X0002012Y0177520D01*
X0002081Y0177697D01*
X0002155Y0177873D01*
X0002233Y0178046D01*
X0002316Y0178218D01*
X0002402Y0178387D01*
X0002492Y0178555D01*
X0002587Y0178720D01*
X0002685Y0178883D01*
X0002788Y0179043D01*
X0002894Y0179201D01*
X0003004Y0179356D01*
X0003117Y0179509D01*
X0003235Y0179659D01*
X0003356Y0179805D01*
X0003480Y0179949D01*
X0003608Y0180090D01*
X0003739Y0180228D01*
X0003874Y0180363D01*
X0004012Y0180494D01*
X0004153Y0180622D01*
X0004297Y0180746D01*
X0004443Y0180867D01*
X0004593Y0180985D01*
X0004746Y0181098D01*
X0004901Y0181208D01*
X0005059Y0181314D01*
X0005219Y0181417D01*
X0005382Y0181515D01*
X0005547Y0181610D01*
X0005715Y0181700D01*
X0005884Y0181786D01*
X0006056Y0181869D01*
X0006229Y0181947D01*
X0006405Y0182021D01*
X0006582Y0182090D01*
X0006761Y0182156D01*
X0006941Y0182217D01*
X0007122Y0182273D01*
X0007305Y0182325D01*
X0007490Y0182373D01*
X0007675Y0182416D01*
X0007861Y0182455D01*
X0008048Y0182490D01*
X0008236Y0182519D01*
X0008425Y0182545D01*
X0008614Y0182565D01*
X0008804Y0182581D01*
X0008994Y0182593D01*
X0009184Y0182600D01*
X0009374Y0182602D01*
X0131421Y0182602D01*
X0131611Y0182600D01*
X0131801Y0182593D01*
X0131991Y0182581D01*
X0132181Y0182565D01*
X0132370Y0182545D01*
X0132559Y0182519D01*
X0132747Y0182490D01*
X0132934Y0182455D01*
X0133120Y0182416D01*
X0133305Y0182373D01*
X0133490Y0182325D01*
X0133673Y0182273D01*
X0133854Y0182217D01*
X0134034Y0182156D01*
X0134213Y0182090D01*
X0134390Y0182021D01*
X0134566Y0181947D01*
X0134739Y0181869D01*
X0134911Y0181786D01*
X0135080Y0181700D01*
X0135248Y0181610D01*
X0135413Y0181515D01*
X0135576Y0181417D01*
X0135736Y0181314D01*
X0135894Y0181208D01*
X0136049Y0181098D01*
X0136202Y0180985D01*
X0136352Y0180867D01*
X0136498Y0180746D01*
X0136642Y0180622D01*
X0136783Y0180494D01*
X0136921Y0180363D01*
X0137056Y0180228D01*
X0137187Y0180090D01*
X0137315Y0179949D01*
X0137439Y0179805D01*
X0137560Y0179659D01*
X0137678Y0179509D01*
X0137791Y0179356D01*
X0137901Y0179201D01*
X0138007Y0179043D01*
X0138110Y0178883D01*
X0138208Y0178720D01*
X0138303Y0178555D01*
X0138393Y0178387D01*
X0138479Y0178218D01*
X0138562Y0178046D01*
X0138640Y0177873D01*
X0138714Y0177697D01*
X0138783Y0177520D01*
X0138849Y0177341D01*
X0138910Y0177161D01*
X0138966Y0176980D01*
X0139018Y0176797D01*
X0139066Y0176612D01*
X0139109Y0176427D01*
X0139148Y0176241D01*
X0139183Y0176054D01*
X0139212Y0175866D01*
X0139238Y0175677D01*
X0139258Y0175488D01*
X0139274Y0175298D01*
X0139286Y0175108D01*
X0139293Y0174918D01*
X0139295Y0174728D01*
X0139295Y0009374D01*
X0139293Y0009184D01*
X0139286Y0008994D01*
X0139274Y0008804D01*
X0139258Y0008614D01*
X0139238Y0008425D01*
X0139212Y0008236D01*
X0139183Y0008048D01*
X0139148Y0007861D01*
X0139109Y0007675D01*
X0139066Y0007490D01*
X0139018Y0007305D01*
X0138966Y0007122D01*
X0138910Y0006941D01*
X0138849Y0006761D01*
X0138783Y0006582D01*
X0138714Y0006405D01*
X0138640Y0006229D01*
X0138562Y0006056D01*
X0138479Y0005884D01*
X0138393Y0005715D01*
X0138303Y0005547D01*
X0138208Y0005382D01*
X0138110Y0005219D01*
X0138007Y0005059D01*
X0137901Y0004901D01*
X0137791Y0004746D01*
X0137678Y0004593D01*
X0137560Y0004443D01*
X0137439Y0004297D01*
X0137315Y0004153D01*
X0137187Y0004012D01*
X0137056Y0003874D01*
X0136921Y0003739D01*
X0136783Y0003608D01*
X0136642Y0003480D01*
X0136498Y0003356D01*
X0136352Y0003235D01*
X0136202Y0003117D01*
X0136049Y0003004D01*
X0135894Y0002894D01*
X0135736Y0002788D01*
X0135576Y0002685D01*
X0135413Y0002587D01*
X0135248Y0002492D01*
X0135080Y0002402D01*
X0134911Y0002316D01*
X0134739Y0002233D01*
X0134566Y0002155D01*
X0134390Y0002081D01*
X0134213Y0002012D01*
X0134034Y0001946D01*
X0133854Y0001885D01*
X0133673Y0001829D01*
X0133490Y0001777D01*
X0133305Y0001729D01*
X0133120Y0001686D01*
X0132934Y0001647D01*
X0132747Y0001612D01*
X0132559Y0001583D01*
X0132370Y0001557D01*
X0132181Y0001537D01*
X0131991Y0001521D01*
X0131801Y0001509D01*
X0131611Y0001502D01*
X0131421Y0001500D01*
X0009374Y0001500D01*
X0009184Y0001502D01*
X0008994Y0001509D01*
X0008804Y0001521D01*
X0008614Y0001537D01*
X0008425Y0001557D01*
X0008236Y0001583D01*
X0008048Y0001612D01*
X0007861Y0001647D01*
X0007675Y0001686D01*
X0007490Y0001729D01*
X0007305Y0001777D01*
X0007122Y0001829D01*
X0006941Y0001885D01*
X0006761Y0001946D01*
X0006582Y0002012D01*
X0006405Y0002081D01*
X0006229Y0002155D01*
X0006056Y0002233D01*
X0005884Y0002316D01*
X0005715Y0002402D01*
X0005547Y0002492D01*
X0005382Y0002587D01*
X0005219Y0002685D01*
X0005059Y0002788D01*
X0004901Y0002894D01*
X0004746Y0003004D01*
X0004593Y0003117D01*
X0004443Y0003235D01*
X0004297Y0003356D01*
X0004153Y0003480D01*
X0004012Y0003608D01*
X0003874Y0003739D01*
X0003739Y0003874D01*
X0003608Y0004012D01*
X0003480Y0004153D01*
X0003356Y0004297D01*
X0003235Y0004443D01*
X0003117Y0004593D01*
X0003004Y0004746D01*
X0002894Y0004901D01*
X0002788Y0005059D01*
X0002685Y0005219D01*
X0002587Y0005382D01*
X0002492Y0005547D01*
X0002402Y0005715D01*
X0002316Y0005884D01*
X0002233Y0006056D01*
X0002155Y0006229D01*
X0002081Y0006405D01*
X0002012Y0006582D01*
X0001946Y0006761D01*
X0001885Y0006941D01*
X0001829Y0007122D01*
X0001777Y0007305D01*
X0001729Y0007490D01*
X0001686Y0007675D01*
X0001647Y0007861D01*
X0001612Y0008048D01*
X0001583Y0008236D01*
X0001557Y0008425D01*
X0001537Y0008614D01*
X0001521Y0008804D01*
X0001509Y0008994D01*
X0001502Y0009184D01*
X0001500Y0009374D01*
X0007441Y0016953D02*
X0007443Y0017114D01*
X0007449Y0017274D01*
X0007459Y0017435D01*
X0007473Y0017595D01*
X0007491Y0017755D01*
X0007512Y0017914D01*
X0007538Y0018073D01*
X0007568Y0018231D01*
X0007601Y0018388D01*
X0007639Y0018545D01*
X0007680Y0018700D01*
X0007725Y0018854D01*
X0007774Y0019007D01*
X0007827Y0019159D01*
X0007883Y0019310D01*
X0007944Y0019459D01*
X0008007Y0019607D01*
X0008075Y0019753D01*
X0008146Y0019897D01*
X0008220Y0020039D01*
X0008298Y0020180D01*
X0008380Y0020318D01*
X0008465Y0020455D01*
X0008553Y0020589D01*
X0008645Y0020721D01*
X0008740Y0020851D01*
X0008838Y0020979D01*
X0008939Y0021104D01*
X0009043Y0021226D01*
X0009150Y0021346D01*
X0009260Y0021463D01*
X0009373Y0021578D01*
X0009489Y0021689D01*
X0009608Y0021798D01*
X0009729Y0021903D01*
X0009853Y0022006D01*
X0009979Y0022106D01*
X0010107Y0022202D01*
X0010238Y0022295D01*
X0010372Y0022385D01*
X0010507Y0022472D01*
X0010645Y0022555D01*
X0010784Y0022635D01*
X0010926Y0022711D01*
X0011069Y0022784D01*
X0011214Y0022853D01*
X0011361Y0022919D01*
X0011509Y0022981D01*
X0011659Y0023039D01*
X0011810Y0023094D01*
X0011963Y0023145D01*
X0012117Y0023192D01*
X0012272Y0023235D01*
X0012428Y0023274D01*
X0012584Y0023310D01*
X0012742Y0023341D01*
X0012900Y0023369D01*
X0013059Y0023393D01*
X0013219Y0023413D01*
X0013379Y0023429D01*
X0013539Y0023441D01*
X0013700Y0023449D01*
X0013861Y0023453D01*
X0014021Y0023453D01*
X0014182Y0023449D01*
X0014343Y0023441D01*
X0014503Y0023429D01*
X0014663Y0023413D01*
X0014823Y0023393D01*
X0014982Y0023369D01*
X0015140Y0023341D01*
X0015298Y0023310D01*
X0015454Y0023274D01*
X0015610Y0023235D01*
X0015765Y0023192D01*
X0015919Y0023145D01*
X0016072Y0023094D01*
X0016223Y0023039D01*
X0016373Y0022981D01*
X0016521Y0022919D01*
X0016668Y0022853D01*
X0016813Y0022784D01*
X0016956Y0022711D01*
X0017098Y0022635D01*
X0017237Y0022555D01*
X0017375Y0022472D01*
X0017510Y0022385D01*
X0017644Y0022295D01*
X0017775Y0022202D01*
X0017903Y0022106D01*
X0018029Y0022006D01*
X0018153Y0021903D01*
X0018274Y0021798D01*
X0018393Y0021689D01*
X0018509Y0021578D01*
X0018622Y0021463D01*
X0018732Y0021346D01*
X0018839Y0021226D01*
X0018943Y0021104D01*
X0019044Y0020979D01*
X0019142Y0020851D01*
X0019237Y0020721D01*
X0019329Y0020589D01*
X0019417Y0020455D01*
X0019502Y0020318D01*
X0019584Y0020180D01*
X0019662Y0020039D01*
X0019736Y0019897D01*
X0019807Y0019753D01*
X0019875Y0019607D01*
X0019938Y0019459D01*
X0019999Y0019310D01*
X0020055Y0019159D01*
X0020108Y0019007D01*
X0020157Y0018854D01*
X0020202Y0018700D01*
X0020243Y0018545D01*
X0020281Y0018388D01*
X0020314Y0018231D01*
X0020344Y0018073D01*
X0020370Y0017914D01*
X0020391Y0017755D01*
X0020409Y0017595D01*
X0020423Y0017435D01*
X0020433Y0017274D01*
X0020439Y0017114D01*
X0020441Y0016953D01*
X0020439Y0016792D01*
X0020433Y0016632D01*
X0020423Y0016471D01*
X0020409Y0016311D01*
X0020391Y0016151D01*
X0020370Y0015992D01*
X0020344Y0015833D01*
X0020314Y0015675D01*
X0020281Y0015518D01*
X0020243Y0015361D01*
X0020202Y0015206D01*
X0020157Y0015052D01*
X0020108Y0014899D01*
X0020055Y0014747D01*
X0019999Y0014596D01*
X0019938Y0014447D01*
X0019875Y0014299D01*
X0019807Y0014153D01*
X0019736Y0014009D01*
X0019662Y0013867D01*
X0019584Y0013726D01*
X0019502Y0013588D01*
X0019417Y0013451D01*
X0019329Y0013317D01*
X0019237Y0013185D01*
X0019142Y0013055D01*
X0019044Y0012927D01*
X0018943Y0012802D01*
X0018839Y0012680D01*
X0018732Y0012560D01*
X0018622Y0012443D01*
X0018509Y0012328D01*
X0018393Y0012217D01*
X0018274Y0012108D01*
X0018153Y0012003D01*
X0018029Y0011900D01*
X0017903Y0011800D01*
X0017775Y0011704D01*
X0017644Y0011611D01*
X0017510Y0011521D01*
X0017375Y0011434D01*
X0017237Y0011351D01*
X0017098Y0011271D01*
X0016956Y0011195D01*
X0016813Y0011122D01*
X0016668Y0011053D01*
X0016521Y0010987D01*
X0016373Y0010925D01*
X0016223Y0010867D01*
X0016072Y0010812D01*
X0015919Y0010761D01*
X0015765Y0010714D01*
X0015610Y0010671D01*
X0015454Y0010632D01*
X0015298Y0010596D01*
X0015140Y0010565D01*
X0014982Y0010537D01*
X0014823Y0010513D01*
X0014663Y0010493D01*
X0014503Y0010477D01*
X0014343Y0010465D01*
X0014182Y0010457D01*
X0014021Y0010453D01*
X0013861Y0010453D01*
X0013700Y0010457D01*
X0013539Y0010465D01*
X0013379Y0010477D01*
X0013219Y0010493D01*
X0013059Y0010513D01*
X0012900Y0010537D01*
X0012742Y0010565D01*
X0012584Y0010596D01*
X0012428Y0010632D01*
X0012272Y0010671D01*
X0012117Y0010714D01*
X0011963Y0010761D01*
X0011810Y0010812D01*
X0011659Y0010867D01*
X0011509Y0010925D01*
X0011361Y0010987D01*
X0011214Y0011053D01*
X0011069Y0011122D01*
X0010926Y0011195D01*
X0010784Y0011271D01*
X0010645Y0011351D01*
X0010507Y0011434D01*
X0010372Y0011521D01*
X0010238Y0011611D01*
X0010107Y0011704D01*
X0009979Y0011800D01*
X0009853Y0011900D01*
X0009729Y0012003D01*
X0009608Y0012108D01*
X0009489Y0012217D01*
X0009373Y0012328D01*
X0009260Y0012443D01*
X0009150Y0012560D01*
X0009043Y0012680D01*
X0008939Y0012802D01*
X0008838Y0012927D01*
X0008740Y0013055D01*
X0008645Y0013185D01*
X0008553Y0013317D01*
X0008465Y0013451D01*
X0008380Y0013588D01*
X0008298Y0013726D01*
X0008220Y0013867D01*
X0008146Y0014009D01*
X0008075Y0014153D01*
X0008007Y0014299D01*
X0007944Y0014447D01*
X0007883Y0014596D01*
X0007827Y0014747D01*
X0007774Y0014899D01*
X0007725Y0015052D01*
X0007680Y0015206D01*
X0007639Y0015361D01*
X0007601Y0015518D01*
X0007568Y0015675D01*
X0007538Y0015833D01*
X0007512Y0015992D01*
X0007491Y0016151D01*
X0007473Y0016311D01*
X0007459Y0016471D01*
X0007449Y0016632D01*
X0007443Y0016792D01*
X0007441Y0016953D01*
X0007441Y0168921D02*
X0007443Y0169082D01*
X0007449Y0169242D01*
X0007459Y0169403D01*
X0007473Y0169563D01*
X0007491Y0169723D01*
X0007512Y0169882D01*
X0007538Y0170041D01*
X0007568Y0170199D01*
X0007601Y0170356D01*
X0007639Y0170513D01*
X0007680Y0170668D01*
X0007725Y0170822D01*
X0007774Y0170975D01*
X0007827Y0171127D01*
X0007883Y0171278D01*
X0007944Y0171427D01*
X0008007Y0171575D01*
X0008075Y0171721D01*
X0008146Y0171865D01*
X0008220Y0172007D01*
X0008298Y0172148D01*
X0008380Y0172286D01*
X0008465Y0172423D01*
X0008553Y0172557D01*
X0008645Y0172689D01*
X0008740Y0172819D01*
X0008838Y0172947D01*
X0008939Y0173072D01*
X0009043Y0173194D01*
X0009150Y0173314D01*
X0009260Y0173431D01*
X0009373Y0173546D01*
X0009489Y0173657D01*
X0009608Y0173766D01*
X0009729Y0173871D01*
X0009853Y0173974D01*
X0009979Y0174074D01*
X0010107Y0174170D01*
X0010238Y0174263D01*
X0010372Y0174353D01*
X0010507Y0174440D01*
X0010645Y0174523D01*
X0010784Y0174603D01*
X0010926Y0174679D01*
X0011069Y0174752D01*
X0011214Y0174821D01*
X0011361Y0174887D01*
X0011509Y0174949D01*
X0011659Y0175007D01*
X0011810Y0175062D01*
X0011963Y0175113D01*
X0012117Y0175160D01*
X0012272Y0175203D01*
X0012428Y0175242D01*
X0012584Y0175278D01*
X0012742Y0175309D01*
X0012900Y0175337D01*
X0013059Y0175361D01*
X0013219Y0175381D01*
X0013379Y0175397D01*
X0013539Y0175409D01*
X0013700Y0175417D01*
X0013861Y0175421D01*
X0014021Y0175421D01*
X0014182Y0175417D01*
X0014343Y0175409D01*
X0014503Y0175397D01*
X0014663Y0175381D01*
X0014823Y0175361D01*
X0014982Y0175337D01*
X0015140Y0175309D01*
X0015298Y0175278D01*
X0015454Y0175242D01*
X0015610Y0175203D01*
X0015765Y0175160D01*
X0015919Y0175113D01*
X0016072Y0175062D01*
X0016223Y0175007D01*
X0016373Y0174949D01*
X0016521Y0174887D01*
X0016668Y0174821D01*
X0016813Y0174752D01*
X0016956Y0174679D01*
X0017098Y0174603D01*
X0017237Y0174523D01*
X0017375Y0174440D01*
X0017510Y0174353D01*
X0017644Y0174263D01*
X0017775Y0174170D01*
X0017903Y0174074D01*
X0018029Y0173974D01*
X0018153Y0173871D01*
X0018274Y0173766D01*
X0018393Y0173657D01*
X0018509Y0173546D01*
X0018622Y0173431D01*
X0018732Y0173314D01*
X0018839Y0173194D01*
X0018943Y0173072D01*
X0019044Y0172947D01*
X0019142Y0172819D01*
X0019237Y0172689D01*
X0019329Y0172557D01*
X0019417Y0172423D01*
X0019502Y0172286D01*
X0019584Y0172148D01*
X0019662Y0172007D01*
X0019736Y0171865D01*
X0019807Y0171721D01*
X0019875Y0171575D01*
X0019938Y0171427D01*
X0019999Y0171278D01*
X0020055Y0171127D01*
X0020108Y0170975D01*
X0020157Y0170822D01*
X0020202Y0170668D01*
X0020243Y0170513D01*
X0020281Y0170356D01*
X0020314Y0170199D01*
X0020344Y0170041D01*
X0020370Y0169882D01*
X0020391Y0169723D01*
X0020409Y0169563D01*
X0020423Y0169403D01*
X0020433Y0169242D01*
X0020439Y0169082D01*
X0020441Y0168921D01*
X0020439Y0168760D01*
X0020433Y0168600D01*
X0020423Y0168439D01*
X0020409Y0168279D01*
X0020391Y0168119D01*
X0020370Y0167960D01*
X0020344Y0167801D01*
X0020314Y0167643D01*
X0020281Y0167486D01*
X0020243Y0167329D01*
X0020202Y0167174D01*
X0020157Y0167020D01*
X0020108Y0166867D01*
X0020055Y0166715D01*
X0019999Y0166564D01*
X0019938Y0166415D01*
X0019875Y0166267D01*
X0019807Y0166121D01*
X0019736Y0165977D01*
X0019662Y0165835D01*
X0019584Y0165694D01*
X0019502Y0165556D01*
X0019417Y0165419D01*
X0019329Y0165285D01*
X0019237Y0165153D01*
X0019142Y0165023D01*
X0019044Y0164895D01*
X0018943Y0164770D01*
X0018839Y0164648D01*
X0018732Y0164528D01*
X0018622Y0164411D01*
X0018509Y0164296D01*
X0018393Y0164185D01*
X0018274Y0164076D01*
X0018153Y0163971D01*
X0018029Y0163868D01*
X0017903Y0163768D01*
X0017775Y0163672D01*
X0017644Y0163579D01*
X0017510Y0163489D01*
X0017375Y0163402D01*
X0017237Y0163319D01*
X0017098Y0163239D01*
X0016956Y0163163D01*
X0016813Y0163090D01*
X0016668Y0163021D01*
X0016521Y0162955D01*
X0016373Y0162893D01*
X0016223Y0162835D01*
X0016072Y0162780D01*
X0015919Y0162729D01*
X0015765Y0162682D01*
X0015610Y0162639D01*
X0015454Y0162600D01*
X0015298Y0162564D01*
X0015140Y0162533D01*
X0014982Y0162505D01*
X0014823Y0162481D01*
X0014663Y0162461D01*
X0014503Y0162445D01*
X0014343Y0162433D01*
X0014182Y0162425D01*
X0014021Y0162421D01*
X0013861Y0162421D01*
X0013700Y0162425D01*
X0013539Y0162433D01*
X0013379Y0162445D01*
X0013219Y0162461D01*
X0013059Y0162481D01*
X0012900Y0162505D01*
X0012742Y0162533D01*
X0012584Y0162564D01*
X0012428Y0162600D01*
X0012272Y0162639D01*
X0012117Y0162682D01*
X0011963Y0162729D01*
X0011810Y0162780D01*
X0011659Y0162835D01*
X0011509Y0162893D01*
X0011361Y0162955D01*
X0011214Y0163021D01*
X0011069Y0163090D01*
X0010926Y0163163D01*
X0010784Y0163239D01*
X0010645Y0163319D01*
X0010507Y0163402D01*
X0010372Y0163489D01*
X0010238Y0163579D01*
X0010107Y0163672D01*
X0009979Y0163768D01*
X0009853Y0163868D01*
X0009729Y0163971D01*
X0009608Y0164076D01*
X0009489Y0164185D01*
X0009373Y0164296D01*
X0009260Y0164411D01*
X0009150Y0164528D01*
X0009043Y0164648D01*
X0008939Y0164770D01*
X0008838Y0164895D01*
X0008740Y0165023D01*
X0008645Y0165153D01*
X0008553Y0165285D01*
X0008465Y0165419D01*
X0008380Y0165556D01*
X0008298Y0165694D01*
X0008220Y0165835D01*
X0008146Y0165977D01*
X0008075Y0166121D01*
X0008007Y0166267D01*
X0007944Y0166415D01*
X0007883Y0166564D01*
X0007827Y0166715D01*
X0007774Y0166867D01*
X0007725Y0167020D01*
X0007680Y0167174D01*
X0007639Y0167329D01*
X0007601Y0167486D01*
X0007568Y0167643D01*
X0007538Y0167801D01*
X0007512Y0167960D01*
X0007491Y0168119D01*
X0007473Y0168279D01*
X0007459Y0168439D01*
X0007449Y0168600D01*
X0007443Y0168760D01*
X0007441Y0168921D01*
D11*
X0044374Y0092249D03*
X0063074Y0092249D03*
X0063074Y0035949D03*
X0044374Y0035949D03*
D12*
X0044374Y0035999D03*
X0063074Y0035999D03*
X0063074Y0092199D03*
X0044374Y0092199D03*
D13*
X0044374Y0092149D03*
X0063074Y0092149D03*
X0063074Y0036049D03*
X0044374Y0036049D03*
D14*
X0044374Y0036099D03*
X0063074Y0036099D03*
X0063074Y0092099D03*
X0044374Y0092099D03*
D15*
X0044374Y0092049D03*
X0063074Y0092049D03*
X0063074Y0036149D03*
X0044374Y0036149D03*
D16*
X0044374Y0036199D03*
X0063074Y0036199D03*
X0063074Y0091999D03*
X0044374Y0091999D03*
D17*
X0044374Y0091949D03*
X0063074Y0091949D03*
X0063074Y0036249D03*
X0044374Y0036249D03*
D18*
X0044374Y0036299D03*
X0044374Y0036349D03*
X0063074Y0036349D03*
X0063074Y0036299D03*
X0063074Y0091849D03*
X0063074Y0091899D03*
X0044374Y0091899D03*
X0044374Y0091849D03*
D19*
X0044374Y0091799D03*
X0044374Y0091749D03*
X0063074Y0091799D03*
X0063074Y0036399D03*
X0044374Y0036399D03*
X0044374Y0036449D03*
D20*
X0063049Y0036449D03*
X0063049Y0091749D03*
D21*
X0063074Y0091699D03*
X0044374Y0091699D03*
X0044374Y0036499D03*
X0063074Y0036499D03*
D22*
X0063049Y0036549D03*
X0063049Y0036599D03*
X0044399Y0036599D03*
X0044399Y0036549D03*
X0044399Y0091599D03*
X0044399Y0091649D03*
X0063049Y0091649D03*
X0063049Y0091599D03*
D23*
X0062999Y0091499D03*
X0044399Y0091499D03*
X0044399Y0091549D03*
X0044399Y0036699D03*
X0044399Y0036649D03*
X0062999Y0036699D03*
D24*
X0063024Y0036649D03*
X0063024Y0091549D03*
D25*
X0063024Y0091449D03*
X0044424Y0091449D03*
X0044424Y0091399D03*
X0044424Y0036799D03*
X0044424Y0036749D03*
X0063024Y0036749D03*
D26*
X0062999Y0036799D03*
X0062999Y0036849D03*
X0062949Y0036949D03*
X0044449Y0036849D03*
X0044449Y0091349D03*
X0062949Y0091249D03*
X0062999Y0091349D03*
X0062999Y0091399D03*
D27*
X0062974Y0091299D03*
X0062924Y0091199D03*
X0044524Y0091199D03*
X0044524Y0091149D03*
X0044474Y0091249D03*
X0044474Y0091299D03*
X0044524Y0037049D03*
X0044524Y0036999D03*
X0044474Y0036949D03*
X0044474Y0036899D03*
X0062924Y0036999D03*
X0062974Y0036899D03*
D28*
X0062899Y0037049D03*
X0062899Y0037099D03*
X0062849Y0037149D03*
X0062849Y0037199D03*
X0062799Y0037249D03*
X0062799Y0037299D03*
X0062749Y0037349D03*
X0062699Y0037449D03*
X0062649Y0037549D03*
X0062599Y0037599D03*
X0062599Y0037649D03*
X0062549Y0037699D03*
X0062499Y0037799D03*
X0062449Y0037899D03*
X0062399Y0037949D03*
X0062349Y0038049D03*
X0062299Y0038149D03*
X0062249Y0038249D03*
X0062199Y0038299D03*
X0062149Y0038399D03*
X0062099Y0038499D03*
X0062049Y0038549D03*
X0062049Y0038599D03*
X0061999Y0038649D03*
X0061949Y0038749D03*
X0061899Y0038849D03*
X0061849Y0038899D03*
X0061799Y0038999D03*
X0061749Y0039099D03*
X0061699Y0039199D03*
X0061649Y0039249D03*
X0061599Y0039349D03*
X0061549Y0039449D03*
X0061499Y0039549D03*
X0061449Y0039599D03*
X0061399Y0039699D03*
X0061349Y0039799D03*
X0061299Y0039849D03*
X0061299Y0039899D03*
X0061249Y0039949D03*
X0061199Y0040049D03*
X0061149Y0040149D03*
X0061099Y0040199D03*
X0061049Y0040299D03*
X0060999Y0040399D03*
X0060949Y0040499D03*
X0060899Y0040549D03*
X0060849Y0040649D03*
X0060799Y0040749D03*
X0060749Y0040849D03*
X0060699Y0040899D03*
X0060649Y0040999D03*
X0060599Y0041099D03*
X0060549Y0041149D03*
X0060549Y0041199D03*
X0060499Y0041249D03*
X0060449Y0041349D03*
X0060399Y0041449D03*
X0060349Y0041499D03*
X0060299Y0041599D03*
X0060249Y0041699D03*
X0060199Y0041799D03*
X0060149Y0041849D03*
X0060099Y0041949D03*
X0060049Y0042049D03*
X0059999Y0042149D03*
X0059949Y0042199D03*
X0059899Y0042299D03*
X0059849Y0042399D03*
X0059799Y0042449D03*
X0059799Y0042499D03*
X0059749Y0042549D03*
X0059699Y0042649D03*
X0059649Y0042749D03*
X0059599Y0042799D03*
X0059549Y0042899D03*
X0059499Y0042999D03*
X0059449Y0043099D03*
X0059399Y0043149D03*
X0059349Y0043249D03*
X0059299Y0043349D03*
X0059249Y0043399D03*
X0048149Y0043349D03*
X0048099Y0043249D03*
X0048049Y0043199D03*
X0047999Y0043099D03*
X0047949Y0042999D03*
X0047899Y0042949D03*
X0047899Y0042899D03*
X0047849Y0042849D03*
X0047799Y0042749D03*
X0047749Y0042649D03*
X0047699Y0042599D03*
X0047649Y0042499D03*
X0047599Y0042399D03*
X0047549Y0042299D03*
X0047499Y0042249D03*
X0047449Y0042149D03*
X0047399Y0042049D03*
X0047349Y0041949D03*
X0047299Y0041899D03*
X0047249Y0041799D03*
X0047199Y0041699D03*
X0047149Y0041649D03*
X0047149Y0041599D03*
X0047099Y0041549D03*
X0047049Y0041449D03*
X0046999Y0041349D03*
X0046949Y0041299D03*
X0046899Y0041199D03*
X0046849Y0041099D03*
X0046799Y0040999D03*
X0046749Y0040949D03*
X0046699Y0040849D03*
X0046649Y0040749D03*
X0046599Y0040649D03*
X0046549Y0040599D03*
X0046499Y0040499D03*
X0046449Y0040399D03*
X0046399Y0040349D03*
X0046399Y0040299D03*
X0046349Y0040249D03*
X0046299Y0040149D03*
X0046249Y0040049D03*
X0046199Y0039999D03*
X0046149Y0039899D03*
X0046099Y0039799D03*
X0046049Y0039699D03*
X0045999Y0039649D03*
X0045949Y0039549D03*
X0045899Y0039449D03*
X0045849Y0039399D03*
X0045849Y0039349D03*
X0045799Y0039299D03*
X0045749Y0039199D03*
X0045699Y0039099D03*
X0045649Y0039049D03*
X0045599Y0038949D03*
X0045549Y0038849D03*
X0045499Y0038749D03*
X0045449Y0038699D03*
X0045399Y0038599D03*
X0045349Y0038499D03*
X0045299Y0038399D03*
X0045249Y0038349D03*
X0045199Y0038249D03*
X0045149Y0038149D03*
X0045099Y0038099D03*
X0045099Y0038049D03*
X0045049Y0037999D03*
X0044999Y0037899D03*
X0044949Y0037799D03*
X0044899Y0037749D03*
X0044849Y0037649D03*
X0044799Y0037549D03*
X0044749Y0037449D03*
X0044699Y0037399D03*
X0044649Y0037299D03*
X0044599Y0037199D03*
X0044549Y0037099D03*
X0048149Y0084849D03*
X0048099Y0084949D03*
X0048049Y0084999D03*
X0047999Y0085099D03*
X0047949Y0085199D03*
X0047899Y0085249D03*
X0047899Y0085299D03*
X0047849Y0085349D03*
X0047799Y0085449D03*
X0047749Y0085549D03*
X0047699Y0085599D03*
X0047649Y0085699D03*
X0047599Y0085799D03*
X0047549Y0085899D03*
X0047499Y0085949D03*
X0047449Y0086049D03*
X0047399Y0086149D03*
X0047349Y0086249D03*
X0047299Y0086299D03*
X0047249Y0086399D03*
X0047199Y0086499D03*
X0047149Y0086549D03*
X0047149Y0086599D03*
X0047099Y0086649D03*
X0047049Y0086749D03*
X0046999Y0086849D03*
X0046949Y0086899D03*
X0046899Y0086999D03*
X0046849Y0087099D03*
X0046799Y0087199D03*
X0046749Y0087249D03*
X0046699Y0087349D03*
X0046649Y0087449D03*
X0046599Y0087549D03*
X0046549Y0087599D03*
X0046499Y0087699D03*
X0046449Y0087799D03*
X0046399Y0087849D03*
X0046399Y0087899D03*
X0046349Y0087949D03*
X0046299Y0088049D03*
X0046249Y0088149D03*
X0046199Y0088199D03*
X0046149Y0088299D03*
X0046099Y0088399D03*
X0046049Y0088499D03*
X0045999Y0088549D03*
X0045949Y0088649D03*
X0045899Y0088749D03*
X0045849Y0088799D03*
X0045849Y0088849D03*
X0045799Y0088899D03*
X0045749Y0088999D03*
X0045699Y0089099D03*
X0045649Y0089149D03*
X0045599Y0089249D03*
X0045549Y0089349D03*
X0045499Y0089449D03*
X0045449Y0089499D03*
X0045399Y0089599D03*
X0045349Y0089699D03*
X0045299Y0089799D03*
X0045249Y0089849D03*
X0045199Y0089949D03*
X0045149Y0090049D03*
X0045099Y0090099D03*
X0045099Y0090149D03*
X0045049Y0090199D03*
X0044999Y0090299D03*
X0044949Y0090399D03*
X0044899Y0090449D03*
X0044849Y0090549D03*
X0044799Y0090649D03*
X0044749Y0090749D03*
X0044699Y0090799D03*
X0044649Y0090899D03*
X0044599Y0090999D03*
X0044549Y0091099D03*
X0059249Y0084799D03*
X0059299Y0084849D03*
X0059349Y0084949D03*
X0059399Y0085049D03*
X0059449Y0085099D03*
X0059499Y0085199D03*
X0059549Y0085299D03*
X0059599Y0085399D03*
X0059649Y0085449D03*
X0059699Y0085549D03*
X0059749Y0085649D03*
X0059799Y0085699D03*
X0059799Y0085749D03*
X0059849Y0085799D03*
X0059899Y0085899D03*
X0059949Y0085999D03*
X0059999Y0086049D03*
X0060049Y0086149D03*
X0060099Y0086249D03*
X0060149Y0086349D03*
X0060199Y0086399D03*
X0060249Y0086499D03*
X0060299Y0086599D03*
X0060349Y0086699D03*
X0060399Y0086749D03*
X0060449Y0086849D03*
X0060499Y0086949D03*
X0060549Y0086999D03*
X0060549Y0087049D03*
X0060599Y0087099D03*
X0060649Y0087199D03*
X0060699Y0087299D03*
X0060749Y0087349D03*
X0060799Y0087449D03*
X0060849Y0087549D03*
X0060899Y0087649D03*
X0060949Y0087699D03*
X0060999Y0087799D03*
X0061049Y0087899D03*
X0061099Y0087999D03*
X0061149Y0088049D03*
X0061199Y0088149D03*
X0061249Y0088249D03*
X0061299Y0088299D03*
X0061299Y0088349D03*
X0061349Y0088399D03*
X0061399Y0088499D03*
X0061449Y0088599D03*
X0061499Y0088649D03*
X0061549Y0088749D03*
X0061599Y0088849D03*
X0061649Y0088949D03*
X0061699Y0088999D03*
X0061749Y0089099D03*
X0061799Y0089199D03*
X0061849Y0089299D03*
X0061899Y0089349D03*
X0061949Y0089449D03*
X0061999Y0089549D03*
X0062049Y0089599D03*
X0062049Y0089649D03*
X0062099Y0089699D03*
X0062149Y0089799D03*
X0062199Y0089899D03*
X0062249Y0089949D03*
X0062299Y0090049D03*
X0062349Y0090149D03*
X0062399Y0090249D03*
X0062449Y0090299D03*
X0062499Y0090399D03*
X0062549Y0090499D03*
X0062599Y0090549D03*
X0062599Y0090599D03*
X0062649Y0090649D03*
X0062699Y0090749D03*
X0062749Y0090849D03*
X0062799Y0090899D03*
X0062799Y0090949D03*
X0062849Y0090999D03*
X0062849Y0091049D03*
X0062899Y0091099D03*
X0062899Y0091149D03*
D29*
X0062724Y0090799D03*
X0062674Y0090699D03*
X0062524Y0090449D03*
X0062474Y0090349D03*
X0062374Y0090199D03*
X0062324Y0090099D03*
X0062274Y0089999D03*
X0062174Y0089849D03*
X0062124Y0089749D03*
X0061974Y0089499D03*
X0061924Y0089399D03*
X0061824Y0089249D03*
X0061774Y0089149D03*
X0061724Y0089049D03*
X0061624Y0088899D03*
X0061574Y0088799D03*
X0061524Y0088699D03*
X0061424Y0088549D03*
X0061374Y0088449D03*
X0061224Y0088199D03*
X0061174Y0088099D03*
X0061074Y0087949D03*
X0061024Y0087849D03*
X0060974Y0087749D03*
X0060874Y0087599D03*
X0060824Y0087499D03*
X0060774Y0087399D03*
X0060674Y0087249D03*
X0060624Y0087149D03*
X0060474Y0086899D03*
X0060424Y0086799D03*
X0060324Y0086649D03*
X0060274Y0086549D03*
X0060224Y0086449D03*
X0060124Y0086299D03*
X0060074Y0086199D03*
X0060024Y0086099D03*
X0059924Y0085949D03*
X0059874Y0085849D03*
X0059724Y0085599D03*
X0059674Y0085499D03*
X0059574Y0085349D03*
X0059524Y0085249D03*
X0059474Y0085149D03*
X0059374Y0084999D03*
X0059324Y0084899D03*
X0048174Y0084799D03*
X0048124Y0084899D03*
X0048024Y0085049D03*
X0047974Y0085149D03*
X0047824Y0085399D03*
X0047774Y0085499D03*
X0047674Y0085649D03*
X0047624Y0085749D03*
X0047574Y0085849D03*
X0047474Y0085999D03*
X0047424Y0086099D03*
X0047374Y0086199D03*
X0047274Y0086349D03*
X0047224Y0086449D03*
X0047074Y0086699D03*
X0047024Y0086799D03*
X0046924Y0086949D03*
X0046874Y0087049D03*
X0046824Y0087149D03*
X0046724Y0087299D03*
X0046674Y0087399D03*
X0046624Y0087499D03*
X0046524Y0087649D03*
X0046474Y0087749D03*
X0046324Y0087999D03*
X0046274Y0088099D03*
X0046174Y0088249D03*
X0046124Y0088349D03*
X0046074Y0088449D03*
X0045974Y0088599D03*
X0045924Y0088699D03*
X0045774Y0088949D03*
X0045724Y0089049D03*
X0045624Y0089199D03*
X0045574Y0089299D03*
X0045524Y0089399D03*
X0045424Y0089549D03*
X0045374Y0089649D03*
X0045324Y0089749D03*
X0045224Y0089899D03*
X0045174Y0089999D03*
X0045024Y0090249D03*
X0044974Y0090349D03*
X0044874Y0090499D03*
X0044824Y0090599D03*
X0044774Y0090699D03*
X0044674Y0090849D03*
X0044624Y0090949D03*
X0044574Y0091049D03*
X0048174Y0043399D03*
X0048124Y0043299D03*
X0048024Y0043149D03*
X0047974Y0043049D03*
X0047824Y0042799D03*
X0047774Y0042699D03*
X0047674Y0042549D03*
X0047624Y0042449D03*
X0047574Y0042349D03*
X0047474Y0042199D03*
X0047424Y0042099D03*
X0047374Y0041999D03*
X0047274Y0041849D03*
X0047224Y0041749D03*
X0047074Y0041499D03*
X0047024Y0041399D03*
X0046924Y0041249D03*
X0046874Y0041149D03*
X0046824Y0041049D03*
X0046724Y0040899D03*
X0046674Y0040799D03*
X0046624Y0040699D03*
X0046524Y0040549D03*
X0046474Y0040449D03*
X0046324Y0040199D03*
X0046274Y0040099D03*
X0046174Y0039949D03*
X0046124Y0039849D03*
X0046074Y0039749D03*
X0045974Y0039599D03*
X0045924Y0039499D03*
X0045774Y0039249D03*
X0045724Y0039149D03*
X0045624Y0038999D03*
X0045574Y0038899D03*
X0045524Y0038799D03*
X0045424Y0038649D03*
X0045374Y0038549D03*
X0045324Y0038449D03*
X0045224Y0038299D03*
X0045174Y0038199D03*
X0045024Y0037949D03*
X0044974Y0037849D03*
X0044874Y0037699D03*
X0044824Y0037599D03*
X0044774Y0037499D03*
X0044674Y0037349D03*
X0044624Y0037249D03*
X0044574Y0037149D03*
X0059324Y0043299D03*
X0059374Y0043199D03*
X0059474Y0043049D03*
X0059524Y0042949D03*
X0059574Y0042849D03*
X0059674Y0042699D03*
X0059724Y0042599D03*
X0059874Y0042349D03*
X0059924Y0042249D03*
X0060024Y0042099D03*
X0060074Y0041999D03*
X0060124Y0041899D03*
X0060224Y0041749D03*
X0060274Y0041649D03*
X0060324Y0041549D03*
X0060424Y0041399D03*
X0060474Y0041299D03*
X0060624Y0041049D03*
X0060674Y0040949D03*
X0060774Y0040799D03*
X0060824Y0040699D03*
X0060874Y0040599D03*
X0060974Y0040449D03*
X0061024Y0040349D03*
X0061074Y0040249D03*
X0061174Y0040099D03*
X0061224Y0039999D03*
X0061374Y0039749D03*
X0061424Y0039649D03*
X0061524Y0039499D03*
X0061574Y0039399D03*
X0061624Y0039299D03*
X0061724Y0039149D03*
X0061774Y0039049D03*
X0061824Y0038949D03*
X0061924Y0038799D03*
X0061974Y0038699D03*
X0062124Y0038449D03*
X0062174Y0038349D03*
X0062274Y0038199D03*
X0062324Y0038099D03*
X0062374Y0037999D03*
X0062474Y0037849D03*
X0062524Y0037749D03*
X0062674Y0037499D03*
X0062724Y0037399D03*
D30*
X0053724Y0043449D03*
X0053724Y0045199D03*
X0053724Y0060799D03*
X0053724Y0067399D03*
X0053724Y0082999D03*
X0053724Y0084749D03*
X0034424Y0071899D03*
X0034424Y0056299D03*
D31*
X0034449Y0056249D03*
X0034449Y0071949D03*
X0053699Y0067349D03*
X0053699Y0060849D03*
X0053699Y0045149D03*
X0053699Y0043499D03*
X0053699Y0083049D03*
X0053699Y0084699D03*
D32*
X0053724Y0084649D03*
X0053724Y0083099D03*
X0053724Y0067299D03*
X0053724Y0060899D03*
X0053724Y0045099D03*
X0053724Y0043549D03*
X0034424Y0056199D03*
X0034424Y0071999D03*
D33*
X0034424Y0072049D03*
X0034424Y0072099D03*
X0034424Y0056149D03*
X0034424Y0056099D03*
X0053724Y0060999D03*
X0053724Y0067199D03*
X0053724Y0083149D03*
X0053724Y0083199D03*
X0053724Y0084549D03*
X0053724Y0084599D03*
X0053724Y0045049D03*
X0053724Y0044999D03*
X0053724Y0043649D03*
X0053724Y0043599D03*
D34*
X0053724Y0043699D03*
X0053724Y0044949D03*
X0053724Y0061049D03*
X0053724Y0061099D03*
X0053724Y0067099D03*
X0053724Y0067149D03*
X0053724Y0083249D03*
X0053724Y0084499D03*
X0034424Y0072199D03*
X0034424Y0072149D03*
X0034424Y0056049D03*
X0034424Y0055999D03*
D35*
X0053699Y0044899D03*
X0053699Y0043749D03*
X0053699Y0083299D03*
X0053699Y0084449D03*
D36*
X0053724Y0084399D03*
X0053724Y0083349D03*
X0053724Y0067049D03*
X0053724Y0061149D03*
X0053724Y0044849D03*
X0053724Y0043799D03*
X0034424Y0055949D03*
X0034424Y0072249D03*
D37*
X0034449Y0072299D03*
X0034449Y0055899D03*
X0053699Y0061199D03*
X0053699Y0066999D03*
X0053699Y0083399D03*
X0053699Y0084349D03*
X0053699Y0044799D03*
X0053699Y0043849D03*
D38*
X0053724Y0043899D03*
X0053724Y0044749D03*
X0053724Y0061249D03*
X0053724Y0066949D03*
X0053724Y0083449D03*
X0053724Y0084299D03*
X0034424Y0072349D03*
X0034424Y0055849D03*
D39*
X0034424Y0055799D03*
X0034424Y0055749D03*
X0034424Y0072399D03*
X0034424Y0072449D03*
X0053724Y0066899D03*
X0053724Y0066849D03*
X0053724Y0061349D03*
X0053724Y0061299D03*
X0053724Y0044699D03*
X0053724Y0044649D03*
X0053724Y0043999D03*
X0053724Y0043949D03*
X0053724Y0083499D03*
X0053724Y0083549D03*
X0053724Y0084199D03*
X0053724Y0084249D03*
D40*
X0053724Y0084149D03*
X0053724Y0083599D03*
X0053724Y0066799D03*
X0053724Y0066749D03*
X0053724Y0061449D03*
X0053724Y0061399D03*
X0053724Y0044599D03*
X0053724Y0044049D03*
X0034424Y0055699D03*
X0034424Y0072499D03*
D41*
X0034449Y0072549D03*
X0034449Y0055649D03*
X0053699Y0044549D03*
X0053699Y0044099D03*
X0053699Y0083649D03*
X0053699Y0084099D03*
D42*
X0053724Y0084049D03*
X0053724Y0083699D03*
X0053724Y0066699D03*
X0053724Y0061499D03*
X0053724Y0044499D03*
X0053724Y0044149D03*
X0034424Y0055599D03*
X0034424Y0072599D03*
D43*
X0034424Y0072699D03*
X0034424Y0055499D03*
X0053724Y0061599D03*
X0053724Y0066599D03*
X0053724Y0083749D03*
X0053724Y0083799D03*
X0053724Y0083949D03*
X0053724Y0083999D03*
X0053724Y0044449D03*
X0053724Y0044399D03*
X0053724Y0044249D03*
X0053724Y0044199D03*
D44*
X0053724Y0044299D03*
X0053724Y0044349D03*
X0053724Y0061649D03*
X0053724Y0061699D03*
X0053724Y0066499D03*
X0053724Y0066549D03*
X0053724Y0083849D03*
X0053724Y0083899D03*
X0034424Y0072799D03*
X0034424Y0072749D03*
X0034424Y0055449D03*
X0034424Y0055399D03*
D45*
X0034424Y0056349D03*
X0034424Y0056399D03*
X0034424Y0071799D03*
X0034424Y0071849D03*
X0053724Y0067499D03*
X0053724Y0067449D03*
X0053724Y0060749D03*
X0053724Y0060699D03*
X0053724Y0045299D03*
X0053724Y0045249D03*
X0053724Y0082899D03*
X0053724Y0082949D03*
D46*
X0053724Y0082849D03*
X0053724Y0082799D03*
X0053724Y0067549D03*
X0053724Y0060649D03*
X0053724Y0045399D03*
X0053724Y0045349D03*
X0034424Y0056449D03*
X0034424Y0071749D03*
D47*
X0034424Y0071649D03*
X0034424Y0056549D03*
X0053724Y0060549D03*
X0053724Y0067649D03*
X0053724Y0082749D03*
X0053724Y0045449D03*
D48*
X0053699Y0045499D03*
X0034449Y0056599D03*
X0034449Y0071599D03*
X0053699Y0082699D03*
D49*
X0053724Y0082649D03*
X0053724Y0067749D03*
X0053724Y0067699D03*
X0053724Y0060499D03*
X0053724Y0060449D03*
X0053724Y0045549D03*
X0034424Y0056649D03*
X0034424Y0071549D03*
D50*
X0034424Y0071499D03*
X0034424Y0071449D03*
X0034424Y0056749D03*
X0034424Y0056699D03*
X0053724Y0060349D03*
X0053724Y0060399D03*
X0053724Y0067799D03*
X0053724Y0067849D03*
X0053724Y0082549D03*
X0053724Y0082599D03*
X0053724Y0045649D03*
X0053724Y0045599D03*
D51*
X0053724Y0045699D03*
X0053724Y0045749D03*
X0053724Y0060299D03*
X0053724Y0067899D03*
X0053724Y0082449D03*
X0053724Y0082499D03*
X0034424Y0071399D03*
X0034424Y0056799D03*
D52*
X0034424Y0056899D03*
X0034424Y0071299D03*
X0053724Y0067999D03*
X0053724Y0060199D03*
X0053724Y0045799D03*
X0053724Y0082399D03*
D53*
X0053699Y0082349D03*
X0034449Y0071249D03*
X0034449Y0056949D03*
X0053699Y0045849D03*
D54*
X0053724Y0045899D03*
X0053724Y0060099D03*
X0053724Y0060149D03*
X0053724Y0068049D03*
X0053724Y0068099D03*
X0053724Y0082299D03*
X0034424Y0071199D03*
X0034424Y0056999D03*
D55*
X0034424Y0057049D03*
X0034424Y0057099D03*
X0034424Y0071099D03*
X0034424Y0071149D03*
X0053724Y0068199D03*
X0053724Y0068149D03*
X0053724Y0060049D03*
X0053724Y0059999D03*
X0053724Y0045999D03*
X0053724Y0045949D03*
X0053724Y0082199D03*
X0053724Y0082249D03*
D56*
X0053724Y0082149D03*
X0053724Y0068249D03*
X0053724Y0059949D03*
X0053724Y0046049D03*
X0034424Y0057149D03*
X0034424Y0071049D03*
D57*
X0034449Y0070999D03*
X0034449Y0057199D03*
X0053699Y0059899D03*
X0053699Y0068299D03*
X0053699Y0082099D03*
X0053699Y0046099D03*
D58*
X0053724Y0046149D03*
X0053724Y0059849D03*
X0053724Y0068349D03*
X0053724Y0082049D03*
X0034424Y0070949D03*
X0034424Y0057249D03*
D59*
X0053699Y0046199D03*
X0053699Y0081999D03*
D60*
X0053724Y0081949D03*
X0053724Y0068449D03*
X0053724Y0068399D03*
X0053724Y0059799D03*
X0053724Y0059749D03*
X0053724Y0046249D03*
X0034424Y0057299D03*
X0034424Y0057349D03*
X0034424Y0070849D03*
X0034424Y0070899D03*
D61*
X0034424Y0070799D03*
X0034424Y0070749D03*
X0034424Y0057449D03*
X0034424Y0057399D03*
X0053724Y0059699D03*
X0053724Y0068499D03*
X0053724Y0081849D03*
X0053724Y0081899D03*
X0053724Y0046349D03*
X0053724Y0046299D03*
D62*
X0053724Y0046399D03*
X0053724Y0059599D03*
X0053724Y0068599D03*
X0053724Y0081799D03*
X0034424Y0070699D03*
X0034424Y0057499D03*
D63*
X0034449Y0057549D03*
X0034449Y0070649D03*
X0053699Y0068649D03*
X0053699Y0059549D03*
X0053699Y0046449D03*
X0053699Y0081749D03*
D64*
X0053724Y0081699D03*
X0053724Y0068699D03*
X0053724Y0059499D03*
X0053724Y0046499D03*
X0034424Y0057599D03*
X0034424Y0070599D03*
D65*
X0034424Y0070549D03*
X0034424Y0070499D03*
X0034424Y0057699D03*
X0034424Y0057649D03*
X0053724Y0059399D03*
X0053724Y0059449D03*
X0053724Y0068749D03*
X0053724Y0068799D03*
X0053724Y0081599D03*
X0053724Y0081649D03*
X0053724Y0046599D03*
X0053724Y0046549D03*
D66*
X0053724Y0046649D03*
X0053724Y0046699D03*
X0053724Y0059349D03*
X0053724Y0068849D03*
X0053724Y0081499D03*
X0053724Y0081549D03*
X0034424Y0070449D03*
X0034424Y0057749D03*
D67*
X0034424Y0057849D03*
X0034424Y0070349D03*
X0053724Y0068949D03*
X0053724Y0059249D03*
X0053724Y0046749D03*
X0053724Y0081449D03*
D68*
X0053699Y0081399D03*
X0034449Y0070299D03*
X0034449Y0057899D03*
X0053699Y0046799D03*
D69*
X0053724Y0046849D03*
X0053724Y0059149D03*
X0053724Y0059199D03*
X0053724Y0068999D03*
X0053724Y0069049D03*
X0053724Y0081349D03*
X0034424Y0070249D03*
X0034424Y0057949D03*
D70*
X0034424Y0057999D03*
X0034424Y0058049D03*
X0034424Y0070149D03*
X0034424Y0070199D03*
X0053724Y0069149D03*
X0053724Y0069099D03*
X0053724Y0059099D03*
X0053724Y0059049D03*
X0053724Y0046949D03*
X0053724Y0046899D03*
X0053724Y0081249D03*
X0053724Y0081299D03*
D71*
X0053724Y0081199D03*
X0053724Y0069199D03*
X0053724Y0058999D03*
X0053724Y0046999D03*
X0034424Y0058099D03*
X0034424Y0070099D03*
D72*
X0034449Y0070049D03*
X0034449Y0058149D03*
X0053699Y0058949D03*
X0053699Y0069249D03*
X0053699Y0081149D03*
X0053699Y0047049D03*
D73*
X0053724Y0047099D03*
X0053724Y0058899D03*
X0053724Y0069299D03*
X0053724Y0081099D03*
X0034424Y0069999D03*
X0034424Y0058199D03*
D74*
X0053699Y0047149D03*
X0053699Y0081049D03*
D75*
X0053724Y0080999D03*
X0053724Y0069399D03*
X0053724Y0069349D03*
X0053724Y0058849D03*
X0053724Y0058799D03*
X0053724Y0047199D03*
X0034424Y0058249D03*
X0034424Y0058299D03*
X0034424Y0069899D03*
X0034424Y0069949D03*
D76*
X0034424Y0069849D03*
X0034424Y0069799D03*
X0034424Y0058399D03*
X0034424Y0058349D03*
X0053724Y0058749D03*
X0053724Y0069449D03*
X0053724Y0080899D03*
X0053724Y0080949D03*
X0053724Y0047299D03*
X0053724Y0047249D03*
D77*
X0053724Y0047349D03*
X0053724Y0058649D03*
X0053724Y0069549D03*
X0053724Y0080849D03*
X0034424Y0069749D03*
X0034424Y0058449D03*
D78*
X0034449Y0058499D03*
X0034449Y0069699D03*
X0053699Y0069599D03*
X0053699Y0058599D03*
X0053699Y0047399D03*
X0053699Y0080799D03*
D79*
X0053724Y0080749D03*
X0053724Y0069649D03*
X0053724Y0058549D03*
X0053724Y0047449D03*
X0034424Y0058549D03*
X0034424Y0069649D03*
D80*
X0053699Y0080699D03*
X0053699Y0047499D03*
D81*
X0053724Y0047549D03*
X0053724Y0058449D03*
X0053724Y0058499D03*
X0053724Y0069699D03*
X0053724Y0069749D03*
X0053724Y0080649D03*
X0034424Y0069599D03*
X0034424Y0069549D03*
X0034424Y0058649D03*
X0034424Y0058599D03*
D82*
X0034424Y0058699D03*
X0034424Y0058749D03*
X0034424Y0069449D03*
X0034424Y0069499D03*
X0053724Y0069799D03*
X0053724Y0080549D03*
X0053724Y0080599D03*
X0053724Y0058399D03*
X0053724Y0047649D03*
X0053724Y0047599D03*
D83*
X0053724Y0047699D03*
X0053724Y0058299D03*
X0053724Y0069899D03*
X0053724Y0080499D03*
X0034424Y0069399D03*
X0034424Y0058799D03*
D84*
X0034449Y0058849D03*
X0034449Y0069349D03*
X0053699Y0069949D03*
X0053699Y0080449D03*
X0053699Y0058249D03*
X0053699Y0047749D03*
D85*
X0053724Y0047799D03*
X0053724Y0058199D03*
X0053724Y0069999D03*
X0053724Y0080399D03*
X0034424Y0069299D03*
X0034424Y0058899D03*
D86*
X0034424Y0058949D03*
X0034424Y0058999D03*
X0034424Y0069199D03*
X0034424Y0069249D03*
X0053724Y0070049D03*
X0053724Y0070099D03*
X0053724Y0080299D03*
X0053724Y0080349D03*
X0053724Y0058149D03*
X0053724Y0058099D03*
X0053724Y0047899D03*
X0053724Y0047849D03*
D87*
X0053724Y0047949D03*
X0053724Y0047999D03*
X0053724Y0058049D03*
X0053724Y0070149D03*
X0053724Y0080199D03*
X0053724Y0080249D03*
X0034424Y0069149D03*
X0034424Y0059049D03*
D88*
X0034424Y0059149D03*
X0034424Y0069049D03*
X0053724Y0070249D03*
X0053724Y0080149D03*
X0053724Y0057949D03*
X0053724Y0048049D03*
D89*
X0053699Y0048099D03*
X0034449Y0059199D03*
X0034449Y0068999D03*
X0053699Y0080099D03*
D90*
X0053724Y0080049D03*
X0053724Y0070349D03*
X0053724Y0070299D03*
X0053724Y0057899D03*
X0053724Y0057849D03*
X0053724Y0048149D03*
X0034424Y0059249D03*
X0034424Y0068949D03*
D91*
X0034424Y0068899D03*
X0034424Y0068849D03*
X0034424Y0059349D03*
X0034424Y0059299D03*
X0053724Y0057799D03*
X0053724Y0057749D03*
X0053724Y0048249D03*
X0053724Y0048199D03*
X0053724Y0070399D03*
X0053724Y0070449D03*
X0053724Y0079949D03*
X0053724Y0079999D03*
D92*
X0053724Y0079899D03*
X0053724Y0070499D03*
X0053724Y0057699D03*
X0053724Y0048299D03*
X0034424Y0059399D03*
X0034424Y0068799D03*
D93*
X0034449Y0068749D03*
X0034449Y0059449D03*
X0053699Y0057649D03*
X0053699Y0048349D03*
X0053699Y0070549D03*
X0053699Y0079849D03*
D94*
X0053724Y0079799D03*
X0053724Y0070599D03*
X0053724Y0057599D03*
X0053724Y0048399D03*
X0034424Y0059499D03*
X0034424Y0068699D03*
D95*
X0053699Y0079749D03*
X0053699Y0048449D03*
D96*
X0053724Y0048499D03*
X0053724Y0057499D03*
X0053724Y0057549D03*
X0053724Y0070649D03*
X0053724Y0070699D03*
X0053724Y0079699D03*
X0034424Y0068649D03*
X0034424Y0068599D03*
X0034424Y0059599D03*
X0034424Y0059549D03*
D97*
X0034424Y0059649D03*
X0034424Y0059699D03*
X0034424Y0068499D03*
X0034424Y0068549D03*
X0053724Y0070749D03*
X0053724Y0079599D03*
X0053724Y0079649D03*
X0053724Y0057449D03*
X0053724Y0048599D03*
X0053724Y0048549D03*
D98*
X0053724Y0048649D03*
X0053724Y0057349D03*
X0053724Y0070849D03*
X0053724Y0079549D03*
X0034424Y0068449D03*
X0034424Y0059749D03*
D99*
X0034449Y0059799D03*
X0034449Y0068399D03*
X0053699Y0070899D03*
X0053699Y0079499D03*
X0053699Y0057299D03*
X0053699Y0048699D03*
D100*
X0053724Y0048749D03*
X0053724Y0057249D03*
X0053724Y0070949D03*
X0053724Y0079449D03*
X0034424Y0068349D03*
X0034424Y0059849D03*
D101*
X0034424Y0059899D03*
X0034424Y0059949D03*
X0034424Y0068249D03*
X0034424Y0068299D03*
X0053724Y0070999D03*
X0053724Y0071049D03*
X0053724Y0079349D03*
X0053724Y0079399D03*
X0053724Y0057199D03*
X0053724Y0057149D03*
X0053724Y0048849D03*
X0053724Y0048799D03*
D102*
X0053724Y0048899D03*
X0053724Y0048949D03*
X0053724Y0057099D03*
X0053724Y0071099D03*
X0053724Y0079249D03*
X0053724Y0079299D03*
X0034424Y0068199D03*
X0034424Y0059999D03*
D103*
X0034424Y0060099D03*
X0034424Y0068099D03*
X0053724Y0071199D03*
X0053724Y0079199D03*
X0053724Y0056999D03*
X0053724Y0048999D03*
D104*
X0053699Y0049049D03*
X0034449Y0060149D03*
X0034449Y0068049D03*
X0053699Y0079149D03*
D105*
X0053724Y0079099D03*
X0053724Y0071299D03*
X0053724Y0071249D03*
X0053724Y0056949D03*
X0053724Y0056899D03*
X0053724Y0049099D03*
X0034424Y0060199D03*
X0034424Y0067999D03*
D106*
X0034424Y0067949D03*
X0034424Y0067899D03*
X0034424Y0060299D03*
X0034424Y0060249D03*
X0053724Y0056849D03*
X0053724Y0056799D03*
X0053724Y0049199D03*
X0053724Y0049149D03*
X0053724Y0071349D03*
X0053724Y0071399D03*
X0053724Y0078999D03*
X0053724Y0079049D03*
D107*
X0053724Y0078949D03*
X0053724Y0078899D03*
X0053724Y0071449D03*
X0053724Y0056749D03*
X0053724Y0049299D03*
X0053724Y0049249D03*
X0034424Y0060349D03*
X0034424Y0067849D03*
D108*
X0034424Y0067749D03*
X0034424Y0060449D03*
X0053724Y0056649D03*
X0053724Y0049349D03*
X0053724Y0071549D03*
X0053724Y0078849D03*
D109*
X0053699Y0078799D03*
X0034449Y0067699D03*
X0034449Y0060499D03*
X0053699Y0049399D03*
D110*
X0053724Y0049449D03*
X0053724Y0056549D03*
X0053724Y0056599D03*
X0053724Y0071599D03*
X0053724Y0071649D03*
X0053724Y0078749D03*
X0034424Y0067649D03*
X0034424Y0060549D03*
D111*
X0034424Y0060599D03*
X0034424Y0060649D03*
X0034424Y0067549D03*
X0034424Y0067599D03*
X0053724Y0071699D03*
X0053724Y0071749D03*
X0053724Y0078649D03*
X0053724Y0078699D03*
X0053724Y0056499D03*
X0053724Y0056449D03*
X0053724Y0049549D03*
X0053724Y0049499D03*
D112*
X0053724Y0049599D03*
X0053724Y0056399D03*
X0053724Y0071799D03*
X0053724Y0078599D03*
X0034424Y0067499D03*
X0034424Y0060699D03*
D113*
X0034449Y0060749D03*
X0034449Y0067449D03*
X0053699Y0071849D03*
X0053699Y0078549D03*
X0053699Y0056349D03*
X0053699Y0049649D03*
D114*
X0053724Y0049699D03*
X0053724Y0056299D03*
X0053724Y0071899D03*
X0053724Y0078499D03*
X0034424Y0067399D03*
X0034424Y0060799D03*
D115*
X0053699Y0049749D03*
X0053699Y0078449D03*
D116*
X0053724Y0078399D03*
X0053724Y0071999D03*
X0053724Y0071949D03*
X0053724Y0056249D03*
X0053724Y0056199D03*
X0053724Y0049799D03*
X0034424Y0060849D03*
X0034424Y0060899D03*
X0034424Y0067299D03*
X0034424Y0067349D03*
D117*
X0034424Y0067249D03*
X0034424Y0067199D03*
X0034424Y0060999D03*
X0034424Y0060949D03*
X0053724Y0056149D03*
X0053724Y0049899D03*
X0053724Y0049849D03*
X0053724Y0072049D03*
X0053724Y0078299D03*
X0053724Y0078349D03*
D118*
X0053724Y0078249D03*
X0053724Y0072149D03*
X0053724Y0056049D03*
X0053724Y0049949D03*
X0034424Y0061049D03*
X0034424Y0067149D03*
D119*
X0034449Y0067099D03*
X0034449Y0061099D03*
X0053699Y0055999D03*
X0053699Y0049999D03*
X0053699Y0072199D03*
X0053699Y0078199D03*
D120*
X0053724Y0078149D03*
X0053724Y0072249D03*
X0053724Y0055949D03*
X0053724Y0050049D03*
X0034424Y0061149D03*
X0034424Y0067049D03*
D121*
X0034424Y0066999D03*
X0034424Y0066949D03*
X0034424Y0061249D03*
X0034424Y0061199D03*
X0053724Y0055899D03*
X0053724Y0055849D03*
X0053724Y0050149D03*
X0053724Y0050099D03*
X0053724Y0072299D03*
X0053724Y0072349D03*
X0053724Y0078049D03*
X0053724Y0078099D03*
D122*
X0053724Y0077999D03*
X0053724Y0077949D03*
X0053724Y0072399D03*
X0053724Y0055799D03*
X0053724Y0050249D03*
X0053724Y0050199D03*
X0034424Y0061299D03*
X0034424Y0066899D03*
D123*
X0034424Y0066799D03*
X0034424Y0061399D03*
X0053724Y0055699D03*
X0053724Y0050299D03*
X0053724Y0072499D03*
X0053724Y0077899D03*
D124*
X0053699Y0077849D03*
X0034449Y0066749D03*
X0034449Y0061449D03*
X0053699Y0050349D03*
D125*
X0053724Y0050399D03*
X0053724Y0055599D03*
X0053724Y0055649D03*
X0053724Y0072549D03*
X0053724Y0072599D03*
X0053724Y0077799D03*
X0034424Y0066699D03*
X0034424Y0061499D03*
D126*
X0034424Y0061549D03*
X0034424Y0061599D03*
X0034424Y0066599D03*
X0034424Y0066649D03*
X0053724Y0072649D03*
X0053724Y0072699D03*
X0053724Y0077699D03*
X0053724Y0077749D03*
X0053724Y0055549D03*
X0053724Y0055499D03*
X0053724Y0050499D03*
X0053724Y0050449D03*
D127*
X0053724Y0050549D03*
X0053724Y0055449D03*
X0053724Y0072749D03*
X0053724Y0077649D03*
X0034424Y0066549D03*
X0034424Y0061649D03*
D128*
X0034449Y0061699D03*
X0034449Y0066499D03*
X0053699Y0072799D03*
X0053699Y0077599D03*
X0053699Y0055399D03*
X0053699Y0050599D03*
D129*
X0053724Y0050649D03*
X0053724Y0055349D03*
X0053724Y0072849D03*
X0053724Y0077549D03*
X0034424Y0066449D03*
X0034424Y0061749D03*
D130*
X0053699Y0050699D03*
X0053699Y0077499D03*
D131*
X0053724Y0077449D03*
X0053724Y0072949D03*
X0053724Y0072899D03*
X0053724Y0055299D03*
X0053724Y0055249D03*
X0053724Y0050749D03*
X0034424Y0061799D03*
X0034424Y0061849D03*
X0034424Y0066349D03*
X0034424Y0066399D03*
D132*
X0034424Y0066299D03*
X0034424Y0066249D03*
X0034424Y0061949D03*
X0034424Y0061899D03*
X0053724Y0055199D03*
X0053724Y0055149D03*
X0053724Y0050849D03*
X0053724Y0050799D03*
X0053724Y0072999D03*
X0053724Y0073049D03*
X0053724Y0077349D03*
X0053724Y0077399D03*
D133*
X0053724Y0077299D03*
X0053724Y0073099D03*
X0053724Y0055099D03*
X0053724Y0050899D03*
X0034424Y0061999D03*
X0034424Y0066199D03*
D134*
X0034449Y0066149D03*
X0034449Y0062049D03*
X0053699Y0055049D03*
X0053699Y0050949D03*
X0053699Y0073149D03*
X0053699Y0077249D03*
D135*
X0053724Y0077199D03*
X0053724Y0073199D03*
X0053724Y0054999D03*
X0053724Y0050999D03*
X0034424Y0062099D03*
X0034424Y0066099D03*
D136*
X0053699Y0077149D03*
X0053699Y0051049D03*
D137*
X0053724Y0051099D03*
X0053724Y0054899D03*
X0053724Y0054949D03*
X0053724Y0073249D03*
X0053724Y0073299D03*
X0053724Y0077099D03*
X0034424Y0066049D03*
X0034424Y0065999D03*
X0034424Y0062199D03*
X0034424Y0062149D03*
D138*
X0034424Y0062249D03*
X0034424Y0062299D03*
X0034424Y0065899D03*
X0034424Y0065949D03*
X0053724Y0073349D03*
X0053724Y0076999D03*
X0053724Y0077049D03*
X0053724Y0054849D03*
X0053724Y0051199D03*
X0053724Y0051149D03*
D139*
X0053724Y0051249D03*
X0053724Y0054749D03*
X0053724Y0073449D03*
X0053724Y0076949D03*
X0034424Y0065849D03*
X0034424Y0062349D03*
D140*
X0034449Y0062399D03*
X0034449Y0065799D03*
X0053699Y0073499D03*
X0053699Y0076899D03*
X0053699Y0054699D03*
X0053699Y0051299D03*
D141*
X0053724Y0051349D03*
X0053724Y0054649D03*
X0053724Y0073549D03*
X0053724Y0076849D03*
X0034424Y0065749D03*
X0034424Y0062449D03*
D142*
X0034424Y0062499D03*
X0034424Y0062549D03*
X0034424Y0065649D03*
X0034424Y0065699D03*
X0053724Y0073599D03*
X0053724Y0073649D03*
X0053724Y0076749D03*
X0053724Y0076799D03*
X0053724Y0054599D03*
X0053724Y0054549D03*
X0053724Y0051449D03*
X0053724Y0051399D03*
D143*
X0053724Y0051499D03*
X0053724Y0051549D03*
X0053724Y0054499D03*
X0053724Y0073699D03*
X0053724Y0076649D03*
X0053724Y0076699D03*
X0034424Y0065599D03*
X0034424Y0062599D03*
D144*
X0034424Y0062699D03*
X0034424Y0065499D03*
X0053724Y0073799D03*
X0053724Y0076599D03*
X0053724Y0054399D03*
X0053724Y0051599D03*
D145*
X0053699Y0051649D03*
X0053699Y0076549D03*
X0034449Y0065449D03*
X0034449Y0062749D03*
D146*
X0034424Y0062799D03*
X0034424Y0065399D03*
X0053724Y0073849D03*
X0053724Y0073899D03*
X0053724Y0076499D03*
X0053724Y0054349D03*
X0053724Y0054299D03*
X0053724Y0051699D03*
D147*
X0053724Y0051749D03*
X0053724Y0051799D03*
X0053724Y0054199D03*
X0053724Y0054249D03*
X0053724Y0073949D03*
X0053724Y0073999D03*
X0053724Y0076399D03*
X0053724Y0076449D03*
X0034424Y0065349D03*
X0034424Y0065299D03*
X0034424Y0062899D03*
X0034424Y0062849D03*
D148*
X0034424Y0062949D03*
X0034424Y0065249D03*
X0053724Y0074049D03*
X0053724Y0076349D03*
X0053724Y0054149D03*
X0053724Y0051849D03*
D149*
X0053699Y0051899D03*
X0053699Y0054099D03*
X0053699Y0074099D03*
X0053699Y0076299D03*
X0034449Y0065199D03*
X0034449Y0062999D03*
D150*
X0034424Y0063049D03*
X0034424Y0065149D03*
X0053724Y0074149D03*
X0053724Y0076249D03*
X0053724Y0054049D03*
X0053724Y0051949D03*
D151*
X0053699Y0051999D03*
X0053699Y0076199D03*
D152*
X0053724Y0076149D03*
X0053724Y0074249D03*
X0053724Y0074199D03*
X0053724Y0053999D03*
X0053724Y0053949D03*
X0053724Y0052049D03*
X0034424Y0063099D03*
X0034424Y0063149D03*
X0034424Y0065049D03*
X0034424Y0065099D03*
D153*
X0030299Y0064999D03*
X0030299Y0063199D03*
X0057849Y0052099D03*
D154*
X0057949Y0052149D03*
X0030199Y0063249D03*
X0030199Y0064949D03*
D155*
X0030174Y0064899D03*
X0030174Y0063299D03*
X0057974Y0052199D03*
D156*
X0057999Y0052249D03*
X0057999Y0053749D03*
X0030149Y0063349D03*
X0030149Y0064849D03*
D157*
X0030124Y0064799D03*
X0030124Y0063399D03*
X0058024Y0053699D03*
X0058024Y0052299D03*
D158*
X0058024Y0052349D03*
X0058024Y0053649D03*
X0030124Y0063449D03*
X0030124Y0064749D03*
D159*
X0030099Y0064699D03*
X0030099Y0063499D03*
X0058049Y0053599D03*
X0058049Y0052399D03*
D160*
X0058049Y0052449D03*
X0058049Y0053549D03*
X0030099Y0063549D03*
X0030099Y0064649D03*
D161*
X0030074Y0064599D03*
X0030074Y0063599D03*
X0058074Y0052499D03*
D162*
X0058049Y0052549D03*
X0058049Y0053449D03*
X0058049Y0053499D03*
X0030099Y0063649D03*
X0030099Y0064549D03*
D163*
X0030099Y0064499D03*
X0030099Y0064449D03*
X0030099Y0063749D03*
X0030099Y0063699D03*
X0058049Y0053399D03*
X0058049Y0053349D03*
X0058049Y0052649D03*
X0058049Y0052599D03*
D164*
X0058049Y0052699D03*
X0058049Y0052749D03*
X0058049Y0053249D03*
X0058049Y0053299D03*
X0030099Y0063799D03*
X0030099Y0063849D03*
X0030099Y0064349D03*
X0030099Y0064399D03*
D165*
X0030124Y0064299D03*
X0030124Y0063899D03*
X0058024Y0053199D03*
X0058024Y0052849D03*
X0058024Y0052799D03*
D166*
X0058024Y0052899D03*
X0058024Y0053099D03*
X0030124Y0063999D03*
X0030124Y0064199D03*
D167*
X0030149Y0064149D03*
X0030149Y0064099D03*
X0030149Y0064049D03*
X0057999Y0053049D03*
X0057999Y0052999D03*
X0057999Y0052949D03*
D168*
X0057999Y0053149D03*
X0030149Y0063949D03*
X0030149Y0064249D03*
D169*
X0057999Y0053799D03*
D170*
X0057924Y0053849D03*
D171*
X0057874Y0053899D03*
D172*
X0053699Y0054449D03*
X0053699Y0073749D03*
X0034449Y0065549D03*
X0034449Y0062649D03*
D173*
X0034424Y0054549D03*
X0034424Y0073649D03*
X0053724Y0065649D03*
X0053724Y0062549D03*
D174*
X0053699Y0062499D03*
X0053699Y0065699D03*
X0034449Y0073599D03*
X0034449Y0054599D03*
D175*
X0034424Y0054649D03*
X0034424Y0073549D03*
X0053724Y0065749D03*
X0053724Y0062449D03*
D176*
X0053724Y0062399D03*
X0053724Y0062349D03*
X0053724Y0065799D03*
X0053724Y0065849D03*
X0034424Y0073449D03*
X0034424Y0073499D03*
X0034424Y0054749D03*
X0034424Y0054699D03*
D177*
X0034424Y0054799D03*
X0034424Y0054849D03*
X0034424Y0073349D03*
X0034424Y0073399D03*
X0053724Y0065899D03*
X0053724Y0062299D03*
D178*
X0053699Y0054799D03*
X0053699Y0073399D03*
D179*
X0053724Y0065999D03*
X0053724Y0062199D03*
X0034424Y0054899D03*
X0034424Y0073299D03*
D180*
X0034449Y0073249D03*
X0034449Y0054949D03*
X0053699Y0062149D03*
X0053699Y0066049D03*
D181*
X0053724Y0066099D03*
X0053724Y0062099D03*
X0034424Y0054999D03*
X0034424Y0073199D03*
D182*
X0034424Y0073149D03*
X0034424Y0073099D03*
X0034424Y0055099D03*
X0034424Y0055049D03*
X0053724Y0061999D03*
X0053724Y0062049D03*
X0053724Y0066149D03*
X0053724Y0066199D03*
D183*
X0053724Y0066249D03*
X0053724Y0061949D03*
X0034424Y0055199D03*
X0034424Y0055149D03*
X0034424Y0072999D03*
X0034424Y0073049D03*
D184*
X0034424Y0072949D03*
X0034424Y0055249D03*
X0053724Y0061849D03*
X0053724Y0066349D03*
D185*
X0034449Y0072899D03*
X0034449Y0055299D03*
D186*
X0034424Y0055349D03*
X0034424Y0072849D03*
X0053724Y0066449D03*
X0053724Y0066399D03*
X0053724Y0061799D03*
X0053724Y0061749D03*
D187*
X0053699Y0061549D03*
X0053699Y0066649D03*
X0034449Y0072649D03*
X0034449Y0055549D03*
D188*
X0034449Y0061349D03*
X0034449Y0066849D03*
X0053699Y0072449D03*
X0053699Y0055749D03*
D189*
X0053699Y0056099D03*
X0053699Y0072099D03*
D190*
X0053699Y0067599D03*
X0053699Y0060599D03*
X0034449Y0056499D03*
X0034449Y0071699D03*
D191*
X0034449Y0067799D03*
X0034449Y0060399D03*
X0053699Y0056699D03*
X0053699Y0071499D03*
D192*
X0053699Y0067949D03*
X0053699Y0060249D03*
X0034449Y0056849D03*
X0034449Y0071349D03*
D193*
X0034449Y0068149D03*
X0034449Y0060049D03*
X0053699Y0057049D03*
X0053699Y0071149D03*
D194*
X0053699Y0070799D03*
X0053699Y0057399D03*
D195*
X0053699Y0059299D03*
X0053699Y0068899D03*
X0034449Y0070399D03*
X0034449Y0057799D03*
D196*
X0034449Y0059099D03*
X0034449Y0069099D03*
X0053699Y0070199D03*
X0053699Y0057999D03*
D197*
X0053699Y0058349D03*
X0053699Y0069849D03*
D198*
X0053699Y0069499D03*
X0053699Y0058699D03*
D199*
X0053699Y0059649D03*
X0053699Y0068549D03*
D200*
X0053699Y0067249D03*
X0053699Y0060949D03*
D201*
X0053699Y0061899D03*
X0053699Y0066299D03*
D202*
X0053699Y0065949D03*
X0053699Y0062249D03*
D203*
X0053724Y0074299D03*
X0053724Y0076049D03*
X0053724Y0076099D03*
D204*
X0053699Y0074349D03*
D205*
X0053724Y0074399D03*
X0053724Y0075999D03*
D206*
X0053699Y0075949D03*
X0053699Y0074449D03*
D207*
X0053724Y0074499D03*
X0053724Y0075899D03*
D208*
X0053724Y0075849D03*
X0053724Y0075799D03*
X0053724Y0074599D03*
X0053724Y0074549D03*
D209*
X0053724Y0074649D03*
X0053724Y0075699D03*
X0053724Y0075749D03*
D210*
X0053699Y0074699D03*
D211*
X0053724Y0074749D03*
X0053724Y0075649D03*
D212*
X0053699Y0075599D03*
X0053699Y0074799D03*
D213*
X0053724Y0074849D03*
X0053724Y0075549D03*
D214*
X0053724Y0075499D03*
X0053724Y0075449D03*
X0053724Y0074949D03*
X0053724Y0074899D03*
D215*
X0053724Y0074999D03*
X0053724Y0075349D03*
X0053724Y0075399D03*
D216*
X0053699Y0075049D03*
D217*
X0053724Y0075099D03*
X0053724Y0075299D03*
D218*
X0053724Y0075199D03*
X0053724Y0075149D03*
D219*
X0053699Y0075249D03*
D220*
X0035161Y0022169D02*
X0035163Y0022294D01*
X0035169Y0022419D01*
X0035179Y0022543D01*
X0035193Y0022667D01*
X0035210Y0022791D01*
X0035232Y0022914D01*
X0035258Y0023036D01*
X0035287Y0023158D01*
X0035320Y0023278D01*
X0035358Y0023397D01*
X0035398Y0023516D01*
X0035443Y0023632D01*
X0035491Y0023747D01*
X0035543Y0023861D01*
X0035599Y0023973D01*
X0035658Y0024083D01*
X0035720Y0024191D01*
X0035786Y0024298D01*
X0035855Y0024402D01*
X0035928Y0024503D01*
X0036003Y0024603D01*
X0036082Y0024700D01*
X0036164Y0024794D01*
X0036249Y0024886D01*
X0036336Y0024975D01*
X0036427Y0025061D01*
X0036520Y0025144D01*
X0036616Y0025225D01*
X0036714Y0025302D01*
X0036814Y0025376D01*
X0036917Y0025447D01*
X0037022Y0025514D01*
X0037130Y0025579D01*
X0037239Y0025639D01*
X0037350Y0025697D01*
X0037463Y0025750D01*
X0037577Y0025800D01*
X0037693Y0025847D01*
X0037810Y0025889D01*
X0037929Y0025928D01*
X0038049Y0025964D01*
X0038170Y0025995D01*
X0038292Y0026023D01*
X0038414Y0026046D01*
X0038538Y0026066D01*
X0038662Y0026082D01*
X0038786Y0026094D01*
X0038911Y0026102D01*
X0039036Y0026106D01*
X0039160Y0026106D01*
X0039285Y0026102D01*
X0039410Y0026094D01*
X0039534Y0026082D01*
X0039658Y0026066D01*
X0039782Y0026046D01*
X0039904Y0026023D01*
X0040026Y0025995D01*
X0040147Y0025964D01*
X0040267Y0025928D01*
X0040386Y0025889D01*
X0040503Y0025847D01*
X0040619Y0025800D01*
X0040733Y0025750D01*
X0040846Y0025697D01*
X0040957Y0025639D01*
X0041067Y0025579D01*
X0041174Y0025514D01*
X0041279Y0025447D01*
X0041382Y0025376D01*
X0041482Y0025302D01*
X0041580Y0025225D01*
X0041676Y0025144D01*
X0041769Y0025061D01*
X0041860Y0024975D01*
X0041947Y0024886D01*
X0042032Y0024794D01*
X0042114Y0024700D01*
X0042193Y0024603D01*
X0042268Y0024503D01*
X0042341Y0024402D01*
X0042410Y0024298D01*
X0042476Y0024191D01*
X0042538Y0024083D01*
X0042597Y0023973D01*
X0042653Y0023861D01*
X0042705Y0023747D01*
X0042753Y0023632D01*
X0042798Y0023516D01*
X0042838Y0023397D01*
X0042876Y0023278D01*
X0042909Y0023158D01*
X0042938Y0023036D01*
X0042964Y0022914D01*
X0042986Y0022791D01*
X0043003Y0022667D01*
X0043017Y0022543D01*
X0043027Y0022419D01*
X0043033Y0022294D01*
X0043035Y0022169D01*
X0043033Y0022044D01*
X0043027Y0021919D01*
X0043017Y0021795D01*
X0043003Y0021671D01*
X0042986Y0021547D01*
X0042964Y0021424D01*
X0042938Y0021302D01*
X0042909Y0021180D01*
X0042876Y0021060D01*
X0042838Y0020941D01*
X0042798Y0020822D01*
X0042753Y0020706D01*
X0042705Y0020591D01*
X0042653Y0020477D01*
X0042597Y0020365D01*
X0042538Y0020255D01*
X0042476Y0020147D01*
X0042410Y0020040D01*
X0042341Y0019936D01*
X0042268Y0019835D01*
X0042193Y0019735D01*
X0042114Y0019638D01*
X0042032Y0019544D01*
X0041947Y0019452D01*
X0041860Y0019363D01*
X0041769Y0019277D01*
X0041676Y0019194D01*
X0041580Y0019113D01*
X0041482Y0019036D01*
X0041382Y0018962D01*
X0041279Y0018891D01*
X0041174Y0018824D01*
X0041066Y0018759D01*
X0040957Y0018699D01*
X0040846Y0018641D01*
X0040733Y0018588D01*
X0040619Y0018538D01*
X0040503Y0018491D01*
X0040386Y0018449D01*
X0040267Y0018410D01*
X0040147Y0018374D01*
X0040026Y0018343D01*
X0039904Y0018315D01*
X0039782Y0018292D01*
X0039658Y0018272D01*
X0039534Y0018256D01*
X0039410Y0018244D01*
X0039285Y0018236D01*
X0039160Y0018232D01*
X0039036Y0018232D01*
X0038911Y0018236D01*
X0038786Y0018244D01*
X0038662Y0018256D01*
X0038538Y0018272D01*
X0038414Y0018292D01*
X0038292Y0018315D01*
X0038170Y0018343D01*
X0038049Y0018374D01*
X0037929Y0018410D01*
X0037810Y0018449D01*
X0037693Y0018491D01*
X0037577Y0018538D01*
X0037463Y0018588D01*
X0037350Y0018641D01*
X0037239Y0018699D01*
X0037129Y0018759D01*
X0037022Y0018824D01*
X0036917Y0018891D01*
X0036814Y0018962D01*
X0036714Y0019036D01*
X0036616Y0019113D01*
X0036520Y0019194D01*
X0036427Y0019277D01*
X0036336Y0019363D01*
X0036249Y0019452D01*
X0036164Y0019544D01*
X0036082Y0019638D01*
X0036003Y0019735D01*
X0035928Y0019835D01*
X0035855Y0019936D01*
X0035786Y0020040D01*
X0035720Y0020147D01*
X0035658Y0020255D01*
X0035599Y0020365D01*
X0035543Y0020477D01*
X0035491Y0020591D01*
X0035443Y0020706D01*
X0035398Y0020822D01*
X0035358Y0020941D01*
X0035320Y0021060D01*
X0035287Y0021180D01*
X0035258Y0021302D01*
X0035232Y0021424D01*
X0035210Y0021547D01*
X0035193Y0021671D01*
X0035179Y0021795D01*
X0035169Y0021919D01*
X0035163Y0022044D01*
X0035161Y0022169D01*
X0035161Y0011933D02*
X0035163Y0012058D01*
X0035169Y0012183D01*
X0035179Y0012307D01*
X0035193Y0012431D01*
X0035210Y0012555D01*
X0035232Y0012678D01*
X0035258Y0012800D01*
X0035287Y0012922D01*
X0035320Y0013042D01*
X0035358Y0013161D01*
X0035398Y0013280D01*
X0035443Y0013396D01*
X0035491Y0013511D01*
X0035543Y0013625D01*
X0035599Y0013737D01*
X0035658Y0013847D01*
X0035720Y0013955D01*
X0035786Y0014062D01*
X0035855Y0014166D01*
X0035928Y0014267D01*
X0036003Y0014367D01*
X0036082Y0014464D01*
X0036164Y0014558D01*
X0036249Y0014650D01*
X0036336Y0014739D01*
X0036427Y0014825D01*
X0036520Y0014908D01*
X0036616Y0014989D01*
X0036714Y0015066D01*
X0036814Y0015140D01*
X0036917Y0015211D01*
X0037022Y0015278D01*
X0037130Y0015343D01*
X0037239Y0015403D01*
X0037350Y0015461D01*
X0037463Y0015514D01*
X0037577Y0015564D01*
X0037693Y0015611D01*
X0037810Y0015653D01*
X0037929Y0015692D01*
X0038049Y0015728D01*
X0038170Y0015759D01*
X0038292Y0015787D01*
X0038414Y0015810D01*
X0038538Y0015830D01*
X0038662Y0015846D01*
X0038786Y0015858D01*
X0038911Y0015866D01*
X0039036Y0015870D01*
X0039160Y0015870D01*
X0039285Y0015866D01*
X0039410Y0015858D01*
X0039534Y0015846D01*
X0039658Y0015830D01*
X0039782Y0015810D01*
X0039904Y0015787D01*
X0040026Y0015759D01*
X0040147Y0015728D01*
X0040267Y0015692D01*
X0040386Y0015653D01*
X0040503Y0015611D01*
X0040619Y0015564D01*
X0040733Y0015514D01*
X0040846Y0015461D01*
X0040957Y0015403D01*
X0041067Y0015343D01*
X0041174Y0015278D01*
X0041279Y0015211D01*
X0041382Y0015140D01*
X0041482Y0015066D01*
X0041580Y0014989D01*
X0041676Y0014908D01*
X0041769Y0014825D01*
X0041860Y0014739D01*
X0041947Y0014650D01*
X0042032Y0014558D01*
X0042114Y0014464D01*
X0042193Y0014367D01*
X0042268Y0014267D01*
X0042341Y0014166D01*
X0042410Y0014062D01*
X0042476Y0013955D01*
X0042538Y0013847D01*
X0042597Y0013737D01*
X0042653Y0013625D01*
X0042705Y0013511D01*
X0042753Y0013396D01*
X0042798Y0013280D01*
X0042838Y0013161D01*
X0042876Y0013042D01*
X0042909Y0012922D01*
X0042938Y0012800D01*
X0042964Y0012678D01*
X0042986Y0012555D01*
X0043003Y0012431D01*
X0043017Y0012307D01*
X0043027Y0012183D01*
X0043033Y0012058D01*
X0043035Y0011933D01*
X0043033Y0011808D01*
X0043027Y0011683D01*
X0043017Y0011559D01*
X0043003Y0011435D01*
X0042986Y0011311D01*
X0042964Y0011188D01*
X0042938Y0011066D01*
X0042909Y0010944D01*
X0042876Y0010824D01*
X0042838Y0010705D01*
X0042798Y0010586D01*
X0042753Y0010470D01*
X0042705Y0010355D01*
X0042653Y0010241D01*
X0042597Y0010129D01*
X0042538Y0010019D01*
X0042476Y0009911D01*
X0042410Y0009804D01*
X0042341Y0009700D01*
X0042268Y0009599D01*
X0042193Y0009499D01*
X0042114Y0009402D01*
X0042032Y0009308D01*
X0041947Y0009216D01*
X0041860Y0009127D01*
X0041769Y0009041D01*
X0041676Y0008958D01*
X0041580Y0008877D01*
X0041482Y0008800D01*
X0041382Y0008726D01*
X0041279Y0008655D01*
X0041174Y0008588D01*
X0041066Y0008523D01*
X0040957Y0008463D01*
X0040846Y0008405D01*
X0040733Y0008352D01*
X0040619Y0008302D01*
X0040503Y0008255D01*
X0040386Y0008213D01*
X0040267Y0008174D01*
X0040147Y0008138D01*
X0040026Y0008107D01*
X0039904Y0008079D01*
X0039782Y0008056D01*
X0039658Y0008036D01*
X0039534Y0008020D01*
X0039410Y0008008D01*
X0039285Y0008000D01*
X0039160Y0007996D01*
X0039036Y0007996D01*
X0038911Y0008000D01*
X0038786Y0008008D01*
X0038662Y0008020D01*
X0038538Y0008036D01*
X0038414Y0008056D01*
X0038292Y0008079D01*
X0038170Y0008107D01*
X0038049Y0008138D01*
X0037929Y0008174D01*
X0037810Y0008213D01*
X0037693Y0008255D01*
X0037577Y0008302D01*
X0037463Y0008352D01*
X0037350Y0008405D01*
X0037239Y0008463D01*
X0037129Y0008523D01*
X0037022Y0008588D01*
X0036917Y0008655D01*
X0036814Y0008726D01*
X0036714Y0008800D01*
X0036616Y0008877D01*
X0036520Y0008958D01*
X0036427Y0009041D01*
X0036336Y0009127D01*
X0036249Y0009216D01*
X0036164Y0009308D01*
X0036082Y0009402D01*
X0036003Y0009499D01*
X0035928Y0009599D01*
X0035855Y0009700D01*
X0035786Y0009804D01*
X0035720Y0009911D01*
X0035658Y0010019D01*
X0035599Y0010129D01*
X0035543Y0010241D01*
X0035491Y0010355D01*
X0035443Y0010470D01*
X0035398Y0010586D01*
X0035358Y0010705D01*
X0035320Y0010824D01*
X0035287Y0010944D01*
X0035258Y0011066D01*
X0035232Y0011188D01*
X0035210Y0011311D01*
X0035193Y0011435D01*
X0035179Y0011559D01*
X0035169Y0011683D01*
X0035163Y0011808D01*
X0035161Y0011933D01*
X0062524Y0170988D02*
X0062526Y0171113D01*
X0062532Y0171238D01*
X0062542Y0171362D01*
X0062556Y0171486D01*
X0062573Y0171610D01*
X0062595Y0171733D01*
X0062621Y0171855D01*
X0062650Y0171977D01*
X0062683Y0172097D01*
X0062721Y0172216D01*
X0062761Y0172335D01*
X0062806Y0172451D01*
X0062854Y0172566D01*
X0062906Y0172680D01*
X0062962Y0172792D01*
X0063021Y0172902D01*
X0063083Y0173010D01*
X0063149Y0173117D01*
X0063218Y0173221D01*
X0063291Y0173322D01*
X0063366Y0173422D01*
X0063445Y0173519D01*
X0063527Y0173613D01*
X0063612Y0173705D01*
X0063699Y0173794D01*
X0063790Y0173880D01*
X0063883Y0173963D01*
X0063979Y0174044D01*
X0064077Y0174121D01*
X0064177Y0174195D01*
X0064280Y0174266D01*
X0064385Y0174333D01*
X0064493Y0174398D01*
X0064602Y0174458D01*
X0064713Y0174516D01*
X0064826Y0174569D01*
X0064940Y0174619D01*
X0065056Y0174666D01*
X0065173Y0174708D01*
X0065292Y0174747D01*
X0065412Y0174783D01*
X0065533Y0174814D01*
X0065655Y0174842D01*
X0065777Y0174865D01*
X0065901Y0174885D01*
X0066025Y0174901D01*
X0066149Y0174913D01*
X0066274Y0174921D01*
X0066399Y0174925D01*
X0066523Y0174925D01*
X0066648Y0174921D01*
X0066773Y0174913D01*
X0066897Y0174901D01*
X0067021Y0174885D01*
X0067145Y0174865D01*
X0067267Y0174842D01*
X0067389Y0174814D01*
X0067510Y0174783D01*
X0067630Y0174747D01*
X0067749Y0174708D01*
X0067866Y0174666D01*
X0067982Y0174619D01*
X0068096Y0174569D01*
X0068209Y0174516D01*
X0068320Y0174458D01*
X0068430Y0174398D01*
X0068537Y0174333D01*
X0068642Y0174266D01*
X0068745Y0174195D01*
X0068845Y0174121D01*
X0068943Y0174044D01*
X0069039Y0173963D01*
X0069132Y0173880D01*
X0069223Y0173794D01*
X0069310Y0173705D01*
X0069395Y0173613D01*
X0069477Y0173519D01*
X0069556Y0173422D01*
X0069631Y0173322D01*
X0069704Y0173221D01*
X0069773Y0173117D01*
X0069839Y0173010D01*
X0069901Y0172902D01*
X0069960Y0172792D01*
X0070016Y0172680D01*
X0070068Y0172566D01*
X0070116Y0172451D01*
X0070161Y0172335D01*
X0070201Y0172216D01*
X0070239Y0172097D01*
X0070272Y0171977D01*
X0070301Y0171855D01*
X0070327Y0171733D01*
X0070349Y0171610D01*
X0070366Y0171486D01*
X0070380Y0171362D01*
X0070390Y0171238D01*
X0070396Y0171113D01*
X0070398Y0170988D01*
X0070396Y0170863D01*
X0070390Y0170738D01*
X0070380Y0170614D01*
X0070366Y0170490D01*
X0070349Y0170366D01*
X0070327Y0170243D01*
X0070301Y0170121D01*
X0070272Y0169999D01*
X0070239Y0169879D01*
X0070201Y0169760D01*
X0070161Y0169641D01*
X0070116Y0169525D01*
X0070068Y0169410D01*
X0070016Y0169296D01*
X0069960Y0169184D01*
X0069901Y0169074D01*
X0069839Y0168966D01*
X0069773Y0168859D01*
X0069704Y0168755D01*
X0069631Y0168654D01*
X0069556Y0168554D01*
X0069477Y0168457D01*
X0069395Y0168363D01*
X0069310Y0168271D01*
X0069223Y0168182D01*
X0069132Y0168096D01*
X0069039Y0168013D01*
X0068943Y0167932D01*
X0068845Y0167855D01*
X0068745Y0167781D01*
X0068642Y0167710D01*
X0068537Y0167643D01*
X0068429Y0167578D01*
X0068320Y0167518D01*
X0068209Y0167460D01*
X0068096Y0167407D01*
X0067982Y0167357D01*
X0067866Y0167310D01*
X0067749Y0167268D01*
X0067630Y0167229D01*
X0067510Y0167193D01*
X0067389Y0167162D01*
X0067267Y0167134D01*
X0067145Y0167111D01*
X0067021Y0167091D01*
X0066897Y0167075D01*
X0066773Y0167063D01*
X0066648Y0167055D01*
X0066523Y0167051D01*
X0066399Y0167051D01*
X0066274Y0167055D01*
X0066149Y0167063D01*
X0066025Y0167075D01*
X0065901Y0167091D01*
X0065777Y0167111D01*
X0065655Y0167134D01*
X0065533Y0167162D01*
X0065412Y0167193D01*
X0065292Y0167229D01*
X0065173Y0167268D01*
X0065056Y0167310D01*
X0064940Y0167357D01*
X0064826Y0167407D01*
X0064713Y0167460D01*
X0064602Y0167518D01*
X0064492Y0167578D01*
X0064385Y0167643D01*
X0064280Y0167710D01*
X0064177Y0167781D01*
X0064077Y0167855D01*
X0063979Y0167932D01*
X0063883Y0168013D01*
X0063790Y0168096D01*
X0063699Y0168182D01*
X0063612Y0168271D01*
X0063527Y0168363D01*
X0063445Y0168457D01*
X0063366Y0168554D01*
X0063291Y0168654D01*
X0063218Y0168755D01*
X0063149Y0168859D01*
X0063083Y0168966D01*
X0063021Y0169074D01*
X0062962Y0169184D01*
X0062906Y0169296D01*
X0062854Y0169410D01*
X0062806Y0169525D01*
X0062761Y0169641D01*
X0062721Y0169760D01*
X0062683Y0169879D01*
X0062650Y0169999D01*
X0062621Y0170121D01*
X0062595Y0170243D01*
X0062573Y0170366D01*
X0062556Y0170490D01*
X0062542Y0170614D01*
X0062532Y0170738D01*
X0062526Y0170863D01*
X0062524Y0170988D01*
X0072760Y0170988D02*
X0072762Y0171113D01*
X0072768Y0171238D01*
X0072778Y0171362D01*
X0072792Y0171486D01*
X0072809Y0171610D01*
X0072831Y0171733D01*
X0072857Y0171855D01*
X0072886Y0171977D01*
X0072919Y0172097D01*
X0072957Y0172216D01*
X0072997Y0172335D01*
X0073042Y0172451D01*
X0073090Y0172566D01*
X0073142Y0172680D01*
X0073198Y0172792D01*
X0073257Y0172902D01*
X0073319Y0173010D01*
X0073385Y0173117D01*
X0073454Y0173221D01*
X0073527Y0173322D01*
X0073602Y0173422D01*
X0073681Y0173519D01*
X0073763Y0173613D01*
X0073848Y0173705D01*
X0073935Y0173794D01*
X0074026Y0173880D01*
X0074119Y0173963D01*
X0074215Y0174044D01*
X0074313Y0174121D01*
X0074413Y0174195D01*
X0074516Y0174266D01*
X0074621Y0174333D01*
X0074729Y0174398D01*
X0074838Y0174458D01*
X0074949Y0174516D01*
X0075062Y0174569D01*
X0075176Y0174619D01*
X0075292Y0174666D01*
X0075409Y0174708D01*
X0075528Y0174747D01*
X0075648Y0174783D01*
X0075769Y0174814D01*
X0075891Y0174842D01*
X0076013Y0174865D01*
X0076137Y0174885D01*
X0076261Y0174901D01*
X0076385Y0174913D01*
X0076510Y0174921D01*
X0076635Y0174925D01*
X0076759Y0174925D01*
X0076884Y0174921D01*
X0077009Y0174913D01*
X0077133Y0174901D01*
X0077257Y0174885D01*
X0077381Y0174865D01*
X0077503Y0174842D01*
X0077625Y0174814D01*
X0077746Y0174783D01*
X0077866Y0174747D01*
X0077985Y0174708D01*
X0078102Y0174666D01*
X0078218Y0174619D01*
X0078332Y0174569D01*
X0078445Y0174516D01*
X0078556Y0174458D01*
X0078666Y0174398D01*
X0078773Y0174333D01*
X0078878Y0174266D01*
X0078981Y0174195D01*
X0079081Y0174121D01*
X0079179Y0174044D01*
X0079275Y0173963D01*
X0079368Y0173880D01*
X0079459Y0173794D01*
X0079546Y0173705D01*
X0079631Y0173613D01*
X0079713Y0173519D01*
X0079792Y0173422D01*
X0079867Y0173322D01*
X0079940Y0173221D01*
X0080009Y0173117D01*
X0080075Y0173010D01*
X0080137Y0172902D01*
X0080196Y0172792D01*
X0080252Y0172680D01*
X0080304Y0172566D01*
X0080352Y0172451D01*
X0080397Y0172335D01*
X0080437Y0172216D01*
X0080475Y0172097D01*
X0080508Y0171977D01*
X0080537Y0171855D01*
X0080563Y0171733D01*
X0080585Y0171610D01*
X0080602Y0171486D01*
X0080616Y0171362D01*
X0080626Y0171238D01*
X0080632Y0171113D01*
X0080634Y0170988D01*
X0080632Y0170863D01*
X0080626Y0170738D01*
X0080616Y0170614D01*
X0080602Y0170490D01*
X0080585Y0170366D01*
X0080563Y0170243D01*
X0080537Y0170121D01*
X0080508Y0169999D01*
X0080475Y0169879D01*
X0080437Y0169760D01*
X0080397Y0169641D01*
X0080352Y0169525D01*
X0080304Y0169410D01*
X0080252Y0169296D01*
X0080196Y0169184D01*
X0080137Y0169074D01*
X0080075Y0168966D01*
X0080009Y0168859D01*
X0079940Y0168755D01*
X0079867Y0168654D01*
X0079792Y0168554D01*
X0079713Y0168457D01*
X0079631Y0168363D01*
X0079546Y0168271D01*
X0079459Y0168182D01*
X0079368Y0168096D01*
X0079275Y0168013D01*
X0079179Y0167932D01*
X0079081Y0167855D01*
X0078981Y0167781D01*
X0078878Y0167710D01*
X0078773Y0167643D01*
X0078665Y0167578D01*
X0078556Y0167518D01*
X0078445Y0167460D01*
X0078332Y0167407D01*
X0078218Y0167357D01*
X0078102Y0167310D01*
X0077985Y0167268D01*
X0077866Y0167229D01*
X0077746Y0167193D01*
X0077625Y0167162D01*
X0077503Y0167134D01*
X0077381Y0167111D01*
X0077257Y0167091D01*
X0077133Y0167075D01*
X0077009Y0167063D01*
X0076884Y0167055D01*
X0076759Y0167051D01*
X0076635Y0167051D01*
X0076510Y0167055D01*
X0076385Y0167063D01*
X0076261Y0167075D01*
X0076137Y0167091D01*
X0076013Y0167111D01*
X0075891Y0167134D01*
X0075769Y0167162D01*
X0075648Y0167193D01*
X0075528Y0167229D01*
X0075409Y0167268D01*
X0075292Y0167310D01*
X0075176Y0167357D01*
X0075062Y0167407D01*
X0074949Y0167460D01*
X0074838Y0167518D01*
X0074728Y0167578D01*
X0074621Y0167643D01*
X0074516Y0167710D01*
X0074413Y0167781D01*
X0074313Y0167855D01*
X0074215Y0167932D01*
X0074119Y0168013D01*
X0074026Y0168096D01*
X0073935Y0168182D01*
X0073848Y0168271D01*
X0073763Y0168363D01*
X0073681Y0168457D01*
X0073602Y0168554D01*
X0073527Y0168654D01*
X0073454Y0168755D01*
X0073385Y0168859D01*
X0073319Y0168966D01*
X0073257Y0169074D01*
X0073198Y0169184D01*
X0073142Y0169296D01*
X0073090Y0169410D01*
X0073042Y0169525D01*
X0072997Y0169641D01*
X0072957Y0169760D01*
X0072919Y0169879D01*
X0072886Y0169999D01*
X0072857Y0170121D01*
X0072831Y0170243D01*
X0072809Y0170366D01*
X0072792Y0170490D01*
X0072778Y0170614D01*
X0072768Y0170738D01*
X0072762Y0170863D01*
X0072760Y0170988D01*
D221*
X0039079Y0017051D03*
D222*
X0039039Y0029713D02*
X0039039Y0034317D01*
X0036737Y0032015D02*
X0041341Y0032015D01*
X0046816Y0032015D02*
X0051420Y0032015D01*
D223*
X0028724Y0093004D02*
X0028057Y0093671D01*
X0028057Y0096340D01*
X0027390Y0095673D02*
X0028724Y0095673D01*
X0025455Y0095006D02*
X0025455Y0094338D01*
X0022786Y0094338D01*
X0022786Y0093671D02*
X0022786Y0095006D01*
X0023453Y0095673D01*
X0024787Y0095673D01*
X0025455Y0095006D01*
X0024787Y0093004D02*
X0023453Y0093004D01*
X0022786Y0093671D01*
X0020851Y0093671D02*
X0020184Y0094338D01*
X0018849Y0094338D01*
X0018182Y0095006D01*
X0018849Y0095673D01*
X0020851Y0095673D01*
X0020851Y0093671D02*
X0020184Y0093004D01*
X0018182Y0093004D01*
X0016247Y0094338D02*
X0013578Y0094338D01*
X0013578Y0093671D02*
X0013578Y0095006D01*
X0014245Y0095673D01*
X0015580Y0095673D01*
X0016247Y0095006D01*
X0016247Y0094338D01*
X0015580Y0093004D02*
X0014245Y0093004D01*
X0013578Y0093671D01*
X0011643Y0093004D02*
X0010308Y0094338D01*
X0010976Y0094338D02*
X0008974Y0094338D01*
X0008974Y0093004D02*
X0008974Y0097007D01*
X0010976Y0097007D01*
X0011643Y0096340D01*
X0011643Y0095006D01*
X0010976Y0094338D01*
X0035144Y0151606D02*
X0037813Y0151606D01*
X0038480Y0152274D01*
X0038480Y0153608D01*
X0037813Y0154275D01*
X0036479Y0154275D01*
X0036479Y0152941D01*
X0035144Y0154275D02*
X0034477Y0153608D01*
X0034477Y0152274D01*
X0035144Y0151606D01*
X0034477Y0156210D02*
X0038480Y0158879D01*
X0034477Y0158879D01*
X0034477Y0160814D02*
X0034477Y0162816D01*
X0035144Y0163483D01*
X0037813Y0163483D01*
X0038480Y0162816D01*
X0038480Y0160814D01*
X0034477Y0160814D01*
X0034477Y0156210D02*
X0038480Y0156210D01*
X0044477Y0156877D02*
X0045144Y0156210D01*
X0047813Y0156210D01*
X0048480Y0156877D01*
X0048480Y0158212D01*
X0047813Y0158879D01*
X0048480Y0160814D02*
X0048480Y0163483D01*
X0048480Y0160814D02*
X0044477Y0160814D01*
X0045144Y0158879D02*
X0044477Y0158212D01*
X0044477Y0156877D01*
X0045144Y0154275D02*
X0044477Y0153608D01*
X0044477Y0152274D01*
X0045144Y0151606D01*
X0045811Y0151606D01*
X0046479Y0152274D01*
X0046479Y0153608D01*
X0047146Y0154275D01*
X0047813Y0154275D01*
X0048480Y0153608D01*
X0048480Y0152274D01*
X0047813Y0151606D01*
X0054477Y0152274D02*
X0055144Y0151606D01*
X0055811Y0151606D01*
X0056479Y0152274D01*
X0056479Y0153608D01*
X0057146Y0154275D01*
X0057813Y0154275D01*
X0058480Y0153608D01*
X0058480Y0152274D01*
X0057813Y0151606D01*
X0055144Y0154275D02*
X0054477Y0153608D01*
X0054477Y0152274D01*
X0054477Y0156210D02*
X0054477Y0158212D01*
X0055144Y0158879D01*
X0057813Y0158879D01*
X0058480Y0158212D01*
X0058480Y0156210D01*
X0054477Y0156210D01*
X0055811Y0160814D02*
X0054477Y0162149D01*
X0055811Y0163483D01*
X0058480Y0163483D01*
X0056479Y0163483D02*
X0056479Y0160814D01*
X0055811Y0160814D02*
X0058480Y0160814D01*
X0064477Y0161481D02*
X0065144Y0160814D01*
X0067813Y0160814D01*
X0068480Y0161481D01*
X0068480Y0162816D01*
X0067813Y0163483D01*
X0065144Y0163483D02*
X0064477Y0162816D01*
X0064477Y0161481D01*
X0065144Y0158879D02*
X0064477Y0158212D01*
X0064477Y0156877D01*
X0065144Y0156210D01*
X0067813Y0156210D01*
X0068480Y0156877D01*
X0068480Y0158212D01*
X0067813Y0158879D01*
X0067146Y0154275D02*
X0064477Y0154275D01*
X0064477Y0151606D02*
X0067146Y0151606D01*
X0068480Y0152941D01*
X0067146Y0154275D01*
D224*
X0071579Y0170969D03*
D225*
X0102752Y0169901D02*
X0102752Y0168099D01*
X0102752Y0169000D02*
X0105455Y0169000D01*
X0105004Y0166954D02*
X0105455Y0166504D01*
X0105455Y0165603D01*
X0105004Y0165152D01*
X0104104Y0165603D02*
X0104104Y0166504D01*
X0104554Y0166954D01*
X0105004Y0166954D01*
X0104104Y0165603D02*
X0103653Y0165152D01*
X0103203Y0165152D01*
X0102752Y0165603D01*
X0102752Y0166504D01*
X0103203Y0166954D01*
X0103203Y0164007D02*
X0104104Y0164007D01*
X0104554Y0163557D01*
X0104554Y0162206D01*
X0104554Y0163107D02*
X0105455Y0164007D01*
X0105455Y0162206D02*
X0102752Y0162206D01*
X0102752Y0163557D01*
X0103203Y0164007D01*
X0112352Y0163557D02*
X0112352Y0162656D01*
X0112803Y0162206D01*
X0113253Y0162206D01*
X0113704Y0162656D01*
X0113704Y0163557D01*
X0114154Y0164007D01*
X0114604Y0164007D01*
X0115055Y0163557D01*
X0115055Y0162656D01*
X0114604Y0162206D01*
X0112803Y0164007D02*
X0112352Y0163557D01*
X0112803Y0165152D02*
X0112352Y0165603D01*
X0112352Y0166504D01*
X0112803Y0166954D01*
X0112352Y0168099D02*
X0115055Y0168099D01*
X0114154Y0168099D02*
X0112352Y0169901D01*
X0113704Y0168549D02*
X0115055Y0169901D01*
X0114604Y0166954D02*
X0115055Y0166504D01*
X0115055Y0165603D01*
X0114604Y0165152D01*
X0112803Y0165152D01*
X0121952Y0165152D02*
X0121952Y0166053D01*
X0121952Y0165603D02*
X0124655Y0165603D01*
X0124655Y0166053D02*
X0124655Y0165152D01*
X0124655Y0164007D02*
X0121952Y0164007D01*
X0122853Y0163107D01*
X0121952Y0162206D01*
X0124655Y0162206D01*
X0124204Y0167117D02*
X0124655Y0167567D01*
X0124655Y0168468D01*
X0124204Y0168918D01*
X0123754Y0168918D01*
X0123304Y0168468D01*
X0123304Y0167567D01*
X0122853Y0167117D01*
X0122403Y0167117D01*
X0121952Y0167567D01*
X0121952Y0168468D01*
X0122403Y0168918D01*
X0122403Y0170063D02*
X0124204Y0170063D01*
X0124655Y0170514D01*
X0124655Y0171414D01*
X0124204Y0171865D01*
X0122403Y0171865D01*
X0121952Y0171414D01*
X0121952Y0170514D01*
X0122403Y0170063D01*
X0122403Y0142337D02*
X0121952Y0141887D01*
X0121952Y0140986D01*
X0122403Y0140536D01*
X0124204Y0140536D01*
X0124655Y0140986D01*
X0124655Y0141887D01*
X0124204Y0142337D01*
X0124204Y0139391D02*
X0124655Y0138940D01*
X0124655Y0138040D01*
X0124204Y0137589D01*
X0122403Y0137589D01*
X0121952Y0138040D01*
X0121952Y0138940D01*
X0122403Y0139391D01*
X0121952Y0136444D02*
X0123754Y0136444D01*
X0124655Y0135543D01*
X0123754Y0134643D01*
X0121952Y0134643D01*
X0115055Y0134480D02*
X0112352Y0134480D01*
X0113253Y0133579D01*
X0112352Y0132678D01*
X0115055Y0132678D01*
X0114604Y0135625D02*
X0112803Y0135625D01*
X0112352Y0136075D01*
X0112352Y0136976D01*
X0112803Y0137426D01*
X0114604Y0137426D01*
X0115055Y0136976D01*
X0115055Y0136075D01*
X0114604Y0135625D01*
X0114604Y0138571D02*
X0115055Y0139022D01*
X0115055Y0139923D01*
X0114604Y0140373D01*
X0114154Y0140373D01*
X0113704Y0139923D01*
X0113704Y0139022D01*
X0113253Y0138571D01*
X0112803Y0138571D01*
X0112352Y0139022D01*
X0112352Y0139923D01*
X0112803Y0140373D01*
X0112352Y0141518D02*
X0112352Y0142419D01*
X0112352Y0141968D02*
X0115055Y0141968D01*
X0115055Y0141518D02*
X0115055Y0142419D01*
X0105455Y0141887D02*
X0105455Y0140536D01*
X0102752Y0140536D01*
X0102752Y0141887D01*
X0103203Y0142337D01*
X0105004Y0142337D01*
X0105455Y0141887D01*
X0105455Y0139391D02*
X0102752Y0139391D01*
X0102752Y0137589D02*
X0105455Y0139391D01*
X0105455Y0137589D02*
X0102752Y0137589D01*
X0103203Y0136444D02*
X0102752Y0135994D01*
X0102752Y0135093D01*
X0103203Y0134643D01*
X0105004Y0134643D01*
X0105455Y0135093D01*
X0105455Y0135994D01*
X0105004Y0136444D01*
X0104104Y0136444D01*
X0104104Y0135543D01*
X0102617Y0094413D02*
X0085057Y0094413D01*
X0084999Y0094411D01*
X0084942Y0094405D01*
X0084885Y0094396D01*
X0084829Y0094383D01*
X0084774Y0094366D01*
X0084720Y0094346D01*
X0084668Y0094322D01*
X0084617Y0094295D01*
X0084568Y0094265D01*
X0084521Y0094231D01*
X0084477Y0094195D01*
X0084435Y0094155D01*
X0084395Y0094113D01*
X0084359Y0094069D01*
X0084325Y0094022D01*
X0084295Y0093973D01*
X0084268Y0093922D01*
X0084244Y0093870D01*
X0084224Y0093816D01*
X0084207Y0093761D01*
X0084194Y0093705D01*
X0084185Y0093648D01*
X0084179Y0093591D01*
X0084177Y0093533D01*
X0084177Y0083322D01*
X0084168Y0083251D01*
X0084163Y0083179D01*
X0084162Y0083107D01*
X0084165Y0083036D01*
X0084172Y0082964D01*
X0084182Y0082893D01*
X0084197Y0082823D01*
X0084215Y0082753D01*
X0084237Y0082685D01*
X0084263Y0082618D01*
X0084292Y0082553D01*
X0084325Y0082489D01*
X0084361Y0082427D01*
X0084400Y0082367D01*
X0084443Y0082309D01*
X0084489Y0082254D01*
X0084537Y0082201D01*
X0084589Y0082151D01*
X0084643Y0082104D01*
X0084699Y0082060D01*
X0084758Y0082018D01*
X0084819Y0081981D01*
X0084882Y0081946D01*
X0084947Y0081915D01*
X0085013Y0081888D01*
X0085081Y0081864D01*
X0085150Y0081844D01*
X0085219Y0081827D01*
X0085290Y0081815D01*
X0085291Y0081815D02*
X0102749Y0081815D01*
X0102820Y0081827D01*
X0102889Y0081844D01*
X0102958Y0081864D01*
X0103026Y0081888D01*
X0103092Y0081915D01*
X0103157Y0081946D01*
X0103220Y0081981D01*
X0103281Y0082018D01*
X0103340Y0082060D01*
X0103396Y0082104D01*
X0103450Y0082151D01*
X0103502Y0082201D01*
X0103550Y0082254D01*
X0103596Y0082309D01*
X0103639Y0082367D01*
X0103678Y0082427D01*
X0103714Y0082489D01*
X0103747Y0082553D01*
X0103776Y0082618D01*
X0103802Y0082685D01*
X0103824Y0082753D01*
X0103842Y0082823D01*
X0103857Y0082893D01*
X0103867Y0082964D01*
X0103874Y0083036D01*
X0103877Y0083107D01*
X0103876Y0083179D01*
X0103871Y0083251D01*
X0103862Y0083322D01*
X0103862Y0093169D01*
X0103860Y0093239D01*
X0103854Y0093308D01*
X0103844Y0093378D01*
X0103831Y0093446D01*
X0103813Y0093514D01*
X0103792Y0093580D01*
X0103767Y0093645D01*
X0103739Y0093709D01*
X0103707Y0093771D01*
X0103671Y0093831D01*
X0103632Y0093889D01*
X0103590Y0093945D01*
X0103545Y0093999D01*
X0103497Y0094049D01*
X0103447Y0094097D01*
X0103393Y0094142D01*
X0103337Y0094184D01*
X0103279Y0094223D01*
X0103219Y0094259D01*
X0103157Y0094291D01*
X0103093Y0094319D01*
X0103028Y0094344D01*
X0102962Y0094365D01*
X0102894Y0094383D01*
X0102826Y0094396D01*
X0102756Y0094406D01*
X0102687Y0094412D01*
X0102617Y0094414D01*
X0099531Y0093232D02*
X0088508Y0093232D01*
X0088413Y0093230D01*
X0088318Y0093224D01*
X0088223Y0093215D01*
X0088129Y0093201D01*
X0088036Y0093184D01*
X0087943Y0093163D01*
X0087851Y0093139D01*
X0087760Y0093110D01*
X0087670Y0093079D01*
X0087582Y0093043D01*
X0087495Y0093004D01*
X0087410Y0092961D01*
X0087327Y0092916D01*
X0087246Y0092866D01*
X0087166Y0092814D01*
X0087089Y0092758D01*
X0087014Y0092700D01*
X0086942Y0092638D01*
X0086872Y0092573D01*
X0086805Y0092506D01*
X0086740Y0092436D01*
X0086678Y0092364D01*
X0086620Y0092289D01*
X0086564Y0092212D01*
X0086512Y0092132D01*
X0086462Y0092051D01*
X0086417Y0091968D01*
X0086374Y0091883D01*
X0086335Y0091796D01*
X0086299Y0091708D01*
X0086268Y0091618D01*
X0086239Y0091527D01*
X0086215Y0091435D01*
X0086194Y0091342D01*
X0086177Y0091249D01*
X0086163Y0091155D01*
X0086154Y0091060D01*
X0086148Y0090965D01*
X0086146Y0090870D01*
X0086146Y0085358D01*
X0086155Y0085260D01*
X0086168Y0085163D01*
X0086185Y0085066D01*
X0086206Y0084970D01*
X0086230Y0084874D01*
X0086258Y0084780D01*
X0086289Y0084687D01*
X0086324Y0084595D01*
X0086363Y0084505D01*
X0086405Y0084416D01*
X0086450Y0084328D01*
X0086499Y0084243D01*
X0086551Y0084159D01*
X0086606Y0084078D01*
X0086664Y0083999D01*
X0086725Y0083921D01*
X0086789Y0083847D01*
X0086856Y0083775D01*
X0086925Y0083705D01*
X0086997Y0083638D01*
X0087072Y0083574D01*
X0087149Y0083513D01*
X0087228Y0083455D01*
X0087310Y0083400D01*
X0087394Y0083348D01*
X0087479Y0083300D01*
X0087566Y0083254D01*
X0087655Y0083212D01*
X0087746Y0083174D01*
X0087838Y0083139D01*
X0087931Y0083108D01*
X0088025Y0083080D01*
X0088120Y0083055D01*
X0088217Y0083035D01*
X0088314Y0083018D01*
X0088411Y0083005D01*
X0088509Y0082996D01*
X0088607Y0082990D01*
X0088705Y0082988D01*
X0088804Y0082990D01*
X0088902Y0082996D01*
X0099531Y0082996D01*
X0099623Y0082990D01*
X0099715Y0082987D01*
X0099808Y0082988D01*
X0099900Y0082994D01*
X0099992Y0083003D01*
X0100083Y0083016D01*
X0100174Y0083033D01*
X0100264Y0083054D01*
X0100353Y0083079D01*
X0100440Y0083107D01*
X0100527Y0083139D01*
X0100612Y0083175D01*
X0100696Y0083214D01*
X0100777Y0083257D01*
X0100857Y0083303D01*
X0100935Y0083353D01*
X0101011Y0083406D01*
X0101084Y0083462D01*
X0101155Y0083521D01*
X0101223Y0083583D01*
X0101289Y0083648D01*
X0101352Y0083715D01*
X0101412Y0083786D01*
X0101468Y0083858D01*
X0101522Y0083933D01*
X0101573Y0084011D01*
X0101620Y0084090D01*
X0101664Y0084171D01*
X0101704Y0084254D01*
X0101741Y0084339D01*
X0101774Y0084425D01*
X0101803Y0084512D01*
X0101829Y0084601D01*
X0101851Y0084691D01*
X0101869Y0084781D01*
X0101883Y0084872D01*
X0101893Y0084964D01*
X0101894Y0084965D02*
X0101894Y0090476D01*
X0101893Y0090477D02*
X0101899Y0090577D01*
X0101901Y0090678D01*
X0101899Y0090779D01*
X0101893Y0090880D01*
X0101883Y0090980D01*
X0101869Y0091080D01*
X0101851Y0091179D01*
X0101829Y0091277D01*
X0101803Y0091375D01*
X0101774Y0091471D01*
X0101741Y0091566D01*
X0101704Y0091660D01*
X0101663Y0091752D01*
X0101619Y0091843D01*
X0101571Y0091931D01*
X0101520Y0092018D01*
X0101466Y0092103D01*
X0101408Y0092186D01*
X0101347Y0092266D01*
X0101283Y0092344D01*
X0101216Y0092419D01*
X0101146Y0092491D01*
X0101073Y0092561D01*
X0100998Y0092628D01*
X0100920Y0092692D01*
X0100839Y0092752D01*
X0100757Y0092810D01*
X0100672Y0092864D01*
X0100585Y0092915D01*
X0100496Y0092962D01*
X0100405Y0093006D01*
X0100313Y0093046D01*
X0100219Y0093083D01*
X0100123Y0093116D01*
X0100027Y0093145D01*
X0099929Y0093170D01*
X0099831Y0093191D01*
X0099732Y0093209D01*
X0099632Y0093223D01*
X0099532Y0093232D01*
X0035661Y0176541D02*
X0034393Y0176541D01*
X0035027Y0176541D02*
X0035027Y0178443D01*
X0034393Y0177809D01*
X0033451Y0178443D02*
X0032817Y0178443D01*
X0033134Y0178443D02*
X0033134Y0176858D01*
X0032817Y0176541D01*
X0032500Y0176541D01*
X0032183Y0176858D01*
X0008467Y0115222D02*
X0008467Y0113955D01*
X0008467Y0114589D02*
X0006565Y0114589D01*
X0007199Y0113955D01*
X0006882Y0113013D02*
X0006565Y0112696D01*
X0006565Y0112062D01*
X0006882Y0111745D01*
X0007199Y0111745D01*
X0007516Y0112062D01*
X0007516Y0112696D01*
X0007833Y0113013D01*
X0008150Y0113013D01*
X0008467Y0112696D01*
X0008467Y0112062D01*
X0008150Y0111745D01*
D226*
X0087199Y0160633D02*
X0087199Y0163235D01*
X0088500Y0163235D01*
X0088934Y0162802D01*
X0088934Y0161934D01*
X0088500Y0161500D01*
X0087199Y0161500D01*
X0090145Y0161067D02*
X0090579Y0160633D01*
X0091447Y0160633D01*
X0091880Y0161067D01*
X0091880Y0161934D01*
X0091447Y0162368D01*
X0090579Y0162368D01*
X0090145Y0161934D01*
X0090145Y0161067D01*
X0093092Y0161067D02*
X0093526Y0160633D01*
X0093959Y0161067D01*
X0094393Y0160633D01*
X0094827Y0161067D01*
X0094827Y0162368D01*
X0096038Y0161934D02*
X0096472Y0162368D01*
X0097340Y0162368D01*
X0097773Y0161934D01*
X0097773Y0161500D01*
X0096038Y0161500D01*
X0096038Y0161067D02*
X0096038Y0161934D01*
X0096038Y0161067D02*
X0096472Y0160633D01*
X0097340Y0160633D01*
X0098985Y0160633D02*
X0098985Y0162368D01*
X0099852Y0162368D02*
X0100286Y0162368D01*
X0099852Y0162368D02*
X0098985Y0161500D01*
X0093092Y0161067D02*
X0093092Y0162368D01*
D227*
X0081933Y0168291D02*
X0081933Y0173291D01*
X0079433Y0175791D01*
X0074433Y0175791D01*
X0071933Y0173291D01*
X0069433Y0175791D01*
X0064433Y0175791D01*
X0061933Y0173291D01*
X0059433Y0175791D01*
X0054433Y0175791D01*
X0051933Y0173291D01*
X0049433Y0175791D01*
X0044433Y0175791D01*
X0041933Y0173291D01*
X0039433Y0175791D01*
X0034433Y0175791D01*
X0031933Y0173291D01*
X0031933Y0168291D01*
X0034433Y0165791D01*
X0039433Y0165791D01*
X0041933Y0168291D01*
X0044433Y0165791D01*
X0049433Y0165791D01*
X0051933Y0168291D01*
X0054433Y0165791D01*
X0059433Y0165791D01*
X0061933Y0168291D01*
X0064433Y0165791D01*
X0069433Y0165791D01*
X0071933Y0168291D01*
X0074433Y0165791D01*
X0079433Y0165791D01*
X0081933Y0168291D01*
X0070378Y0137346D02*
X0070378Y0111146D01*
X0071776Y0109748D01*
X0097976Y0109748D01*
X0097976Y0137346D01*
X0070378Y0137346D01*
X0069077Y0109147D02*
X0069079Y0109196D01*
X0069085Y0109244D01*
X0069095Y0109292D01*
X0069109Y0109339D01*
X0069126Y0109385D01*
X0069147Y0109429D01*
X0069172Y0109471D01*
X0069200Y0109511D01*
X0069232Y0109549D01*
X0069266Y0109584D01*
X0069303Y0109616D01*
X0069342Y0109645D01*
X0069384Y0109671D01*
X0069428Y0109693D01*
X0069473Y0109711D01*
X0069520Y0109726D01*
X0069567Y0109737D01*
X0069616Y0109744D01*
X0069665Y0109747D01*
X0069714Y0109746D01*
X0069762Y0109741D01*
X0069811Y0109732D01*
X0069858Y0109719D01*
X0069904Y0109702D01*
X0069948Y0109682D01*
X0069991Y0109658D01*
X0070032Y0109631D01*
X0070070Y0109600D01*
X0070106Y0109567D01*
X0070138Y0109531D01*
X0070168Y0109492D01*
X0070195Y0109451D01*
X0070218Y0109407D01*
X0070237Y0109362D01*
X0070253Y0109316D01*
X0070265Y0109269D01*
X0070273Y0109220D01*
X0070277Y0109171D01*
X0070277Y0109123D01*
X0070273Y0109074D01*
X0070265Y0109025D01*
X0070253Y0108978D01*
X0070237Y0108932D01*
X0070218Y0108887D01*
X0070195Y0108843D01*
X0070168Y0108802D01*
X0070138Y0108763D01*
X0070106Y0108727D01*
X0070070Y0108694D01*
X0070032Y0108663D01*
X0069991Y0108636D01*
X0069948Y0108612D01*
X0069904Y0108592D01*
X0069858Y0108575D01*
X0069811Y0108562D01*
X0069762Y0108553D01*
X0069714Y0108548D01*
X0069665Y0108547D01*
X0069616Y0108550D01*
X0069567Y0108557D01*
X0069520Y0108568D01*
X0069473Y0108583D01*
X0069428Y0108601D01*
X0069384Y0108623D01*
X0069342Y0108649D01*
X0069303Y0108678D01*
X0069266Y0108710D01*
X0069232Y0108745D01*
X0069200Y0108783D01*
X0069172Y0108823D01*
X0069147Y0108865D01*
X0069126Y0108909D01*
X0069109Y0108955D01*
X0069095Y0109002D01*
X0069085Y0109050D01*
X0069079Y0109098D01*
X0069077Y0109147D01*
X0029217Y0107642D02*
X0029217Y0119768D01*
X0024098Y0123705D02*
X0014335Y0123705D01*
X0009217Y0119768D02*
X0009217Y0107642D01*
X0014217Y0103705D02*
X0024098Y0103705D01*
X0014217Y0113705D02*
X0014219Y0113846D01*
X0014225Y0113987D01*
X0014235Y0114127D01*
X0014249Y0114267D01*
X0014267Y0114407D01*
X0014288Y0114546D01*
X0014314Y0114685D01*
X0014343Y0114823D01*
X0014377Y0114959D01*
X0014414Y0115095D01*
X0014455Y0115230D01*
X0014500Y0115364D01*
X0014549Y0115496D01*
X0014601Y0115627D01*
X0014657Y0115756D01*
X0014717Y0115883D01*
X0014780Y0116009D01*
X0014846Y0116133D01*
X0014917Y0116256D01*
X0014990Y0116376D01*
X0015067Y0116494D01*
X0015147Y0116610D01*
X0015231Y0116723D01*
X0015317Y0116834D01*
X0015407Y0116943D01*
X0015500Y0117049D01*
X0015595Y0117152D01*
X0015694Y0117253D01*
X0015795Y0117351D01*
X0015899Y0117446D01*
X0016006Y0117538D01*
X0016115Y0117627D01*
X0016227Y0117712D01*
X0016341Y0117795D01*
X0016457Y0117875D01*
X0016576Y0117951D01*
X0016697Y0118023D01*
X0016819Y0118093D01*
X0016944Y0118158D01*
X0017070Y0118221D01*
X0017198Y0118279D01*
X0017328Y0118334D01*
X0017459Y0118386D01*
X0017592Y0118433D01*
X0017726Y0118477D01*
X0017861Y0118518D01*
X0017997Y0118554D01*
X0018134Y0118586D01*
X0018272Y0118615D01*
X0018410Y0118640D01*
X0018550Y0118660D01*
X0018690Y0118677D01*
X0018830Y0118690D01*
X0018971Y0118699D01*
X0019111Y0118704D01*
X0019252Y0118705D01*
X0019393Y0118702D01*
X0019534Y0118695D01*
X0019674Y0118684D01*
X0019814Y0118669D01*
X0019954Y0118650D01*
X0020093Y0118628D01*
X0020231Y0118601D01*
X0020369Y0118571D01*
X0020505Y0118536D01*
X0020641Y0118498D01*
X0020775Y0118456D01*
X0020909Y0118410D01*
X0021041Y0118361D01*
X0021171Y0118307D01*
X0021300Y0118250D01*
X0021427Y0118190D01*
X0021553Y0118126D01*
X0021676Y0118058D01*
X0021798Y0117987D01*
X0021918Y0117913D01*
X0022035Y0117835D01*
X0022150Y0117754D01*
X0022263Y0117670D01*
X0022374Y0117583D01*
X0022482Y0117492D01*
X0022587Y0117399D01*
X0022690Y0117302D01*
X0022790Y0117203D01*
X0022887Y0117101D01*
X0022981Y0116996D01*
X0023072Y0116889D01*
X0023160Y0116779D01*
X0023245Y0116667D01*
X0023327Y0116552D01*
X0023406Y0116435D01*
X0023481Y0116316D01*
X0023553Y0116195D01*
X0023621Y0116072D01*
X0023686Y0115947D01*
X0023748Y0115820D01*
X0023805Y0115691D01*
X0023860Y0115561D01*
X0023910Y0115430D01*
X0023957Y0115297D01*
X0024000Y0115163D01*
X0024039Y0115027D01*
X0024074Y0114891D01*
X0024106Y0114754D01*
X0024133Y0114616D01*
X0024157Y0114477D01*
X0024177Y0114337D01*
X0024193Y0114197D01*
X0024205Y0114057D01*
X0024213Y0113916D01*
X0024217Y0113775D01*
X0024217Y0113635D01*
X0024213Y0113494D01*
X0024205Y0113353D01*
X0024193Y0113213D01*
X0024177Y0113073D01*
X0024157Y0112933D01*
X0024133Y0112794D01*
X0024106Y0112656D01*
X0024074Y0112519D01*
X0024039Y0112383D01*
X0024000Y0112247D01*
X0023957Y0112113D01*
X0023910Y0111980D01*
X0023860Y0111849D01*
X0023805Y0111719D01*
X0023748Y0111590D01*
X0023686Y0111463D01*
X0023621Y0111338D01*
X0023553Y0111215D01*
X0023481Y0111094D01*
X0023406Y0110975D01*
X0023327Y0110858D01*
X0023245Y0110743D01*
X0023160Y0110631D01*
X0023072Y0110521D01*
X0022981Y0110414D01*
X0022887Y0110309D01*
X0022790Y0110207D01*
X0022690Y0110108D01*
X0022587Y0110011D01*
X0022482Y0109918D01*
X0022374Y0109827D01*
X0022263Y0109740D01*
X0022150Y0109656D01*
X0022035Y0109575D01*
X0021918Y0109497D01*
X0021798Y0109423D01*
X0021676Y0109352D01*
X0021553Y0109284D01*
X0021427Y0109220D01*
X0021300Y0109160D01*
X0021171Y0109103D01*
X0021041Y0109049D01*
X0020909Y0109000D01*
X0020775Y0108954D01*
X0020641Y0108912D01*
X0020505Y0108874D01*
X0020369Y0108839D01*
X0020231Y0108809D01*
X0020093Y0108782D01*
X0019954Y0108760D01*
X0019814Y0108741D01*
X0019674Y0108726D01*
X0019534Y0108715D01*
X0019393Y0108708D01*
X0019252Y0108705D01*
X0019111Y0108706D01*
X0018971Y0108711D01*
X0018830Y0108720D01*
X0018690Y0108733D01*
X0018550Y0108750D01*
X0018410Y0108770D01*
X0018272Y0108795D01*
X0018134Y0108824D01*
X0017997Y0108856D01*
X0017861Y0108892D01*
X0017726Y0108933D01*
X0017592Y0108977D01*
X0017459Y0109024D01*
X0017328Y0109076D01*
X0017198Y0109131D01*
X0017070Y0109189D01*
X0016944Y0109252D01*
X0016819Y0109317D01*
X0016697Y0109387D01*
X0016576Y0109459D01*
X0016457Y0109535D01*
X0016341Y0109615D01*
X0016227Y0109698D01*
X0016115Y0109783D01*
X0016006Y0109872D01*
X0015899Y0109964D01*
X0015795Y0110059D01*
X0015694Y0110157D01*
X0015595Y0110258D01*
X0015500Y0110361D01*
X0015407Y0110467D01*
X0015317Y0110576D01*
X0015231Y0110687D01*
X0015147Y0110800D01*
X0015067Y0110916D01*
X0014990Y0111034D01*
X0014917Y0111154D01*
X0014846Y0111277D01*
X0014780Y0111401D01*
X0014717Y0111527D01*
X0014657Y0111654D01*
X0014601Y0111783D01*
X0014549Y0111914D01*
X0014500Y0112046D01*
X0014455Y0112180D01*
X0014414Y0112315D01*
X0014377Y0112451D01*
X0014343Y0112587D01*
X0014314Y0112725D01*
X0014288Y0112864D01*
X0014267Y0113003D01*
X0014249Y0113143D01*
X0014235Y0113283D01*
X0014225Y0113423D01*
X0014219Y0113564D01*
X0014217Y0113705D01*
X0122523Y0160348D02*
X0125223Y0160348D01*
D228*
X0090089Y0167912D03*
X0090089Y0173712D03*
X0044801Y0114616D03*
X0044801Y0108816D03*
D229*
X0097957Y0170398D03*
M02*
