%
M48
M72
T01C0.01969
T02C0.02000
T03C0.04000
T04C0.13000
%
T01
X26717Y84177
X44807Y99925
X52681Y88114
X46933Y125122
X56933Y128272
X76303Y127484
X113705Y129453
T02
X103823Y157248
X103823Y147248
X113823Y147248
X113823Y157248
X123823Y157248
X123823Y147248
T03
X39177Y12248
X39177Y22248
X49177Y22248
X49177Y12248
X59177Y12248
X59177Y22248
X69177Y22248
X69177Y12248
X79177Y12248
X79177Y22248
X89177Y22248
X89177Y12248
X99177Y12248
X99177Y22248
X109177Y22248
X109177Y12248
X119177Y12248
X119177Y22248
X129177Y22248
X129177Y12248
X36933Y170791
X46933Y170791
X56933Y170791
X66933Y170791
X76933Y170791
T04
X13941Y168921
X13941Y16953
M30
