G75*
%MOIN*%
%OFA0B0*%
%FSLAX25Y25*%
%IPPOS*%
%LPD*%
%AMOC8*
5,1,8,0,0,1.08239X$1,22.5*
%
%ADD10C,0.00000*%
D10*
X0001500Y0009374D02*
X0001500Y0174728D01*
X0001502Y0174918D01*
X0001509Y0175108D01*
X0001521Y0175298D01*
X0001537Y0175488D01*
X0001557Y0175677D01*
X0001583Y0175866D01*
X0001612Y0176054D01*
X0001647Y0176241D01*
X0001686Y0176427D01*
X0001729Y0176612D01*
X0001777Y0176797D01*
X0001829Y0176980D01*
X0001885Y0177161D01*
X0001946Y0177341D01*
X0002012Y0177520D01*
X0002081Y0177697D01*
X0002155Y0177873D01*
X0002233Y0178046D01*
X0002316Y0178218D01*
X0002402Y0178387D01*
X0002492Y0178555D01*
X0002587Y0178720D01*
X0002685Y0178883D01*
X0002788Y0179043D01*
X0002894Y0179201D01*
X0003004Y0179356D01*
X0003117Y0179509D01*
X0003235Y0179659D01*
X0003356Y0179805D01*
X0003480Y0179949D01*
X0003608Y0180090D01*
X0003739Y0180228D01*
X0003874Y0180363D01*
X0004012Y0180494D01*
X0004153Y0180622D01*
X0004297Y0180746D01*
X0004443Y0180867D01*
X0004593Y0180985D01*
X0004746Y0181098D01*
X0004901Y0181208D01*
X0005059Y0181314D01*
X0005219Y0181417D01*
X0005382Y0181515D01*
X0005547Y0181610D01*
X0005715Y0181700D01*
X0005884Y0181786D01*
X0006056Y0181869D01*
X0006229Y0181947D01*
X0006405Y0182021D01*
X0006582Y0182090D01*
X0006761Y0182156D01*
X0006941Y0182217D01*
X0007122Y0182273D01*
X0007305Y0182325D01*
X0007490Y0182373D01*
X0007675Y0182416D01*
X0007861Y0182455D01*
X0008048Y0182490D01*
X0008236Y0182519D01*
X0008425Y0182545D01*
X0008614Y0182565D01*
X0008804Y0182581D01*
X0008994Y0182593D01*
X0009184Y0182600D01*
X0009374Y0182602D01*
X0131421Y0182602D01*
X0131611Y0182600D01*
X0131801Y0182593D01*
X0131991Y0182581D01*
X0132181Y0182565D01*
X0132370Y0182545D01*
X0132559Y0182519D01*
X0132747Y0182490D01*
X0132934Y0182455D01*
X0133120Y0182416D01*
X0133305Y0182373D01*
X0133490Y0182325D01*
X0133673Y0182273D01*
X0133854Y0182217D01*
X0134034Y0182156D01*
X0134213Y0182090D01*
X0134390Y0182021D01*
X0134566Y0181947D01*
X0134739Y0181869D01*
X0134911Y0181786D01*
X0135080Y0181700D01*
X0135248Y0181610D01*
X0135413Y0181515D01*
X0135576Y0181417D01*
X0135736Y0181314D01*
X0135894Y0181208D01*
X0136049Y0181098D01*
X0136202Y0180985D01*
X0136352Y0180867D01*
X0136498Y0180746D01*
X0136642Y0180622D01*
X0136783Y0180494D01*
X0136921Y0180363D01*
X0137056Y0180228D01*
X0137187Y0180090D01*
X0137315Y0179949D01*
X0137439Y0179805D01*
X0137560Y0179659D01*
X0137678Y0179509D01*
X0137791Y0179356D01*
X0137901Y0179201D01*
X0138007Y0179043D01*
X0138110Y0178883D01*
X0138208Y0178720D01*
X0138303Y0178555D01*
X0138393Y0178387D01*
X0138479Y0178218D01*
X0138562Y0178046D01*
X0138640Y0177873D01*
X0138714Y0177697D01*
X0138783Y0177520D01*
X0138849Y0177341D01*
X0138910Y0177161D01*
X0138966Y0176980D01*
X0139018Y0176797D01*
X0139066Y0176612D01*
X0139109Y0176427D01*
X0139148Y0176241D01*
X0139183Y0176054D01*
X0139212Y0175866D01*
X0139238Y0175677D01*
X0139258Y0175488D01*
X0139274Y0175298D01*
X0139286Y0175108D01*
X0139293Y0174918D01*
X0139295Y0174728D01*
X0139295Y0009374D01*
X0139293Y0009184D01*
X0139286Y0008994D01*
X0139274Y0008804D01*
X0139258Y0008614D01*
X0139238Y0008425D01*
X0139212Y0008236D01*
X0139183Y0008048D01*
X0139148Y0007861D01*
X0139109Y0007675D01*
X0139066Y0007490D01*
X0139018Y0007305D01*
X0138966Y0007122D01*
X0138910Y0006941D01*
X0138849Y0006761D01*
X0138783Y0006582D01*
X0138714Y0006405D01*
X0138640Y0006229D01*
X0138562Y0006056D01*
X0138479Y0005884D01*
X0138393Y0005715D01*
X0138303Y0005547D01*
X0138208Y0005382D01*
X0138110Y0005219D01*
X0138007Y0005059D01*
X0137901Y0004901D01*
X0137791Y0004746D01*
X0137678Y0004593D01*
X0137560Y0004443D01*
X0137439Y0004297D01*
X0137315Y0004153D01*
X0137187Y0004012D01*
X0137056Y0003874D01*
X0136921Y0003739D01*
X0136783Y0003608D01*
X0136642Y0003480D01*
X0136498Y0003356D01*
X0136352Y0003235D01*
X0136202Y0003117D01*
X0136049Y0003004D01*
X0135894Y0002894D01*
X0135736Y0002788D01*
X0135576Y0002685D01*
X0135413Y0002587D01*
X0135248Y0002492D01*
X0135080Y0002402D01*
X0134911Y0002316D01*
X0134739Y0002233D01*
X0134566Y0002155D01*
X0134390Y0002081D01*
X0134213Y0002012D01*
X0134034Y0001946D01*
X0133854Y0001885D01*
X0133673Y0001829D01*
X0133490Y0001777D01*
X0133305Y0001729D01*
X0133120Y0001686D01*
X0132934Y0001647D01*
X0132747Y0001612D01*
X0132559Y0001583D01*
X0132370Y0001557D01*
X0132181Y0001537D01*
X0131991Y0001521D01*
X0131801Y0001509D01*
X0131611Y0001502D01*
X0131421Y0001500D01*
X0009374Y0001500D01*
X0009184Y0001502D01*
X0008994Y0001509D01*
X0008804Y0001521D01*
X0008614Y0001537D01*
X0008425Y0001557D01*
X0008236Y0001583D01*
X0008048Y0001612D01*
X0007861Y0001647D01*
X0007675Y0001686D01*
X0007490Y0001729D01*
X0007305Y0001777D01*
X0007122Y0001829D01*
X0006941Y0001885D01*
X0006761Y0001946D01*
X0006582Y0002012D01*
X0006405Y0002081D01*
X0006229Y0002155D01*
X0006056Y0002233D01*
X0005884Y0002316D01*
X0005715Y0002402D01*
X0005547Y0002492D01*
X0005382Y0002587D01*
X0005219Y0002685D01*
X0005059Y0002788D01*
X0004901Y0002894D01*
X0004746Y0003004D01*
X0004593Y0003117D01*
X0004443Y0003235D01*
X0004297Y0003356D01*
X0004153Y0003480D01*
X0004012Y0003608D01*
X0003874Y0003739D01*
X0003739Y0003874D01*
X0003608Y0004012D01*
X0003480Y0004153D01*
X0003356Y0004297D01*
X0003235Y0004443D01*
X0003117Y0004593D01*
X0003004Y0004746D01*
X0002894Y0004901D01*
X0002788Y0005059D01*
X0002685Y0005219D01*
X0002587Y0005382D01*
X0002492Y0005547D01*
X0002402Y0005715D01*
X0002316Y0005884D01*
X0002233Y0006056D01*
X0002155Y0006229D01*
X0002081Y0006405D01*
X0002012Y0006582D01*
X0001946Y0006761D01*
X0001885Y0006941D01*
X0001829Y0007122D01*
X0001777Y0007305D01*
X0001729Y0007490D01*
X0001686Y0007675D01*
X0001647Y0007861D01*
X0001612Y0008048D01*
X0001583Y0008236D01*
X0001557Y0008425D01*
X0001537Y0008614D01*
X0001521Y0008804D01*
X0001509Y0008994D01*
X0001502Y0009184D01*
X0001500Y0009374D01*
X0007441Y0016953D02*
X0007443Y0017114D01*
X0007449Y0017274D01*
X0007459Y0017435D01*
X0007473Y0017595D01*
X0007491Y0017755D01*
X0007512Y0017914D01*
X0007538Y0018073D01*
X0007568Y0018231D01*
X0007601Y0018388D01*
X0007639Y0018545D01*
X0007680Y0018700D01*
X0007725Y0018854D01*
X0007774Y0019007D01*
X0007827Y0019159D01*
X0007883Y0019310D01*
X0007944Y0019459D01*
X0008007Y0019607D01*
X0008075Y0019753D01*
X0008146Y0019897D01*
X0008220Y0020039D01*
X0008298Y0020180D01*
X0008380Y0020318D01*
X0008465Y0020455D01*
X0008553Y0020589D01*
X0008645Y0020721D01*
X0008740Y0020851D01*
X0008838Y0020979D01*
X0008939Y0021104D01*
X0009043Y0021226D01*
X0009150Y0021346D01*
X0009260Y0021463D01*
X0009373Y0021578D01*
X0009489Y0021689D01*
X0009608Y0021798D01*
X0009729Y0021903D01*
X0009853Y0022006D01*
X0009979Y0022106D01*
X0010107Y0022202D01*
X0010238Y0022295D01*
X0010372Y0022385D01*
X0010507Y0022472D01*
X0010645Y0022555D01*
X0010784Y0022635D01*
X0010926Y0022711D01*
X0011069Y0022784D01*
X0011214Y0022853D01*
X0011361Y0022919D01*
X0011509Y0022981D01*
X0011659Y0023039D01*
X0011810Y0023094D01*
X0011963Y0023145D01*
X0012117Y0023192D01*
X0012272Y0023235D01*
X0012428Y0023274D01*
X0012584Y0023310D01*
X0012742Y0023341D01*
X0012900Y0023369D01*
X0013059Y0023393D01*
X0013219Y0023413D01*
X0013379Y0023429D01*
X0013539Y0023441D01*
X0013700Y0023449D01*
X0013861Y0023453D01*
X0014021Y0023453D01*
X0014182Y0023449D01*
X0014343Y0023441D01*
X0014503Y0023429D01*
X0014663Y0023413D01*
X0014823Y0023393D01*
X0014982Y0023369D01*
X0015140Y0023341D01*
X0015298Y0023310D01*
X0015454Y0023274D01*
X0015610Y0023235D01*
X0015765Y0023192D01*
X0015919Y0023145D01*
X0016072Y0023094D01*
X0016223Y0023039D01*
X0016373Y0022981D01*
X0016521Y0022919D01*
X0016668Y0022853D01*
X0016813Y0022784D01*
X0016956Y0022711D01*
X0017098Y0022635D01*
X0017237Y0022555D01*
X0017375Y0022472D01*
X0017510Y0022385D01*
X0017644Y0022295D01*
X0017775Y0022202D01*
X0017903Y0022106D01*
X0018029Y0022006D01*
X0018153Y0021903D01*
X0018274Y0021798D01*
X0018393Y0021689D01*
X0018509Y0021578D01*
X0018622Y0021463D01*
X0018732Y0021346D01*
X0018839Y0021226D01*
X0018943Y0021104D01*
X0019044Y0020979D01*
X0019142Y0020851D01*
X0019237Y0020721D01*
X0019329Y0020589D01*
X0019417Y0020455D01*
X0019502Y0020318D01*
X0019584Y0020180D01*
X0019662Y0020039D01*
X0019736Y0019897D01*
X0019807Y0019753D01*
X0019875Y0019607D01*
X0019938Y0019459D01*
X0019999Y0019310D01*
X0020055Y0019159D01*
X0020108Y0019007D01*
X0020157Y0018854D01*
X0020202Y0018700D01*
X0020243Y0018545D01*
X0020281Y0018388D01*
X0020314Y0018231D01*
X0020344Y0018073D01*
X0020370Y0017914D01*
X0020391Y0017755D01*
X0020409Y0017595D01*
X0020423Y0017435D01*
X0020433Y0017274D01*
X0020439Y0017114D01*
X0020441Y0016953D01*
X0020439Y0016792D01*
X0020433Y0016632D01*
X0020423Y0016471D01*
X0020409Y0016311D01*
X0020391Y0016151D01*
X0020370Y0015992D01*
X0020344Y0015833D01*
X0020314Y0015675D01*
X0020281Y0015518D01*
X0020243Y0015361D01*
X0020202Y0015206D01*
X0020157Y0015052D01*
X0020108Y0014899D01*
X0020055Y0014747D01*
X0019999Y0014596D01*
X0019938Y0014447D01*
X0019875Y0014299D01*
X0019807Y0014153D01*
X0019736Y0014009D01*
X0019662Y0013867D01*
X0019584Y0013726D01*
X0019502Y0013588D01*
X0019417Y0013451D01*
X0019329Y0013317D01*
X0019237Y0013185D01*
X0019142Y0013055D01*
X0019044Y0012927D01*
X0018943Y0012802D01*
X0018839Y0012680D01*
X0018732Y0012560D01*
X0018622Y0012443D01*
X0018509Y0012328D01*
X0018393Y0012217D01*
X0018274Y0012108D01*
X0018153Y0012003D01*
X0018029Y0011900D01*
X0017903Y0011800D01*
X0017775Y0011704D01*
X0017644Y0011611D01*
X0017510Y0011521D01*
X0017375Y0011434D01*
X0017237Y0011351D01*
X0017098Y0011271D01*
X0016956Y0011195D01*
X0016813Y0011122D01*
X0016668Y0011053D01*
X0016521Y0010987D01*
X0016373Y0010925D01*
X0016223Y0010867D01*
X0016072Y0010812D01*
X0015919Y0010761D01*
X0015765Y0010714D01*
X0015610Y0010671D01*
X0015454Y0010632D01*
X0015298Y0010596D01*
X0015140Y0010565D01*
X0014982Y0010537D01*
X0014823Y0010513D01*
X0014663Y0010493D01*
X0014503Y0010477D01*
X0014343Y0010465D01*
X0014182Y0010457D01*
X0014021Y0010453D01*
X0013861Y0010453D01*
X0013700Y0010457D01*
X0013539Y0010465D01*
X0013379Y0010477D01*
X0013219Y0010493D01*
X0013059Y0010513D01*
X0012900Y0010537D01*
X0012742Y0010565D01*
X0012584Y0010596D01*
X0012428Y0010632D01*
X0012272Y0010671D01*
X0012117Y0010714D01*
X0011963Y0010761D01*
X0011810Y0010812D01*
X0011659Y0010867D01*
X0011509Y0010925D01*
X0011361Y0010987D01*
X0011214Y0011053D01*
X0011069Y0011122D01*
X0010926Y0011195D01*
X0010784Y0011271D01*
X0010645Y0011351D01*
X0010507Y0011434D01*
X0010372Y0011521D01*
X0010238Y0011611D01*
X0010107Y0011704D01*
X0009979Y0011800D01*
X0009853Y0011900D01*
X0009729Y0012003D01*
X0009608Y0012108D01*
X0009489Y0012217D01*
X0009373Y0012328D01*
X0009260Y0012443D01*
X0009150Y0012560D01*
X0009043Y0012680D01*
X0008939Y0012802D01*
X0008838Y0012927D01*
X0008740Y0013055D01*
X0008645Y0013185D01*
X0008553Y0013317D01*
X0008465Y0013451D01*
X0008380Y0013588D01*
X0008298Y0013726D01*
X0008220Y0013867D01*
X0008146Y0014009D01*
X0008075Y0014153D01*
X0008007Y0014299D01*
X0007944Y0014447D01*
X0007883Y0014596D01*
X0007827Y0014747D01*
X0007774Y0014899D01*
X0007725Y0015052D01*
X0007680Y0015206D01*
X0007639Y0015361D01*
X0007601Y0015518D01*
X0007568Y0015675D01*
X0007538Y0015833D01*
X0007512Y0015992D01*
X0007491Y0016151D01*
X0007473Y0016311D01*
X0007459Y0016471D01*
X0007449Y0016632D01*
X0007443Y0016792D01*
X0007441Y0016953D01*
X0007441Y0168921D02*
X0007443Y0169082D01*
X0007449Y0169242D01*
X0007459Y0169403D01*
X0007473Y0169563D01*
X0007491Y0169723D01*
X0007512Y0169882D01*
X0007538Y0170041D01*
X0007568Y0170199D01*
X0007601Y0170356D01*
X0007639Y0170513D01*
X0007680Y0170668D01*
X0007725Y0170822D01*
X0007774Y0170975D01*
X0007827Y0171127D01*
X0007883Y0171278D01*
X0007944Y0171427D01*
X0008007Y0171575D01*
X0008075Y0171721D01*
X0008146Y0171865D01*
X0008220Y0172007D01*
X0008298Y0172148D01*
X0008380Y0172286D01*
X0008465Y0172423D01*
X0008553Y0172557D01*
X0008645Y0172689D01*
X0008740Y0172819D01*
X0008838Y0172947D01*
X0008939Y0173072D01*
X0009043Y0173194D01*
X0009150Y0173314D01*
X0009260Y0173431D01*
X0009373Y0173546D01*
X0009489Y0173657D01*
X0009608Y0173766D01*
X0009729Y0173871D01*
X0009853Y0173974D01*
X0009979Y0174074D01*
X0010107Y0174170D01*
X0010238Y0174263D01*
X0010372Y0174353D01*
X0010507Y0174440D01*
X0010645Y0174523D01*
X0010784Y0174603D01*
X0010926Y0174679D01*
X0011069Y0174752D01*
X0011214Y0174821D01*
X0011361Y0174887D01*
X0011509Y0174949D01*
X0011659Y0175007D01*
X0011810Y0175062D01*
X0011963Y0175113D01*
X0012117Y0175160D01*
X0012272Y0175203D01*
X0012428Y0175242D01*
X0012584Y0175278D01*
X0012742Y0175309D01*
X0012900Y0175337D01*
X0013059Y0175361D01*
X0013219Y0175381D01*
X0013379Y0175397D01*
X0013539Y0175409D01*
X0013700Y0175417D01*
X0013861Y0175421D01*
X0014021Y0175421D01*
X0014182Y0175417D01*
X0014343Y0175409D01*
X0014503Y0175397D01*
X0014663Y0175381D01*
X0014823Y0175361D01*
X0014982Y0175337D01*
X0015140Y0175309D01*
X0015298Y0175278D01*
X0015454Y0175242D01*
X0015610Y0175203D01*
X0015765Y0175160D01*
X0015919Y0175113D01*
X0016072Y0175062D01*
X0016223Y0175007D01*
X0016373Y0174949D01*
X0016521Y0174887D01*
X0016668Y0174821D01*
X0016813Y0174752D01*
X0016956Y0174679D01*
X0017098Y0174603D01*
X0017237Y0174523D01*
X0017375Y0174440D01*
X0017510Y0174353D01*
X0017644Y0174263D01*
X0017775Y0174170D01*
X0017903Y0174074D01*
X0018029Y0173974D01*
X0018153Y0173871D01*
X0018274Y0173766D01*
X0018393Y0173657D01*
X0018509Y0173546D01*
X0018622Y0173431D01*
X0018732Y0173314D01*
X0018839Y0173194D01*
X0018943Y0173072D01*
X0019044Y0172947D01*
X0019142Y0172819D01*
X0019237Y0172689D01*
X0019329Y0172557D01*
X0019417Y0172423D01*
X0019502Y0172286D01*
X0019584Y0172148D01*
X0019662Y0172007D01*
X0019736Y0171865D01*
X0019807Y0171721D01*
X0019875Y0171575D01*
X0019938Y0171427D01*
X0019999Y0171278D01*
X0020055Y0171127D01*
X0020108Y0170975D01*
X0020157Y0170822D01*
X0020202Y0170668D01*
X0020243Y0170513D01*
X0020281Y0170356D01*
X0020314Y0170199D01*
X0020344Y0170041D01*
X0020370Y0169882D01*
X0020391Y0169723D01*
X0020409Y0169563D01*
X0020423Y0169403D01*
X0020433Y0169242D01*
X0020439Y0169082D01*
X0020441Y0168921D01*
X0020439Y0168760D01*
X0020433Y0168600D01*
X0020423Y0168439D01*
X0020409Y0168279D01*
X0020391Y0168119D01*
X0020370Y0167960D01*
X0020344Y0167801D01*
X0020314Y0167643D01*
X0020281Y0167486D01*
X0020243Y0167329D01*
X0020202Y0167174D01*
X0020157Y0167020D01*
X0020108Y0166867D01*
X0020055Y0166715D01*
X0019999Y0166564D01*
X0019938Y0166415D01*
X0019875Y0166267D01*
X0019807Y0166121D01*
X0019736Y0165977D01*
X0019662Y0165835D01*
X0019584Y0165694D01*
X0019502Y0165556D01*
X0019417Y0165419D01*
X0019329Y0165285D01*
X0019237Y0165153D01*
X0019142Y0165023D01*
X0019044Y0164895D01*
X0018943Y0164770D01*
X0018839Y0164648D01*
X0018732Y0164528D01*
X0018622Y0164411D01*
X0018509Y0164296D01*
X0018393Y0164185D01*
X0018274Y0164076D01*
X0018153Y0163971D01*
X0018029Y0163868D01*
X0017903Y0163768D01*
X0017775Y0163672D01*
X0017644Y0163579D01*
X0017510Y0163489D01*
X0017375Y0163402D01*
X0017237Y0163319D01*
X0017098Y0163239D01*
X0016956Y0163163D01*
X0016813Y0163090D01*
X0016668Y0163021D01*
X0016521Y0162955D01*
X0016373Y0162893D01*
X0016223Y0162835D01*
X0016072Y0162780D01*
X0015919Y0162729D01*
X0015765Y0162682D01*
X0015610Y0162639D01*
X0015454Y0162600D01*
X0015298Y0162564D01*
X0015140Y0162533D01*
X0014982Y0162505D01*
X0014823Y0162481D01*
X0014663Y0162461D01*
X0014503Y0162445D01*
X0014343Y0162433D01*
X0014182Y0162425D01*
X0014021Y0162421D01*
X0013861Y0162421D01*
X0013700Y0162425D01*
X0013539Y0162433D01*
X0013379Y0162445D01*
X0013219Y0162461D01*
X0013059Y0162481D01*
X0012900Y0162505D01*
X0012742Y0162533D01*
X0012584Y0162564D01*
X0012428Y0162600D01*
X0012272Y0162639D01*
X0012117Y0162682D01*
X0011963Y0162729D01*
X0011810Y0162780D01*
X0011659Y0162835D01*
X0011509Y0162893D01*
X0011361Y0162955D01*
X0011214Y0163021D01*
X0011069Y0163090D01*
X0010926Y0163163D01*
X0010784Y0163239D01*
X0010645Y0163319D01*
X0010507Y0163402D01*
X0010372Y0163489D01*
X0010238Y0163579D01*
X0010107Y0163672D01*
X0009979Y0163768D01*
X0009853Y0163868D01*
X0009729Y0163971D01*
X0009608Y0164076D01*
X0009489Y0164185D01*
X0009373Y0164296D01*
X0009260Y0164411D01*
X0009150Y0164528D01*
X0009043Y0164648D01*
X0008939Y0164770D01*
X0008838Y0164895D01*
X0008740Y0165023D01*
X0008645Y0165153D01*
X0008553Y0165285D01*
X0008465Y0165419D01*
X0008380Y0165556D01*
X0008298Y0165694D01*
X0008220Y0165835D01*
X0008146Y0165977D01*
X0008075Y0166121D01*
X0008007Y0166267D01*
X0007944Y0166415D01*
X0007883Y0166564D01*
X0007827Y0166715D01*
X0007774Y0166867D01*
X0007725Y0167020D01*
X0007680Y0167174D01*
X0007639Y0167329D01*
X0007601Y0167486D01*
X0007568Y0167643D01*
X0007538Y0167801D01*
X0007512Y0167960D01*
X0007491Y0168119D01*
X0007473Y0168279D01*
X0007459Y0168439D01*
X0007449Y0168600D01*
X0007443Y0168760D01*
X0007441Y0168921D01*
M02*
